<?xml version="1.0"?>
<!-- Generated by SVGo and Plotinum VG -->
<svg width="1152pt" height="432pt" viewBox="0 0 1152 432"
	xmlns="http://www.w3.org/2000/svg"
	xmlns:xlink="http://www.w3.org/1999/xlink">
<g transform="scale(1, -1) translate(0, -432)">
<path d="M1025,312.19L1025,322.37L1045,322.37L1045,312.19Z" style="fill:#A6CEE3" />
<text x="1048" y="-314.79" transform="scale(1, -1)"
	style="font-family:Liberation Serif;font-variant:normal;font-weight:normal;font-style:normal;font-size:12px;fill:#808080">Gather Only</text>
<path d="M1025,296L1025,306.19L1045,306.19L1045,296Z" style="fill:#1F78B4" />
<text x="1048" y="-298.61" transform="scale(1, -1)"
	style="font-family:Liberation Serif;font-variant:normal;font-weight:normal;font-style:normal;font-size:12px;fill:#808080">Combine (limit 1)</text>
<path d="M1025,279.82L1025,290L1045,290L1045,279.82Z" style="fill:#B2DF8A" />
<text x="1048" y="-282.42" transform="scale(1, -1)"
	style="font-family:Liberation Serif;font-variant:normal;font-weight:normal;font-style:normal;font-size:12px;fill:#808080">Combine (limit 2)</text>
<path d="M1025,263.63L1025,273.82L1045,273.82L1045,263.63Z" style="fill:#33A02C" />
<text x="1048" y="-266.24" transform="scale(1, -1)"
	style="font-family:Liberation Serif;font-variant:normal;font-weight:normal;font-style:normal;font-size:12px;fill:#808080">Combine (limit 3)</text>
<path d="M1025,247.45L1025,257.63L1045,257.63L1045,247.45Z" style="fill:#FB9A99" />
<text x="1048" y="-250.06" transform="scale(1, -1)"
	style="font-family:Liberation Serif;font-variant:normal;font-weight:normal;font-style:normal;font-size:12px;fill:#808080">Combine (limit 4)</text>
<path d="M1025,231.27L1025,241.45L1045,241.45L1045,231.27Z" style="fill:#E31A1C" />
<text x="1048" y="-233.87" transform="scale(1, -1)"
	style="font-family:Liberation Serif;font-variant:normal;font-weight:normal;font-style:normal;font-size:12px;fill:#808080">Combine (limit 8)</text>
<path d="M1025,215.08L1025,225.27L1045,225.27L1045,215.08Z" style="fill:#FDBF6F" />
<text x="1048" y="-217.69" transform="scale(1, -1)"
	style="font-family:Liberation Serif;font-variant:normal;font-weight:normal;font-style:normal;font-size:12px;fill:#808080">Combine (limit 12)</text>
<path d="M1025,198.9L1025,209.08L1045,209.08L1045,198.9Z" style="fill:#FF7F00" />
<text x="1048" y="-201.5" transform="scale(1, -1)"
	style="font-family:Liberation Serif;font-variant:normal;font-weight:normal;font-style:normal;font-size:12px;fill:#808080">Combine (limit 16)</text>
<path d="M1025,182.72L1025,192.9L1045,192.9L1045,182.72Z" style="fill:#CAB2D6" />
<text x="1048" y="-185.32" transform="scale(1, -1)"
	style="font-family:Liberation Serif;font-variant:normal;font-weight:normal;font-style:normal;font-size:12px;fill:#808080">Combine (limit 24)</text>
<path d="M1025,166.53L1025,176.72L1045,176.72L1045,166.53Z" style="fill:#6A3D9A" />
<text x="1048" y="-169.14" transform="scale(1, -1)"
	style="font-family:Liberation Serif;font-variant:normal;font-weight:normal;font-style:normal;font-size:12px;fill:#808080">Combine (unlimited)</text>
<path d="M1028,163.53L1028,327.96L1152,327.96L1152,163.53L1028,163.53" style="fill:none;stroke:#808080" />
<path d="M0,0L1009,0L1009,432L0,432Z" style="fill:#-8000000000000000-8000000000000000-8000000000000000;fill-opacity:0" />
<text x="383.56" y="-422.61" transform="scale(1, -1)"
	style="font-family:Liberation Serif;font-variant:normal;font-weight:normal;font-style:normal;font-size:12px;fill:#808080">Bytes Allocated Per Task Aggregated (Processing)</text>
<text x="411.32" y="-3.9023" transform="scale(1, -1)"
	style="font-family:Liberation Serif;font-variant:normal;font-weight:normal;font-style:normal;font-size:12px;fill:#808080">Aggregation Workload Duration @ Flush Period</text>
<text x="155.37" y="-16.541" transform="scale(1, -1)"
	style="font-family:Liberation Serif;font-variant:normal;font-weight:normal;font-style:normal;font-size:10px;fill:#808080">10µs @ 1ms</text>
<text x="497.81" y="-16.541" transform="scale(1, -1)"
	style="font-family:Liberation Serif;font-variant:normal;font-weight:normal;font-style:normal;font-size:10px;fill:#808080">100µs @ 10ms</text>
<text x="846.74" y="-16.541" transform="scale(1, -1)"
	style="font-family:Liberation Serif;font-variant:normal;font-weight:normal;font-style:normal;font-size:10px;fill:#808080">1ms @ 100ms</text>
<path d="M180.63,24.363L180.63,32.363" style="fill:none;stroke:#808080;stroke-width:0.5" />
<path d="M528.07,24.363L528.07,32.363" style="fill:none;stroke:#808080;stroke-width:0.5" />
<path d="M875.51,24.363L875.51,32.363" style="fill:none;stroke:#808080;stroke-width:0.5" />
<path d="M180.63,32.363L875.51,32.363" style="fill:none;stroke:#808080;stroke-width:0.5" />
<g transform="rotate(90)">
<text x="175.17" y="9.3867" transform="scale(1, -1)"
	style="font-family:Liberation Serif;font-variant:normal;font-weight:normal;font-style:normal;font-size:12px;fill:#808080">Allocated Bytes / Task</text>
</g>
<text x="25.885" y="-37.924" transform="scale(1, -1)"
	style="font-family:Liberation Serif;font-variant:normal;font-weight:normal;font-style:normal;font-size:10px;fill:#808080">0</text>
<text x="15.885" y="-189.59" transform="scale(1, -1)"
	style="font-family:Liberation Serif;font-variant:normal;font-weight:normal;font-style:normal;font-size:10px;fill:#808080">300</text>
<text x="15.885" y="-341.26" transform="scale(1, -1)"
	style="font-family:Liberation Serif;font-variant:normal;font-weight:normal;font-style:normal;font-size:10px;fill:#808080">600</text>
<path d="M33.385,40.209L41.385,40.209" style="fill:none;stroke:#808080;stroke-width:0.5" />
<path d="M33.385,191.88L41.385,191.88" style="fill:none;stroke:#808080;stroke-width:0.5" />
<path d="M33.385,343.54L41.385,343.54" style="fill:none;stroke:#808080;stroke-width:0.5" />
<path d="M37.385,90.764L41.385,90.764" style="fill:none;stroke:#808080;stroke-width:0.5" />
<path d="M37.385,141.32L41.385,141.32" style="fill:none;stroke:#808080;stroke-width:0.5" />
<path d="M37.385,242.43L41.385,242.43" style="fill:none;stroke:#808080;stroke-width:0.5" />
<path d="M37.385,292.99L41.385,292.99" style="fill:none;stroke:#808080;stroke-width:0.5" />
<path d="M37.385,394.1L41.385,394.1" style="fill:none;stroke:#808080;stroke-width:0.5" />
<path d="M41.385,40.209L41.385,418.71" style="fill:none;stroke:#808080;stroke-width:0.5" />
<path d="M47.135,40.209L47.135,160.72L71.135,160.72L71.135,40.209Z" style="fill:#A6CEE3" />
<path d="M59.135,160.7L59.135,160.83" style="fill:none;stroke:#808080;stroke-width:0.56693" />
<path d="M53.135,160.7L65.135,160.7" style="fill:none;stroke:#808080;stroke-width:0.56693" />
<path d="M53.135,160.83L65.135,160.83" style="fill:none;stroke:#808080;stroke-width:0.56693" />
<text x="49.685" y="-188.54" transform="scale(1, -1)"
	style="font-family:Liberation Serif;font-variant:normal;font-weight:normal;font-style:normal;font-size:8.4px;fill:#808080">238.4</text>
<text x="54.201" y="-180.14" transform="scale(1, -1)"
	style="font-family:Liberation Serif;font-variant:normal;font-weight:normal;font-style:normal;font-size:8.4px;fill:#808080">+/-</text>
<text x="53.536" y="-171.74" transform="scale(1, -1)"
	style="font-family:Liberation Serif;font-variant:normal;font-weight:normal;font-style:normal;font-size:8.4px;fill:#808080">0%</text>
<path d="M394.57,40.209L394.57,168.33L418.57,168.33L418.57,40.209Z" style="fill:#A6CEE3" />
<path d="M406.57,168.04L406.57,168.57" style="fill:none;stroke:#808080;stroke-width:0.56693" />
<path d="M400.57,168.04L412.57,168.04" style="fill:none;stroke:#808080;stroke-width:0.56693" />
<path d="M400.57,168.57L412.57,168.57" style="fill:none;stroke:#808080;stroke-width:0.56693" />
<text x="397.12" y="-196.28" transform="scale(1, -1)"
	style="font-family:Liberation Serif;font-variant:normal;font-weight:normal;font-style:normal;font-size:8.4px;fill:#808080">253.4</text>
<text x="401.64" y="-187.88" transform="scale(1, -1)"
	style="font-family:Liberation Serif;font-variant:normal;font-weight:normal;font-style:normal;font-size:8.4px;fill:#808080">+/-</text>
<text x="400.98" y="-179.48" transform="scale(1, -1)"
	style="font-family:Liberation Serif;font-variant:normal;font-weight:normal;font-style:normal;font-size:8.4px;fill:#808080">0%</text>
<path d="M742.01,40.209L742.01,159.89L766.01,159.89L766.01,40.209Z" style="fill:#A6CEE3" />
<path d="M754.01,159.62L754.01,161.54" style="fill:none;stroke:#808080;stroke-width:0.56693" />
<path d="M748.01,159.62L760.01,159.62" style="fill:none;stroke:#808080;stroke-width:0.56693" />
<path d="M748.01,161.54L760.01,161.54" style="fill:none;stroke:#808080;stroke-width:0.56693" />
<text x="744.56" y="-189.26" transform="scale(1, -1)"
	style="font-family:Liberation Serif;font-variant:normal;font-weight:normal;font-style:normal;font-size:8.4px;fill:#808080">236.7</text>
<text x="746.05" y="-180.86" transform="scale(1, -1)"
	style="font-family:Liberation Serif;font-variant:normal;font-weight:normal;font-style:normal;font-size:8.4px;fill:#808080">+1%</text>
<text x="747.02" y="-172.46" transform="scale(1, -1)"
	style="font-family:Liberation Serif;font-variant:normal;font-weight:normal;font-style:normal;font-size:8.4px;fill:#808080">-0%</text>
<path d="M74.135,40.209L74.135,194.26L98.135,194.26L98.135,40.209Z" style="fill:#1F78B4" />
<path d="M86.135,188.32L86.135,195.3" style="fill:none;stroke:#808080;stroke-width:0.56693" />
<path d="M80.135,188.32L92.135,188.32" style="fill:none;stroke:#808080;stroke-width:0.56693" />
<path d="M80.135,195.3L92.135,195.3" style="fill:none;stroke:#808080;stroke-width:0.56693" />
<text x="76.685" y="-223.01" transform="scale(1, -1)"
	style="font-family:Liberation Serif;font-variant:normal;font-weight:normal;font-style:normal;font-size:8.4px;fill:#808080">304.7</text>
<text x="78.167" y="-214.61" transform="scale(1, -1)"
	style="font-family:Liberation Serif;font-variant:normal;font-weight:normal;font-style:normal;font-size:8.4px;fill:#808080">+1%</text>
<text x="79.138" y="-206.21" transform="scale(1, -1)"
	style="font-family:Liberation Serif;font-variant:normal;font-weight:normal;font-style:normal;font-size:8.4px;fill:#808080">-4%</text>
<path d="M421.57,40.209L421.57,198.47L445.57,198.47L445.57,40.209Z" style="fill:#1F78B4" />
<path d="M433.57,197.92L433.57,207.43" style="fill:none;stroke:#808080;stroke-width:0.56693" />
<path d="M427.57,197.92L439.57,197.92" style="fill:none;stroke:#808080;stroke-width:0.56693" />
<path d="M427.57,207.43L439.57,207.43" style="fill:none;stroke:#808080;stroke-width:0.56693" />
<text x="424.12" y="-235.14" transform="scale(1, -1)"
	style="font-family:Liberation Serif;font-variant:normal;font-weight:normal;font-style:normal;font-size:8.4px;fill:#808080">313.1</text>
<text x="425.61" y="-226.74" transform="scale(1, -1)"
	style="font-family:Liberation Serif;font-variant:normal;font-weight:normal;font-style:normal;font-size:8.4px;fill:#808080">+6%</text>
<text x="426.58" y="-218.34" transform="scale(1, -1)"
	style="font-family:Liberation Serif;font-variant:normal;font-weight:normal;font-style:normal;font-size:8.4px;fill:#808080">-0%</text>
<path d="M769.01,40.209L769.01,197.23L793.01,197.23L793.01,40.209Z" style="fill:#1F78B4" />
<path d="M781.01,193L781.01,202.41" style="fill:none;stroke:#808080;stroke-width:0.56693" />
<path d="M775.01,193L787.01,193" style="fill:none;stroke:#808080;stroke-width:0.56693" />
<path d="M775.01,202.41L787.01,202.41" style="fill:none;stroke:#808080;stroke-width:0.56693" />
<text x="771.56" y="-230.13" transform="scale(1, -1)"
	style="font-family:Liberation Serif;font-variant:normal;font-weight:normal;font-style:normal;font-size:8.4px;fill:#808080">310.6</text>
<text x="776.08" y="-221.73" transform="scale(1, -1)"
	style="font-family:Liberation Serif;font-variant:normal;font-weight:normal;font-style:normal;font-size:8.4px;fill:#808080">+/-</text>
<text x="775.42" y="-213.33" transform="scale(1, -1)"
	style="font-family:Liberation Serif;font-variant:normal;font-weight:normal;font-style:normal;font-size:8.4px;fill:#808080">3%</text>
<path d="M101.13,40.209L101.13,181.7L125.13,181.7L125.13,40.209Z" style="fill:#B2DF8A" />
<path d="M113.13,179.61L113.13,183.42" style="fill:none;stroke:#808080;stroke-width:0.56693" />
<path d="M107.13,179.61L119.13,179.61" style="fill:none;stroke:#808080;stroke-width:0.56693" />
<path d="M107.13,183.42L119.13,183.42" style="fill:none;stroke:#808080;stroke-width:0.56693" />
<text x="103.68" y="-211.14" transform="scale(1, -1)"
	style="font-family:Liberation Serif;font-variant:normal;font-weight:normal;font-style:normal;font-size:8.4px;fill:#808080">279.9</text>
<text x="108.2" y="-202.74" transform="scale(1, -1)"
	style="font-family:Liberation Serif;font-variant:normal;font-weight:normal;font-style:normal;font-size:8.4px;fill:#808080">+/-</text>
<text x="107.54" y="-194.34" transform="scale(1, -1)"
	style="font-family:Liberation Serif;font-variant:normal;font-weight:normal;font-style:normal;font-size:8.4px;fill:#808080">1%</text>
<path d="M448.57,40.209L448.57,197.63L472.57,197.63L472.57,40.209Z" style="fill:#B2DF8A" />
<path d="M460.57,191.23L460.57,209.16" style="fill:none;stroke:#808080;stroke-width:0.56693" />
<path d="M454.57,191.23L466.57,191.23" style="fill:none;stroke:#808080;stroke-width:0.56693" />
<path d="M454.57,209.16L466.57,209.16" style="fill:none;stroke:#808080;stroke-width:0.56693" />
<text x="451.28" y="-236.87" transform="scale(1, -1)"
	style="font-family:Liberation Serif;font-variant:normal;font-weight:normal;font-style:normal;font-size:8.4px;fill:#808080">311.4</text>
<text x="452.61" y="-228.47" transform="scale(1, -1)"
	style="font-family:Liberation Serif;font-variant:normal;font-weight:normal;font-style:normal;font-size:8.4px;fill:#808080">+7%</text>
<text x="453.58" y="-220.07" transform="scale(1, -1)"
	style="font-family:Liberation Serif;font-variant:normal;font-weight:normal;font-style:normal;font-size:8.4px;fill:#808080">-4%</text>
<path d="M796.01,40.209L796.01,196.17L820.01,196.17L820.01,40.209Z" style="fill:#B2DF8A" />
<path d="M808.01,191.3L808.01,199.02" style="fill:none;stroke:#808080;stroke-width:0.56693" />
<path d="M802.01,191.3L814.01,191.3" style="fill:none;stroke:#808080;stroke-width:0.56693" />
<path d="M802.01,199.02L814.01,199.02" style="fill:none;stroke:#808080;stroke-width:0.56693" />
<text x="798.56" y="-226.73" transform="scale(1, -1)"
	style="font-family:Liberation Serif;font-variant:normal;font-weight:normal;font-style:normal;font-size:8.4px;fill:#808080">308.5</text>
<text x="800.05" y="-218.33" transform="scale(1, -1)"
	style="font-family:Liberation Serif;font-variant:normal;font-weight:normal;font-style:normal;font-size:8.4px;fill:#808080">+2%</text>
<text x="801.02" y="-209.93" transform="scale(1, -1)"
	style="font-family:Liberation Serif;font-variant:normal;font-weight:normal;font-style:normal;font-size:8.4px;fill:#808080">-3%</text>
<path d="M128.13,40.209L128.13,184.83L152.13,184.83L152.13,40.209Z" style="fill:#33A02C" />
<path d="M140.13,183.45L140.13,185" style="fill:none;stroke:#808080;stroke-width:0.56693" />
<path d="M134.13,183.45L146.13,183.45" style="fill:none;stroke:#808080;stroke-width:0.56693" />
<path d="M134.13,185L146.13,185" style="fill:none;stroke:#808080;stroke-width:0.56693" />
<text x="130.68" y="-212.71" transform="scale(1, -1)"
	style="font-family:Liberation Serif;font-variant:normal;font-weight:normal;font-style:normal;font-size:8.4px;fill:#808080">286.1</text>
<text x="132.17" y="-204.31" transform="scale(1, -1)"
	style="font-family:Liberation Serif;font-variant:normal;font-weight:normal;font-style:normal;font-size:8.4px;fill:#808080">+0%</text>
<text x="133.14" y="-195.91" transform="scale(1, -1)"
	style="font-family:Liberation Serif;font-variant:normal;font-weight:normal;font-style:normal;font-size:8.4px;fill:#808080">-1%</text>
<path d="M475.57,40.209L475.57,194.56L499.57,194.56L499.57,40.209Z" style="fill:#33A02C" />
<path d="M487.57,192.59L487.57,206.1" style="fill:none;stroke:#808080;stroke-width:0.56693" />
<path d="M481.57,192.59L493.57,192.59" style="fill:none;stroke:#808080;stroke-width:0.56693" />
<path d="M481.57,206.1L493.57,206.1" style="fill:none;stroke:#808080;stroke-width:0.56693" />
<text x="478.12" y="-233.82" transform="scale(1, -1)"
	style="font-family:Liberation Serif;font-variant:normal;font-weight:normal;font-style:normal;font-size:8.4px;fill:#808080">305.3</text>
<text x="479.61" y="-225.42" transform="scale(1, -1)"
	style="font-family:Liberation Serif;font-variant:normal;font-weight:normal;font-style:normal;font-size:8.4px;fill:#808080">+7%</text>
<text x="480.58" y="-217.02" transform="scale(1, -1)"
	style="font-family:Liberation Serif;font-variant:normal;font-weight:normal;font-style:normal;font-size:8.4px;fill:#808080">-1%</text>
<path d="M823.01,40.209L823.01,207.47L847.01,207.47L847.01,40.209Z" style="fill:#33A02C" />
<path d="M835.01,194.67L835.01,212.11" style="fill:none;stroke:#808080;stroke-width:0.56693" />
<path d="M829.01,194.67L841.01,194.67" style="fill:none;stroke:#808080;stroke-width:0.56693" />
<path d="M829.01,212.11L841.01,212.11" style="fill:none;stroke:#808080;stroke-width:0.56693" />
<text x="825.56" y="-239.82" transform="scale(1, -1)"
	style="font-family:Liberation Serif;font-variant:normal;font-weight:normal;font-style:normal;font-size:8.4px;fill:#808080">330.8</text>
<text x="827.05" y="-231.42" transform="scale(1, -1)"
	style="font-family:Liberation Serif;font-variant:normal;font-weight:normal;font-style:normal;font-size:8.4px;fill:#808080">+3%</text>
<text x="828.02" y="-223.02" transform="scale(1, -1)"
	style="font-family:Liberation Serif;font-variant:normal;font-weight:normal;font-style:normal;font-size:8.4px;fill:#808080">-8%</text>
<path d="M155.13,40.209L155.13,189.41L179.13,189.41L179.13,40.209Z" style="fill:#FB9A99" />
<path d="M167.13,187.08L167.13,191.13" style="fill:none;stroke:#808080;stroke-width:0.56693" />
<path d="M161.13,187.08L173.13,187.08" style="fill:none;stroke:#808080;stroke-width:0.56693" />
<path d="M161.13,191.13L173.13,191.13" style="fill:none;stroke:#808080;stroke-width:0.56693" />
<text x="157.68" y="-218.85" transform="scale(1, -1)"
	style="font-family:Liberation Serif;font-variant:normal;font-weight:normal;font-style:normal;font-size:8.4px;fill:#808080">295.1</text>
<text x="159.17" y="-210.45" transform="scale(1, -1)"
	style="font-family:Liberation Serif;font-variant:normal;font-weight:normal;font-style:normal;font-size:8.4px;fill:#808080">+1%</text>
<text x="160.14" y="-202.05" transform="scale(1, -1)"
	style="font-family:Liberation Serif;font-variant:normal;font-weight:normal;font-style:normal;font-size:8.4px;fill:#808080">-2%</text>
<path d="M502.57,40.209L502.57,194.7L526.57,194.7L526.57,40.209Z" style="fill:#FB9A99" />
<path d="M514.57,187.72L514.57,202.45" style="fill:none;stroke:#808080;stroke-width:0.56693" />
<path d="M508.57,187.72L520.57,187.72" style="fill:none;stroke:#808080;stroke-width:0.56693" />
<path d="M508.57,202.45L520.57,202.45" style="fill:none;stroke:#808080;stroke-width:0.56693" />
<text x="505.12" y="-230.16" transform="scale(1, -1)"
	style="font-family:Liberation Serif;font-variant:normal;font-weight:normal;font-style:normal;font-size:8.4px;fill:#808080">305.6</text>
<text x="509.64" y="-221.76" transform="scale(1, -1)"
	style="font-family:Liberation Serif;font-variant:normal;font-weight:normal;font-style:normal;font-size:8.4px;fill:#808080">+/-</text>
<text x="508.98" y="-213.36" transform="scale(1, -1)"
	style="font-family:Liberation Serif;font-variant:normal;font-weight:normal;font-style:normal;font-size:8.4px;fill:#808080">5%</text>
<path d="M850.01,40.209L850.01,212.11L874.01,212.11L874.01,40.209Z" style="fill:#FB9A99" />
<path d="M862.01,199.78L862.01,219.73" style="fill:none;stroke:#808080;stroke-width:0.56693" />
<path d="M856.01,199.78L868.01,199.78" style="fill:none;stroke:#808080;stroke-width:0.56693" />
<path d="M856.01,219.73L868.01,219.73" style="fill:none;stroke:#808080;stroke-width:0.56693" />
<text x="852.56" y="-247.44" transform="scale(1, -1)"
	style="font-family:Liberation Serif;font-variant:normal;font-weight:normal;font-style:normal;font-size:8.4px;fill:#808080">340.0</text>
<text x="854.05" y="-239.04" transform="scale(1, -1)"
	style="font-family:Liberation Serif;font-variant:normal;font-weight:normal;font-style:normal;font-size:8.4px;fill:#808080">+4%</text>
<text x="855.02" y="-230.64" transform="scale(1, -1)"
	style="font-family:Liberation Serif;font-variant:normal;font-weight:normal;font-style:normal;font-size:8.4px;fill:#808080">-7%</text>
<path d="M182.13,40.209L182.13,192.25L206.13,192.25L206.13,40.209Z" style="fill:#E31A1C" />
<path d="M194.13,187.53L194.13,193.44" style="fill:none;stroke:#808080;stroke-width:0.56693" />
<path d="M188.13,187.53L200.13,187.53" style="fill:none;stroke:#808080;stroke-width:0.56693" />
<path d="M188.13,193.44L200.13,193.44" style="fill:none;stroke:#808080;stroke-width:0.56693" />
<text x="184.68" y="-221.15" transform="scale(1, -1)"
	style="font-family:Liberation Serif;font-variant:normal;font-weight:normal;font-style:normal;font-size:8.4px;fill:#808080">300.7</text>
<text x="186.17" y="-212.75" transform="scale(1, -1)"
	style="font-family:Liberation Serif;font-variant:normal;font-weight:normal;font-style:normal;font-size:8.4px;fill:#808080">+1%</text>
<text x="187.14" y="-204.35" transform="scale(1, -1)"
	style="font-family:Liberation Serif;font-variant:normal;font-weight:normal;font-style:normal;font-size:8.4px;fill:#808080">-3%</text>
<path d="M529.57,40.209L529.57,189.53L553.57,189.53L553.57,40.209Z" style="fill:#E31A1C" />
<path d="M541.57,186.91L541.57,193.27" style="fill:none;stroke:#808080;stroke-width:0.56693" />
<path d="M535.57,186.91L547.57,186.91" style="fill:none;stroke:#808080;stroke-width:0.56693" />
<path d="M535.57,193.27L547.57,193.27" style="fill:none;stroke:#808080;stroke-width:0.56693" />
<text x="532.12" y="-220.99" transform="scale(1, -1)"
	style="font-family:Liberation Serif;font-variant:normal;font-weight:normal;font-style:normal;font-size:8.4px;fill:#808080">295.4</text>
<text x="533.61" y="-212.59" transform="scale(1, -1)"
	style="font-family:Liberation Serif;font-variant:normal;font-weight:normal;font-style:normal;font-size:8.4px;fill:#808080">+3%</text>
<text x="534.58" y="-204.19" transform="scale(1, -1)"
	style="font-family:Liberation Serif;font-variant:normal;font-weight:normal;font-style:normal;font-size:8.4px;fill:#808080">-2%</text>
<path d="M877.01,40.209L877.01,206.92L901.01,206.92L901.01,40.209Z" style="fill:#E31A1C" />
<path d="M889.01,184.25L889.01,276.77" style="fill:none;stroke:#808080;stroke-width:0.56693" />
<path d="M883.01,184.25L895.01,184.25" style="fill:none;stroke:#808080;stroke-width:0.56693" />
<path d="M883.01,276.77L895.01,276.77" style="fill:none;stroke:#808080;stroke-width:0.56693" />
<text x="879.56" y="-304.49" transform="scale(1, -1)"
	style="font-family:Liberation Serif;font-variant:normal;font-weight:normal;font-style:normal;font-size:8.4px;fill:#808080">329.8</text>
<text x="878.95" y="-296.09" transform="scale(1, -1)"
	style="font-family:Liberation Serif;font-variant:normal;font-weight:normal;font-style:normal;font-size:8.4px;fill:#808080">+42%</text>
<text x="879.92" y="-287.69" transform="scale(1, -1)"
	style="font-family:Liberation Serif;font-variant:normal;font-weight:normal;font-style:normal;font-size:8.4px;fill:#808080">-14%</text>
<path d="M209.13,40.209L209.13,195.14L233.13,195.14L233.13,40.209Z" style="fill:#FDBF6F" />
<path d="M221.13,191.34L221.13,195.35" style="fill:none;stroke:#808080;stroke-width:0.56693" />
<path d="M215.13,191.34L227.13,191.34" style="fill:none;stroke:#808080;stroke-width:0.56693" />
<path d="M215.13,195.35L227.13,195.35" style="fill:none;stroke:#808080;stroke-width:0.56693" />
<text x="211.68" y="-223.07" transform="scale(1, -1)"
	style="font-family:Liberation Serif;font-variant:normal;font-weight:normal;font-style:normal;font-size:8.4px;fill:#808080">306.5</text>
<text x="213.17" y="-214.67" transform="scale(1, -1)"
	style="font-family:Liberation Serif;font-variant:normal;font-weight:normal;font-style:normal;font-size:8.4px;fill:#808080">+0%</text>
<text x="214.14" y="-206.27" transform="scale(1, -1)"
	style="font-family:Liberation Serif;font-variant:normal;font-weight:normal;font-style:normal;font-size:8.4px;fill:#808080">-2%</text>
<path d="M556.57,40.209L556.57,189.56L580.57,189.56L580.57,40.209Z" style="fill:#FDBF6F" />
<path d="M568.57,186.16L568.57,194.16" style="fill:none;stroke:#808080;stroke-width:0.56693" />
<path d="M562.57,186.16L574.57,186.16" style="fill:none;stroke:#808080;stroke-width:0.56693" />
<path d="M562.57,194.16L574.57,194.16" style="fill:none;stroke:#808080;stroke-width:0.56693" />
<text x="559.12" y="-221.87" transform="scale(1, -1)"
	style="font-family:Liberation Serif;font-variant:normal;font-weight:normal;font-style:normal;font-size:8.4px;fill:#808080">295.4</text>
<text x="560.61" y="-213.47" transform="scale(1, -1)"
	style="font-family:Liberation Serif;font-variant:normal;font-weight:normal;font-style:normal;font-size:8.4px;fill:#808080">+3%</text>
<text x="561.58" y="-205.07" transform="scale(1, -1)"
	style="font-family:Liberation Serif;font-variant:normal;font-weight:normal;font-style:normal;font-size:8.4px;fill:#808080">-2%</text>
<path d="M904.01,40.209L904.01,179.55L928.01,179.55L928.01,40.209Z" style="fill:#FDBF6F" />
<path d="M916.01,173.02L916.01,190.8" style="fill:none;stroke:#808080;stroke-width:0.56693" />
<path d="M910.01,173.02L922.01,173.02" style="fill:none;stroke:#808080;stroke-width:0.56693" />
<path d="M910.01,190.8L922.01,190.8" style="fill:none;stroke:#808080;stroke-width:0.56693" />
<text x="906.56" y="-218.52" transform="scale(1, -1)"
	style="font-family:Liberation Serif;font-variant:normal;font-weight:normal;font-style:normal;font-size:8.4px;fill:#808080">275.6</text>
<text x="908.05" y="-210.12" transform="scale(1, -1)"
	style="font-family:Liberation Serif;font-variant:normal;font-weight:normal;font-style:normal;font-size:8.4px;fill:#808080">+8%</text>
<text x="909.02" y="-201.72" transform="scale(1, -1)"
	style="font-family:Liberation Serif;font-variant:normal;font-weight:normal;font-style:normal;font-size:8.4px;fill:#808080">-5%</text>
<path d="M236.13,40.209L236.13,193.99L260.13,193.99L260.13,40.209Z" style="fill:#FF7F00" />
<path d="M248.13,191.42L248.13,195.64" style="fill:none;stroke:#808080;stroke-width:0.56693" />
<path d="M242.13,191.42L254.13,191.42" style="fill:none;stroke:#808080;stroke-width:0.56693" />
<path d="M242.13,195.64L254.13,195.64" style="fill:none;stroke:#808080;stroke-width:0.56693" />
<text x="238.68" y="-223.35" transform="scale(1, -1)"
	style="font-family:Liberation Serif;font-variant:normal;font-weight:normal;font-style:normal;font-size:8.4px;fill:#808080">304.2</text>
<text x="240.17" y="-214.95" transform="scale(1, -1)"
	style="font-family:Liberation Serif;font-variant:normal;font-weight:normal;font-style:normal;font-size:8.4px;fill:#808080">+1%</text>
<text x="241.14" y="-206.55" transform="scale(1, -1)"
	style="font-family:Liberation Serif;font-variant:normal;font-weight:normal;font-style:normal;font-size:8.4px;fill:#808080">-2%</text>
<path d="M583.57,40.209L583.57,185.84L607.57,185.84L607.57,40.209Z" style="fill:#FF7F00" />
<path d="M595.57,183.32L595.57,189.61" style="fill:none;stroke:#808080;stroke-width:0.56693" />
<path d="M589.57,183.32L601.57,183.32" style="fill:none;stroke:#808080;stroke-width:0.56693" />
<path d="M589.57,189.61L601.57,189.61" style="fill:none;stroke:#808080;stroke-width:0.56693" />
<text x="586.12" y="-217.32" transform="scale(1, -1)"
	style="font-family:Liberation Serif;font-variant:normal;font-weight:normal;font-style:normal;font-size:8.4px;fill:#808080">288.1</text>
<text x="587.61" y="-208.92" transform="scale(1, -1)"
	style="font-family:Liberation Serif;font-variant:normal;font-weight:normal;font-style:normal;font-size:8.4px;fill:#808080">+3%</text>
<text x="588.58" y="-200.52" transform="scale(1, -1)"
	style="font-family:Liberation Serif;font-variant:normal;font-weight:normal;font-style:normal;font-size:8.4px;fill:#808080">-2%</text>
<path d="M931.01,40.209L931.01,187.9L955.01,187.9L955.01,40.209Z" style="fill:#FF7F00" />
<path d="M943.01,182.47L943.01,195.24" style="fill:none;stroke:#808080;stroke-width:0.56693" />
<path d="M937.01,182.47L949.01,182.47" style="fill:none;stroke:#808080;stroke-width:0.56693" />
<path d="M937.01,195.24L949.01,195.24" style="fill:none;stroke:#808080;stroke-width:0.56693" />
<text x="933.56" y="-222.95" transform="scale(1, -1)"
	style="font-family:Liberation Serif;font-variant:normal;font-weight:normal;font-style:normal;font-size:8.4px;fill:#808080">292.1</text>
<text x="935.05" y="-214.55" transform="scale(1, -1)"
	style="font-family:Liberation Serif;font-variant:normal;font-weight:normal;font-style:normal;font-size:8.4px;fill:#808080">+5%</text>
<text x="936.02" y="-206.15" transform="scale(1, -1)"
	style="font-family:Liberation Serif;font-variant:normal;font-weight:normal;font-style:normal;font-size:8.4px;fill:#808080">-4%</text>
<path d="M263.13,40.209L263.13,199.36L287.13,199.36L287.13,40.209Z" style="fill:#CAB2D6" />
<path d="M275.13,194.7L275.13,201.58" style="fill:none;stroke:#808080;stroke-width:0.56693" />
<path d="M269.13,194.7L281.13,194.7" style="fill:none;stroke:#808080;stroke-width:0.56693" />
<path d="M269.13,201.58L281.13,201.58" style="fill:none;stroke:#808080;stroke-width:0.56693" />
<text x="265.68" y="-229.3" transform="scale(1, -1)"
	style="font-family:Liberation Serif;font-variant:normal;font-weight:normal;font-style:normal;font-size:8.4px;fill:#808080">314.8</text>
<text x="267.17" y="-220.9" transform="scale(1, -1)"
	style="font-family:Liberation Serif;font-variant:normal;font-weight:normal;font-style:normal;font-size:8.4px;fill:#808080">+1%</text>
<text x="268.14" y="-212.5" transform="scale(1, -1)"
	style="font-family:Liberation Serif;font-variant:normal;font-weight:normal;font-style:normal;font-size:8.4px;fill:#808080">-3%</text>
<path d="M610.57,40.209L610.57,188.02L634.57,188.02L634.57,40.209Z" style="fill:#CAB2D6" />
<path d="M622.57,185.1L622.57,192.95" style="fill:none;stroke:#808080;stroke-width:0.56693" />
<path d="M616.57,185.1L628.57,185.1" style="fill:none;stroke:#808080;stroke-width:0.56693" />
<path d="M616.57,192.95L628.57,192.95" style="fill:none;stroke:#808080;stroke-width:0.56693" />
<text x="613.12" y="-220.66" transform="scale(1, -1)"
	style="font-family:Liberation Serif;font-variant:normal;font-weight:normal;font-style:normal;font-size:8.4px;fill:#808080">292.4</text>
<text x="614.61" y="-212.26" transform="scale(1, -1)"
	style="font-family:Liberation Serif;font-variant:normal;font-weight:normal;font-style:normal;font-size:8.4px;fill:#808080">+3%</text>
<text x="615.58" y="-203.86" transform="scale(1, -1)"
	style="font-family:Liberation Serif;font-variant:normal;font-weight:normal;font-style:normal;font-size:8.4px;fill:#808080">-2%</text>
<path d="M958.01,40.209L958.01,189.99L982.01,189.99L982.01,40.209Z" style="fill:#CAB2D6" />
<path d="M970.01,187.14L970.01,194.85" style="fill:none;stroke:#808080;stroke-width:0.56693" />
<path d="M964.01,187.14L976.01,187.14" style="fill:none;stroke:#808080;stroke-width:0.56693" />
<path d="M964.01,194.85L976.01,194.85" style="fill:none;stroke:#808080;stroke-width:0.56693" />
<text x="960.56" y="-222.56" transform="scale(1, -1)"
	style="font-family:Liberation Serif;font-variant:normal;font-weight:normal;font-style:normal;font-size:8.4px;fill:#808080">296.3</text>
<text x="962.05" y="-214.16" transform="scale(1, -1)"
	style="font-family:Liberation Serif;font-variant:normal;font-weight:normal;font-style:normal;font-size:8.4px;fill:#808080">+3%</text>
<text x="963.02" y="-205.76" transform="scale(1, -1)"
	style="font-family:Liberation Serif;font-variant:normal;font-weight:normal;font-style:normal;font-size:8.4px;fill:#808080">-2%</text>
<path d="M290.13,40.209L290.13,183.23L314.13,183.23L314.13,40.209Z" style="fill:#6A3D9A" />
<path d="M302.13,181.15L302.13,184.12" style="fill:none;stroke:#808080;stroke-width:0.56693" />
<path d="M296.13,181.15L308.13,181.15" style="fill:none;stroke:#808080;stroke-width:0.56693" />
<path d="M296.13,184.12L308.13,184.12" style="fill:none;stroke:#808080;stroke-width:0.56693" />
<text x="292.68" y="-211.83" transform="scale(1, -1)"
	style="font-family:Liberation Serif;font-variant:normal;font-weight:normal;font-style:normal;font-size:8.4px;fill:#808080">282.9</text>
<text x="297.2" y="-203.43" transform="scale(1, -1)"
	style="font-family:Liberation Serif;font-variant:normal;font-weight:normal;font-style:normal;font-size:8.4px;fill:#808080">+/-</text>
<text x="296.54" y="-195.03" transform="scale(1, -1)"
	style="font-family:Liberation Serif;font-variant:normal;font-weight:normal;font-style:normal;font-size:8.4px;fill:#808080">1%</text>
<path d="M637.57,40.209L637.57,197.44L661.57,197.44L661.57,40.209Z" style="fill:#6A3D9A" />
<path d="M649.57,186.75L649.57,202.22" style="fill:none;stroke:#808080;stroke-width:0.56693" />
<path d="M643.57,186.75L655.57,186.75" style="fill:none;stroke:#808080;stroke-width:0.56693" />
<path d="M643.57,202.22L655.57,202.22" style="fill:none;stroke:#808080;stroke-width:0.56693" />
<text x="640.28" y="-229.94" transform="scale(1, -1)"
	style="font-family:Liberation Serif;font-variant:normal;font-weight:normal;font-style:normal;font-size:8.4px;fill:#808080">311.0</text>
<text x="641.61" y="-221.54" transform="scale(1, -1)"
	style="font-family:Liberation Serif;font-variant:normal;font-weight:normal;font-style:normal;font-size:8.4px;fill:#808080">+3%</text>
<text x="642.58" y="-213.14" transform="scale(1, -1)"
	style="font-family:Liberation Serif;font-variant:normal;font-weight:normal;font-style:normal;font-size:8.4px;fill:#808080">-7%</text>
<path d="M985.01,40.209L985.01,193.72L1009,193.72L1009,40.209Z" style="fill:#6A3D9A" />
<path d="M997.01,187.57L997.01,260.88" style="fill:none;stroke:#808080;stroke-width:0.56693" />
<path d="M991.01,187.57L1003,187.57" style="fill:none;stroke:#808080;stroke-width:0.56693" />
<path d="M991.01,260.88L1003,260.88" style="fill:none;stroke:#808080;stroke-width:0.56693" />
<text x="987.56" y="-288.6" transform="scale(1, -1)"
	style="font-family:Liberation Serif;font-variant:normal;font-weight:normal;font-style:normal;font-size:8.4px;fill:#808080">303.7</text>
<text x="986.95" y="-280.2" transform="scale(1, -1)"
	style="font-family:Liberation Serif;font-variant:normal;font-weight:normal;font-style:normal;font-size:8.4px;fill:#808080">+44%</text>
<text x="990.02" y="-271.8" transform="scale(1, -1)"
	style="font-family:Liberation Serif;font-variant:normal;font-weight:normal;font-style:normal;font-size:8.4px;fill:#808080">-4%</text>
</g>
</svg>
