<?xml version="1.0"?>
<!-- Generated by SVGo and Plotinum VG -->
<svg width="720pt" height="432pt" viewBox="0 0 720 432"
	xmlns="http://www.w3.org/2000/svg"
	xmlns:xlink="http://www.w3.org/1999/xlink">
<g transform="scale(1, -1) translate(0, -432)">
<path d="M657.84,301.15A2.5,2.5 0 1 1 652.84,301.15A2.5,2.5 0 1 1 657.84,301.15Z" style="fill:none;stroke:#A6CEE3;stroke-width:0.5" />
<text x="668.34" y="-298.66" transform="scale(1, -1)"
	style="font-family:Liberation Serif;font-variant:normal;font-weight:normal;font-style:normal;font-size:12px;fill:#808080">Limit 1</text>
<path d="M653.2,282.83L657.47,282.83L657.47,287.1L653.2,287.1Z" style="fill:none;stroke:#1F78B4;stroke-width:0.5" />
<text x="668.34" y="-282.48" transform="scale(1, -1)"
	style="font-family:Liberation Serif;font-variant:normal;font-weight:normal;font-style:normal;font-size:12px;fill:#808080">Limit 2</text>
<path d="M655.34,271.91L652.63,267.22L658.04,267.22Z" style="fill:none;stroke:#B2DF8A;stroke-width:0.5" />
<text x="668.34" y="-266.3" transform="scale(1, -1)"
	style="font-family:Liberation Serif;font-variant:normal;font-weight:normal;font-style:normal;font-size:12px;fill:#808080">Limit 3</text>
<path d="M653.57,250.83L657.11,254.37" style="fill:none;stroke:#33A02C;stroke-width:0.5" />
<path d="M653.57,254.37L657.11,250.83" style="fill:none;stroke:#33A02C;stroke-width:0.5" />
<text x="668.34" y="-250.11" transform="scale(1, -1)"
	style="font-family:Liberation Serif;font-variant:normal;font-weight:normal;font-style:normal;font-size:12px;fill:#808080">Limit 4</text>
<path d="M655.34,238.92L655.34,233.92" style="fill:none;stroke:#FB9A99;stroke-width:0.5" />
<path d="M652.84,236.42L657.84,236.42" style="fill:none;stroke:#FB9A99;stroke-width:0.5" />
<text x="668.34" y="-233.93" transform="scale(1, -1)"
	style="font-family:Liberation Serif;font-variant:normal;font-weight:normal;font-style:normal;font-size:12px;fill:#808080">Limit 8</text>
<path d="M657.84,220.23A2.5,2.5 0 1 1 652.84,220.23A2.5,2.5 0 1 1 657.84,220.23Z" style="fill:#E31A1C" />
<text x="668.34" y="-217.75" transform="scale(1, -1)"
	style="font-family:Liberation Serif;font-variant:normal;font-weight:normal;font-style:normal;font-size:12px;fill:#808080">Limit 16</text>
<path d="M653.2,201.92L657.47,201.92L657.47,206.18L653.2,206.18Z" style="fill:#FDBF6F" />
<text x="668.34" y="-201.56" transform="scale(1, -1)"
	style="font-family:Liberation Serif;font-variant:normal;font-weight:normal;font-style:normal;font-size:12px;fill:#808080">Unlimited</text>
<path d="M648.34,195.96L648.34,311.84L720,311.84L720,195.96L648.34,195.96" style="fill:none;stroke:#808080" />
<path d="M0,0L629.34,0L629.34,432L0,432Z" style="fill:#-8000000000000000-8000000000000000-8000000000000000;fill-opacity:0" />
<text x="246.35" y="-420.81" transform="scale(1, -1)"
	style="font-family:Liberation Serif;font-variant:normal;font-weight:normal;font-style:normal;font-size:12px;fill:#808080">Throughput vs. P99 Latency</text>
<text x="195.86" y="-408.81" transform="scale(1, -1)"
	style="font-family:Liberation Serif;font-variant:normal;font-weight:normal;font-style:normal;font-size:12px;fill:#808080">(1ms processing workload flushing every 100ms)</text>
<text x="254.18" y="-3.9023" transform="scale(1, -1)"
	style="font-family:Liberation Serif;font-variant:normal;font-weight:normal;font-style:normal;font-size:12px;fill:#808080">P99 Workflow Latency (milliseconds)</text>
<text x="133.62" y="-16.541" transform="scale(1, -1)"
	style="font-family:Liberation Serif;font-variant:normal;font-weight:normal;font-style:normal;font-size:10px;fill:#808080">4</text>
<text x="345.59" y="-16.541" transform="scale(1, -1)"
	style="font-family:Liberation Serif;font-variant:normal;font-weight:normal;font-style:normal;font-size:10px;fill:#808080">16</text>
<text x="560.06" y="-16.541" transform="scale(1, -1)"
	style="font-family:Liberation Serif;font-variant:normal;font-weight:normal;font-style:normal;font-size:10px;fill:#808080">28</text>
<path d="M136.12,24.363L136.12,32.363" style="fill:none;stroke:#808080;stroke-width:0.5" />
<path d="M350.59,24.363L350.59,32.363" style="fill:none;stroke:#808080;stroke-width:0.5" />
<path d="M565.06,24.363L565.06,32.363" style="fill:none;stroke:#808080;stroke-width:0.5" />
<path d="M243.36,28.363L243.36,32.363" style="fill:none;stroke:#808080;stroke-width:0.5" />
<path d="M457.82,28.363L457.82,32.363" style="fill:none;stroke:#808080;stroke-width:0.5" />
<path d="M64.635,32.363L626.84,32.363" style="fill:none;stroke:#808080;stroke-width:0.5" />
<g transform="rotate(90)">
<text x="122.59" y="9.3867" transform="scale(1, -1)"
	style="font-family:Liberation Serif;font-variant:normal;font-weight:normal;font-style:normal;font-size:12px;fill:#808080">Workflow Throughput (tasks per second)</text>
</g>
<text x="30.885" y="-37.924" transform="scale(1, -1)"
	style="font-family:Liberation Serif;font-variant:normal;font-weight:normal;font-style:normal;font-size:10px;fill:#808080">0.00</text>
<text x="15.885" y="-155.78" transform="scale(1, -1)"
	style="font-family:Liberation Serif;font-variant:normal;font-weight:normal;font-style:normal;font-size:10px;fill:#808080">2500.00</text>
<text x="15.885" y="-273.64" transform="scale(1, -1)"
	style="font-family:Liberation Serif;font-variant:normal;font-weight:normal;font-style:normal;font-size:10px;fill:#808080">5000.00</text>
<text x="15.885" y="-391.5" transform="scale(1, -1)"
	style="font-family:Liberation Serif;font-variant:normal;font-weight:normal;font-style:normal;font-size:10px;fill:#808080">7500.00</text>
<path d="M50.885,40.209L58.885,40.209" style="fill:none;stroke:#808080;stroke-width:0.5" />
<path d="M50.885,158.07L58.885,158.07" style="fill:none;stroke:#808080;stroke-width:0.5" />
<path d="M50.885,275.93L58.885,275.93" style="fill:none;stroke:#808080;stroke-width:0.5" />
<path d="M50.885,393.78L58.885,393.78" style="fill:none;stroke:#808080;stroke-width:0.5" />
<path d="M54.885,63.781L58.885,63.781" style="fill:none;stroke:#808080;stroke-width:0.5" />
<path d="M54.885,87.352L58.885,87.352" style="fill:none;stroke:#808080;stroke-width:0.5" />
<path d="M54.885,110.92L58.885,110.92" style="fill:none;stroke:#808080;stroke-width:0.5" />
<path d="M54.885,134.5L58.885,134.5" style="fill:none;stroke:#808080;stroke-width:0.5" />
<path d="M54.885,181.64L58.885,181.64" style="fill:none;stroke:#808080;stroke-width:0.5" />
<path d="M54.885,205.21L58.885,205.21" style="fill:none;stroke:#808080;stroke-width:0.5" />
<path d="M54.885,228.78L58.885,228.78" style="fill:none;stroke:#808080;stroke-width:0.5" />
<path d="M54.885,252.35L58.885,252.35" style="fill:none;stroke:#808080;stroke-width:0.5" />
<path d="M54.885,299.5L58.885,299.5" style="fill:none;stroke:#808080;stroke-width:0.5" />
<path d="M54.885,323.07L58.885,323.07" style="fill:none;stroke:#808080;stroke-width:0.5" />
<path d="M54.885,346.64L58.885,346.64" style="fill:none;stroke:#808080;stroke-width:0.5" />
<path d="M54.885,370.21L58.885,370.21" style="fill:none;stroke:#808080;stroke-width:0.5" />
<path d="M58.885,40.209L58.885,402.41" style="fill:none;stroke:#808080;stroke-width:0.5" />
<path d="M541.02,86.188A2.5,2.5 0 1 1 536.02,86.188A2.5,2.5 0 1 1 541.02,86.188Z" style="fill:none;stroke:#A6CEE3;stroke-width:0.5" />
<path d="M613.57,86.306A2.5,2.5 0 1 1 608.57,86.306A2.5,2.5 0 1 1 613.57,86.306Z" style="fill:none;stroke:#A6CEE3;stroke-width:0.5" />
<path d="M625.37,86.452A2.5,2.5 0 1 1 620.37,86.452A2.5,2.5 0 1 1 625.37,86.452Z" style="fill:none;stroke:#A6CEE3;stroke-width:0.5" />
<path d="M625.86,86.471A2.5,2.5 0 1 1 620.86,86.471A2.5,2.5 0 1 1 625.86,86.471Z" style="fill:none;stroke:#A6CEE3;stroke-width:0.5" />
<path d="M626.15,86.565A2.5,2.5 0 1 1 621.15,86.565A2.5,2.5 0 1 1 626.15,86.565Z" style="fill:none;stroke:#A6CEE3;stroke-width:0.5" />
<path d="M629.34,86.57A2.5,2.5 0 1 1 624.34,86.57A2.5,2.5 0 1 1 629.34,86.57Z" style="fill:none;stroke:#A6CEE3;stroke-width:0.5" />
<path d="M372.9,129.82L377.17,129.82L377.17,134.08L372.9,134.08Z" style="fill:none;stroke:#1F78B4;stroke-width:0.5" />
<path d="M373.44,129.96L377.71,129.96L377.71,134.23L373.44,134.23Z" style="fill:none;stroke:#1F78B4;stroke-width:0.5" />
<path d="M374.65,130L378.91,130L378.91,134.27L374.65,134.27Z" style="fill:none;stroke:#1F78B4;stroke-width:0.5" />
<path d="M375.16,130L379.43,130L379.43,134.27L375.16,134.27Z" style="fill:none;stroke:#1F78B4;stroke-width:0.5" />
<path d="M378.62,130.05L382.89,130.05L382.89,134.32L378.62,134.32Z" style="fill:none;stroke:#1F78B4;stroke-width:0.5" />
<path d="M389.61,130.05L393.88,130.05L393.88,134.32L389.61,134.32Z" style="fill:none;stroke:#1F78B4;stroke-width:0.5" />
<path d="M337.74,180.99L335.03,176.31L340.45,176.31Z" style="fill:none;stroke:#B2DF8A;stroke-width:0.5" />
<path d="M338.25,180.99L335.55,176.31L340.96,176.31Z" style="fill:none;stroke:#B2DF8A;stroke-width:0.5" />
<path d="M355.4,181.04L352.69,176.35L358.1,176.35Z" style="fill:none;stroke:#B2DF8A;stroke-width:0.5" />
<path d="M356.52,181.04L353.82,176.35L359.23,176.35Z" style="fill:none;stroke:#B2DF8A;stroke-width:0.5" />
<path d="M363.73,181.13L361.02,176.45L366.44,176.45Z" style="fill:none;stroke:#B2DF8A;stroke-width:0.5" />
<path d="M413.38,181.23L410.68,176.54L416.09,176.54Z" style="fill:none;stroke:#B2DF8A;stroke-width:0.5" />
<path d="M286.02,217.21L289.55,220.74" style="fill:none;stroke:#33A02C;stroke-width:0.5" />
<path d="M286.02,220.74L289.55,217.21" style="fill:none;stroke:#33A02C;stroke-width:0.5" />
<path d="M310.3,218.43L313.83,221.97" style="fill:none;stroke:#33A02C;stroke-width:0.5" />
<path d="M310.3,221.97L313.83,218.43" style="fill:none;stroke:#33A02C;stroke-width:0.5" />
<path d="M338,218.53L341.54,222.06" style="fill:none;stroke:#33A02C;stroke-width:0.5" />
<path d="M338,222.06L341.54,218.53" style="fill:none;stroke:#33A02C;stroke-width:0.5" />
<path d="M345.73,218.91L349.27,222.44" style="fill:none;stroke:#33A02C;stroke-width:0.5" />
<path d="M345.73,222.44L349.27,218.91" style="fill:none;stroke:#33A02C;stroke-width:0.5" />
<path d="M374,218.95L377.53,222.49" style="fill:none;stroke:#33A02C;stroke-width:0.5" />
<path d="M374,222.49L377.53,218.95" style="fill:none;stroke:#33A02C;stroke-width:0.5" />
<path d="M408.64,219.05L412.18,222.58" style="fill:none;stroke:#33A02C;stroke-width:0.5" />
<path d="M408.64,222.58L412.18,219.05" style="fill:none;stroke:#33A02C;stroke-width:0.5" />
<path d="M432.13,375.21L432.13,370.21" style="fill:none;stroke:#FB9A99;stroke-width:0.5" />
<path d="M429.63,372.71L434.63,372.71" style="fill:none;stroke:#FB9A99;stroke-width:0.5" />
<path d="M440.93,376.91L440.93,371.91" style="fill:none;stroke:#FB9A99;stroke-width:0.5" />
<path d="M438.43,374.41L443.43,374.41" style="fill:none;stroke:#FB9A99;stroke-width:0.5" />
<path d="M443.72,382.09L443.72,377.09" style="fill:none;stroke:#FB9A99;stroke-width:0.5" />
<path d="M441.22,379.59L446.22,379.59" style="fill:none;stroke:#FB9A99;stroke-width:0.5" />
<path d="M445.48,385.54L445.48,380.54" style="fill:none;stroke:#FB9A99;stroke-width:0.5" />
<path d="M442.98,383.04L447.98,383.04" style="fill:none;stroke:#FB9A99;stroke-width:0.5" />
<path d="M457.4,385.63L457.4,380.63" style="fill:none;stroke:#FB9A99;stroke-width:0.5" />
<path d="M454.9,383.13L459.9,383.13" style="fill:none;stroke:#FB9A99;stroke-width:0.5" />
<path d="M465.05,393.55L465.05,388.55" style="fill:none;stroke:#FB9A99;stroke-width:0.5" />
<path d="M462.55,391.05L467.55,391.05" style="fill:none;stroke:#FB9A99;stroke-width:0.5" />
<path d="M457.78,384.21A2.5,2.5 0 1 1 452.78,384.21A2.5,2.5 0 1 1 457.78,384.21Z" style="fill:#E31A1C" />
<path d="M469.89,388.79A2.5,2.5 0 1 1 464.89,388.79A2.5,2.5 0 1 1 469.89,388.79Z" style="fill:#E31A1C" />
<path d="M491.46,391.52A2.5,2.5 0 1 1 486.46,391.52A2.5,2.5 0 1 1 491.46,391.52Z" style="fill:#E31A1C" />
<path d="M498.54,392.51A2.5,2.5 0 1 1 493.54,392.51A2.5,2.5 0 1 1 498.54,392.51Z" style="fill:#E31A1C" />
<path d="M509.03,397.79A2.5,2.5 0 1 1 504.03,397.79A2.5,2.5 0 1 1 509.03,397.79Z" style="fill:#E31A1C" />
<path d="M511.29,402.41A2.5,2.5 0 1 1 506.29,402.41A2.5,2.5 0 1 1 511.29,402.41Z" style="fill:#E31A1C" />
<path d="M474.79,382.79L479.06,382.79L479.06,387.06L474.79,387.06Z" style="fill:#FDBF6F" />
<path d="M486.42,387.17L490.69,387.17L490.69,391.44L486.42,391.44Z" style="fill:#FDBF6F" />
<path d="M493.39,388.59L497.65,388.59L497.65,392.85L493.39,392.85Z" style="fill:#FDBF6F" />
<path d="M501.65,389.58L505.92,389.58L505.92,393.84L501.65,393.84Z" style="fill:#FDBF6F" />
<path d="M505.16,396.55L509.43,396.55L509.43,400.82L505.16,400.82Z" style="fill:#FDBF6F" />
<path d="M509.05,398.91L513.32,398.91L513.32,403.18L509.05,403.18Z" style="fill:#FDBF6F" />
</g>
</svg>
