<?xml version="1.0"?>
<!-- Generated by SVGo and Plotinum VG -->
<svg width="720pt" height="432pt" viewBox="0 0 720 432"
	xmlns="http://www.w3.org/2000/svg"
	xmlns:xlink="http://www.w3.org/1999/xlink">
<g transform="scale(1, -1) translate(0, -432)">
<path d="M657.84,301.15A2.5,2.5 0 1 1 652.84,301.15A2.5,2.5 0 1 1 657.84,301.15Z" style="fill:none;stroke:#A6CEE3;stroke-width:0.5" />
<text x="668.34" y="-298.66" transform="scale(1, -1)"
	style="font-family:Liberation Serif;font-variant:normal;font-weight:normal;font-style:normal;font-size:12px;fill:#808080">Limit 1</text>
<path d="M653.2,282.83L657.47,282.83L657.47,287.1L653.2,287.1Z" style="fill:none;stroke:#1F78B4;stroke-width:0.5" />
<text x="668.34" y="-282.48" transform="scale(1, -1)"
	style="font-family:Liberation Serif;font-variant:normal;font-weight:normal;font-style:normal;font-size:12px;fill:#808080">Limit 2</text>
<path d="M655.34,271.91L652.63,267.22L658.04,267.22Z" style="fill:none;stroke:#B2DF8A;stroke-width:0.5" />
<text x="668.34" y="-266.3" transform="scale(1, -1)"
	style="font-family:Liberation Serif;font-variant:normal;font-weight:normal;font-style:normal;font-size:12px;fill:#808080">Limit 3</text>
<path d="M653.57,250.83L657.11,254.37" style="fill:none;stroke:#33A02C;stroke-width:0.5" />
<path d="M653.57,254.37L657.11,250.83" style="fill:none;stroke:#33A02C;stroke-width:0.5" />
<text x="668.34" y="-250.11" transform="scale(1, -1)"
	style="font-family:Liberation Serif;font-variant:normal;font-weight:normal;font-style:normal;font-size:12px;fill:#808080">Limit 4</text>
<path d="M655.34,238.92L655.34,233.92" style="fill:none;stroke:#FB9A99;stroke-width:0.5" />
<path d="M652.84,236.42L657.84,236.42" style="fill:none;stroke:#FB9A99;stroke-width:0.5" />
<text x="668.34" y="-233.93" transform="scale(1, -1)"
	style="font-family:Liberation Serif;font-variant:normal;font-weight:normal;font-style:normal;font-size:12px;fill:#808080">Limit 8</text>
<path d="M657.84,220.23A2.5,2.5 0 1 1 652.84,220.23A2.5,2.5 0 1 1 657.84,220.23Z" style="fill:#E31A1C" />
<text x="668.34" y="-217.75" transform="scale(1, -1)"
	style="font-family:Liberation Serif;font-variant:normal;font-weight:normal;font-style:normal;font-size:12px;fill:#808080">Limit 16</text>
<path d="M653.2,201.92L657.47,201.92L657.47,206.18L653.2,206.18Z" style="fill:#FDBF6F" />
<text x="668.34" y="-201.56" transform="scale(1, -1)"
	style="font-family:Liberation Serif;font-variant:normal;font-weight:normal;font-style:normal;font-size:12px;fill:#808080">Unlimited</text>
<path d="M648.34,195.96L648.34,311.84L720,311.84L720,195.96L648.34,195.96" style="fill:none;stroke:#808080" />
<path d="M0,0L629.34,0L629.34,432L0,432Z" style="fill:#-8000000000000000-8000000000000000-8000000000000000;fill-opacity:0" />
<text x="246.35" y="-420.81" transform="scale(1, -1)"
	style="font-family:Liberation Serif;font-variant:normal;font-weight:normal;font-style:normal;font-size:12px;fill:#808080">Throughput vs. P99 Latency</text>
<text x="203.52" y="-408.81" transform="scale(1, -1)"
	style="font-family:Liberation Serif;font-variant:normal;font-weight:normal;font-style:normal;font-size:12px;fill:#808080">(1ms waiting workload flushing every 100ms)</text>
<text x="256.68" y="-3.9023" transform="scale(1, -1)"
	style="font-family:Liberation Serif;font-variant:normal;font-weight:normal;font-style:normal;font-size:12px;fill:#808080">P99 Workflow Latency (milliseconds)</text>
<text x="141.24" y="-16.541" transform="scale(1, -1)"
	style="font-family:Liberation Serif;font-variant:normal;font-weight:normal;font-style:normal;font-size:10px;fill:#808080">50</text>
<text x="368.57" y="-16.541" transform="scale(1, -1)"
	style="font-family:Liberation Serif;font-variant:normal;font-weight:normal;font-style:normal;font-size:10px;fill:#808080">200</text>
<text x="598.39" y="-16.541" transform="scale(1, -1)"
	style="font-family:Liberation Serif;font-variant:normal;font-weight:normal;font-style:normal;font-size:10px;fill:#808080">350</text>
<path d="M146.24,24.363L146.24,32.363" style="fill:none;stroke:#808080;stroke-width:0.5" />
<path d="M376.07,24.363L376.07,32.363" style="fill:none;stroke:#808080;stroke-width:0.5" />
<path d="M605.89,24.363L605.89,32.363" style="fill:none;stroke:#808080;stroke-width:0.5" />
<path d="M261.16,28.363L261.16,32.363" style="fill:none;stroke:#808080;stroke-width:0.5" />
<path d="M490.98,28.363L490.98,32.363" style="fill:none;stroke:#808080;stroke-width:0.5" />
<path d="M69.635,32.363L626.84,32.363" style="fill:none;stroke:#808080;stroke-width:0.5" />
<g transform="rotate(90)">
<text x="122.59" y="9.3867" transform="scale(1, -1)"
	style="font-family:Liberation Serif;font-variant:normal;font-weight:normal;font-style:normal;font-size:12px;fill:#808080">Workflow Throughput (tasks per second)</text>
</g>
<text x="35.885" y="-37.924" transform="scale(1, -1)"
	style="font-family:Liberation Serif;font-variant:normal;font-weight:normal;font-style:normal;font-size:10px;fill:#808080">0.00</text>
<text x="15.885" y="-346.67" transform="scale(1, -1)"
	style="font-family:Liberation Serif;font-variant:normal;font-weight:normal;font-style:normal;font-size:10px;fill:#808080">25000.00</text>
<path d="M55.885,40.209L63.885,40.209" style="fill:none;stroke:#808080;stroke-width:0.5" />
<path d="M55.885,348.95L63.885,348.95" style="fill:none;stroke:#808080;stroke-width:0.5" />
<path d="M59.885,101.96L63.885,101.96" style="fill:none;stroke:#808080;stroke-width:0.5" />
<path d="M59.885,163.71L63.885,163.71" style="fill:none;stroke:#808080;stroke-width:0.5" />
<path d="M59.885,225.45L63.885,225.45" style="fill:none;stroke:#808080;stroke-width:0.5" />
<path d="M59.885,287.2L63.885,287.2" style="fill:none;stroke:#808080;stroke-width:0.5" />
<path d="M63.885,40.209L63.885,402.41" style="fill:none;stroke:#808080;stroke-width:0.5" />
<path d="M482.4,50.27A2.5,2.5 0 1 1 477.4,50.27A2.5,2.5 0 1 1 482.4,50.27Z" style="fill:none;stroke:#A6CEE3;stroke-width:0.5" />
<path d="M493,50.606A2.5,2.5 0 1 1 488,50.606A2.5,2.5 0 1 1 493,50.606Z" style="fill:none;stroke:#A6CEE3;stroke-width:0.5" />
<path d="M493.74,50.854A2.5,2.5 0 1 1 488.74,50.854A2.5,2.5 0 1 1 493.74,50.854Z" style="fill:none;stroke:#A6CEE3;stroke-width:0.5" />
<path d="M499.31,50.945A2.5,2.5 0 1 1 494.31,50.945A2.5,2.5 0 1 1 499.31,50.945Z" style="fill:none;stroke:#A6CEE3;stroke-width:0.5" />
<path d="M502.97,50.988A2.5,2.5 0 1 1 497.97,50.988A2.5,2.5 0 1 1 502.97,50.988Z" style="fill:none;stroke:#A6CEE3;stroke-width:0.5" />
<path d="M528.52,51.232A2.5,2.5 0 1 1 523.52,51.232A2.5,2.5 0 1 1 528.52,51.232Z" style="fill:none;stroke:#A6CEE3;stroke-width:0.5" />
<path d="M428.74,58.526L433.01,58.526L433.01,62.794L428.74,62.794Z" style="fill:none;stroke:#1F78B4;stroke-width:0.5" />
<path d="M469.29,59.168L473.55,59.168L473.55,63.436L469.29,63.436Z" style="fill:none;stroke:#1F78B4;stroke-width:0.5" />
<path d="M491.33,59.181L495.59,59.181L495.59,63.448L491.33,63.448Z" style="fill:none;stroke:#1F78B4;stroke-width:0.5" />
<path d="M491.89,59.403L496.16,59.403L496.16,63.671L491.89,63.671Z" style="fill:none;stroke:#1F78B4;stroke-width:0.5" />
<path d="M525.55,59.761L529.82,59.761L529.82,64.029L525.55,64.029Z" style="fill:none;stroke:#1F78B4;stroke-width:0.5" />
<path d="M541.54,59.934L545.81,59.934L545.81,64.202L541.54,64.202Z" style="fill:none;stroke:#1F78B4;stroke-width:0.5" />
<path d="M318.3,74.282L315.6,69.595L321.01,69.595Z" style="fill:none;stroke:#B2DF8A;stroke-width:0.5" />
<path d="M447.94,74.529L445.23,69.842L450.64,69.842Z" style="fill:none;stroke:#B2DF8A;stroke-width:0.5" />
<path d="M449.22,74.64L446.51,69.953L451.93,69.953Z" style="fill:none;stroke:#B2DF8A;stroke-width:0.5" />
<path d="M461.18,74.69L458.48,70.002L463.89,70.002Z" style="fill:none;stroke:#B2DF8A;stroke-width:0.5" />
<path d="M470.99,74.838L468.28,70.15L473.7,70.15Z" style="fill:none;stroke:#B2DF8A;stroke-width:0.5" />
<path d="M537.63,75.233L534.93,70.546L540.34,70.546Z" style="fill:none;stroke:#B2DF8A;stroke-width:0.5" />
<path d="M400.32,79.578L403.86,83.113" style="fill:none;stroke:#33A02C;stroke-width:0.5" />
<path d="M400.32,83.113L403.86,79.578" style="fill:none;stroke:#33A02C;stroke-width:0.5" />
<path d="M434.93,79.714L438.46,83.249" style="fill:none;stroke:#33A02C;stroke-width:0.5" />
<path d="M434.93,83.249L438.46,79.714" style="fill:none;stroke:#33A02C;stroke-width:0.5" />
<path d="M440.83,79.961L444.37,83.496" style="fill:none;stroke:#33A02C;stroke-width:0.5" />
<path d="M440.83,83.496L444.37,79.961" style="fill:none;stroke:#33A02C;stroke-width:0.5" />
<path d="M548.06,80.023L551.59,83.558" style="fill:none;stroke:#33A02C;stroke-width:0.5" />
<path d="M548.06,83.558L551.59,80.023" style="fill:none;stroke:#33A02C;stroke-width:0.5" />
<path d="M566.3,80.134L569.83,83.669" style="fill:none;stroke:#33A02C;stroke-width:0.5" />
<path d="M566.3,83.669L569.83,80.134" style="fill:none;stroke:#33A02C;stroke-width:0.5" />
<path d="M583.73,81.171L587.26,84.707" style="fill:none;stroke:#33A02C;stroke-width:0.5" />
<path d="M583.73,84.707L587.26,81.171" style="fill:none;stroke:#33A02C;stroke-width:0.5" />
<path d="M415.93,121.89L415.93,116.89" style="fill:none;stroke:#FB9A99;stroke-width:0.5" />
<path d="M413.43,119.39L418.43,119.39" style="fill:none;stroke:#FB9A99;stroke-width:0.5" />
<path d="M421.37,121.93L421.37,116.93" style="fill:none;stroke:#FB9A99;stroke-width:0.5" />
<path d="M418.87,119.43L423.87,119.43" style="fill:none;stroke:#FB9A99;stroke-width:0.5" />
<path d="M469.97,122.23L469.97,117.23" style="fill:none;stroke:#FB9A99;stroke-width:0.5" />
<path d="M467.47,119.73L472.47,119.73" style="fill:none;stroke:#FB9A99;stroke-width:0.5" />
<path d="M553.93,122.25L553.93,117.25" style="fill:none;stroke:#FB9A99;stroke-width:0.5" />
<path d="M551.43,119.75L556.43,119.75" style="fill:none;stroke:#FB9A99;stroke-width:0.5" />
<path d="M615.98,122.39L615.98,117.39" style="fill:none;stroke:#FB9A99;stroke-width:0.5" />
<path d="M613.48,119.89L618.48,119.89" style="fill:none;stroke:#FB9A99;stroke-width:0.5" />
<path d="M626.84,122.81L626.84,117.81" style="fill:none;stroke:#FB9A99;stroke-width:0.5" />
<path d="M624.34,120.31L629.34,120.31" style="fill:none;stroke:#FB9A99;stroke-width:0.5" />
<path d="M426.36,187.01A2.5,2.5 0 1 1 421.36,187.01A2.5,2.5 0 1 1 426.36,187.01Z" style="fill:#E31A1C" />
<path d="M459.82,188.85A2.5,2.5 0 1 1 454.82,188.85A2.5,2.5 0 1 1 459.82,188.85Z" style="fill:#E31A1C" />
<path d="M471.54,189.02A2.5,2.5 0 1 1 466.54,189.02A2.5,2.5 0 1 1 471.54,189.02Z" style="fill:#E31A1C" />
<path d="M530.46,189.1A2.5,2.5 0 1 1 525.46,189.1A2.5,2.5 0 1 1 530.46,189.1Z" style="fill:#E31A1C" />
<path d="M559.84,189.42A2.5,2.5 0 1 1 554.84,189.42A2.5,2.5 0 1 1 559.84,189.42Z" style="fill:#E31A1C" />
<path d="M561.6,189.76A2.5,2.5 0 1 1 556.6,189.76A2.5,2.5 0 1 1 561.6,189.76Z" style="fill:#E31A1C" />
<path d="M316.07,333.28L320.34,333.28L320.34,337.55L316.07,337.55Z" style="fill:#FDBF6F" />
<path d="M316.13,344.61L320.4,344.61L320.4,348.87L316.13,348.87Z" style="fill:#FDBF6F" />
<path d="M320.87,348.37L325.14,348.37L325.14,352.64L320.87,352.64Z" style="fill:#FDBF6F" />
<path d="M331.81,360.49L336.08,360.49L336.08,364.76L331.81,364.76Z" style="fill:#FDBF6F" />
<path d="M333.14,373.64L337.41,373.64L337.41,377.91L333.14,377.91Z" style="fill:#FDBF6F" />
<path d="M404.88,400.28L409.15,400.28L409.15,404.55L404.88,404.55Z" style="fill:#FDBF6F" />
</g>
</svg>
