<?xml version="1.0"?>
<!-- Generated by SVGo and Plotinum VG -->
<svg width="1152pt" height="432pt" viewBox="0 0 1152 432"
	xmlns="http://www.w3.org/2000/svg"
	xmlns:xlink="http://www.w3.org/1999/xlink">
<g transform="scale(1, -1) translate(0, -432)">
<path d="M1025,312.19L1025,322.37L1045,322.37L1045,312.19Z" style="fill:#A6CEE3" />
<text x="1048" y="-314.79" transform="scale(1, -1)"
	style="font-family:Liberation Serif;font-variant:normal;font-weight:normal;font-style:normal;font-size:12px;fill:#808080">Gather Only</text>
<path d="M1025,296L1025,306.19L1045,306.19L1045,296Z" style="fill:#1F78B4" />
<text x="1048" y="-298.61" transform="scale(1, -1)"
	style="font-family:Liberation Serif;font-variant:normal;font-weight:normal;font-style:normal;font-size:12px;fill:#808080">Combine (limit 1)</text>
<path d="M1025,279.82L1025,290L1045,290L1045,279.82Z" style="fill:#B2DF8A" />
<text x="1048" y="-282.42" transform="scale(1, -1)"
	style="font-family:Liberation Serif;font-variant:normal;font-weight:normal;font-style:normal;font-size:12px;fill:#808080">Combine (limit 2)</text>
<path d="M1025,263.63L1025,273.82L1045,273.82L1045,263.63Z" style="fill:#33A02C" />
<text x="1048" y="-266.24" transform="scale(1, -1)"
	style="font-family:Liberation Serif;font-variant:normal;font-weight:normal;font-style:normal;font-size:12px;fill:#808080">Combine (limit 3)</text>
<path d="M1025,247.45L1025,257.63L1045,257.63L1045,247.45Z" style="fill:#FB9A99" />
<text x="1048" y="-250.06" transform="scale(1, -1)"
	style="font-family:Liberation Serif;font-variant:normal;font-weight:normal;font-style:normal;font-size:12px;fill:#808080">Combine (limit 4)</text>
<path d="M1025,231.27L1025,241.45L1045,241.45L1045,231.27Z" style="fill:#E31A1C" />
<text x="1048" y="-233.87" transform="scale(1, -1)"
	style="font-family:Liberation Serif;font-variant:normal;font-weight:normal;font-style:normal;font-size:12px;fill:#808080">Combine (limit 8)</text>
<path d="M1025,215.08L1025,225.27L1045,225.27L1045,215.08Z" style="fill:#FDBF6F" />
<text x="1048" y="-217.69" transform="scale(1, -1)"
	style="font-family:Liberation Serif;font-variant:normal;font-weight:normal;font-style:normal;font-size:12px;fill:#808080">Combine (limit 12)</text>
<path d="M1025,198.9L1025,209.08L1045,209.08L1045,198.9Z" style="fill:#FF7F00" />
<text x="1048" y="-201.5" transform="scale(1, -1)"
	style="font-family:Liberation Serif;font-variant:normal;font-weight:normal;font-style:normal;font-size:12px;fill:#808080">Combine (limit 16)</text>
<path d="M1025,182.72L1025,192.9L1045,192.9L1045,182.72Z" style="fill:#CAB2D6" />
<text x="1048" y="-185.32" transform="scale(1, -1)"
	style="font-family:Liberation Serif;font-variant:normal;font-weight:normal;font-style:normal;font-size:12px;fill:#808080">Combine (limit 24)</text>
<path d="M1025,166.53L1025,176.72L1045,176.72L1045,166.53Z" style="fill:#6A3D9A" />
<text x="1048" y="-169.14" transform="scale(1, -1)"
	style="font-family:Liberation Serif;font-variant:normal;font-weight:normal;font-style:normal;font-size:12px;fill:#808080">Combine (unlimited)</text>
<path d="M1028,163.53L1028,327.96L1152,327.96L1152,163.53L1028,163.53" style="fill:none;stroke:#808080" />
<path d="M0,0L1009,0L1009,432L0,432Z" style="fill:#-8000000000000000-8000000000000000-8000000000000000;fill-opacity:0" />
<text x="403.11" y="-422.61" transform="scale(1, -1)"
	style="font-family:Liberation Serif;font-variant:normal;font-weight:normal;font-style:normal;font-size:12px;fill:#808080">Aggregation Workload Speedup (Waiting)</text>
<text x="408.82" y="-3.9023" transform="scale(1, -1)"
	style="font-family:Liberation Serif;font-variant:normal;font-weight:normal;font-style:normal;font-size:12px;fill:#808080">Aggregation Workload Duration @ Flush Period</text>
<text x="150.37" y="-16.541" transform="scale(1, -1)"
	style="font-family:Liberation Serif;font-variant:normal;font-weight:normal;font-style:normal;font-size:10px;fill:#808080">10µs @ 1ms</text>
<text x="495.31" y="-16.541" transform="scale(1, -1)"
	style="font-family:Liberation Serif;font-variant:normal;font-weight:normal;font-style:normal;font-size:10px;fill:#808080">100µs @ 10ms</text>
<text x="846.74" y="-16.541" transform="scale(1, -1)"
	style="font-family:Liberation Serif;font-variant:normal;font-weight:normal;font-style:normal;font-size:10px;fill:#808080">1ms @ 100ms</text>
<path d="M175.63,24.363L175.63,32.363" style="fill:none;stroke:#808080;stroke-width:0.5" />
<path d="M525.57,24.363L525.57,32.363" style="fill:none;stroke:#808080;stroke-width:0.5" />
<path d="M875.51,24.363L875.51,32.363" style="fill:none;stroke:#808080;stroke-width:0.5" />
<path d="M175.63,32.363L875.51,32.363" style="fill:none;stroke:#808080;stroke-width:0.5" />
<g transform="rotate(90)">
<text x="176.3" y="9.3867" transform="scale(1, -1)"
	style="font-family:Liberation Serif;font-variant:normal;font-weight:normal;font-style:normal;font-size:12px;fill:#808080">Throughput vs. Direct</text>
</g>
<text x="20.885" y="-37.924" transform="scale(1, -1)"
	style="font-family:Liberation Serif;font-variant:normal;font-weight:normal;font-style:normal;font-size:10px;fill:#808080">0</text>
<text x="20.885" y="-214.75" transform="scale(1, -1)"
	style="font-family:Liberation Serif;font-variant:normal;font-weight:normal;font-style:normal;font-size:10px;fill:#808080">5</text>
<text x="15.885" y="-391.57" transform="scale(1, -1)"
	style="font-family:Liberation Serif;font-variant:normal;font-weight:normal;font-style:normal;font-size:10px;fill:#808080">10</text>
<path d="M28.385,40.209L36.385,40.209" style="fill:none;stroke:#808080;stroke-width:0.5" />
<path d="M28.385,217.03L36.385,217.03" style="fill:none;stroke:#808080;stroke-width:0.5" />
<path d="M28.385,393.86L36.385,393.86" style="fill:none;stroke:#808080;stroke-width:0.5" />
<path d="M32.385,75.574L36.385,75.574" style="fill:none;stroke:#808080;stroke-width:0.5" />
<path d="M32.385,110.94L36.385,110.94" style="fill:none;stroke:#808080;stroke-width:0.5" />
<path d="M32.385,146.3L36.385,146.3" style="fill:none;stroke:#808080;stroke-width:0.5" />
<path d="M32.385,181.67L36.385,181.67" style="fill:none;stroke:#808080;stroke-width:0.5" />
<path d="M32.385,252.4L36.385,252.4" style="fill:none;stroke:#808080;stroke-width:0.5" />
<path d="M32.385,287.76L36.385,287.76" style="fill:none;stroke:#808080;stroke-width:0.5" />
<path d="M32.385,323.13L36.385,323.13" style="fill:none;stroke:#808080;stroke-width:0.5" />
<path d="M32.385,358.49L36.385,358.49" style="fill:none;stroke:#808080;stroke-width:0.5" />
<path d="M36.385,40.209L36.385,418.71" style="fill:none;stroke:#808080;stroke-width:0.5" />
<path d="M42.135,40.209L42.135,41.195L66.135,41.195L66.135,40.209Z" style="fill:#A6CEE3" />
<path d="M54.135,41.174L54.135,41.213" style="fill:none;stroke:#808080;stroke-width:0.56693" />
<path d="M48.135,41.174L60.135,41.174" style="fill:none;stroke:#808080;stroke-width:0.56693" />
<path d="M48.135,41.213L60.135,41.213" style="fill:none;stroke:#808080;stroke-width:0.56693" />
<text x="44.685" y="-68.928" transform="scale(1, -1)"
	style="font-family:Liberation Serif;font-variant:normal;font-weight:normal;font-style:normal;font-size:8.4px;fill:#808080">0.028</text>
<text x="49.201" y="-60.528" transform="scale(1, -1)"
	style="font-family:Liberation Serif;font-variant:normal;font-weight:normal;font-style:normal;font-size:8.4px;fill:#808080">+/-</text>
<text x="48.536" y="-52.128" transform="scale(1, -1)"
	style="font-family:Liberation Serif;font-variant:normal;font-weight:normal;font-style:normal;font-size:8.4px;fill:#808080">2%</text>
<path d="M392.07,40.209L392.07,44.357L416.07,44.357L416.07,40.209Z" style="fill:#A6CEE3" />
<path d="M404.07,43.799L404.07,45.62" style="fill:none;stroke:#808080;stroke-width:0.56693" />
<path d="M398.07,43.799L410.07,43.799" style="fill:none;stroke:#808080;stroke-width:0.56693" />
<path d="M398.07,45.62L410.07,45.62" style="fill:none;stroke:#808080;stroke-width:0.56693" />
<text x="394.78" y="-73.334" transform="scale(1, -1)"
	style="font-family:Liberation Serif;font-variant:normal;font-weight:normal;font-style:normal;font-size:8.4px;fill:#808080">0.117</text>
<text x="394.01" y="-64.934" transform="scale(1, -1)"
	style="font-family:Liberation Serif;font-variant:normal;font-weight:normal;font-style:normal;font-size:8.4px;fill:#808080">+30%</text>
<text x="394.98" y="-56.534" transform="scale(1, -1)"
	style="font-family:Liberation Serif;font-variant:normal;font-weight:normal;font-style:normal;font-size:8.4px;fill:#808080">-13%</text>
<path d="M742.01,40.209L742.01,69.724L766.01,69.724L766.01,40.209Z" style="fill:#A6CEE3" />
<path d="M754.01,69.176L754.01,71.754" style="fill:none;stroke:#808080;stroke-width:0.56693" />
<path d="M748.01,69.176L760.01,69.176" style="fill:none;stroke:#808080;stroke-width:0.56693" />
<path d="M748.01,71.754L760.01,71.754" style="fill:none;stroke:#808080;stroke-width:0.56693" />
<text x="744.56" y="-99.469" transform="scale(1, -1)"
	style="font-family:Liberation Serif;font-variant:normal;font-weight:normal;font-style:normal;font-size:8.4px;fill:#808080">0.835</text>
<text x="746.05" y="-91.069" transform="scale(1, -1)"
	style="font-family:Liberation Serif;font-variant:normal;font-weight:normal;font-style:normal;font-size:8.4px;fill:#808080">+7%</text>
<text x="747.02" y="-82.669" transform="scale(1, -1)"
	style="font-family:Liberation Serif;font-variant:normal;font-weight:normal;font-style:normal;font-size:8.4px;fill:#808080">-2%</text>
<path d="M69.135,40.209L69.135,41.899L93.135,41.899L93.135,40.209Z" style="fill:#1F78B4" />
<path d="M81.135,41.726L81.135,41.952" style="fill:none;stroke:#808080;stroke-width:0.56693" />
<path d="M75.135,41.726L87.135,41.726" style="fill:none;stroke:#808080;stroke-width:0.56693" />
<path d="M75.135,41.952L87.135,41.952" style="fill:none;stroke:#808080;stroke-width:0.56693" />
<text x="71.685" y="-69.667" transform="scale(1, -1)"
	style="font-family:Liberation Serif;font-variant:normal;font-weight:normal;font-style:normal;font-size:8.4px;fill:#808080">0.048</text>
<text x="73.167" y="-61.267" transform="scale(1, -1)"
	style="font-family:Liberation Serif;font-variant:normal;font-weight:normal;font-style:normal;font-size:8.4px;fill:#808080">+3%</text>
<text x="72.037" y="-52.867" transform="scale(1, -1)"
	style="font-family:Liberation Serif;font-variant:normal;font-weight:normal;font-style:normal;font-size:8.4px;fill:#808080">-10%</text>
<path d="M419.07,40.209L419.07,44.285L443.07,44.285L443.07,40.209Z" style="fill:#1F78B4" />
<path d="M431.07,43.876L431.07,44.958" style="fill:none;stroke:#808080;stroke-width:0.56693" />
<path d="M425.07,43.876L437.07,43.876" style="fill:none;stroke:#808080;stroke-width:0.56693" />
<path d="M425.07,44.958L437.07,44.958" style="fill:none;stroke:#808080;stroke-width:0.56693" />
<text x="421.78" y="-72.673" transform="scale(1, -1)"
	style="font-family:Liberation Serif;font-variant:normal;font-weight:normal;font-style:normal;font-size:8.4px;fill:#808080">0.115</text>
<text x="421.01" y="-64.273" transform="scale(1, -1)"
	style="font-family:Liberation Serif;font-variant:normal;font-weight:normal;font-style:normal;font-size:8.4px;fill:#808080">+17%</text>
<text x="421.98" y="-55.873" transform="scale(1, -1)"
	style="font-family:Liberation Serif;font-variant:normal;font-weight:normal;font-style:normal;font-size:8.4px;fill:#808080">-10%</text>
<path d="M769.01,40.209L769.01,69.878L793.01,69.878L793.01,40.209Z" style="fill:#1F78B4" />
<path d="M781.01,69.495L781.01,70.591" style="fill:none;stroke:#808080;stroke-width:0.56693" />
<path d="M775.01,69.495L787.01,69.495" style="fill:none;stroke:#808080;stroke-width:0.56693" />
<path d="M775.01,70.591L787.01,70.591" style="fill:none;stroke:#808080;stroke-width:0.56693" />
<text x="771.56" y="-98.305" transform="scale(1, -1)"
	style="font-family:Liberation Serif;font-variant:normal;font-weight:normal;font-style:normal;font-size:8.4px;fill:#808080">0.839</text>
<text x="773.05" y="-89.905" transform="scale(1, -1)"
	style="font-family:Liberation Serif;font-variant:normal;font-weight:normal;font-style:normal;font-size:8.4px;fill:#808080">+2%</text>
<text x="774.02" y="-81.505" transform="scale(1, -1)"
	style="font-family:Liberation Serif;font-variant:normal;font-weight:normal;font-style:normal;font-size:8.4px;fill:#808080">-1%</text>
<path d="M96.135,40.209L96.135,43.311L120.13,43.311L120.13,40.209Z" style="fill:#B2DF8A" />
<path d="M108.13,43.21L108.13,43.384" style="fill:none;stroke:#808080;stroke-width:0.56693" />
<path d="M102.13,43.21L114.13,43.21" style="fill:none;stroke:#808080;stroke-width:0.56693" />
<path d="M102.13,43.384L114.13,43.384" style="fill:none;stroke:#808080;stroke-width:0.56693" />
<text x="98.685" y="-71.098" transform="scale(1, -1)"
	style="font-family:Liberation Serif;font-variant:normal;font-weight:normal;font-style:normal;font-size:8.4px;fill:#808080">0.088</text>
<text x="100.17" y="-62.698" transform="scale(1, -1)"
	style="font-family:Liberation Serif;font-variant:normal;font-weight:normal;font-style:normal;font-size:8.4px;fill:#808080">+2%</text>
<text x="101.14" y="-54.298" transform="scale(1, -1)"
	style="font-family:Liberation Serif;font-variant:normal;font-weight:normal;font-style:normal;font-size:8.4px;fill:#808080">-3%</text>
<path d="M446.07,40.209L446.07,48.813L470.07,48.813L470.07,40.209Z" style="fill:#B2DF8A" />
<path d="M458.07,48.357L458.07,49.499" style="fill:none;stroke:#808080;stroke-width:0.56693" />
<path d="M452.07,48.357L464.07,48.357" style="fill:none;stroke:#808080;stroke-width:0.56693" />
<path d="M452.07,49.499L464.07,49.499" style="fill:none;stroke:#808080;stroke-width:0.56693" />
<text x="448.62" y="-77.214" transform="scale(1, -1)"
	style="font-family:Liberation Serif;font-variant:normal;font-weight:normal;font-style:normal;font-size:8.4px;fill:#808080">0.243</text>
<text x="450.11" y="-68.814" transform="scale(1, -1)"
	style="font-family:Liberation Serif;font-variant:normal;font-weight:normal;font-style:normal;font-size:8.4px;fill:#808080">+8%</text>
<text x="451.08" y="-60.414" transform="scale(1, -1)"
	style="font-family:Liberation Serif;font-variant:normal;font-weight:normal;font-style:normal;font-size:8.4px;fill:#808080">-5%</text>
<path d="M796.01,40.209L796.01,92.743L820.01,92.743L820.01,40.209Z" style="fill:#B2DF8A" />
<path d="M808.01,90.073L808.01,96.58" style="fill:none;stroke:#808080;stroke-width:0.56693" />
<path d="M802.01,90.073L814.01,90.073" style="fill:none;stroke:#808080;stroke-width:0.56693" />
<path d="M802.01,96.58L814.01,96.58" style="fill:none;stroke:#808080;stroke-width:0.56693" />
<text x="798.56" y="-124.3" transform="scale(1, -1)"
	style="font-family:Liberation Serif;font-variant:normal;font-weight:normal;font-style:normal;font-size:8.4px;fill:#808080">1.486</text>
<text x="800.05" y="-115.9" transform="scale(1, -1)"
	style="font-family:Liberation Serif;font-variant:normal;font-weight:normal;font-style:normal;font-size:8.4px;fill:#808080">+7%</text>
<text x="801.02" y="-107.5" transform="scale(1, -1)"
	style="font-family:Liberation Serif;font-variant:normal;font-weight:normal;font-style:normal;font-size:8.4px;fill:#808080">-5%</text>
<path d="M123.13,40.209L123.13,45.337L147.13,45.337L147.13,40.209Z" style="fill:#33A02C" />
<path d="M135.13,44.925L135.13,45.836" style="fill:none;stroke:#808080;stroke-width:0.56693" />
<path d="M129.13,44.925L141.13,44.925" style="fill:none;stroke:#808080;stroke-width:0.56693" />
<path d="M129.13,45.836L141.13,45.836" style="fill:none;stroke:#808080;stroke-width:0.56693" />
<text x="125.68" y="-73.551" transform="scale(1, -1)"
	style="font-family:Liberation Serif;font-variant:normal;font-weight:normal;font-style:normal;font-size:8.4px;fill:#808080">0.145</text>
<text x="125.07" y="-65.151" transform="scale(1, -1)"
	style="font-family:Liberation Serif;font-variant:normal;font-weight:normal;font-style:normal;font-size:8.4px;fill:#808080">+10%</text>
<text x="128.14" y="-56.751" transform="scale(1, -1)"
	style="font-family:Liberation Serif;font-variant:normal;font-weight:normal;font-style:normal;font-size:8.4px;fill:#808080">-8%</text>
<path d="M473.07,40.209L473.07,51.418L497.07,51.418L497.07,40.209Z" style="fill:#33A02C" />
<path d="M485.07,49.163L485.07,52.703" style="fill:none;stroke:#808080;stroke-width:0.56693" />
<path d="M479.07,49.163L491.07,49.163" style="fill:none;stroke:#808080;stroke-width:0.56693" />
<path d="M479.07,52.703L491.07,52.703" style="fill:none;stroke:#808080;stroke-width:0.56693" />
<text x="475.62" y="-80.418" transform="scale(1, -1)"
	style="font-family:Liberation Serif;font-variant:normal;font-weight:normal;font-style:normal;font-size:8.4px;fill:#808080">0.317</text>
<text x="475.16" y="-72.018" transform="scale(1, -1)"
	style="font-family:Liberation Serif;font-variant:normal;font-weight:normal;font-style:normal;font-size:8.4px;fill:#808080">+11%</text>
<text x="475.98" y="-63.618" transform="scale(1, -1)"
	style="font-family:Liberation Serif;font-variant:normal;font-weight:normal;font-style:normal;font-size:8.4px;fill:#808080">-20%</text>
<path d="M823.01,40.209L823.01,107.74L847.01,107.74L847.01,40.209Z" style="fill:#33A02C" />
<path d="M835.01,106.06L835.01,120.2" style="fill:none;stroke:#808080;stroke-width:0.56693" />
<path d="M829.01,106.06L841.01,106.06" style="fill:none;stroke:#808080;stroke-width:0.56693" />
<path d="M829.01,120.2L841.01,120.2" style="fill:none;stroke:#808080;stroke-width:0.56693" />
<text x="825.56" y="-147.92" transform="scale(1, -1)"
	style="font-family:Liberation Serif;font-variant:normal;font-weight:normal;font-style:normal;font-size:8.4px;fill:#808080">1.909</text>
<text x="824.95" y="-139.52" transform="scale(1, -1)"
	style="font-family:Liberation Serif;font-variant:normal;font-weight:normal;font-style:normal;font-size:8.4px;fill:#808080">+18%</text>
<text x="828.02" y="-131.12" transform="scale(1, -1)"
	style="font-family:Liberation Serif;font-variant:normal;font-weight:normal;font-style:normal;font-size:8.4px;fill:#808080">-2%</text>
<path d="M150.13,40.209L150.13,47.656L174.13,47.656L174.13,40.209Z" style="fill:#FB9A99" />
<path d="M162.13,46.196L162.13,48.414" style="fill:none;stroke:#808080;stroke-width:0.56693" />
<path d="M156.13,46.196L168.13,46.196" style="fill:none;stroke:#808080;stroke-width:0.56693" />
<path d="M156.13,48.414L168.13,48.414" style="fill:none;stroke:#808080;stroke-width:0.56693" />
<text x="152.84" y="-76.129" transform="scale(1, -1)"
	style="font-family:Liberation Serif;font-variant:normal;font-weight:normal;font-style:normal;font-size:8.4px;fill:#808080">0.211</text>
<text x="152.07" y="-67.729" transform="scale(1, -1)"
	style="font-family:Liberation Serif;font-variant:normal;font-weight:normal;font-style:normal;font-size:8.4px;fill:#808080">+10%</text>
<text x="153.04" y="-59.329" transform="scale(1, -1)"
	style="font-family:Liberation Serif;font-variant:normal;font-weight:normal;font-style:normal;font-size:8.4px;fill:#808080">-20%</text>
<path d="M500.07,40.209L500.07,56.166L524.07,56.166L524.07,40.209Z" style="fill:#FB9A99" />
<path d="M512.07,55.048L512.07,57.159" style="fill:none;stroke:#808080;stroke-width:0.56693" />
<path d="M506.07,55.048L518.07,55.048" style="fill:none;stroke:#808080;stroke-width:0.56693" />
<path d="M506.07,57.159L518.07,57.159" style="fill:none;stroke:#808080;stroke-width:0.56693" />
<text x="502.62" y="-84.874" transform="scale(1, -1)"
	style="font-family:Liberation Serif;font-variant:normal;font-weight:normal;font-style:normal;font-size:8.4px;fill:#808080">0.451</text>
<text x="504.11" y="-76.474" transform="scale(1, -1)"
	style="font-family:Liberation Serif;font-variant:normal;font-weight:normal;font-style:normal;font-size:8.4px;fill:#808080">+6%</text>
<text x="505.08" y="-68.074" transform="scale(1, -1)"
	style="font-family:Liberation Serif;font-variant:normal;font-weight:normal;font-style:normal;font-size:8.4px;fill:#808080">-7%</text>
<path d="M850.01,40.209L850.01,135.04L874.01,135.04L874.01,40.209Z" style="fill:#FB9A99" />
<path d="M862.01,126.36L862.01,145.24" style="fill:none;stroke:#808080;stroke-width:0.56693" />
<path d="M856.01,126.36L868.01,126.36" style="fill:none;stroke:#808080;stroke-width:0.56693" />
<path d="M856.01,145.24L868.01,145.24" style="fill:none;stroke:#808080;stroke-width:0.56693" />
<text x="852.56" y="-172.96" transform="scale(1, -1)"
	style="font-family:Liberation Serif;font-variant:normal;font-weight:normal;font-style:normal;font-size:8.4px;fill:#808080">2.682</text>
<text x="852.1" y="-164.56" transform="scale(1, -1)"
	style="font-family:Liberation Serif;font-variant:normal;font-weight:normal;font-style:normal;font-size:8.4px;fill:#808080">+11%</text>
<text x="855.02" y="-156.16" transform="scale(1, -1)"
	style="font-family:Liberation Serif;font-variant:normal;font-weight:normal;font-style:normal;font-size:8.4px;fill:#808080">-9%</text>
<path d="M177.13,40.209L177.13,47.018L201.13,47.018L201.13,40.209Z" style="fill:#E31A1C" />
<path d="M189.13,46.876L189.13,47.147" style="fill:none;stroke:#808080;stroke-width:0.56693" />
<path d="M183.13,46.876L195.13,46.876" style="fill:none;stroke:#808080;stroke-width:0.56693" />
<path d="M183.13,47.147L195.13,47.147" style="fill:none;stroke:#808080;stroke-width:0.56693" />
<text x="179.68" y="-74.861" transform="scale(1, -1)"
	style="font-family:Liberation Serif;font-variant:normal;font-weight:normal;font-style:normal;font-size:8.4px;fill:#808080">0.193</text>
<text x="184.2" y="-66.461" transform="scale(1, -1)"
	style="font-family:Liberation Serif;font-variant:normal;font-weight:normal;font-style:normal;font-size:8.4px;fill:#808080">+/-</text>
<text x="183.54" y="-58.061" transform="scale(1, -1)"
	style="font-family:Liberation Serif;font-variant:normal;font-weight:normal;font-style:normal;font-size:8.4px;fill:#808080">2%</text>
<path d="M527.07,40.209L527.07,62.98L551.07,62.98L551.07,40.209Z" style="fill:#E31A1C" />
<path d="M539.07,61.039L539.07,63.826" style="fill:none;stroke:#808080;stroke-width:0.56693" />
<path d="M533.07,61.039L545.07,61.039" style="fill:none;stroke:#808080;stroke-width:0.56693" />
<path d="M533.07,63.826L545.07,63.826" style="fill:none;stroke:#808080;stroke-width:0.56693" />
<text x="529.62" y="-91.54" transform="scale(1, -1)"
	style="font-family:Liberation Serif;font-variant:normal;font-weight:normal;font-style:normal;font-size:8.4px;fill:#808080">0.644</text>
<text x="531.11" y="-83.14" transform="scale(1, -1)"
	style="font-family:Liberation Serif;font-variant:normal;font-weight:normal;font-style:normal;font-size:8.4px;fill:#808080">+4%</text>
<text x="532.08" y="-74.74" transform="scale(1, -1)"
	style="font-family:Liberation Serif;font-variant:normal;font-weight:normal;font-style:normal;font-size:8.4px;fill:#808080">-9%</text>
<path d="M877.01,40.209L877.01,197.46L901.01,197.46L901.01,40.209Z" style="fill:#E31A1C" />
<path d="M889.01,194.97L889.01,211.62" style="fill:none;stroke:#808080;stroke-width:0.56693" />
<path d="M883.01,194.97L895.01,194.97" style="fill:none;stroke:#808080;stroke-width:0.56693" />
<path d="M883.01,211.62L895.01,211.62" style="fill:none;stroke:#808080;stroke-width:0.56693" />
<text x="879.56" y="-239.34" transform="scale(1, -1)"
	style="font-family:Liberation Serif;font-variant:normal;font-weight:normal;font-style:normal;font-size:8.4px;fill:#808080">4.447</text>
<text x="881.05" y="-230.94" transform="scale(1, -1)"
	style="font-family:Liberation Serif;font-variant:normal;font-weight:normal;font-style:normal;font-size:8.4px;fill:#808080">+9%</text>
<text x="882.02" y="-222.54" transform="scale(1, -1)"
	style="font-family:Liberation Serif;font-variant:normal;font-weight:normal;font-style:normal;font-size:8.4px;fill:#808080">-2%</text>
<path d="M204.13,40.209L204.13,44.822L228.13,44.822L228.13,40.209Z" style="fill:#FDBF6F" />
<path d="M216.13,44.38L216.13,45.179" style="fill:none;stroke:#808080;stroke-width:0.56693" />
<path d="M210.13,44.38L222.13,44.38" style="fill:none;stroke:#808080;stroke-width:0.56693" />
<path d="M210.13,45.179L222.13,45.179" style="fill:none;stroke:#808080;stroke-width:0.56693" />
<text x="206.68" y="-72.894" transform="scale(1, -1)"
	style="font-family:Liberation Serif;font-variant:normal;font-weight:normal;font-style:normal;font-size:8.4px;fill:#808080">0.130</text>
<text x="208.17" y="-64.494" transform="scale(1, -1)"
	style="font-family:Liberation Serif;font-variant:normal;font-weight:normal;font-style:normal;font-size:8.4px;fill:#808080">+8%</text>
<text x="207.04" y="-56.094" transform="scale(1, -1)"
	style="font-family:Liberation Serif;font-variant:normal;font-weight:normal;font-style:normal;font-size:8.4px;fill:#808080">-10%</text>
<path d="M554.07,40.209L554.07,66.968L578.07,66.968L578.07,40.209Z" style="fill:#FDBF6F" />
<path d="M566.07,65.99L566.07,67.984" style="fill:none;stroke:#808080;stroke-width:0.56693" />
<path d="M560.07,65.99L572.07,65.99" style="fill:none;stroke:#808080;stroke-width:0.56693" />
<path d="M560.07,67.984L572.07,67.984" style="fill:none;stroke:#808080;stroke-width:0.56693" />
<text x="556.62" y="-95.699" transform="scale(1, -1)"
	style="font-family:Liberation Serif;font-variant:normal;font-weight:normal;font-style:normal;font-size:8.4px;fill:#808080">0.757</text>
<text x="561.14" y="-87.299" transform="scale(1, -1)"
	style="font-family:Liberation Serif;font-variant:normal;font-weight:normal;font-style:normal;font-size:8.4px;fill:#808080">+/-</text>
<text x="560.48" y="-78.899" transform="scale(1, -1)"
	style="font-family:Liberation Serif;font-variant:normal;font-weight:normal;font-style:normal;font-size:8.4px;fill:#808080">4%</text>
<path d="M904.01,40.209L904.01,241.65L928.01,241.65L928.01,40.209Z" style="fill:#FDBF6F" />
<path d="M916.01,237.4L916.01,261.45" style="fill:none;stroke:#808080;stroke-width:0.56693" />
<path d="M910.01,237.4L922.01,237.4" style="fill:none;stroke:#808080;stroke-width:0.56693" />
<path d="M910.01,261.45L922.01,261.45" style="fill:none;stroke:#808080;stroke-width:0.56693" />
<text x="906.56" y="-289.17" transform="scale(1, -1)"
	style="font-family:Liberation Serif;font-variant:normal;font-weight:normal;font-style:normal;font-size:8.4px;fill:#808080">5.696</text>
<text x="905.95" y="-280.77" transform="scale(1, -1)"
	style="font-family:Liberation Serif;font-variant:normal;font-weight:normal;font-style:normal;font-size:8.4px;fill:#808080">+10%</text>
<text x="909.02" y="-272.37" transform="scale(1, -1)"
	style="font-family:Liberation Serif;font-variant:normal;font-weight:normal;font-style:normal;font-size:8.4px;fill:#808080">-2%</text>
<path d="M231.13,40.209L231.13,44.026L255.13,44.026L255.13,40.209Z" style="fill:#FF7F00" />
<path d="M243.13,43.941L243.13,44.177" style="fill:none;stroke:#808080;stroke-width:0.56693" />
<path d="M237.13,43.941L249.13,43.941" style="fill:none;stroke:#808080;stroke-width:0.56693" />
<path d="M237.13,44.177L249.13,44.177" style="fill:none;stroke:#808080;stroke-width:0.56693" />
<text x="233.68" y="-71.892" transform="scale(1, -1)"
	style="font-family:Liberation Serif;font-variant:normal;font-weight:normal;font-style:normal;font-size:8.4px;fill:#808080">0.108</text>
<text x="235.17" y="-63.492" transform="scale(1, -1)"
	style="font-family:Liberation Serif;font-variant:normal;font-weight:normal;font-style:normal;font-size:8.4px;fill:#808080">+4%</text>
<text x="236.14" y="-55.092" transform="scale(1, -1)"
	style="font-family:Liberation Serif;font-variant:normal;font-weight:normal;font-style:normal;font-size:8.4px;fill:#808080">-2%</text>
<path d="M581.07,40.209L581.07,63.997L605.07,63.997L605.07,40.209Z" style="fill:#FF7F00" />
<path d="M593.07,61.548L593.07,64.865" style="fill:none;stroke:#808080;stroke-width:0.56693" />
<path d="M587.07,61.548L599.07,61.548" style="fill:none;stroke:#808080;stroke-width:0.56693" />
<path d="M587.07,64.865L599.07,64.865" style="fill:none;stroke:#808080;stroke-width:0.56693" />
<text x="583.62" y="-92.58" transform="scale(1, -1)"
	style="font-family:Liberation Serif;font-variant:normal;font-weight:normal;font-style:normal;font-size:8.4px;fill:#808080">0.673</text>
<text x="585.11" y="-84.18" transform="scale(1, -1)"
	style="font-family:Liberation Serif;font-variant:normal;font-weight:normal;font-style:normal;font-size:8.4px;fill:#808080">+4%</text>
<text x="583.98" y="-75.78" transform="scale(1, -1)"
	style="font-family:Liberation Serif;font-variant:normal;font-weight:normal;font-style:normal;font-size:8.4px;fill:#808080">-10%</text>
<path d="M931.01,40.209L931.01,275.7L955.01,275.7L955.01,40.209Z" style="fill:#FF7F00" />
<path d="M943.01,273.51L943.01,283.8" style="fill:none;stroke:#808080;stroke-width:0.56693" />
<path d="M937.01,273.51L949.01,273.51" style="fill:none;stroke:#808080;stroke-width:0.56693" />
<path d="M937.01,283.8L949.01,283.8" style="fill:none;stroke:#808080;stroke-width:0.56693" />
<text x="933.56" y="-311.52" transform="scale(1, -1)"
	style="font-family:Liberation Serif;font-variant:normal;font-weight:normal;font-style:normal;font-size:8.4px;fill:#808080">6.659</text>
<text x="935.05" y="-303.12" transform="scale(1, -1)"
	style="font-family:Liberation Serif;font-variant:normal;font-weight:normal;font-style:normal;font-size:8.4px;fill:#808080">+3%</text>
<text x="936.02" y="-294.72" transform="scale(1, -1)"
	style="font-family:Liberation Serif;font-variant:normal;font-weight:normal;font-style:normal;font-size:8.4px;fill:#808080">-1%</text>
<path d="M258.13,40.209L258.13,43.455L282.13,43.455L282.13,40.209Z" style="fill:#CAB2D6" />
<path d="M270.13,43.325L270.13,43.49" style="fill:none;stroke:#808080;stroke-width:0.56693" />
<path d="M264.13,43.325L276.13,43.325" style="fill:none;stroke:#808080;stroke-width:0.56693" />
<path d="M264.13,43.49L276.13,43.49" style="fill:none;stroke:#808080;stroke-width:0.56693" />
<text x="260.68" y="-71.205" transform="scale(1, -1)"
	style="font-family:Liberation Serif;font-variant:normal;font-weight:normal;font-style:normal;font-size:8.4px;fill:#808080">0.092</text>
<text x="262.17" y="-62.805" transform="scale(1, -1)"
	style="font-family:Liberation Serif;font-variant:normal;font-weight:normal;font-style:normal;font-size:8.4px;fill:#808080">+1%</text>
<text x="263.14" y="-54.405" transform="scale(1, -1)"
	style="font-family:Liberation Serif;font-variant:normal;font-weight:normal;font-style:normal;font-size:8.4px;fill:#808080">-4%</text>
<path d="M608.07,40.209L608.07,71.793L632.07,71.793L632.07,40.209Z" style="fill:#CAB2D6" />
<path d="M620.07,70.117L620.07,73.02" style="fill:none;stroke:#808080;stroke-width:0.56693" />
<path d="M614.07,70.117L626.07,70.117" style="fill:none;stroke:#808080;stroke-width:0.56693" />
<path d="M614.07,73.02L626.07,73.02" style="fill:none;stroke:#808080;stroke-width:0.56693" />
<text x="610.62" y="-100.74" transform="scale(1, -1)"
	style="font-family:Liberation Serif;font-variant:normal;font-weight:normal;font-style:normal;font-size:8.4px;fill:#808080">0.893</text>
<text x="612.11" y="-92.335" transform="scale(1, -1)"
	style="font-family:Liberation Serif;font-variant:normal;font-weight:normal;font-style:normal;font-size:8.4px;fill:#808080">+4%</text>
<text x="613.08" y="-83.935" transform="scale(1, -1)"
	style="font-family:Liberation Serif;font-variant:normal;font-weight:normal;font-style:normal;font-size:8.4px;fill:#808080">-5%</text>
<path d="M958.01,40.209L958.01,334.92L982.01,334.92L982.01,40.209Z" style="fill:#CAB2D6" />
<path d="M970.01,323.73L970.01,343.11" style="fill:none;stroke:#808080;stroke-width:0.56693" />
<path d="M964.01,323.73L976.01,323.73" style="fill:none;stroke:#808080;stroke-width:0.56693" />
<path d="M964.01,343.11L976.01,343.11" style="fill:none;stroke:#808080;stroke-width:0.56693" />
<text x="960.56" y="-370.82" transform="scale(1, -1)"
	style="font-family:Liberation Serif;font-variant:normal;font-weight:normal;font-style:normal;font-size:8.4px;fill:#808080">8.334</text>
<text x="962.05" y="-362.42" transform="scale(1, -1)"
	style="font-family:Liberation Serif;font-variant:normal;font-weight:normal;font-style:normal;font-size:8.4px;fill:#808080">+3%</text>
<text x="963.02" y="-354.02" transform="scale(1, -1)"
	style="font-family:Liberation Serif;font-variant:normal;font-weight:normal;font-style:normal;font-size:8.4px;fill:#808080">-4%</text>
<path d="M285.13,40.209L285.13,46.692L309.13,46.692L309.13,40.209Z" style="fill:#6A3D9A" />
<path d="M297.13,44.935L297.13,49.105" style="fill:none;stroke:#808080;stroke-width:0.56693" />
<path d="M291.13,44.935L303.13,44.935" style="fill:none;stroke:#808080;stroke-width:0.56693" />
<path d="M291.13,49.105L303.13,49.105" style="fill:none;stroke:#808080;stroke-width:0.56693" />
<text x="287.68" y="-76.82" transform="scale(1, -1)"
	style="font-family:Liberation Serif;font-variant:normal;font-weight:normal;font-style:normal;font-size:8.4px;fill:#808080">0.183</text>
<text x="287.07" y="-68.42" transform="scale(1, -1)"
	style="font-family:Liberation Serif;font-variant:normal;font-weight:normal;font-style:normal;font-size:8.4px;fill:#808080">+37%</text>
<text x="288.04" y="-60.02" transform="scale(1, -1)"
	style="font-family:Liberation Serif;font-variant:normal;font-weight:normal;font-style:normal;font-size:8.4px;fill:#808080">-27%</text>
<path d="M635.07,40.209L635.07,60.406L659.07,60.406L659.07,40.209Z" style="fill:#6A3D9A" />
<path d="M647.07,57.852L647.07,65.102" style="fill:none;stroke:#808080;stroke-width:0.56693" />
<path d="M641.07,57.852L653.07,57.852" style="fill:none;stroke:#808080;stroke-width:0.56693" />
<path d="M641.07,65.102L653.07,65.102" style="fill:none;stroke:#808080;stroke-width:0.56693" />
<text x="637.62" y="-92.817" transform="scale(1, -1)"
	style="font-family:Liberation Serif;font-variant:normal;font-weight:normal;font-style:normal;font-size:8.4px;fill:#808080">0.571</text>
<text x="637.01" y="-84.417" transform="scale(1, -1)"
	style="font-family:Liberation Serif;font-variant:normal;font-weight:normal;font-style:normal;font-size:8.4px;fill:#808080">+23%</text>
<text x="637.98" y="-76.017" transform="scale(1, -1)"
	style="font-family:Liberation Serif;font-variant:normal;font-weight:normal;font-style:normal;font-size:8.4px;fill:#808080">-13%</text>
<path d="M985.01,40.209L985.01,327.37L1009,327.37L1009,40.209Z" style="fill:#6A3D9A" />
<path d="M997.01,304.7L997.01,355.63" style="fill:none;stroke:#808080;stroke-width:0.56693" />
<path d="M991.01,304.7L1003,304.7" style="fill:none;stroke:#808080;stroke-width:0.56693" />
<path d="M991.01,355.63L1003,355.63" style="fill:none;stroke:#808080;stroke-width:0.56693" />
<text x="987.56" y="-383.34" transform="scale(1, -1)"
	style="font-family:Liberation Serif;font-variant:normal;font-weight:normal;font-style:normal;font-size:8.4px;fill:#808080">8.120</text>
<text x="986.95" y="-374.94" transform="scale(1, -1)"
	style="font-family:Liberation Serif;font-variant:normal;font-weight:normal;font-style:normal;font-size:8.4px;fill:#808080">+10%</text>
<text x="990.02" y="-366.54" transform="scale(1, -1)"
	style="font-family:Liberation Serif;font-variant:normal;font-weight:normal;font-style:normal;font-size:8.4px;fill:#808080">-8%</text>
</g>
</svg>
