<?xml version="1.0"?>
<!-- Generated by SVGo and Plotinum VG -->
<svg width="720pt" height="432pt" viewBox="0 0 720 432"
	xmlns="http://www.w3.org/2000/svg"
	xmlns:xlink="http://www.w3.org/1999/xlink">
<g transform="scale(1, -1) translate(0, -432)">
<path d="M657.84,301.15A2.5,2.5 0 1 1 652.84,301.15A2.5,2.5 0 1 1 657.84,301.15Z" style="fill:none;stroke:#A6CEE3;stroke-width:0.5" />
<text x="668.34" y="-298.66" transform="scale(1, -1)"
	style="font-family:Liberation Serif;font-variant:normal;font-weight:normal;font-style:normal;font-size:12px;fill:#808080">Limit 1</text>
<path d="M653.2,282.83L657.47,282.83L657.47,287.1L653.2,287.1Z" style="fill:none;stroke:#1F78B4;stroke-width:0.5" />
<text x="668.34" y="-282.48" transform="scale(1, -1)"
	style="font-family:Liberation Serif;font-variant:normal;font-weight:normal;font-style:normal;font-size:12px;fill:#808080">Limit 2</text>
<path d="M655.34,271.91L652.63,267.22L658.04,267.22Z" style="fill:none;stroke:#B2DF8A;stroke-width:0.5" />
<text x="668.34" y="-266.3" transform="scale(1, -1)"
	style="font-family:Liberation Serif;font-variant:normal;font-weight:normal;font-style:normal;font-size:12px;fill:#808080">Limit 3</text>
<path d="M653.57,250.83L657.11,254.37" style="fill:none;stroke:#33A02C;stroke-width:0.5" />
<path d="M653.57,254.37L657.11,250.83" style="fill:none;stroke:#33A02C;stroke-width:0.5" />
<text x="668.34" y="-250.11" transform="scale(1, -1)"
	style="font-family:Liberation Serif;font-variant:normal;font-weight:normal;font-style:normal;font-size:12px;fill:#808080">Limit 4</text>
<path d="M655.34,238.92L655.34,233.92" style="fill:none;stroke:#FB9A99;stroke-width:0.5" />
<path d="M652.84,236.42L657.84,236.42" style="fill:none;stroke:#FB9A99;stroke-width:0.5" />
<text x="668.34" y="-233.93" transform="scale(1, -1)"
	style="font-family:Liberation Serif;font-variant:normal;font-weight:normal;font-style:normal;font-size:12px;fill:#808080">Limit 8</text>
<path d="M657.84,220.23A2.5,2.5 0 1 1 652.84,220.23A2.5,2.5 0 1 1 657.84,220.23Z" style="fill:#E31A1C" />
<text x="668.34" y="-217.75" transform="scale(1, -1)"
	style="font-family:Liberation Serif;font-variant:normal;font-weight:normal;font-style:normal;font-size:12px;fill:#808080">Limit 16</text>
<path d="M653.2,201.92L657.47,201.92L657.47,206.18L653.2,206.18Z" style="fill:#FDBF6F" />
<text x="668.34" y="-201.56" transform="scale(1, -1)"
	style="font-family:Liberation Serif;font-variant:normal;font-weight:normal;font-style:normal;font-size:12px;fill:#808080">Unlimited</text>
<path d="M648.34,195.96L648.34,311.84L720,311.84L720,195.96L648.34,195.96" style="fill:none;stroke:#808080" />
<path d="M0,0L629.34,0L629.34,432L0,432Z" style="fill:#-8000000000000000-8000000000000000-8000000000000000;fill-opacity:0" />
<text x="246.35" y="-420.81" transform="scale(1, -1)"
	style="font-family:Liberation Serif;font-variant:normal;font-weight:normal;font-style:normal;font-size:12px;fill:#808080">Throughput vs. P99 Latency</text>
<text x="199.94" y="-408.81" transform="scale(1, -1)"
	style="font-family:Liberation Serif;font-variant:normal;font-weight:normal;font-style:normal;font-size:12px;fill:#808080">(100µs waiting workload flushing every 100µs)</text>
<text x="247.93" y="-3.9023" transform="scale(1, -1)"
	style="font-family:Liberation Serif;font-variant:normal;font-weight:normal;font-style:normal;font-size:12px;fill:#808080">P99 Workflow Latency (milliseconds)</text>
<text x="154.96" y="-16.541" transform="scale(1, -1)"
	style="font-family:Liberation Serif;font-variant:normal;font-weight:normal;font-style:normal;font-size:10px;fill:#808080">50</text>
<text x="368.12" y="-16.541" transform="scale(1, -1)"
	style="font-family:Liberation Serif;font-variant:normal;font-weight:normal;font-style:normal;font-size:10px;fill:#808080">150</text>
<text x="583.77" y="-16.541" transform="scale(1, -1)"
	style="font-family:Liberation Serif;font-variant:normal;font-weight:normal;font-style:normal;font-size:10px;fill:#808080">250</text>
<path d="M159.96,24.363L159.96,32.363" style="fill:none;stroke:#808080;stroke-width:0.5" />
<path d="M375.62,24.363L375.62,32.363" style="fill:none;stroke:#808080;stroke-width:0.5" />
<path d="M591.27,24.363L591.27,32.363" style="fill:none;stroke:#808080;stroke-width:0.5" />
<path d="M267.79,28.363L267.79,32.363" style="fill:none;stroke:#808080;stroke-width:0.5" />
<path d="M483.44,28.363L483.44,32.363" style="fill:none;stroke:#808080;stroke-width:0.5" />
<path d="M52.135,32.363L626.84,32.363" style="fill:none;stroke:#808080;stroke-width:0.5" />
<g transform="rotate(90)">
<text x="122.59" y="9.3867" transform="scale(1, -1)"
	style="font-family:Liberation Serif;font-variant:normal;font-weight:normal;font-style:normal;font-size:12px;fill:#808080">Workflow Throughput (tasks per second)</text>
</g>
<text x="30.885" y="-37.924" transform="scale(1, -1)"
	style="font-family:Liberation Serif;font-variant:normal;font-weight:normal;font-style:normal;font-size:10px;fill:#808080">0</text>
<text x="20.885" y="-209.58" transform="scale(1, -1)"
	style="font-family:Liberation Serif;font-variant:normal;font-weight:normal;font-style:normal;font-size:10px;fill:#808080">800</text>
<text x="15.885" y="-381.24" transform="scale(1, -1)"
	style="font-family:Liberation Serif;font-variant:normal;font-weight:normal;font-style:normal;font-size:10px;fill:#808080">1600</text>
<path d="M38.385,40.209L46.385,40.209" style="fill:none;stroke:#808080;stroke-width:0.5" />
<path d="M38.385,211.87L46.385,211.87" style="fill:none;stroke:#808080;stroke-width:0.5" />
<path d="M38.385,383.53L46.385,383.53" style="fill:none;stroke:#808080;stroke-width:0.5" />
<path d="M42.385,126.04L46.385,126.04" style="fill:none;stroke:#808080;stroke-width:0.5" />
<path d="M42.385,297.7L46.385,297.7" style="fill:none;stroke:#808080;stroke-width:0.5" />
<path d="M46.385,40.209L46.385,402.41" style="fill:none;stroke:#808080;stroke-width:0.5" />
<path d="M391.64,226.98A2.5,2.5 0 1 1 386.64,226.98A2.5,2.5 0 1 1 391.64,226.98Z" style="fill:none;stroke:#A6CEE3;stroke-width:0.5" />
<path d="M453.53,229.98A2.5,2.5 0 1 1 448.53,229.98A2.5,2.5 0 1 1 453.53,229.98Z" style="fill:none;stroke:#A6CEE3;stroke-width:0.5" />
<path d="M501.37,231.46A2.5,2.5 0 1 1 496.37,231.46A2.5,2.5 0 1 1 501.37,231.46Z" style="fill:none;stroke:#A6CEE3;stroke-width:0.5" />
<path d="M521.87,231.8A2.5,2.5 0 1 1 516.87,231.8A2.5,2.5 0 1 1 521.87,231.8Z" style="fill:none;stroke:#A6CEE3;stroke-width:0.5" />
<path d="M538.68,231.91A2.5,2.5 0 1 1 533.68,231.91A2.5,2.5 0 1 1 538.68,231.91Z" style="fill:none;stroke:#A6CEE3;stroke-width:0.5" />
<path d="M598.34,232.25A2.5,2.5 0 1 1 593.34,232.25A2.5,2.5 0 1 1 598.34,232.25Z" style="fill:none;stroke:#A6CEE3;stroke-width:0.5" />
<path d="M482.05,275.18L486.32,275.18L486.32,279.45L482.05,279.45Z" style="fill:none;stroke:#1F78B4;stroke-width:0.5" />
<path d="M487.48,276.9L491.75,276.9L491.75,281.17L487.48,281.17Z" style="fill:none;stroke:#1F78B4;stroke-width:0.5" />
<path d="M517.42,283.55L521.69,283.55L521.69,287.82L517.42,287.82Z" style="fill:none;stroke:#1F78B4;stroke-width:0.5" />
<path d="M550.37,285.48L554.64,285.48L554.64,289.75L550.37,289.75Z" style="fill:none;stroke:#1F78B4;stroke-width:0.5" />
<path d="M610.62,295.99L614.89,295.99L614.89,300.26L610.62,300.26Z" style="fill:none;stroke:#1F78B4;stroke-width:0.5" />
<path d="M624.7,315.74L628.97,315.74L628.97,320L624.7,320Z" style="fill:none;stroke:#1F78B4;stroke-width:0.5" />
<path d="M429.06,314.13L426.36,309.44L431.77,309.44Z" style="fill:none;stroke:#B2DF8A;stroke-width:0.5" />
<path d="M442.39,315.84L439.68,311.16L445.1,311.16Z" style="fill:none;stroke:#B2DF8A;stroke-width:0.5" />
<path d="M453.7,316.27L450.99,311.59L456.41,311.59Z" style="fill:none;stroke:#B2DF8A;stroke-width:0.5" />
<path d="M458.74,323.57L456.03,318.88L461.44,318.88Z" style="fill:none;stroke:#B2DF8A;stroke-width:0.5" />
<path d="M464.59,330.01L461.88,325.32L467.29,325.32Z" style="fill:none;stroke:#B2DF8A;stroke-width:0.5" />
<path d="M482.81,336.01L480.1,331.33L485.51,331.33Z" style="fill:none;stroke:#B2DF8A;stroke-width:0.5" />
<path d="M399.19,320.82L402.72,324.36" style="fill:none;stroke:#33A02C;stroke-width:0.5" />
<path d="M399.19,324.36L402.72,320.82" style="fill:none;stroke:#33A02C;stroke-width:0.5" />
<path d="M420.1,327.47L423.64,331.01" style="fill:none;stroke:#33A02C;stroke-width:0.5" />
<path d="M420.1,331.01L423.64,327.47" style="fill:none;stroke:#33A02C;stroke-width:0.5" />
<path d="M433.96,338.85L437.5,342.38" style="fill:none;stroke:#33A02C;stroke-width:0.5" />
<path d="M433.96,342.38L437.5,338.85" style="fill:none;stroke:#33A02C;stroke-width:0.5" />
<path d="M472.67,343.78L476.2,347.32" style="fill:none;stroke:#33A02C;stroke-width:0.5" />
<path d="M472.67,347.32L476.2,343.78" style="fill:none;stroke:#33A02C;stroke-width:0.5" />
<path d="M473.36,364.17L476.9,367.7" style="fill:none;stroke:#33A02C;stroke-width:0.5" />
<path d="M473.36,367.7L476.9,364.17" style="fill:none;stroke:#33A02C;stroke-width:0.5" />
<path d="M484.86,392.06L488.4,395.6" style="fill:none;stroke:#33A02C;stroke-width:0.5" />
<path d="M484.86,395.6L488.4,392.06" style="fill:none;stroke:#33A02C;stroke-width:0.5" />
<path d="M332.24,343.33L332.24,338.33" style="fill:none;stroke:#FB9A99;stroke-width:0.5" />
<path d="M329.74,340.83L334.74,340.83" style="fill:none;stroke:#FB9A99;stroke-width:0.5" />
<path d="M372.04,365.86L372.04,360.86" style="fill:none;stroke:#FB9A99;stroke-width:0.5" />
<path d="M369.54,363.36L374.54,363.36" style="fill:none;stroke:#FB9A99;stroke-width:0.5" />
<path d="M373.35,382.17L373.35,377.17" style="fill:none;stroke:#FB9A99;stroke-width:0.5" />
<path d="M370.85,379.67L375.85,379.67" style="fill:none;stroke:#FB9A99;stroke-width:0.5" />
<path d="M385.82,384.1L385.82,379.1" style="fill:none;stroke:#FB9A99;stroke-width:0.5" />
<path d="M383.32,381.6L388.32,381.6" style="fill:none;stroke:#FB9A99;stroke-width:0.5" />
<path d="M395.19,388.39L395.19,383.39" style="fill:none;stroke:#FB9A99;stroke-width:0.5" />
<path d="M392.69,385.89L397.69,385.89" style="fill:none;stroke:#FB9A99;stroke-width:0.5" />
<path d="M401.4,393.54L401.4,388.54" style="fill:none;stroke:#FB9A99;stroke-width:0.5" />
<path d="M398.9,391.04L403.9,391.04" style="fill:none;stroke:#FB9A99;stroke-width:0.5" />
<path d="M300.32,319.16A2.5,2.5 0 1 1 295.32,319.16A2.5,2.5 0 1 1 300.32,319.16Z" style="fill:#E31A1C" />
<path d="M310.99,348.55A2.5,2.5 0 1 1 305.99,348.55A2.5,2.5 0 1 1 310.99,348.55Z" style="fill:#E31A1C" />
<path d="M314.53,363.79A2.5,2.5 0 1 1 309.53,363.79A2.5,2.5 0 1 1 314.53,363.79Z" style="fill:#E31A1C" />
<path d="M330.63,385.25A2.5,2.5 0 1 1 325.63,385.25A2.5,2.5 0 1 1 330.63,385.25Z" style="fill:#E31A1C" />
<path d="M345.4,385.68A2.5,2.5 0 1 1 340.4,385.68A2.5,2.5 0 1 1 345.4,385.68Z" style="fill:#E31A1C" />
<path d="M355.83,402.41A2.5,2.5 0 1 1 350.83,402.41A2.5,2.5 0 1 1 355.83,402.41Z" style="fill:#E31A1C" />
<path d="M412,225.55L416.27,225.55L416.27,229.82L412,229.82Z" style="fill:#FDBF6F" />
<path d="M417.61,226.94L421.88,226.94L421.88,231.21L417.61,231.21Z" style="fill:#FDBF6F" />
<path d="M428.85,227.24L433.12,227.24L433.12,231.51L428.85,231.51Z" style="fill:#FDBF6F" />
<path d="M468.62,229.8L472.89,229.8L472.89,234.07L468.62,234.07Z" style="fill:#FDBF6F" />
<path d="M472.63,230.72L476.9,230.72L476.9,234.99L472.63,234.99Z" style="fill:#FDBF6F" />
<path d="M476,230.74L480.27,230.74L480.27,235.01L476,235.01Z" style="fill:#FDBF6F" />
</g>
</svg>
