<?xml version="1.0"?>
<!-- Generated by SVGo and Plotinum VG -->
<svg width="1152pt" height="432pt" viewBox="0 0 1152 432"
	xmlns="http://www.w3.org/2000/svg"
	xmlns:xlink="http://www.w3.org/1999/xlink">
<g transform="scale(1, -1) translate(0, -432)">
<path d="M1025,312.19L1025,322.37L1045,322.37L1045,312.19Z" style="fill:#A6CEE3" />
<text x="1048" y="-314.79" transform="scale(1, -1)"
	style="font-family:Liberation Serif;font-variant:normal;font-weight:normal;font-style:normal;font-size:12px;fill:#808080">Gather Only</text>
<path d="M1025,296L1025,306.19L1045,306.19L1045,296Z" style="fill:#1F78B4" />
<text x="1048" y="-298.61" transform="scale(1, -1)"
	style="font-family:Liberation Serif;font-variant:normal;font-weight:normal;font-style:normal;font-size:12px;fill:#808080">Combine (limit 1)</text>
<path d="M1025,279.82L1025,290L1045,290L1045,279.82Z" style="fill:#B2DF8A" />
<text x="1048" y="-282.42" transform="scale(1, -1)"
	style="font-family:Liberation Serif;font-variant:normal;font-weight:normal;font-style:normal;font-size:12px;fill:#808080">Combine (limit 2)</text>
<path d="M1025,263.63L1025,273.82L1045,273.82L1045,263.63Z" style="fill:#33A02C" />
<text x="1048" y="-266.24" transform="scale(1, -1)"
	style="font-family:Liberation Serif;font-variant:normal;font-weight:normal;font-style:normal;font-size:12px;fill:#808080">Combine (limit 3)</text>
<path d="M1025,247.45L1025,257.63L1045,257.63L1045,247.45Z" style="fill:#FB9A99" />
<text x="1048" y="-250.06" transform="scale(1, -1)"
	style="font-family:Liberation Serif;font-variant:normal;font-weight:normal;font-style:normal;font-size:12px;fill:#808080">Combine (limit 4)</text>
<path d="M1025,231.27L1025,241.45L1045,241.45L1045,231.27Z" style="fill:#E31A1C" />
<text x="1048" y="-233.87" transform="scale(1, -1)"
	style="font-family:Liberation Serif;font-variant:normal;font-weight:normal;font-style:normal;font-size:12px;fill:#808080">Combine (limit 8)</text>
<path d="M1025,215.08L1025,225.27L1045,225.27L1045,215.08Z" style="fill:#FDBF6F" />
<text x="1048" y="-217.69" transform="scale(1, -1)"
	style="font-family:Liberation Serif;font-variant:normal;font-weight:normal;font-style:normal;font-size:12px;fill:#808080">Combine (limit 12)</text>
<path d="M1025,198.9L1025,209.08L1045,209.08L1045,198.9Z" style="fill:#FF7F00" />
<text x="1048" y="-201.5" transform="scale(1, -1)"
	style="font-family:Liberation Serif;font-variant:normal;font-weight:normal;font-style:normal;font-size:12px;fill:#808080">Combine (limit 16)</text>
<path d="M1025,182.72L1025,192.9L1045,192.9L1045,182.72Z" style="fill:#CAB2D6" />
<text x="1048" y="-185.32" transform="scale(1, -1)"
	style="font-family:Liberation Serif;font-variant:normal;font-weight:normal;font-style:normal;font-size:12px;fill:#808080">Combine (limit 24)</text>
<path d="M1025,166.53L1025,176.72L1045,176.72L1045,166.53Z" style="fill:#6A3D9A" />
<text x="1048" y="-169.14" transform="scale(1, -1)"
	style="font-family:Liberation Serif;font-variant:normal;font-weight:normal;font-style:normal;font-size:12px;fill:#808080">Combine (unlimited)</text>
<path d="M1028,163.53L1028,327.96L1152,327.96L1152,163.53L1028,163.53" style="fill:none;stroke:#808080" />
<path d="M0,0L1009,0L1009,432L0,432Z" style="fill:#-8000000000000000-8000000000000000-8000000000000000;fill-opacity:0" />
<text x="390.71" y="-422.61" transform="scale(1, -1)"
	style="font-family:Liberation Serif;font-variant:normal;font-weight:normal;font-style:normal;font-size:12px;fill:#808080">Bytes Allocated Per Task Aggregated (Waiting)</text>
<text x="417.57" y="-3.9023" transform="scale(1, -1)"
	style="font-family:Liberation Serif;font-variant:normal;font-weight:normal;font-style:normal;font-size:12px;fill:#808080">Aggregation Workload Duration @ Flush Period</text>
<text x="167.87" y="-16.541" transform="scale(1, -1)"
	style="font-family:Liberation Serif;font-variant:normal;font-weight:normal;font-style:normal;font-size:10px;fill:#808080">10µs @ 1ms</text>
<text x="504.06" y="-16.541" transform="scale(1, -1)"
	style="font-family:Liberation Serif;font-variant:normal;font-weight:normal;font-style:normal;font-size:10px;fill:#808080">100µs @ 10ms</text>
<text x="846.74" y="-16.541" transform="scale(1, -1)"
	style="font-family:Liberation Serif;font-variant:normal;font-weight:normal;font-style:normal;font-size:10px;fill:#808080">1ms @ 100ms</text>
<path d="M193.13,24.363L193.13,32.363" style="fill:none;stroke:#808080;stroke-width:0.5" />
<path d="M534.32,24.363L534.32,32.363" style="fill:none;stroke:#808080;stroke-width:0.5" />
<path d="M875.51,24.363L875.51,32.363" style="fill:none;stroke:#808080;stroke-width:0.5" />
<path d="M193.13,32.363L875.51,32.363" style="fill:none;stroke:#808080;stroke-width:0.5" />
<g transform="rotate(90)">
<text x="175.17" y="9.3867" transform="scale(1, -1)"
	style="font-family:Liberation Serif;font-variant:normal;font-weight:normal;font-style:normal;font-size:12px;fill:#808080">Allocated Bytes / Task</text>
</g>
<text x="25.885" y="-37.924" transform="scale(1, -1)"
	style="font-family:Liberation Serif;font-variant:normal;font-weight:normal;font-style:normal;font-size:10px;fill:#808080">0.00</text>
<text x="15.885" y="-159.92" transform="scale(1, -1)"
	style="font-family:Liberation Serif;font-variant:normal;font-weight:normal;font-style:normal;font-size:10px;fill:#808080">250.00</text>
<text x="15.885" y="-281.92" transform="scale(1, -1)"
	style="font-family:Liberation Serif;font-variant:normal;font-weight:normal;font-style:normal;font-size:10px;fill:#808080">500.00</text>
<text x="15.885" y="-403.91" transform="scale(1, -1)"
	style="font-family:Liberation Serif;font-variant:normal;font-weight:normal;font-style:normal;font-size:10px;fill:#808080">750.00</text>
<path d="M45.885,40.209L53.885,40.209" style="fill:none;stroke:#808080;stroke-width:0.5" />
<path d="M45.885,162.2L53.885,162.2" style="fill:none;stroke:#808080;stroke-width:0.5" />
<path d="M45.885,284.2L53.885,284.2" style="fill:none;stroke:#808080;stroke-width:0.5" />
<path d="M45.885,406.2L53.885,406.2" style="fill:none;stroke:#808080;stroke-width:0.5" />
<path d="M49.885,64.608L53.885,64.608" style="fill:none;stroke:#808080;stroke-width:0.5" />
<path d="M49.885,89.007L53.885,89.007" style="fill:none;stroke:#808080;stroke-width:0.5" />
<path d="M49.885,113.41L53.885,113.41" style="fill:none;stroke:#808080;stroke-width:0.5" />
<path d="M49.885,137.81L53.885,137.81" style="fill:none;stroke:#808080;stroke-width:0.5" />
<path d="M49.885,186.6L53.885,186.6" style="fill:none;stroke:#808080;stroke-width:0.5" />
<path d="M49.885,211L53.885,211" style="fill:none;stroke:#808080;stroke-width:0.5" />
<path d="M49.885,235.4L53.885,235.4" style="fill:none;stroke:#808080;stroke-width:0.5" />
<path d="M49.885,259.8L53.885,259.8" style="fill:none;stroke:#808080;stroke-width:0.5" />
<path d="M49.885,308.6L53.885,308.6" style="fill:none;stroke:#808080;stroke-width:0.5" />
<path d="M49.885,333L53.885,333" style="fill:none;stroke:#808080;stroke-width:0.5" />
<path d="M49.885,357.4L53.885,357.4" style="fill:none;stroke:#808080;stroke-width:0.5" />
<path d="M49.885,381.8L53.885,381.8" style="fill:none;stroke:#808080;stroke-width:0.5" />
<path d="M53.885,40.209L53.885,418.71" style="fill:none;stroke:#808080;stroke-width:0.5" />
<path d="M59.635,40.209L59.635,229.73L83.635,229.73L83.635,40.209Z" style="fill:#A6CEE3" />
<path d="M71.635,229.48L71.635,230.57" style="fill:none;stroke:#808080;stroke-width:0.56693" />
<path d="M65.635,229.48L77.635,229.48" style="fill:none;stroke:#808080;stroke-width:0.56693" />
<path d="M65.635,230.57L77.635,230.57" style="fill:none;stroke:#808080;stroke-width:0.56693" />
<text x="62.185" y="-258.28" transform="scale(1, -1)"
	style="font-family:Liberation Serif;font-variant:normal;font-weight:normal;font-style:normal;font-size:8.4px;fill:#808080">388.4</text>
<text x="66.701" y="-249.88" transform="scale(1, -1)"
	style="font-family:Liberation Serif;font-variant:normal;font-weight:normal;font-style:normal;font-size:8.4px;fill:#808080">+/-</text>
<text x="66.036" y="-241.48" transform="scale(1, -1)"
	style="font-family:Liberation Serif;font-variant:normal;font-weight:normal;font-style:normal;font-size:8.4px;fill:#808080">0%</text>
<path d="M400.82,40.209L400.82,242.6L424.82,242.6L424.82,40.209Z" style="fill:#A6CEE3" />
<path d="M412.82,232.76L412.82,246.35" style="fill:none;stroke:#808080;stroke-width:0.56693" />
<path d="M406.82,232.76L418.82,232.76" style="fill:none;stroke:#808080;stroke-width:0.56693" />
<path d="M406.82,246.35L418.82,246.35" style="fill:none;stroke:#808080;stroke-width:0.56693" />
<text x="403.37" y="-274.07" transform="scale(1, -1)"
	style="font-family:Liberation Serif;font-variant:normal;font-weight:normal;font-style:normal;font-size:8.4px;fill:#808080">414.8</text>
<text x="404.86" y="-265.67" transform="scale(1, -1)"
	style="font-family:Liberation Serif;font-variant:normal;font-weight:normal;font-style:normal;font-size:8.4px;fill:#808080">+2%</text>
<text x="405.83" y="-257.27" transform="scale(1, -1)"
	style="font-family:Liberation Serif;font-variant:normal;font-weight:normal;font-style:normal;font-size:8.4px;fill:#808080">-5%</text>
<path d="M742.01,40.209L742.01,236.52L766.01,236.52L766.01,40.209Z" style="fill:#A6CEE3" />
<path d="M754.01,229.58L754.01,248.23" style="fill:none;stroke:#808080;stroke-width:0.56693" />
<path d="M748.01,229.58L760.01,229.58" style="fill:none;stroke:#808080;stroke-width:0.56693" />
<path d="M748.01,248.23L760.01,248.23" style="fill:none;stroke:#808080;stroke-width:0.56693" />
<text x="744.56" y="-275.95" transform="scale(1, -1)"
	style="font-family:Liberation Serif;font-variant:normal;font-weight:normal;font-style:normal;font-size:8.4px;fill:#808080">402.3</text>
<text x="746.05" y="-267.55" transform="scale(1, -1)"
	style="font-family:Liberation Serif;font-variant:normal;font-weight:normal;font-style:normal;font-size:8.4px;fill:#808080">+6%</text>
<text x="747.02" y="-259.15" transform="scale(1, -1)"
	style="font-family:Liberation Serif;font-variant:normal;font-weight:normal;font-style:normal;font-size:8.4px;fill:#808080">-4%</text>
<path d="M86.635,40.209L86.635,264.1L110.63,264.1L110.63,40.209Z" style="fill:#1F78B4" />
<path d="M98.635,256.6L98.635,272.39" style="fill:none;stroke:#808080;stroke-width:0.56693" />
<path d="M92.635,256.6L104.63,256.6" style="fill:none;stroke:#808080;stroke-width:0.56693" />
<path d="M92.635,272.39L104.63,272.39" style="fill:none;stroke:#808080;stroke-width:0.56693" />
<text x="89.185" y="-300.11" transform="scale(1, -1)"
	style="font-family:Liberation Serif;font-variant:normal;font-weight:normal;font-style:normal;font-size:8.4px;fill:#808080">458.8</text>
<text x="90.667" y="-291.71" transform="scale(1, -1)"
	style="font-family:Liberation Serif;font-variant:normal;font-weight:normal;font-style:normal;font-size:8.4px;fill:#808080">+4%</text>
<text x="91.638" y="-283.31" transform="scale(1, -1)"
	style="font-family:Liberation Serif;font-variant:normal;font-weight:normal;font-style:normal;font-size:8.4px;fill:#808080">-3%</text>
<path d="M427.82,40.209L427.82,239.96L451.82,239.96L451.82,40.209Z" style="fill:#1F78B4" />
<path d="M439.82,237.75L439.82,242.56" style="fill:none;stroke:#808080;stroke-width:0.56693" />
<path d="M433.82,237.75L445.82,237.75" style="fill:none;stroke:#808080;stroke-width:0.56693" />
<path d="M433.82,242.56L445.82,242.56" style="fill:none;stroke:#808080;stroke-width:0.56693" />
<text x="430.37" y="-270.27" transform="scale(1, -1)"
	style="font-family:Liberation Serif;font-variant:normal;font-weight:normal;font-style:normal;font-size:8.4px;fill:#808080">409.3</text>
<text x="434.89" y="-261.87" transform="scale(1, -1)"
	style="font-family:Liberation Serif;font-variant:normal;font-weight:normal;font-style:normal;font-size:8.4px;fill:#808080">+/-</text>
<text x="434.23" y="-253.47" transform="scale(1, -1)"
	style="font-family:Liberation Serif;font-variant:normal;font-weight:normal;font-style:normal;font-size:8.4px;fill:#808080">1%</text>
<path d="M769.01,40.209L769.01,259.47L793.01,259.47L793.01,40.209Z" style="fill:#1F78B4" />
<path d="M781.01,235.5L781.01,272.78" style="fill:none;stroke:#808080;stroke-width:0.56693" />
<path d="M775.01,235.5L787.01,235.5" style="fill:none;stroke:#808080;stroke-width:0.56693" />
<path d="M775.01,272.78L787.01,272.78" style="fill:none;stroke:#808080;stroke-width:0.56693" />
<text x="771.56" y="-300.49" transform="scale(1, -1)"
	style="font-family:Liberation Serif;font-variant:normal;font-weight:normal;font-style:normal;font-size:8.4px;fill:#808080">449.3</text>
<text x="773.05" y="-292.09" transform="scale(1, -1)"
	style="font-family:Liberation Serif;font-variant:normal;font-weight:normal;font-style:normal;font-size:8.4px;fill:#808080">+6%</text>
<text x="772.07" y="-283.69" transform="scale(1, -1)"
	style="font-family:Liberation Serif;font-variant:normal;font-weight:normal;font-style:normal;font-size:8.4px;fill:#808080">-11%</text>
<path d="M113.63,40.209L113.63,243.44L137.63,243.44L137.63,40.209Z" style="fill:#B2DF8A" />
<path d="M125.63,240.76L125.63,270.71" style="fill:none;stroke:#808080;stroke-width:0.56693" />
<path d="M119.63,240.76L131.63,240.76" style="fill:none;stroke:#808080;stroke-width:0.56693" />
<path d="M119.63,270.71L131.63,270.71" style="fill:none;stroke:#808080;stroke-width:0.56693" />
<text x="116.18" y="-298.42" transform="scale(1, -1)"
	style="font-family:Liberation Serif;font-variant:normal;font-weight:normal;font-style:normal;font-size:8.4px;fill:#808080">416.5</text>
<text x="115.57" y="-290.02" transform="scale(1, -1)"
	style="font-family:Liberation Serif;font-variant:normal;font-weight:normal;font-style:normal;font-size:8.4px;fill:#808080">+13%</text>
<text x="118.64" y="-281.62" transform="scale(1, -1)"
	style="font-family:Liberation Serif;font-variant:normal;font-weight:normal;font-style:normal;font-size:8.4px;fill:#808080">-1%</text>
<path d="M454.82,40.209L454.82,232.87L478.82,232.87L478.82,40.209Z" style="fill:#B2DF8A" />
<path d="M466.82,228.05L466.82,236.83" style="fill:none;stroke:#808080;stroke-width:0.56693" />
<path d="M460.82,228.05L472.82,228.05" style="fill:none;stroke:#808080;stroke-width:0.56693" />
<path d="M460.82,236.83L472.82,236.83" style="fill:none;stroke:#808080;stroke-width:0.56693" />
<text x="457.37" y="-264.55" transform="scale(1, -1)"
	style="font-family:Liberation Serif;font-variant:normal;font-weight:normal;font-style:normal;font-size:8.4px;fill:#808080">394.8</text>
<text x="458.86" y="-256.15" transform="scale(1, -1)"
	style="font-family:Liberation Serif;font-variant:normal;font-weight:normal;font-style:normal;font-size:8.4px;fill:#808080">+2%</text>
<text x="459.83" y="-247.75" transform="scale(1, -1)"
	style="font-family:Liberation Serif;font-variant:normal;font-weight:normal;font-style:normal;font-size:8.4px;fill:#808080">-3%</text>
<path d="M796.01,40.209L796.01,223.84L820.01,223.84L820.01,40.209Z" style="fill:#B2DF8A" />
<path d="M808.01,221.08L808.01,230.39" style="fill:none;stroke:#808080;stroke-width:0.56693" />
<path d="M802.01,221.08L814.01,221.08" style="fill:none;stroke:#808080;stroke-width:0.56693" />
<path d="M802.01,230.39L814.01,230.39" style="fill:none;stroke:#808080;stroke-width:0.56693" />
<text x="798.56" y="-258.1" transform="scale(1, -1)"
	style="font-family:Liberation Serif;font-variant:normal;font-weight:normal;font-style:normal;font-size:8.4px;fill:#808080">376.3</text>
<text x="800.05" y="-249.7" transform="scale(1, -1)"
	style="font-family:Liberation Serif;font-variant:normal;font-weight:normal;font-style:normal;font-size:8.4px;fill:#808080">+4%</text>
<text x="801.02" y="-241.3" transform="scale(1, -1)"
	style="font-family:Liberation Serif;font-variant:normal;font-weight:normal;font-style:normal;font-size:8.4px;fill:#808080">-2%</text>
<path d="M140.63,40.209L140.63,244.54L164.63,244.54L164.63,40.209Z" style="fill:#33A02C" />
<path d="M152.63,236.84L152.63,252.74" style="fill:none;stroke:#808080;stroke-width:0.56693" />
<path d="M146.63,236.84L158.63,236.84" style="fill:none;stroke:#808080;stroke-width:0.56693" />
<path d="M146.63,252.74L158.63,252.74" style="fill:none;stroke:#808080;stroke-width:0.56693" />
<text x="143.18" y="-280.46" transform="scale(1, -1)"
	style="font-family:Liberation Serif;font-variant:normal;font-weight:normal;font-style:normal;font-size:8.4px;fill:#808080">418.7</text>
<text x="147.7" y="-272.06" transform="scale(1, -1)"
	style="font-family:Liberation Serif;font-variant:normal;font-weight:normal;font-style:normal;font-size:8.4px;fill:#808080">+/-</text>
<text x="147.04" y="-263.66" transform="scale(1, -1)"
	style="font-family:Liberation Serif;font-variant:normal;font-weight:normal;font-style:normal;font-size:8.4px;fill:#808080">4%</text>
<path d="M481.82,40.209L481.82,228.63L505.82,228.63L505.82,40.209Z" style="fill:#33A02C" />
<path d="M493.82,226.81L493.82,232.1" style="fill:none;stroke:#808080;stroke-width:0.56693" />
<path d="M487.82,226.81L499.82,226.81" style="fill:none;stroke:#808080;stroke-width:0.56693" />
<path d="M487.82,232.1L499.82,232.1" style="fill:none;stroke:#808080;stroke-width:0.56693" />
<text x="484.37" y="-259.81" transform="scale(1, -1)"
	style="font-family:Liberation Serif;font-variant:normal;font-weight:normal;font-style:normal;font-size:8.4px;fill:#808080">386.1</text>
<text x="485.86" y="-251.41" transform="scale(1, -1)"
	style="font-family:Liberation Serif;font-variant:normal;font-weight:normal;font-style:normal;font-size:8.4px;fill:#808080">+2%</text>
<text x="486.83" y="-243.01" transform="scale(1, -1)"
	style="font-family:Liberation Serif;font-variant:normal;font-weight:normal;font-style:normal;font-size:8.4px;fill:#808080">-1%</text>
<path d="M823.01,40.209L823.01,226.88L847.01,226.88L847.01,40.209Z" style="fill:#33A02C" />
<path d="M835.01,222.47L835.01,237.17" style="fill:none;stroke:#808080;stroke-width:0.56693" />
<path d="M829.01,222.47L841.01,222.47" style="fill:none;stroke:#808080;stroke-width:0.56693" />
<path d="M829.01,237.17L841.01,237.17" style="fill:none;stroke:#808080;stroke-width:0.56693" />
<text x="825.56" y="-264.89" transform="scale(1, -1)"
	style="font-family:Liberation Serif;font-variant:normal;font-weight:normal;font-style:normal;font-size:8.4px;fill:#808080">382.5</text>
<text x="827.05" y="-256.49" transform="scale(1, -1)"
	style="font-family:Liberation Serif;font-variant:normal;font-weight:normal;font-style:normal;font-size:8.4px;fill:#808080">+6%</text>
<text x="828.02" y="-248.09" transform="scale(1, -1)"
	style="font-family:Liberation Serif;font-variant:normal;font-weight:normal;font-style:normal;font-size:8.4px;fill:#808080">-2%</text>
<path d="M167.63,40.209L167.63,222.01L191.63,222.01L191.63,40.209Z" style="fill:#FB9A99" />
<path d="M179.63,218.74L179.63,225.88" style="fill:none;stroke:#808080;stroke-width:0.56693" />
<path d="M173.63,218.74L185.63,218.74" style="fill:none;stroke:#808080;stroke-width:0.56693" />
<path d="M173.63,225.88L185.63,225.88" style="fill:none;stroke:#808080;stroke-width:0.56693" />
<text x="170.18" y="-253.59" transform="scale(1, -1)"
	style="font-family:Liberation Serif;font-variant:normal;font-weight:normal;font-style:normal;font-size:8.4px;fill:#808080">372.6</text>
<text x="174.7" y="-245.19" transform="scale(1, -1)"
	style="font-family:Liberation Serif;font-variant:normal;font-weight:normal;font-style:normal;font-size:8.4px;fill:#808080">+/-</text>
<text x="174.04" y="-236.79" transform="scale(1, -1)"
	style="font-family:Liberation Serif;font-variant:normal;font-weight:normal;font-style:normal;font-size:8.4px;fill:#808080">2%</text>
<path d="M508.82,40.209L508.82,233.37L532.82,233.37L532.82,40.209Z" style="fill:#FB9A99" />
<path d="M520.82,231.75L520.82,236.81" style="fill:none;stroke:#808080;stroke-width:0.56693" />
<path d="M514.82,231.75L526.82,231.75" style="fill:none;stroke:#808080;stroke-width:0.56693" />
<path d="M514.82,236.81L526.82,236.81" style="fill:none;stroke:#808080;stroke-width:0.56693" />
<text x="511.37" y="-264.52" transform="scale(1, -1)"
	style="font-family:Liberation Serif;font-variant:normal;font-weight:normal;font-style:normal;font-size:8.4px;fill:#808080">395.8</text>
<text x="512.86" y="-256.12" transform="scale(1, -1)"
	style="font-family:Liberation Serif;font-variant:normal;font-weight:normal;font-style:normal;font-size:8.4px;fill:#808080">+2%</text>
<text x="513.83" y="-247.72" transform="scale(1, -1)"
	style="font-family:Liberation Serif;font-variant:normal;font-weight:normal;font-style:normal;font-size:8.4px;fill:#808080">-1%</text>
<path d="M850.01,40.209L850.01,226.36L874.01,226.36L874.01,40.209Z" style="fill:#FB9A99" />
<path d="M862.01,221.52L862.01,229.21" style="fill:none;stroke:#808080;stroke-width:0.56693" />
<path d="M856.01,221.52L868.01,221.52" style="fill:none;stroke:#808080;stroke-width:0.56693" />
<path d="M856.01,229.21L868.01,229.21" style="fill:none;stroke:#808080;stroke-width:0.56693" />
<text x="852.56" y="-256.93" transform="scale(1, -1)"
	style="font-family:Liberation Serif;font-variant:normal;font-weight:normal;font-style:normal;font-size:8.4px;fill:#808080">381.5</text>
<text x="854.05" y="-248.53" transform="scale(1, -1)"
	style="font-family:Liberation Serif;font-variant:normal;font-weight:normal;font-style:normal;font-size:8.4px;fill:#808080">+2%</text>
<text x="855.02" y="-240.13" transform="scale(1, -1)"
	style="font-family:Liberation Serif;font-variant:normal;font-weight:normal;font-style:normal;font-size:8.4px;fill:#808080">-3%</text>
<path d="M194.63,40.209L194.63,234.97L218.63,234.97L218.63,40.209Z" style="fill:#E31A1C" />
<path d="M206.63,234.07L206.63,236.57" style="fill:none;stroke:#808080;stroke-width:0.56693" />
<path d="M200.63,234.07L212.63,234.07" style="fill:none;stroke:#808080;stroke-width:0.56693" />
<path d="M200.63,236.57L212.63,236.57" style="fill:none;stroke:#808080;stroke-width:0.56693" />
<text x="197.18" y="-264.28" transform="scale(1, -1)"
	style="font-family:Liberation Serif;font-variant:normal;font-weight:normal;font-style:normal;font-size:8.4px;fill:#808080">399.1</text>
<text x="198.67" y="-255.88" transform="scale(1, -1)"
	style="font-family:Liberation Serif;font-variant:normal;font-weight:normal;font-style:normal;font-size:8.4px;fill:#808080">+1%</text>
<text x="199.64" y="-247.48" transform="scale(1, -1)"
	style="font-family:Liberation Serif;font-variant:normal;font-weight:normal;font-style:normal;font-size:8.4px;fill:#808080">-0%</text>
<path d="M535.82,40.209L535.82,231.18L559.82,231.18L559.82,40.209Z" style="fill:#E31A1C" />
<path d="M547.82,228.09L547.82,233.91" style="fill:none;stroke:#808080;stroke-width:0.56693" />
<path d="M541.82,228.09L553.82,228.09" style="fill:none;stroke:#808080;stroke-width:0.56693" />
<path d="M541.82,233.91L553.82,233.91" style="fill:none;stroke:#808080;stroke-width:0.56693" />
<text x="538.37" y="-261.62" transform="scale(1, -1)"
	style="font-family:Liberation Serif;font-variant:normal;font-weight:normal;font-style:normal;font-size:8.4px;fill:#808080">391.3</text>
<text x="539.86" y="-253.22" transform="scale(1, -1)"
	style="font-family:Liberation Serif;font-variant:normal;font-weight:normal;font-style:normal;font-size:8.4px;fill:#808080">+1%</text>
<text x="540.83" y="-244.82" transform="scale(1, -1)"
	style="font-family:Liberation Serif;font-variant:normal;font-weight:normal;font-style:normal;font-size:8.4px;fill:#808080">-2%</text>
<path d="M877.01,40.209L877.01,221.33L901.01,221.33L901.01,40.209Z" style="fill:#E31A1C" />
<path d="M889.01,217.47L889.01,226.09" style="fill:none;stroke:#808080;stroke-width:0.56693" />
<path d="M883.01,217.47L895.01,217.47" style="fill:none;stroke:#808080;stroke-width:0.56693" />
<path d="M883.01,226.09L895.01,226.09" style="fill:none;stroke:#808080;stroke-width:0.56693" />
<text x="879.56" y="-253.8" transform="scale(1, -1)"
	style="font-family:Liberation Serif;font-variant:normal;font-weight:normal;font-style:normal;font-size:8.4px;fill:#808080">371.2</text>
<text x="881.05" y="-245.4" transform="scale(1, -1)"
	style="font-family:Liberation Serif;font-variant:normal;font-weight:normal;font-style:normal;font-size:8.4px;fill:#808080">+3%</text>
<text x="882.02" y="-237" transform="scale(1, -1)"
	style="font-family:Liberation Serif;font-variant:normal;font-weight:normal;font-style:normal;font-size:8.4px;fill:#808080">-2%</text>
<path d="M221.63,40.209L221.63,248.27L245.63,248.27L245.63,40.209Z" style="fill:#FDBF6F" />
<path d="M233.63,246.63L233.63,272.56" style="fill:none;stroke:#808080;stroke-width:0.56693" />
<path d="M227.63,246.63L239.63,246.63" style="fill:none;stroke:#808080;stroke-width:0.56693" />
<path d="M227.63,272.56L239.63,272.56" style="fill:none;stroke:#808080;stroke-width:0.56693" />
<text x="224.18" y="-300.28" transform="scale(1, -1)"
	style="font-family:Liberation Serif;font-variant:normal;font-weight:normal;font-style:normal;font-size:8.4px;fill:#808080">426.4</text>
<text x="223.57" y="-291.88" transform="scale(1, -1)"
	style="font-family:Liberation Serif;font-variant:normal;font-weight:normal;font-style:normal;font-size:8.4px;fill:#808080">+12%</text>
<text x="226.64" y="-283.48" transform="scale(1, -1)"
	style="font-family:Liberation Serif;font-variant:normal;font-weight:normal;font-style:normal;font-size:8.4px;fill:#808080">-1%</text>
<path d="M562.82,40.209L562.82,235.42L586.82,235.42L586.82,40.209Z" style="fill:#FDBF6F" />
<path d="M574.82,232.45L574.82,243.44" style="fill:none;stroke:#808080;stroke-width:0.56693" />
<path d="M568.82,232.45L580.82,232.45" style="fill:none;stroke:#808080;stroke-width:0.56693" />
<path d="M568.82,243.44L580.82,243.44" style="fill:none;stroke:#808080;stroke-width:0.56693" />
<text x="565.37" y="-271.15" transform="scale(1, -1)"
	style="font-family:Liberation Serif;font-variant:normal;font-weight:normal;font-style:normal;font-size:8.4px;fill:#808080">400.0</text>
<text x="566.86" y="-262.75" transform="scale(1, -1)"
	style="font-family:Liberation Serif;font-variant:normal;font-weight:normal;font-style:normal;font-size:8.4px;fill:#808080">+4%</text>
<text x="567.83" y="-254.35" transform="scale(1, -1)"
	style="font-family:Liberation Serif;font-variant:normal;font-weight:normal;font-style:normal;font-size:8.4px;fill:#808080">-2%</text>
<path d="M904.01,40.209L904.01,219.45L928.01,219.45L928.01,40.209Z" style="fill:#FDBF6F" />
<path d="M916.01,214.27L916.01,224.46" style="fill:none;stroke:#808080;stroke-width:0.56693" />
<path d="M910.01,214.27L922.01,214.27" style="fill:none;stroke:#808080;stroke-width:0.56693" />
<path d="M910.01,224.46L922.01,224.46" style="fill:none;stroke:#808080;stroke-width:0.56693" />
<text x="906.56" y="-252.17" transform="scale(1, -1)"
	style="font-family:Liberation Serif;font-variant:normal;font-weight:normal;font-style:normal;font-size:8.4px;fill:#808080">367.3</text>
<text x="911.08" y="-243.77" transform="scale(1, -1)"
	style="font-family:Liberation Serif;font-variant:normal;font-weight:normal;font-style:normal;font-size:8.4px;fill:#808080">+/-</text>
<text x="910.42" y="-235.37" transform="scale(1, -1)"
	style="font-family:Liberation Serif;font-variant:normal;font-weight:normal;font-style:normal;font-size:8.4px;fill:#808080">3%</text>
<path d="M248.63,40.209L248.63,259.82L272.63,259.82L272.63,40.209Z" style="fill:#FF7F00" />
<path d="M260.63,257.18L260.63,276.77" style="fill:none;stroke:#808080;stroke-width:0.56693" />
<path d="M254.63,257.18L266.63,257.18" style="fill:none;stroke:#808080;stroke-width:0.56693" />
<path d="M254.63,276.77L266.63,276.77" style="fill:none;stroke:#808080;stroke-width:0.56693" />
<text x="251.18" y="-304.49" transform="scale(1, -1)"
	style="font-family:Liberation Serif;font-variant:normal;font-weight:normal;font-style:normal;font-size:8.4px;fill:#808080">450.0</text>
<text x="252.67" y="-296.09" transform="scale(1, -1)"
	style="font-family:Liberation Serif;font-variant:normal;font-weight:normal;font-style:normal;font-size:8.4px;fill:#808080">+8%</text>
<text x="253.64" y="-287.69" transform="scale(1, -1)"
	style="font-family:Liberation Serif;font-variant:normal;font-weight:normal;font-style:normal;font-size:8.4px;fill:#808080">-1%</text>
<path d="M589.82,40.209L589.82,244.45L613.82,244.45L613.82,40.209Z" style="fill:#FF7F00" />
<path d="M601.82,238.26L601.82,246.51" style="fill:none;stroke:#808080;stroke-width:0.56693" />
<path d="M595.82,238.26L607.82,238.26" style="fill:none;stroke:#808080;stroke-width:0.56693" />
<path d="M595.82,246.51L607.82,246.51" style="fill:none;stroke:#808080;stroke-width:0.56693" />
<text x="592.37" y="-274.22" transform="scale(1, -1)"
	style="font-family:Liberation Serif;font-variant:normal;font-weight:normal;font-style:normal;font-size:8.4px;fill:#808080">418.5</text>
<text x="593.86" y="-265.82" transform="scale(1, -1)"
	style="font-family:Liberation Serif;font-variant:normal;font-weight:normal;font-style:normal;font-size:8.4px;fill:#808080">+1%</text>
<text x="594.83" y="-257.42" transform="scale(1, -1)"
	style="font-family:Liberation Serif;font-variant:normal;font-weight:normal;font-style:normal;font-size:8.4px;fill:#808080">-3%</text>
<path d="M931.01,40.209L931.01,218.92L955.01,218.92L955.01,40.209Z" style="fill:#FF7F00" />
<path d="M943.01,216.89L943.01,224.63" style="fill:none;stroke:#808080;stroke-width:0.56693" />
<path d="M937.01,216.89L949.01,216.89" style="fill:none;stroke:#808080;stroke-width:0.56693" />
<path d="M937.01,224.63L949.01,224.63" style="fill:none;stroke:#808080;stroke-width:0.56693" />
<text x="933.56" y="-252.34" transform="scale(1, -1)"
	style="font-family:Liberation Serif;font-variant:normal;font-weight:normal;font-style:normal;font-size:8.4px;fill:#808080">366.2</text>
<text x="935.05" y="-243.94" transform="scale(1, -1)"
	style="font-family:Liberation Serif;font-variant:normal;font-weight:normal;font-style:normal;font-size:8.4px;fill:#808080">+3%</text>
<text x="936.02" y="-235.54" transform="scale(1, -1)"
	style="font-family:Liberation Serif;font-variant:normal;font-weight:normal;font-style:normal;font-size:8.4px;fill:#808080">-1%</text>
<path d="M275.63,40.209L275.63,272.7L299.63,272.7L299.63,40.209Z" style="fill:#CAB2D6" />
<path d="M287.63,271.64L287.63,276.58" style="fill:none;stroke:#808080;stroke-width:0.56693" />
<path d="M281.63,271.64L293.63,271.64" style="fill:none;stroke:#808080;stroke-width:0.56693" />
<path d="M281.63,276.58L293.63,276.58" style="fill:none;stroke:#808080;stroke-width:0.56693" />
<text x="278.18" y="-304.29" transform="scale(1, -1)"
	style="font-family:Liberation Serif;font-variant:normal;font-weight:normal;font-style:normal;font-size:8.4px;fill:#808080">476.4</text>
<text x="279.67" y="-295.89" transform="scale(1, -1)"
	style="font-family:Liberation Serif;font-variant:normal;font-weight:normal;font-style:normal;font-size:8.4px;fill:#808080">+2%</text>
<text x="280.64" y="-287.49" transform="scale(1, -1)"
	style="font-family:Liberation Serif;font-variant:normal;font-weight:normal;font-style:normal;font-size:8.4px;fill:#808080">-0%</text>
<path d="M616.82,40.209L616.82,248.82L640.82,248.82L640.82,40.209Z" style="fill:#CAB2D6" />
<path d="M628.82,236.43L628.82,256.55" style="fill:none;stroke:#808080;stroke-width:0.56693" />
<path d="M622.82,236.43L634.82,236.43" style="fill:none;stroke:#808080;stroke-width:0.56693" />
<path d="M622.82,256.55L634.82,256.55" style="fill:none;stroke:#808080;stroke-width:0.56693" />
<text x="619.37" y="-284.26" transform="scale(1, -1)"
	style="font-family:Liberation Serif;font-variant:normal;font-weight:normal;font-style:normal;font-size:8.4px;fill:#808080">427.5</text>
<text x="620.86" y="-275.86" transform="scale(1, -1)"
	style="font-family:Liberation Serif;font-variant:normal;font-weight:normal;font-style:normal;font-size:8.4px;fill:#808080">+4%</text>
<text x="621.83" y="-267.46" transform="scale(1, -1)"
	style="font-family:Liberation Serif;font-variant:normal;font-weight:normal;font-style:normal;font-size:8.4px;fill:#808080">-6%</text>
<path d="M958.01,40.209L958.01,222.49L982.01,222.49L982.01,40.209Z" style="fill:#CAB2D6" />
<path d="M970.01,221.14L970.01,225.96" style="fill:none;stroke:#808080;stroke-width:0.56693" />
<path d="M964.01,221.14L976.01,221.14" style="fill:none;stroke:#808080;stroke-width:0.56693" />
<path d="M964.01,225.96L976.01,225.96" style="fill:none;stroke:#808080;stroke-width:0.56693" />
<text x="960.56" y="-253.67" transform="scale(1, -1)"
	style="font-family:Liberation Serif;font-variant:normal;font-weight:normal;font-style:normal;font-size:8.4px;fill:#808080">373.5</text>
<text x="962.05" y="-245.27" transform="scale(1, -1)"
	style="font-family:Liberation Serif;font-variant:normal;font-weight:normal;font-style:normal;font-size:8.4px;fill:#808080">+2%</text>
<text x="963.02" y="-236.87" transform="scale(1, -1)"
	style="font-family:Liberation Serif;font-variant:normal;font-weight:normal;font-style:normal;font-size:8.4px;fill:#808080">-1%</text>
<path d="M302.63,40.209L302.63,222.79L326.63,222.79L326.63,40.209Z" style="fill:#6A3D9A" />
<path d="M314.63,221.94L314.63,224.76" style="fill:none;stroke:#808080;stroke-width:0.56693" />
<path d="M308.63,221.94L320.63,221.94" style="fill:none;stroke:#808080;stroke-width:0.56693" />
<path d="M308.63,224.76L320.63,224.76" style="fill:none;stroke:#808080;stroke-width:0.56693" />
<text x="305.18" y="-252.47" transform="scale(1, -1)"
	style="font-family:Liberation Serif;font-variant:normal;font-weight:normal;font-style:normal;font-size:8.4px;fill:#808080">374.2</text>
<text x="306.67" y="-244.07" transform="scale(1, -1)"
	style="font-family:Liberation Serif;font-variant:normal;font-weight:normal;font-style:normal;font-size:8.4px;fill:#808080">+1%</text>
<text x="307.64" y="-235.67" transform="scale(1, -1)"
	style="font-family:Liberation Serif;font-variant:normal;font-weight:normal;font-style:normal;font-size:8.4px;fill:#808080">-0%</text>
<path d="M643.82,40.209L643.82,233.91L667.82,233.91L667.82,40.209Z" style="fill:#6A3D9A" />
<path d="M655.82,232.03L655.82,234.96" style="fill:none;stroke:#808080;stroke-width:0.56693" />
<path d="M649.82,232.03L661.82,232.03" style="fill:none;stroke:#808080;stroke-width:0.56693" />
<path d="M649.82,234.96L661.82,234.96" style="fill:none;stroke:#808080;stroke-width:0.56693" />
<text x="646.37" y="-262.67" transform="scale(1, -1)"
	style="font-family:Liberation Serif;font-variant:normal;font-weight:normal;font-style:normal;font-size:8.4px;fill:#808080">396.9</text>
<text x="650.89" y="-254.27" transform="scale(1, -1)"
	style="font-family:Liberation Serif;font-variant:normal;font-weight:normal;font-style:normal;font-size:8.4px;fill:#808080">+/-</text>
<text x="650.23" y="-245.87" transform="scale(1, -1)"
	style="font-family:Liberation Serif;font-variant:normal;font-weight:normal;font-style:normal;font-size:8.4px;fill:#808080">1%</text>
<path d="M985.01,40.209L985.01,231.04L1009,231.04L1009,40.209Z" style="fill:#6A3D9A" />
<path d="M997.01,225.52L997.01,238.1" style="fill:none;stroke:#808080;stroke-width:0.56693" />
<path d="M991.01,225.52L1003,225.52" style="fill:none;stroke:#808080;stroke-width:0.56693" />
<path d="M991.01,238.1L1003,238.1" style="fill:none;stroke:#808080;stroke-width:0.56693" />
<text x="987.56" y="-265.81" transform="scale(1, -1)"
	style="font-family:Liberation Serif;font-variant:normal;font-weight:normal;font-style:normal;font-size:8.4px;fill:#808080">391.1</text>
<text x="989.05" y="-257.41" transform="scale(1, -1)"
	style="font-family:Liberation Serif;font-variant:normal;font-weight:normal;font-style:normal;font-size:8.4px;fill:#808080">+4%</text>
<text x="990.02" y="-249.01" transform="scale(1, -1)"
	style="font-family:Liberation Serif;font-variant:normal;font-weight:normal;font-style:normal;font-size:8.4px;fill:#808080">-3%</text>
</g>
</svg>
