<?xml version="1.0"?>
<!-- Generated by SVGo and Plotinum VG -->
<svg width="720pt" height="432pt" viewBox="0 0 720 432"
	xmlns="http://www.w3.org/2000/svg"
	xmlns:xlink="http://www.w3.org/1999/xlink">
<g transform="scale(1, -1) translate(0, -432)">
<path d="M657.84,317.33A2.5,2.5 0 1 1 652.84,317.33A2.5,2.5 0 1 1 657.84,317.33Z" style="fill:none;stroke:#A6CEE3;stroke-width:0.5" />
<text x="668.34" y="-314.85" transform="scale(1, -1)"
	style="font-family:Liberation Serif;font-variant:normal;font-weight:normal;font-style:normal;font-size:12px;fill:#808080">Limit 1</text>
<path d="M653.2,299.02L657.47,299.02L657.47,303.29L653.2,303.29Z" style="fill:none;stroke:#1F78B4;stroke-width:0.5" />
<text x="668.34" y="-298.66" transform="scale(1, -1)"
	style="font-family:Liberation Serif;font-variant:normal;font-weight:normal;font-style:normal;font-size:12px;fill:#808080">Limit 2</text>
<path d="M655.34,288.09L652.63,283.41L658.04,283.41Z" style="fill:none;stroke:#B2DF8A;stroke-width:0.5" />
<text x="668.34" y="-282.48" transform="scale(1, -1)"
	style="font-family:Liberation Serif;font-variant:normal;font-weight:normal;font-style:normal;font-size:12px;fill:#808080">Limit 3</text>
<path d="M653.57,267.02L657.11,270.55" style="fill:none;stroke:#33A02C;stroke-width:0.5" />
<path d="M653.57,270.55L657.11,267.02" style="fill:none;stroke:#33A02C;stroke-width:0.5" />
<text x="668.34" y="-266.3" transform="scale(1, -1)"
	style="font-family:Liberation Serif;font-variant:normal;font-weight:normal;font-style:normal;font-size:12px;fill:#808080">Limit 4</text>
<path d="M655.34,255.1L655.34,250.1" style="fill:none;stroke:#FB9A99;stroke-width:0.5" />
<path d="M652.84,252.6L657.84,252.6" style="fill:none;stroke:#FB9A99;stroke-width:0.5" />
<text x="668.34" y="-250.11" transform="scale(1, -1)"
	style="font-family:Liberation Serif;font-variant:normal;font-weight:normal;font-style:normal;font-size:12px;fill:#808080">Limit 8</text>
<path d="M657.84,236.42A2.5,2.5 0 1 1 652.84,236.42A2.5,2.5 0 1 1 657.84,236.42Z" style="fill:#E31A1C" />
<text x="668.34" y="-233.93" transform="scale(1, -1)"
	style="font-family:Liberation Serif;font-variant:normal;font-weight:normal;font-style:normal;font-size:12px;fill:#808080">Limit 12</text>
<path d="M653.2,218.1L657.47,218.1L657.47,222.37L653.2,222.37Z" style="fill:#FDBF6F" />
<text x="668.34" y="-217.75" transform="scale(1, -1)"
	style="font-family:Liberation Serif;font-variant:normal;font-weight:normal;font-style:normal;font-size:12px;fill:#808080">Limit 16</text>
<path d="M655.34,207.17L652.63,202.49L658.04,202.49Z" style="fill:#FF7F00" />
<text x="668.34" y="-201.56" transform="scale(1, -1)"
	style="font-family:Liberation Serif;font-variant:normal;font-weight:normal;font-style:normal;font-size:12px;fill:#808080">Limit 24</text>
<path d="M657.84,187.87A2.5,2.5 0 1 1 652.84,187.87A2.5,2.5 0 1 1 657.84,187.87Z" style="fill:none;stroke:#CAB2D6;stroke-width:0.5" />
<text x="668.34" y="-185.38" transform="scale(1, -1)"
	style="font-family:Liberation Serif;font-variant:normal;font-weight:normal;font-style:normal;font-size:12px;fill:#808080">Unlimited</text>
<path d="M648.34,179.77L648.34,328.02L720,328.02L720,179.77L648.34,179.77" style="fill:none;stroke:#808080" />
<path d="M0,0L629.34,0L629.34,432L0,432Z" style="fill:#-8000000000000000-8000000000000000-8000000000000000;fill-opacity:0" />
<text x="246.35" y="-420.81" transform="scale(1, -1)"
	style="font-family:Liberation Serif;font-variant:normal;font-weight:normal;font-style:normal;font-size:12px;fill:#808080">Throughput vs. P99 Latency</text>
<text x="205.94" y="-408.81" transform="scale(1, -1)"
	style="font-family:Liberation Serif;font-variant:normal;font-weight:normal;font-style:normal;font-size:12px;fill:#808080">(10µs waiting workload flushing every 10µs)</text>
<text x="247.93" y="-3.9023" transform="scale(1, -1)"
	style="font-family:Liberation Serif;font-variant:normal;font-weight:normal;font-style:normal;font-size:12px;fill:#808080">P99 Workflow Latency (milliseconds)</text>
<text x="109.34" y="-16.541" transform="scale(1, -1)"
	style="font-family:Liberation Serif;font-variant:normal;font-weight:normal;font-style:normal;font-size:10px;fill:#808080">5</text>
<text x="345.66" y="-16.541" transform="scale(1, -1)"
	style="font-family:Liberation Serif;font-variant:normal;font-weight:normal;font-style:normal;font-size:10px;fill:#808080">25</text>
<text x="584.48" y="-16.541" transform="scale(1, -1)"
	style="font-family:Liberation Serif;font-variant:normal;font-weight:normal;font-style:normal;font-size:10px;fill:#808080">45</text>
<path d="M111.84,24.363L111.84,32.363" style="fill:none;stroke:#808080;stroke-width:0.5" />
<path d="M350.66,24.363L350.66,32.363" style="fill:none;stroke:#808080;stroke-width:0.5" />
<path d="M589.48,24.363L589.48,32.363" style="fill:none;stroke:#808080;stroke-width:0.5" />
<path d="M231.25,28.363L231.25,32.363" style="fill:none;stroke:#808080;stroke-width:0.5" />
<path d="M470.07,28.363L470.07,32.363" style="fill:none;stroke:#808080;stroke-width:0.5" />
<path d="M52.135,32.363L626.84,32.363" style="fill:none;stroke:#808080;stroke-width:0.5" />
<g transform="rotate(90)">
<text x="122.59" y="9.3867" transform="scale(1, -1)"
	style="font-family:Liberation Serif;font-variant:normal;font-weight:normal;font-style:normal;font-size:12px;fill:#808080">Workflow Throughput (tasks per second)</text>
</g>
<text x="30.885" y="-37.924" transform="scale(1, -1)"
	style="font-family:Liberation Serif;font-variant:normal;font-weight:normal;font-style:normal;font-size:10px;fill:#808080">0</text>
<text x="15.885" y="-132.57" transform="scale(1, -1)"
	style="font-family:Liberation Serif;font-variant:normal;font-weight:normal;font-style:normal;font-size:10px;fill:#808080">1000</text>
<text x="15.885" y="-227.21" transform="scale(1, -1)"
	style="font-family:Liberation Serif;font-variant:normal;font-weight:normal;font-style:normal;font-size:10px;fill:#808080">2000</text>
<text x="15.885" y="-321.86" transform="scale(1, -1)"
	style="font-family:Liberation Serif;font-variant:normal;font-weight:normal;font-style:normal;font-size:10px;fill:#808080">3000</text>
<path d="M38.385,40.209L46.385,40.209" style="fill:none;stroke:#808080;stroke-width:0.5" />
<path d="M38.385,134.85L46.385,134.85" style="fill:none;stroke:#808080;stroke-width:0.5" />
<path d="M38.385,229.5L46.385,229.5" style="fill:none;stroke:#808080;stroke-width:0.5" />
<path d="M38.385,324.14L46.385,324.14" style="fill:none;stroke:#808080;stroke-width:0.5" />
<path d="M42.385,59.138L46.385,59.138" style="fill:none;stroke:#808080;stroke-width:0.5" />
<path d="M42.385,78.067L46.385,78.067" style="fill:none;stroke:#808080;stroke-width:0.5" />
<path d="M42.385,96.995L46.385,96.995" style="fill:none;stroke:#808080;stroke-width:0.5" />
<path d="M42.385,115.92L46.385,115.92" style="fill:none;stroke:#808080;stroke-width:0.5" />
<path d="M42.385,153.78L46.385,153.78" style="fill:none;stroke:#808080;stroke-width:0.5" />
<path d="M42.385,172.71L46.385,172.71" style="fill:none;stroke:#808080;stroke-width:0.5" />
<path d="M42.385,191.64L46.385,191.64" style="fill:none;stroke:#808080;stroke-width:0.5" />
<path d="M42.385,210.57L46.385,210.57" style="fill:none;stroke:#808080;stroke-width:0.5" />
<path d="M42.385,248.43L46.385,248.43" style="fill:none;stroke:#808080;stroke-width:0.5" />
<path d="M42.385,267.35L46.385,267.35" style="fill:none;stroke:#808080;stroke-width:0.5" />
<path d="M42.385,286.28L46.385,286.28" style="fill:none;stroke:#808080;stroke-width:0.5" />
<path d="M42.385,305.21L46.385,305.21" style="fill:none;stroke:#808080;stroke-width:0.5" />
<path d="M42.385,343.07L46.385,343.07" style="fill:none;stroke:#808080;stroke-width:0.5" />
<path d="M42.385,362L46.385,362" style="fill:none;stroke:#808080;stroke-width:0.5" />
<path d="M42.385,380.93L46.385,380.93" style="fill:none;stroke:#808080;stroke-width:0.5" />
<path d="M42.385,399.86L46.385,399.86" style="fill:none;stroke:#808080;stroke-width:0.5" />
<path d="M46.385,40.209L46.385,402.41" style="fill:none;stroke:#808080;stroke-width:0.5" />
<path d="M434.97,272.65A2.5,2.5 0 1 1 429.97,272.65A2.5,2.5 0 1 1 434.97,272.65Z" style="fill:none;stroke:#A6CEE3;stroke-width:0.5" />
<path d="M439.16,275.87A2.5,2.5 0 1 1 434.16,275.87A2.5,2.5 0 1 1 439.16,275.87Z" style="fill:none;stroke:#A6CEE3;stroke-width:0.5" />
<path d="M452.26,276.25A2.5,2.5 0 1 1 447.26,276.25A2.5,2.5 0 1 1 452.26,276.25Z" style="fill:none;stroke:#A6CEE3;stroke-width:0.5" />
<path d="M487.13,280.32A2.5,2.5 0 1 1 482.13,280.32A2.5,2.5 0 1 1 487.13,280.32Z" style="fill:none;stroke:#A6CEE3;stroke-width:0.5" />
<path d="M596.32,290.54A2.5,2.5 0 1 1 591.32,290.54A2.5,2.5 0 1 1 596.32,290.54Z" style="fill:none;stroke:#A6CEE3;stroke-width:0.5" />
<path d="M629.34,291.49A2.5,2.5 0 1 1 624.34,291.49A2.5,2.5 0 1 1 629.34,291.49Z" style="fill:none;stroke:#A6CEE3;stroke-width:0.5" />
<path d="M187.04,347.85L191.31,347.85L191.31,352.11L187.04,352.11Z" style="fill:none;stroke:#1F78B4;stroke-width:0.5" />
<path d="M190.62,355.23L194.88,355.23L194.88,359.5L190.62,359.5Z" style="fill:none;stroke:#1F78B4;stroke-width:0.5" />
<path d="M192.17,357.4L196.44,357.4L196.44,361.67L192.17,361.67Z" style="fill:none;stroke:#1F78B4;stroke-width:0.5" />
<path d="M198.81,357.78L203.08,357.78L203.08,362.05L198.81,362.05Z" style="fill:none;stroke:#1F78B4;stroke-width:0.5" />
<path d="M207.24,362.7L211.51,362.7L211.51,366.97L207.24,366.97Z" style="fill:none;stroke:#1F78B4;stroke-width:0.5" />
<path d="M216.31,367.63L220.58,367.63L220.58,371.89L216.31,371.89Z" style="fill:none;stroke:#1F78B4;stroke-width:0.5" />
<path d="M204.2,370.8L201.49,366.12L206.91,366.12Z" style="fill:none;stroke:#B2DF8A;stroke-width:0.5" />
<path d="M211.1,374.59L208.39,369.9L213.8,369.9Z" style="fill:none;stroke:#B2DF8A;stroke-width:0.5" />
<path d="M211.65,380.83L208.94,376.15L214.36,376.15Z" style="fill:none;stroke:#B2DF8A;stroke-width:0.5" />
<path d="M216.3,381.02L213.59,376.34L219.01,376.34Z" style="fill:none;stroke:#B2DF8A;stroke-width:0.5" />
<path d="M231.28,390.58L228.58,385.9L233.99,385.9Z" style="fill:none;stroke:#B2DF8A;stroke-width:0.5" />
<path d="M232.62,394.84L229.91,390.15L235.32,390.15Z" style="fill:none;stroke:#B2DF8A;stroke-width:0.5" />
<path d="M215.89,362.6L219.43,366.13" style="fill:none;stroke:#33A02C;stroke-width:0.5" />
<path d="M215.89,366.13L219.43,362.6" style="fill:none;stroke:#33A02C;stroke-width:0.5" />
<path d="M224.88,366.67L228.42,370.2" style="fill:none;stroke:#33A02C;stroke-width:0.5" />
<path d="M224.88,370.2L228.42,366.67" style="fill:none;stroke:#33A02C;stroke-width:0.5" />
<path d="M233.71,369.7L237.24,373.23" style="fill:none;stroke:#33A02C;stroke-width:0.5" />
<path d="M233.71,373.23L237.24,369.7" style="fill:none;stroke:#33A02C;stroke-width:0.5" />
<path d="M248.05,375.28L251.59,378.82" style="fill:none;stroke:#33A02C;stroke-width:0.5" />
<path d="M248.05,378.82L251.59,375.28" style="fill:none;stroke:#33A02C;stroke-width:0.5" />
<path d="M252.68,382.28L256.21,385.82" style="fill:none;stroke:#33A02C;stroke-width:0.5" />
<path d="M252.68,385.82L256.21,382.28" style="fill:none;stroke:#33A02C;stroke-width:0.5" />
<path d="M258.53,387.3L262.07,390.84" style="fill:none;stroke:#33A02C;stroke-width:0.5" />
<path d="M258.53,390.84L262.07,387.3" style="fill:none;stroke:#33A02C;stroke-width:0.5" />
<path d="M225.56,370.27L225.56,365.27" style="fill:none;stroke:#FB9A99;stroke-width:0.5" />
<path d="M223.06,367.77L228.06,367.77" style="fill:none;stroke:#FB9A99;stroke-width:0.5" />
<path d="M227.32,373.02L227.32,368.02" style="fill:none;stroke:#FB9A99;stroke-width:0.5" />
<path d="M224.82,370.52L229.82,370.52" style="fill:none;stroke:#FB9A99;stroke-width:0.5" />
<path d="M238.16,381.91L238.16,376.91" style="fill:none;stroke:#FB9A99;stroke-width:0.5" />
<path d="M235.66,379.41L240.66,379.41" style="fill:none;stroke:#FB9A99;stroke-width:0.5" />
<path d="M244.49,393.74L244.49,388.74" style="fill:none;stroke:#FB9A99;stroke-width:0.5" />
<path d="M241.99,391.24L246.99,391.24" style="fill:none;stroke:#FB9A99;stroke-width:0.5" />
<path d="M250.79,396.39L250.79,391.39" style="fill:none;stroke:#FB9A99;stroke-width:0.5" />
<path d="M248.29,393.89L253.29,393.89" style="fill:none;stroke:#FB9A99;stroke-width:0.5" />
<path d="M251.15,404.91L251.15,399.91" style="fill:none;stroke:#FB9A99;stroke-width:0.5" />
<path d="M248.65,402.41L253.65,402.41" style="fill:none;stroke:#FB9A99;stroke-width:0.5" />
<path d="M214.12,368.43A2.5,2.5 0 1 1 209.12,368.43A2.5,2.5 0 1 1 214.12,368.43Z" style="fill:#E31A1C" />
<path d="M221.32,376.57A2.5,2.5 0 1 1 216.32,376.57A2.5,2.5 0 1 1 221.32,376.57Z" style="fill:#E31A1C" />
<path d="M234.04,378.47A2.5,2.5 0 1 1 229.04,378.47A2.5,2.5 0 1 1 234.04,378.47Z" style="fill:#E31A1C" />
<path d="M251.41,386.04A2.5,2.5 0 1 1 246.41,386.04A2.5,2.5 0 1 1 251.41,386.04Z" style="fill:#E31A1C" />
<path d="M251.6,394.75A2.5,2.5 0 1 1 246.6,394.75A2.5,2.5 0 1 1 251.6,394.75Z" style="fill:#E31A1C" />
<path d="M268.65,396.92A2.5,2.5 0 1 1 263.65,396.92A2.5,2.5 0 1 1 268.65,396.92Z" style="fill:#E31A1C" />
<path d="M214.12,359.01L218.39,359.01L218.39,363.28L214.12,363.28Z" style="fill:#FDBF6F" />
<path d="M218.16,372.93L222.43,372.93L222.43,377.19L218.16,377.19Z" style="fill:#FDBF6F" />
<path d="M221.19,391L225.45,391L225.45,395.27L221.19,395.27Z" style="fill:#FDBF6F" />
<path d="M223.46,392.8L227.73,392.8L227.73,397.07L223.46,397.07Z" style="fill:#FDBF6F" />
<path d="M242.69,398.39L246.95,398.39L246.95,402.65L242.69,402.65Z" style="fill:#FDBF6F" />
<path d="M255.42,400.28L259.69,400.28L259.69,404.55L255.42,404.55Z" style="fill:#FDBF6F" />
<path d="M216.15,351.31L213.44,346.62L218.85,346.62Z" style="fill:#FF7F00" />
<path d="M220.33,355.85L217.62,351.16L223.04,351.16Z" style="fill:#FF7F00" />
<path d="M234.82,356.89L232.11,352.2L237.52,352.2Z" style="fill:#FF7F00" />
<path d="M246.33,365.5L243.62,360.82L249.03,360.82Z" style="fill:#FF7F00" />
<path d="M248.62,374.3L245.91,369.62L251.33,369.62Z" style="fill:#FF7F00" />
<path d="M254.65,381.69L251.94,377L257.36,377Z" style="fill:#FF7F00" />
<path d="M186.37,358.88A2.5,2.5 0 1 1 181.37,358.88A2.5,2.5 0 1 1 186.37,358.88Z" style="fill:none;stroke:#CAB2D6;stroke-width:0.5" />
<path d="M222.51,367.02A2.5,2.5 0 1 1 217.51,367.02A2.5,2.5 0 1 1 222.51,367.02Z" style="fill:none;stroke:#CAB2D6;stroke-width:0.5" />
<path d="M238.1,372.6A2.5,2.5 0 1 1 233.1,372.6A2.5,2.5 0 1 1 238.1,372.6Z" style="fill:none;stroke:#CAB2D6;stroke-width:0.5" />
<path d="M253.81,375.06A2.5,2.5 0 1 1 248.81,375.06A2.5,2.5 0 1 1 253.81,375.06Z" style="fill:none;stroke:#CAB2D6;stroke-width:0.5" />
<path d="M268.72,376.76A2.5,2.5 0 1 1 263.72,376.76A2.5,2.5 0 1 1 268.72,376.76Z" style="fill:none;stroke:#CAB2D6;stroke-width:0.5" />
<path d="M281.33,397.96A2.5,2.5 0 1 1 276.33,397.96A2.5,2.5 0 1 1 281.33,397.96Z" style="fill:none;stroke:#CAB2D6;stroke-width:0.5" />
</g>
</svg>
