<?xml version="1.0"?>
<!-- Generated by SVGo and Plotinum VG -->
<svg width="720pt" height="432pt" viewBox="0 0 720 432"
	xmlns="http://www.w3.org/2000/svg"
	xmlns:xlink="http://www.w3.org/1999/xlink">
<g transform="scale(1, -1) translate(0, -432)">
<path d="M657.84,301.15A2.5,2.5 0 1 1 652.84,301.15A2.5,2.5 0 1 1 657.84,301.15Z" style="fill:none;stroke:#A6CEE3;stroke-width:0.5" />
<text x="668.34" y="-298.66" transform="scale(1, -1)"
	style="font-family:Liberation Serif;font-variant:normal;font-weight:normal;font-style:normal;font-size:12px;fill:#808080">Limit 1</text>
<path d="M653.2,282.83L657.47,282.83L657.47,287.1L653.2,287.1Z" style="fill:none;stroke:#1F78B4;stroke-width:0.5" />
<text x="668.34" y="-282.48" transform="scale(1, -1)"
	style="font-family:Liberation Serif;font-variant:normal;font-weight:normal;font-style:normal;font-size:12px;fill:#808080">Limit 2</text>
<path d="M655.34,271.91L652.63,267.22L658.04,267.22Z" style="fill:none;stroke:#B2DF8A;stroke-width:0.5" />
<text x="668.34" y="-266.3" transform="scale(1, -1)"
	style="font-family:Liberation Serif;font-variant:normal;font-weight:normal;font-style:normal;font-size:12px;fill:#808080">Limit 3</text>
<path d="M653.57,250.83L657.11,254.37" style="fill:none;stroke:#33A02C;stroke-width:0.5" />
<path d="M653.57,254.37L657.11,250.83" style="fill:none;stroke:#33A02C;stroke-width:0.5" />
<text x="668.34" y="-250.11" transform="scale(1, -1)"
	style="font-family:Liberation Serif;font-variant:normal;font-weight:normal;font-style:normal;font-size:12px;fill:#808080">Limit 4</text>
<path d="M655.34,238.92L655.34,233.92" style="fill:none;stroke:#FB9A99;stroke-width:0.5" />
<path d="M652.84,236.42L657.84,236.42" style="fill:none;stroke:#FB9A99;stroke-width:0.5" />
<text x="668.34" y="-233.93" transform="scale(1, -1)"
	style="font-family:Liberation Serif;font-variant:normal;font-weight:normal;font-style:normal;font-size:12px;fill:#808080">Limit 8</text>
<path d="M657.84,220.23A2.5,2.5 0 1 1 652.84,220.23A2.5,2.5 0 1 1 657.84,220.23Z" style="fill:#E31A1C" />
<text x="668.34" y="-217.75" transform="scale(1, -1)"
	style="font-family:Liberation Serif;font-variant:normal;font-weight:normal;font-style:normal;font-size:12px;fill:#808080">Limit 16</text>
<path d="M653.2,201.92L657.47,201.92L657.47,206.18L653.2,206.18Z" style="fill:#FDBF6F" />
<text x="668.34" y="-201.56" transform="scale(1, -1)"
	style="font-family:Liberation Serif;font-variant:normal;font-weight:normal;font-style:normal;font-size:12px;fill:#808080">Unlimited</text>
<path d="M648.34,195.96L648.34,311.84L720,311.84L720,195.96L648.34,195.96" style="fill:none;stroke:#808080" />
<path d="M0,0L629.34,0L629.34,432L0,432Z" style="fill:#-8000000000000000-8000000000000000-8000000000000000;fill-opacity:0" />
<text x="246.35" y="-420.81" transform="scale(1, -1)"
	style="font-family:Liberation Serif;font-variant:normal;font-weight:normal;font-style:normal;font-size:12px;fill:#808080">Throughput vs. P99 Latency</text>
<text x="206.52" y="-408.81" transform="scale(1, -1)"
	style="font-family:Liberation Serif;font-variant:normal;font-weight:normal;font-style:normal;font-size:12px;fill:#808080">(1ms waiting workload flushing every 10ms)</text>
<text x="247.93" y="-3.9023" transform="scale(1, -1)"
	style="font-family:Liberation Serif;font-variant:normal;font-weight:normal;font-style:normal;font-size:12px;fill:#808080">P99 Workflow Latency (milliseconds)</text>
<text x="110.13" y="-16.541" transform="scale(1, -1)"
	style="font-family:Liberation Serif;font-variant:normal;font-weight:normal;font-style:normal;font-size:10px;fill:#808080">50</text>
<text x="359.63" y="-16.541" transform="scale(1, -1)"
	style="font-family:Liberation Serif;font-variant:normal;font-weight:normal;font-style:normal;font-size:10px;fill:#808080">250</text>
<text x="611.62" y="-16.541" transform="scale(1, -1)"
	style="font-family:Liberation Serif;font-variant:normal;font-weight:normal;font-style:normal;font-size:10px;fill:#808080">450</text>
<path d="M115.13,24.363L115.13,32.363" style="fill:none;stroke:#808080;stroke-width:0.5" />
<path d="M367.13,24.363L367.13,32.363" style="fill:none;stroke:#808080;stroke-width:0.5" />
<path d="M619.12,24.363L619.12,32.363" style="fill:none;stroke:#808080;stroke-width:0.5" />
<path d="M241.13,28.363L241.13,32.363" style="fill:none;stroke:#808080;stroke-width:0.5" />
<path d="M493.12,28.363L493.12,32.363" style="fill:none;stroke:#808080;stroke-width:0.5" />
<path d="M52.135,32.363L626.84,32.363" style="fill:none;stroke:#808080;stroke-width:0.5" />
<g transform="rotate(90)">
<text x="122.59" y="9.3867" transform="scale(1, -1)"
	style="font-family:Liberation Serif;font-variant:normal;font-weight:normal;font-style:normal;font-size:12px;fill:#808080">Workflow Throughput (tasks per second)</text>
</g>
<text x="30.885" y="-37.924" transform="scale(1, -1)"
	style="font-family:Liberation Serif;font-variant:normal;font-weight:normal;font-style:normal;font-size:10px;fill:#808080">0</text>
<text x="15.885" y="-186.61" transform="scale(1, -1)"
	style="font-family:Liberation Serif;font-variant:normal;font-weight:normal;font-style:normal;font-size:10px;fill:#808080">3000</text>
<text x="15.885" y="-335.3" transform="scale(1, -1)"
	style="font-family:Liberation Serif;font-variant:normal;font-weight:normal;font-style:normal;font-size:10px;fill:#808080">6000</text>
<path d="M38.385,40.209L46.385,40.209" style="fill:none;stroke:#808080;stroke-width:0.5" />
<path d="M38.385,188.9L46.385,188.9" style="fill:none;stroke:#808080;stroke-width:0.5" />
<path d="M38.385,337.58L46.385,337.58" style="fill:none;stroke:#808080;stroke-width:0.5" />
<path d="M42.385,89.772L46.385,89.772" style="fill:none;stroke:#808080;stroke-width:0.5" />
<path d="M42.385,139.33L46.385,139.33" style="fill:none;stroke:#808080;stroke-width:0.5" />
<path d="M42.385,238.46L46.385,238.46" style="fill:none;stroke:#808080;stroke-width:0.5" />
<path d="M42.385,288.02L46.385,288.02" style="fill:none;stroke:#808080;stroke-width:0.5" />
<path d="M42.385,387.15L46.385,387.15" style="fill:none;stroke:#808080;stroke-width:0.5" />
<path d="M46.385,40.209L46.385,402.41" style="fill:none;stroke:#808080;stroke-width:0.5" />
<path d="M303.8,86.748A2.5,2.5 0 1 1 298.8,86.748A2.5,2.5 0 1 1 303.8,86.748Z" style="fill:none;stroke:#A6CEE3;stroke-width:0.5" />
<path d="M338.76,86.768A2.5,2.5 0 1 1 333.76,86.768A2.5,2.5 0 1 1 338.76,86.768Z" style="fill:none;stroke:#A6CEE3;stroke-width:0.5" />
<path d="M339,86.783A2.5,2.5 0 1 1 334,86.783A2.5,2.5 0 1 1 339,86.783Z" style="fill:none;stroke:#A6CEE3;stroke-width:0.5" />
<path d="M363.32,86.788A2.5,2.5 0 1 1 358.32,86.788A2.5,2.5 0 1 1 363.32,86.788Z" style="fill:none;stroke:#A6CEE3;stroke-width:0.5" />
<path d="M391.4,86.788A2.5,2.5 0 1 1 386.4,86.788A2.5,2.5 0 1 1 391.4,86.788Z" style="fill:none;stroke:#A6CEE3;stroke-width:0.5" />
<path d="M406.86,86.808A2.5,2.5 0 1 1 401.86,86.808A2.5,2.5 0 1 1 406.86,86.808Z" style="fill:none;stroke:#A6CEE3;stroke-width:0.5" />
<path d="M292.34,130.11L296.6,130.11L296.6,134.38L292.34,134.38Z" style="fill:none;stroke:#1F78B4;stroke-width:0.5" />
<path d="M323.89,130.16L328.16,130.16L328.16,134.43L323.89,134.43Z" style="fill:none;stroke:#1F78B4;stroke-width:0.5" />
<path d="M354.61,130.76L358.87,130.76L358.87,135.02L354.61,135.02Z" style="fill:none;stroke:#1F78B4;stroke-width:0.5" />
<path d="M395.38,130.81L399.65,130.81L399.65,135.07L395.38,135.07Z" style="fill:none;stroke:#1F78B4;stroke-width:0.5" />
<path d="M402.24,130.81L406.5,130.81L406.5,135.07L402.24,135.07Z" style="fill:none;stroke:#1F78B4;stroke-width:0.5" />
<path d="M404.44,130.86L408.71,130.86L408.71,135.12L404.44,135.12Z" style="fill:none;stroke:#1F78B4;stroke-width:0.5" />
<path d="M308.31,180.87L305.6,176.18L311.01,176.18Z" style="fill:none;stroke:#B2DF8A;stroke-width:0.5" />
<path d="M323.1,180.97L320.39,176.28L325.81,176.28Z" style="fill:none;stroke:#B2DF8A;stroke-width:0.5" />
<path d="M358.03,180.97L355.33,176.28L360.74,176.28Z" style="fill:none;stroke:#B2DF8A;stroke-width:0.5" />
<path d="M410.16,180.97L407.45,176.28L412.87,176.28Z" style="fill:none;stroke:#B2DF8A;stroke-width:0.5" />
<path d="M423.75,181.07L421.05,176.38L426.46,176.38Z" style="fill:none;stroke:#B2DF8A;stroke-width:0.5" />
<path d="M435.01,181.17L432.3,176.48L437.72,176.48Z" style="fill:none;stroke:#B2DF8A;stroke-width:0.5" />
<path d="M285.32,219.49L288.86,223.03" style="fill:none;stroke:#33A02C;stroke-width:0.5" />
<path d="M285.32,223.03L288.86,219.49" style="fill:none;stroke:#33A02C;stroke-width:0.5" />
<path d="M287.12,219.89L290.66,223.43" style="fill:none;stroke:#33A02C;stroke-width:0.5" />
<path d="M287.12,223.43L290.66,219.89" style="fill:none;stroke:#33A02C;stroke-width:0.5" />
<path d="M341.7,220.04L345.23,223.57" style="fill:none;stroke:#33A02C;stroke-width:0.5" />
<path d="M341.7,223.57L345.23,220.04" style="fill:none;stroke:#33A02C;stroke-width:0.5" />
<path d="M356.23,220.68L359.77,224.22" style="fill:none;stroke:#33A02C;stroke-width:0.5" />
<path d="M356.23,224.22L359.77,220.68" style="fill:none;stroke:#33A02C;stroke-width:0.5" />
<path d="M357.42,220.68L360.96,224.22" style="fill:none;stroke:#33A02C;stroke-width:0.5" />
<path d="M357.42,224.22L360.96,220.68" style="fill:none;stroke:#33A02C;stroke-width:0.5" />
<path d="M378.41,220.73L381.95,224.27" style="fill:none;stroke:#33A02C;stroke-width:0.5" />
<path d="M378.41,224.27L381.95,220.73" style="fill:none;stroke:#33A02C;stroke-width:0.5" />
<path d="M315.72,376.76L315.72,371.76" style="fill:none;stroke:#FB9A99;stroke-width:0.5" />
<path d="M313.22,374.26L318.22,374.26" style="fill:none;stroke:#FB9A99;stroke-width:0.5" />
<path d="M385.26,380.23L385.26,375.23" style="fill:none;stroke:#FB9A99;stroke-width:0.5" />
<path d="M382.76,377.73L387.76,377.73" style="fill:none;stroke:#FB9A99;stroke-width:0.5" />
<path d="M386.57,381.07L386.57,376.07" style="fill:none;stroke:#FB9A99;stroke-width:0.5" />
<path d="M384.07,378.57L389.07,378.57" style="fill:none;stroke:#FB9A99;stroke-width:0.5" />
<path d="M439.81,381.82L439.81,376.82" style="fill:none;stroke:#FB9A99;stroke-width:0.5" />
<path d="M437.31,379.32L442.31,379.32" style="fill:none;stroke:#FB9A99;stroke-width:0.5" />
<path d="M444.45,382.31L444.45,377.31" style="fill:none;stroke:#FB9A99;stroke-width:0.5" />
<path d="M441.95,379.81L446.95,379.81" style="fill:none;stroke:#FB9A99;stroke-width:0.5" />
<path d="M469.2,384.15L469.2,379.15" style="fill:none;stroke:#FB9A99;stroke-width:0.5" />
<path d="M466.7,381.65L471.7,381.65" style="fill:none;stroke:#FB9A99;stroke-width:0.5" />
<path d="M467.7,344.42A2.5,2.5 0 1 1 462.7,344.42A2.5,2.5 0 1 1 467.7,344.42Z" style="fill:#E31A1C" />
<path d="M473.41,347.25A2.5,2.5 0 1 1 468.41,347.25A2.5,2.5 0 1 1 473.41,347.25Z" style="fill:#E31A1C" />
<path d="M473.92,351.26A2.5,2.5 0 1 1 468.92,351.26A2.5,2.5 0 1 1 473.92,351.26Z" style="fill:#E31A1C" />
<path d="M483.06,354.14A2.5,2.5 0 1 1 478.06,354.14A2.5,2.5 0 1 1 483.06,354.14Z" style="fill:#E31A1C" />
<path d="M511.42,355.43A2.5,2.5 0 1 1 506.42,355.43A2.5,2.5 0 1 1 511.42,355.43Z" style="fill:#E31A1C" />
<path d="M517.14,357.01A2.5,2.5 0 1 1 512.14,357.01A2.5,2.5 0 1 1 517.14,357.01Z" style="fill:#E31A1C" />
<path d="M450.91,334.71L455.18,334.71L455.18,338.97L450.91,338.97Z" style="fill:#FDBF6F" />
<path d="M515.73,374.11L520,374.11L520,378.38L515.73,378.38Z" style="fill:#FDBF6F" />
<path d="M519.71,375.84L523.98,375.84L523.98,380.11L519.71,380.11Z" style="fill:#FDBF6F" />
<path d="M546.2,380.16L550.47,380.16L550.47,384.42L546.2,384.42Z" style="fill:#FDBF6F" />
<path d="M606.64,392.15L610.9,392.15L610.9,396.42L606.64,396.42Z" style="fill:#FDBF6F" />
<path d="M624.7,400.28L628.97,400.28L628.97,404.55L624.7,404.55Z" style="fill:#FDBF6F" />
</g>
</svg>
