<?xml version="1.0"?>
<!-- Generated by SVGo and Plotinum VG -->
<svg width="648pt" height="432pt" viewBox="0 0 648 432"
	xmlns="http://www.w3.org/2000/svg"
	xmlns:xlink="http://www.w3.org/1999/xlink">
<g transform="scale(1, -1) translate(0, -432)">
<path d="M0,0L648,0L648,432L0,432Z" style="fill:#-8000000000000000-8000000000000000-8000000000000000;fill-opacity:0" />
<text x="213.55" y="-422.61" transform="scale(1, -1)"
	style="font-family:Liberation Serif;font-variant:normal;font-weight:normal;font-style:normal;font-size:12px;fill:#808080">Allocations Per Task Aggregated (Processing)</text>
<text x="225.82" y="-3.9023" transform="scale(1, -1)"
	style="font-family:Liberation Serif;font-variant:normal;font-weight:normal;font-style:normal;font-size:12px;fill:#808080">Aggregation Workload Duration @ Flush Period</text>
<text x="104.87" y="-16.541" transform="scale(1, -1)"
	style="font-family:Liberation Serif;font-variant:normal;font-weight:normal;font-style:normal;font-size:10px;fill:#808080">10µs @ 1ms</text>
<text x="312.3" y="-16.541" transform="scale(1, -1)"
	style="font-family:Liberation Serif;font-variant:normal;font-weight:normal;font-style:normal;font-size:10px;fill:#808080">100µs @ 10ms</text>
<text x="526.23" y="-16.541" transform="scale(1, -1)"
	style="font-family:Liberation Serif;font-variant:normal;font-weight:normal;font-style:normal;font-size:10px;fill:#808080">1ms @ 100ms</text>
<path d="M130.13,24.363L130.13,32.363" style="fill:none;stroke:#808080;stroke-width:0.5" />
<path d="M342.57,24.363L342.57,32.363" style="fill:none;stroke:#808080;stroke-width:0.5" />
<path d="M555,24.363L555,32.363" style="fill:none;stroke:#808080;stroke-width:0.5" />
<path d="M130.13,32.363L555,32.363" style="fill:none;stroke:#808080;stroke-width:0.5" />
<g transform="rotate(90)">
<text x="186" y="9.3867" transform="scale(1, -1)"
	style="font-family:Liberation Serif;font-variant:normal;font-weight:normal;font-style:normal;font-size:12px;fill:#808080">Allocations / Task</text>
</g>
<text x="15.885" y="-37.924" transform="scale(1, -1)"
	style="font-family:Liberation Serif;font-variant:normal;font-weight:normal;font-style:normal;font-size:10px;fill:#808080">0</text>
<text x="15.885" y="-194.77" transform="scale(1, -1)"
	style="font-family:Liberation Serif;font-variant:normal;font-weight:normal;font-style:normal;font-size:10px;fill:#808080">4</text>
<text x="15.885" y="-351.62" transform="scale(1, -1)"
	style="font-family:Liberation Serif;font-variant:normal;font-weight:normal;font-style:normal;font-size:10px;fill:#808080">8</text>
<path d="M23.385,40.209L31.385,40.209" style="fill:none;stroke:#808080;stroke-width:0.5" />
<path d="M23.385,197.06L31.385,197.06" style="fill:none;stroke:#808080;stroke-width:0.5" />
<path d="M23.385,353.91L31.385,353.91" style="fill:none;stroke:#808080;stroke-width:0.5" />
<path d="M27.385,79.421L31.385,79.421" style="fill:none;stroke:#808080;stroke-width:0.5" />
<path d="M27.385,118.63L31.385,118.63" style="fill:none;stroke:#808080;stroke-width:0.5" />
<path d="M27.385,157.85L31.385,157.85" style="fill:none;stroke:#808080;stroke-width:0.5" />
<path d="M27.385,236.27L31.385,236.27" style="fill:none;stroke:#808080;stroke-width:0.5" />
<path d="M27.385,275.48L31.385,275.48" style="fill:none;stroke:#808080;stroke-width:0.5" />
<path d="M27.385,314.7L31.385,314.7" style="fill:none;stroke:#808080;stroke-width:0.5" />
<path d="M27.385,393.12L31.385,393.12" style="fill:none;stroke:#808080;stroke-width:0.5" />
<path d="M31.385,40.209L31.385,418.71" style="fill:none;stroke:#808080;stroke-width:0.5" />
<path d="M37.135,40.209L37.135,40.209L61.135,40.209L61.135,40.209Z" style="fill:#A6CEE3" />
<path d="M49.135,40.209L49.135,40.209" style="fill:none;stroke:#808080;stroke-width:0.56693" />
<path d="M43.135,40.209L55.135,40.209" style="fill:none;stroke:#808080;stroke-width:0.56693" />
<path d="M43.135,40.209L55.135,40.209" style="fill:none;stroke:#808080;stroke-width:0.56693" />
<text x="39.685" y="-67.924" transform="scale(1, -1)"
	style="font-family:Liberation Serif;font-variant:normal;font-weight:normal;font-style:normal;font-size:8.4px;fill:#808080">0.000</text>
<text x="44.201" y="-59.524" transform="scale(1, -1)"
	style="font-family:Liberation Serif;font-variant:normal;font-weight:normal;font-style:normal;font-size:8.4px;fill:#808080">+/-</text>
<text x="43.536" y="-51.124" transform="scale(1, -1)"
	style="font-family:Liberation Serif;font-variant:normal;font-weight:normal;font-style:normal;font-size:8.4px;fill:#808080">0%</text>
<path d="M249.57,40.209L249.57,40.209L273.57,40.209L273.57,40.209Z" style="fill:#A6CEE3" />
<path d="M261.57,40.209L261.57,40.209" style="fill:none;stroke:#808080;stroke-width:0.56693" />
<path d="M255.57,40.209L267.57,40.209" style="fill:none;stroke:#808080;stroke-width:0.56693" />
<path d="M255.57,40.209L267.57,40.209" style="fill:none;stroke:#808080;stroke-width:0.56693" />
<text x="252.12" y="-67.924" transform="scale(1, -1)"
	style="font-family:Liberation Serif;font-variant:normal;font-weight:normal;font-style:normal;font-size:8.4px;fill:#808080">0.000</text>
<text x="256.63" y="-59.524" transform="scale(1, -1)"
	style="font-family:Liberation Serif;font-variant:normal;font-weight:normal;font-style:normal;font-size:8.4px;fill:#808080">+/-</text>
<text x="255.97" y="-51.124" transform="scale(1, -1)"
	style="font-family:Liberation Serif;font-variant:normal;font-weight:normal;font-style:normal;font-size:8.4px;fill:#808080">0%</text>
<path d="M462,40.209L462,40.209L486,40.209L486,40.209Z" style="fill:#A6CEE3" />
<path d="M474,40.209L474,40.209" style="fill:none;stroke:#808080;stroke-width:0.56693" />
<path d="M468,40.209L480,40.209" style="fill:none;stroke:#808080;stroke-width:0.56693" />
<path d="M468,40.209L480,40.209" style="fill:none;stroke:#808080;stroke-width:0.56693" />
<text x="464.55" y="-67.924" transform="scale(1, -1)"
	style="font-family:Liberation Serif;font-variant:normal;font-weight:normal;font-style:normal;font-size:8.4px;fill:#808080">0.000</text>
<text x="469.07" y="-59.524" transform="scale(1, -1)"
	style="font-family:Liberation Serif;font-variant:normal;font-weight:normal;font-style:normal;font-size:8.4px;fill:#808080">+/-</text>
<text x="468.4" y="-51.124" transform="scale(1, -1)"
	style="font-family:Liberation Serif;font-variant:normal;font-weight:normal;font-style:normal;font-size:8.4px;fill:#808080">0%</text>
<path d="M64.135,40.209L64.135,218.18L88.135,218.18L88.135,40.209Z" style="fill:#1F78B4" />
<path d="M76.135,218.18L76.135,218.27" style="fill:none;stroke:#808080;stroke-width:0.56693" />
<path d="M70.135,218.18L82.135,218.18" style="fill:none;stroke:#808080;stroke-width:0.56693" />
<path d="M70.135,218.27L82.135,218.27" style="fill:none;stroke:#808080;stroke-width:0.56693" />
<text x="66.685" y="-245.98" transform="scale(1, -1)"
	style="font-family:Liberation Serif;font-variant:normal;font-weight:normal;font-style:normal;font-size:8.4px;fill:#808080">4.539</text>
<text x="71.201" y="-237.58" transform="scale(1, -1)"
	style="font-family:Liberation Serif;font-variant:normal;font-weight:normal;font-style:normal;font-size:8.4px;fill:#808080">+/-</text>
<text x="70.536" y="-229.18" transform="scale(1, -1)"
	style="font-family:Liberation Serif;font-variant:normal;font-weight:normal;font-style:normal;font-size:8.4px;fill:#808080">0%</text>
<path d="M276.57,40.209L276.57,236.03L300.57,236.03L300.57,40.209Z" style="fill:#1F78B4" />
<path d="M288.57,217.28L288.57,236.37" style="fill:none;stroke:#808080;stroke-width:0.56693" />
<path d="M282.57,217.28L294.57,217.28" style="fill:none;stroke:#808080;stroke-width:0.56693" />
<path d="M282.57,236.37L294.57,236.37" style="fill:none;stroke:#808080;stroke-width:0.56693" />
<text x="279.12" y="-264.08" transform="scale(1, -1)"
	style="font-family:Liberation Serif;font-variant:normal;font-weight:normal;font-style:normal;font-size:8.4px;fill:#808080">4.994</text>
<text x="280.6" y="-255.68" transform="scale(1, -1)"
	style="font-family:Liberation Serif;font-variant:normal;font-weight:normal;font-style:normal;font-size:8.4px;fill:#808080">+0%</text>
<text x="279.47" y="-247.28" transform="scale(1, -1)"
	style="font-family:Liberation Serif;font-variant:normal;font-weight:normal;font-style:normal;font-size:8.4px;fill:#808080">-10%</text>
<path d="M489,40.209L489,231.68L513,231.68L513,40.209Z" style="fill:#1F78B4" />
<path d="M501,219.53L501,238.62" style="fill:none;stroke:#808080;stroke-width:0.56693" />
<path d="M495,219.53L507,219.53" style="fill:none;stroke:#808080;stroke-width:0.56693" />
<path d="M495,238.62L507,238.62" style="fill:none;stroke:#808080;stroke-width:0.56693" />
<text x="491.55" y="-266.33" transform="scale(1, -1)"
	style="font-family:Liberation Serif;font-variant:normal;font-weight:normal;font-style:normal;font-size:8.4px;fill:#808080">4.883</text>
<text x="493.03" y="-257.93" transform="scale(1, -1)"
	style="font-family:Liberation Serif;font-variant:normal;font-weight:normal;font-style:normal;font-size:8.4px;fill:#808080">+4%</text>
<text x="494" y="-249.53" transform="scale(1, -1)"
	style="font-family:Liberation Serif;font-variant:normal;font-weight:normal;font-style:normal;font-size:8.4px;fill:#808080">-6%</text>
<path d="M91.135,40.209L91.135,256.68L115.13,256.68L115.13,40.209Z" style="fill:#B2DF8A" />
<path d="M103.13,256.43L103.13,256.88" style="fill:none;stroke:#808080;stroke-width:0.56693" />
<path d="M97.135,256.43L109.13,256.43" style="fill:none;stroke:#808080;stroke-width:0.56693" />
<path d="M97.135,256.88L109.13,256.88" style="fill:none;stroke:#808080;stroke-width:0.56693" />
<text x="93.685" y="-284.6" transform="scale(1, -1)"
	style="font-family:Liberation Serif;font-variant:normal;font-weight:normal;font-style:normal;font-size:8.4px;fill:#808080">5.521</text>
<text x="98.201" y="-276.2" transform="scale(1, -1)"
	style="font-family:Liberation Serif;font-variant:normal;font-weight:normal;font-style:normal;font-size:8.4px;fill:#808080">+/-</text>
<text x="97.536" y="-267.8" transform="scale(1, -1)"
	style="font-family:Liberation Serif;font-variant:normal;font-weight:normal;font-style:normal;font-size:8.4px;fill:#808080">0%</text>
<path d="M303.57,40.209L303.57,276.39L327.57,276.39L327.57,40.209Z" style="fill:#B2DF8A" />
<path d="M315.57,276.23L315.57,276.54" style="fill:none;stroke:#808080;stroke-width:0.56693" />
<path d="M309.57,276.23L321.57,276.23" style="fill:none;stroke:#808080;stroke-width:0.56693" />
<path d="M309.57,276.54L321.57,276.54" style="fill:none;stroke:#808080;stroke-width:0.56693" />
<text x="306.12" y="-304.25" transform="scale(1, -1)"
	style="font-family:Liberation Serif;font-variant:normal;font-weight:normal;font-style:normal;font-size:8.4px;fill:#808080">6.023</text>
<text x="310.63" y="-295.85" transform="scale(1, -1)"
	style="font-family:Liberation Serif;font-variant:normal;font-weight:normal;font-style:normal;font-size:8.4px;fill:#808080">+/-</text>
<text x="309.97" y="-287.45" transform="scale(1, -1)"
	style="font-family:Liberation Serif;font-variant:normal;font-weight:normal;font-style:normal;font-size:8.4px;fill:#808080">0%</text>
<path d="M516,40.209L516,276.49L540,276.49L540,40.209Z" style="fill:#B2DF8A" />
<path d="M528,276.48L528,276.67" style="fill:none;stroke:#808080;stroke-width:0.56693" />
<path d="M522,276.48L534,276.48" style="fill:none;stroke:#808080;stroke-width:0.56693" />
<path d="M522,276.67L534,276.67" style="fill:none;stroke:#808080;stroke-width:0.56693" />
<text x="518.55" y="-304.39" transform="scale(1, -1)"
	style="font-family:Liberation Serif;font-variant:normal;font-weight:normal;font-style:normal;font-size:8.4px;fill:#808080">6.026</text>
<text x="523.07" y="-295.99" transform="scale(1, -1)"
	style="font-family:Liberation Serif;font-variant:normal;font-weight:normal;font-style:normal;font-size:8.4px;fill:#808080">+/-</text>
<text x="522.4" y="-287.59" transform="scale(1, -1)"
	style="font-family:Liberation Serif;font-variant:normal;font-weight:normal;font-style:normal;font-size:8.4px;fill:#808080">0%</text>
<path d="M118.13,40.209L118.13,253.92L142.13,253.92L142.13,40.209Z" style="fill:#33A02C" />
<path d="M130.13,253.3L130.13,254.27" style="fill:none;stroke:#808080;stroke-width:0.56693" />
<path d="M124.13,253.3L136.13,253.3" style="fill:none;stroke:#808080;stroke-width:0.56693" />
<path d="M124.13,254.27L136.13,254.27" style="fill:none;stroke:#808080;stroke-width:0.56693" />
<text x="120.68" y="-281.98" transform="scale(1, -1)"
	style="font-family:Liberation Serif;font-variant:normal;font-weight:normal;font-style:normal;font-size:8.4px;fill:#808080">5.450</text>
<text x="125.2" y="-273.58" transform="scale(1, -1)"
	style="font-family:Liberation Serif;font-variant:normal;font-weight:normal;font-style:normal;font-size:8.4px;fill:#808080">+/-</text>
<text x="124.54" y="-265.18" transform="scale(1, -1)"
	style="font-family:Liberation Serif;font-variant:normal;font-weight:normal;font-style:normal;font-size:8.4px;fill:#808080">0%</text>
<path d="M330.57,40.209L330.57,275.16L354.57,275.16L354.57,40.209Z" style="fill:#33A02C" />
<path d="M342.57,274.87L342.57,275.23" style="fill:none;stroke:#808080;stroke-width:0.56693" />
<path d="M336.57,274.87L348.57,274.87" style="fill:none;stroke:#808080;stroke-width:0.56693" />
<path d="M336.57,275.23L348.57,275.23" style="fill:none;stroke:#808080;stroke-width:0.56693" />
<text x="333.12" y="-302.94" transform="scale(1, -1)"
	style="font-family:Liberation Serif;font-variant:normal;font-weight:normal;font-style:normal;font-size:8.4px;fill:#808080">5.992</text>
<text x="337.63" y="-294.54" transform="scale(1, -1)"
	style="font-family:Liberation Serif;font-variant:normal;font-weight:normal;font-style:normal;font-size:8.4px;fill:#808080">+/-</text>
<text x="336.97" y="-286.14" transform="scale(1, -1)"
	style="font-family:Liberation Serif;font-variant:normal;font-weight:normal;font-style:normal;font-size:8.4px;fill:#808080">0%</text>
<path d="M543,40.209L543,276.67L567,276.67L567,40.209Z" style="fill:#33A02C" />
<path d="M555,276.57L555,276.77" style="fill:none;stroke:#808080;stroke-width:0.56693" />
<path d="M549,276.57L561,276.57" style="fill:none;stroke:#808080;stroke-width:0.56693" />
<path d="M549,276.77L561,276.77" style="fill:none;stroke:#808080;stroke-width:0.56693" />
<text x="545.55" y="-304.49" transform="scale(1, -1)"
	style="font-family:Liberation Serif;font-variant:normal;font-weight:normal;font-style:normal;font-size:8.4px;fill:#808080">6.030</text>
<text x="550.07" y="-296.09" transform="scale(1, -1)"
	style="font-family:Liberation Serif;font-variant:normal;font-weight:normal;font-style:normal;font-size:8.4px;fill:#808080">+/-</text>
<text x="549.4" y="-287.69" transform="scale(1, -1)"
	style="font-family:Liberation Serif;font-variant:normal;font-weight:normal;font-style:normal;font-size:8.4px;fill:#808080">0%</text>
<path d="M145.13,40.209L145.13,251.02L169.13,251.02L169.13,40.209Z" style="fill:#FB9A99" />
<path d="M157.13,250.44L157.13,251.42" style="fill:none;stroke:#808080;stroke-width:0.56693" />
<path d="M151.13,250.44L163.13,250.44" style="fill:none;stroke:#808080;stroke-width:0.56693" />
<path d="M151.13,251.42L163.13,251.42" style="fill:none;stroke:#808080;stroke-width:0.56693" />
<text x="147.68" y="-279.13" transform="scale(1, -1)"
	style="font-family:Liberation Serif;font-variant:normal;font-weight:normal;font-style:normal;font-size:8.4px;fill:#808080">5.376</text>
<text x="152.2" y="-270.73" transform="scale(1, -1)"
	style="font-family:Liberation Serif;font-variant:normal;font-weight:normal;font-style:normal;font-size:8.4px;fill:#808080">+/-</text>
<text x="151.54" y="-262.33" transform="scale(1, -1)"
	style="font-family:Liberation Serif;font-variant:normal;font-weight:normal;font-style:normal;font-size:8.4px;fill:#808080">0%</text>
<path d="M357.57,40.209L357.57,272.41L381.57,272.41L381.57,40.209Z" style="fill:#FB9A99" />
<path d="M369.57,272.25L369.57,272.58" style="fill:none;stroke:#808080;stroke-width:0.56693" />
<path d="M363.57,272.25L375.57,272.25" style="fill:none;stroke:#808080;stroke-width:0.56693" />
<path d="M363.57,272.58L375.57,272.58" style="fill:none;stroke:#808080;stroke-width:0.56693" />
<text x="360.12" y="-300.29" transform="scale(1, -1)"
	style="font-family:Liberation Serif;font-variant:normal;font-weight:normal;font-style:normal;font-size:8.4px;fill:#808080">5.922</text>
<text x="364.63" y="-291.89" transform="scale(1, -1)"
	style="font-family:Liberation Serif;font-variant:normal;font-weight:normal;font-style:normal;font-size:8.4px;fill:#808080">+/-</text>
<text x="363.97" y="-283.49" transform="scale(1, -1)"
	style="font-family:Liberation Serif;font-variant:normal;font-weight:normal;font-style:normal;font-size:8.4px;fill:#808080">0%</text>
<path d="M570,40.209L570,276.68L594,276.68L594,40.209Z" style="fill:#FB9A99" />
<path d="M582,276.63L582,276.71" style="fill:none;stroke:#808080;stroke-width:0.56693" />
<path d="M576,276.63L588,276.63" style="fill:none;stroke:#808080;stroke-width:0.56693" />
<path d="M576,276.71L588,276.71" style="fill:none;stroke:#808080;stroke-width:0.56693" />
<text x="572.55" y="-304.42" transform="scale(1, -1)"
	style="font-family:Liberation Serif;font-variant:normal;font-weight:normal;font-style:normal;font-size:8.4px;fill:#808080">6.031</text>
<text x="577.07" y="-296.02" transform="scale(1, -1)"
	style="font-family:Liberation Serif;font-variant:normal;font-weight:normal;font-style:normal;font-size:8.4px;fill:#808080">+/-</text>
<text x="576.4" y="-287.62" transform="scale(1, -1)"
	style="font-family:Liberation Serif;font-variant:normal;font-weight:normal;font-style:normal;font-size:8.4px;fill:#808080">0%</text>
<path d="M172.13,40.209L172.13,247.86L196.13,247.86L196.13,40.209Z" style="fill:#E31A1C" />
<path d="M184.13,247.62L184.13,248.24" style="fill:none;stroke:#808080;stroke-width:0.56693" />
<path d="M178.13,247.62L190.13,247.62" style="fill:none;stroke:#808080;stroke-width:0.56693" />
<path d="M178.13,248.24L190.13,248.24" style="fill:none;stroke:#808080;stroke-width:0.56693" />
<text x="174.68" y="-275.95" transform="scale(1, -1)"
	style="font-family:Liberation Serif;font-variant:normal;font-weight:normal;font-style:normal;font-size:8.4px;fill:#808080">5.295</text>
<text x="179.2" y="-267.55" transform="scale(1, -1)"
	style="font-family:Liberation Serif;font-variant:normal;font-weight:normal;font-style:normal;font-size:8.4px;fill:#808080">+/-</text>
<text x="178.54" y="-259.15" transform="scale(1, -1)"
	style="font-family:Liberation Serif;font-variant:normal;font-weight:normal;font-style:normal;font-size:8.4px;fill:#808080">0%</text>
<path d="M384.57,40.209L384.57,269.85L408.57,269.85L408.57,40.209Z" style="fill:#E31A1C" />
<path d="M396.57,269.68L396.57,270.13" style="fill:none;stroke:#808080;stroke-width:0.56693" />
<path d="M390.57,269.68L402.57,269.68" style="fill:none;stroke:#808080;stroke-width:0.56693" />
<path d="M390.57,270.13L402.57,270.13" style="fill:none;stroke:#808080;stroke-width:0.56693" />
<text x="387.12" y="-297.84" transform="scale(1, -1)"
	style="font-family:Liberation Serif;font-variant:normal;font-weight:normal;font-style:normal;font-size:8.4px;fill:#808080">5.856</text>
<text x="391.63" y="-289.44" transform="scale(1, -1)"
	style="font-family:Liberation Serif;font-variant:normal;font-weight:normal;font-style:normal;font-size:8.4px;fill:#808080">+/-</text>
<text x="390.97" y="-281.04" transform="scale(1, -1)"
	style="font-family:Liberation Serif;font-variant:normal;font-weight:normal;font-style:normal;font-size:8.4px;fill:#808080">0%</text>
<path d="M597,40.209L597,276.71L621,276.71L621,40.209Z" style="fill:#E31A1C" />
<path d="M609,276.61L609,276.74" style="fill:none;stroke:#808080;stroke-width:0.56693" />
<path d="M603,276.61L615,276.61" style="fill:none;stroke:#808080;stroke-width:0.56693" />
<path d="M603,276.74L615,276.74" style="fill:none;stroke:#808080;stroke-width:0.56693" />
<text x="599.55" y="-304.46" transform="scale(1, -1)"
	style="font-family:Liberation Serif;font-variant:normal;font-weight:normal;font-style:normal;font-size:8.4px;fill:#808080">6.031</text>
<text x="604.07" y="-296.06" transform="scale(1, -1)"
	style="font-family:Liberation Serif;font-variant:normal;font-weight:normal;font-style:normal;font-size:8.4px;fill:#808080">+/-</text>
<text x="603.4" y="-287.66" transform="scale(1, -1)"
	style="font-family:Liberation Serif;font-variant:normal;font-weight:normal;font-style:normal;font-size:8.4px;fill:#808080">0%</text>
<path d="M199.13,40.209L199.13,242.67L223.13,242.67L223.13,40.209Z" style="fill:#FDBF6F" />
<path d="M211.13,242.17L211.13,242.88" style="fill:none;stroke:#808080;stroke-width:0.56693" />
<path d="M205.13,242.17L217.13,242.17" style="fill:none;stroke:#808080;stroke-width:0.56693" />
<path d="M205.13,242.88L217.13,242.88" style="fill:none;stroke:#808080;stroke-width:0.56693" />
<text x="201.68" y="-270.59" transform="scale(1, -1)"
	style="font-family:Liberation Serif;font-variant:normal;font-weight:normal;font-style:normal;font-size:8.4px;fill:#808080">5.163</text>
<text x="206.2" y="-262.19" transform="scale(1, -1)"
	style="font-family:Liberation Serif;font-variant:normal;font-weight:normal;font-style:normal;font-size:8.4px;fill:#808080">+/-</text>
<text x="205.54" y="-253.79" transform="scale(1, -1)"
	style="font-family:Liberation Serif;font-variant:normal;font-weight:normal;font-style:normal;font-size:8.4px;fill:#808080">0%</text>
<path d="M411.57,40.209L411.57,263.69L435.57,263.69L435.57,40.209Z" style="fill:#FDBF6F" />
<path d="M423.57,262.86L423.57,264.79" style="fill:none;stroke:#808080;stroke-width:0.56693" />
<path d="M417.57,262.86L429.57,262.86" style="fill:none;stroke:#808080;stroke-width:0.56693" />
<path d="M417.57,264.79L429.57,264.79" style="fill:none;stroke:#808080;stroke-width:0.56693" />
<text x="414.12" y="-292.5" transform="scale(1, -1)"
	style="font-family:Liberation Serif;font-variant:normal;font-weight:normal;font-style:normal;font-size:8.4px;fill:#808080">5.699</text>
<text x="418.63" y="-284.1" transform="scale(1, -1)"
	style="font-family:Liberation Serif;font-variant:normal;font-weight:normal;font-style:normal;font-size:8.4px;fill:#808080">+/-</text>
<text x="417.97" y="-275.7" transform="scale(1, -1)"
	style="font-family:Liberation Serif;font-variant:normal;font-weight:normal;font-style:normal;font-size:8.4px;fill:#808080">0%</text>
<path d="M624,40.209L624,274.71L648,274.71L648,40.209Z" style="fill:#FDBF6F" />
<path d="M636,274.16L636,276.36" style="fill:none;stroke:#808080;stroke-width:0.56693" />
<path d="M630,274.16L642,274.16" style="fill:none;stroke:#808080;stroke-width:0.56693" />
<path d="M630,276.36L642,276.36" style="fill:none;stroke:#808080;stroke-width:0.56693" />
<text x="626.55" y="-304.08" transform="scale(1, -1)"
	style="font-family:Liberation Serif;font-variant:normal;font-weight:normal;font-style:normal;font-size:8.4px;fill:#808080">5.980</text>
<text x="628.03" y="-295.68" transform="scale(1, -1)"
	style="font-family:Liberation Serif;font-variant:normal;font-weight:normal;font-style:normal;font-size:8.4px;fill:#808080">+1%</text>
<text x="629" y="-287.28" transform="scale(1, -1)"
	style="font-family:Liberation Serif;font-variant:normal;font-weight:normal;font-style:normal;font-size:8.4px;fill:#808080">-0%</text>
<path d="M37.135,405.93L37.135,416.12L57.135,416.12L57.135,405.93Z" style="fill:#A6CEE3" />
<text x="60.135" y="-408.54" transform="scale(1, -1)"
	style="font-family:Liberation Serif;font-variant:normal;font-weight:normal;font-style:normal;font-size:12px;fill:#808080">Direct Call</text>
<path d="M37.135,392.91L37.135,403.1L57.135,403.1L57.135,392.91Z" style="fill:#1F78B4" />
<text x="60.135" y="-395.52" transform="scale(1, -1)"
	style="font-family:Liberation Serif;font-variant:normal;font-weight:normal;font-style:normal;font-size:12px;fill:#808080">Gather Only</text>
<path d="M37.135,379.9L37.135,390.08L57.135,390.08L57.135,379.9Z" style="fill:#B2DF8A" />
<text x="60.135" y="-382.5" transform="scale(1, -1)"
	style="font-family:Liberation Serif;font-variant:normal;font-weight:normal;font-style:normal;font-size:12px;fill:#808080">Combine (limit 1)</text>
<path d="M37.135,366.88L37.135,377.06L57.135,377.06L57.135,366.88Z" style="fill:#33A02C" />
<text x="60.135" y="-369.48" transform="scale(1, -1)"
	style="font-family:Liberation Serif;font-variant:normal;font-weight:normal;font-style:normal;font-size:12px;fill:#808080">Combine (limit 2)</text>
<path d="M37.135,353.86L37.135,364.04L57.135,364.04L57.135,353.86Z" style="fill:#FB9A99" />
<text x="60.135" y="-356.46" transform="scale(1, -1)"
	style="font-family:Liberation Serif;font-variant:normal;font-weight:normal;font-style:normal;font-size:12px;fill:#808080">Combine (limit 3)</text>
<path d="M37.135,340.84L37.135,351.02L57.135,351.02L57.135,340.84Z" style="fill:#E31A1C" />
<text x="60.135" y="-343.44" transform="scale(1, -1)"
	style="font-family:Liberation Serif;font-variant:normal;font-weight:normal;font-style:normal;font-size:12px;fill:#808080">Combine (limit 4)</text>
<path d="M37.135,327.82L37.135,338.01L57.135,338.01L57.135,327.82Z" style="fill:#FDBF6F" />
<text x="60.135" y="-330.43" transform="scale(1, -1)"
	style="font-family:Liberation Serif;font-variant:normal;font-weight:normal;font-style:normal;font-size:12px;fill:#808080">Combine (limit 8)</text>
</g>
</svg>
