<?xml version="1.0"?>
<!-- Generated by SVGo and Plotinum VG -->
<svg width="648pt" height="432pt" viewBox="0 0 648 432"
	xmlns="http://www.w3.org/2000/svg"
	xmlns:xlink="http://www.w3.org/1999/xlink">
<g transform="scale(1, -1) translate(0, -432)">
<path d="M0,0L648,0L648,432L0,432Z" style="fill:#-8000000000000000-8000000000000000-8000000000000000;fill-opacity:0" />
<text x="215.45" y="-422.61" transform="scale(1, -1)"
	style="font-family:Liberation Serif;font-variant:normal;font-weight:normal;font-style:normal;font-size:12px;fill:#808080">Aggregation Workload Speedup (Processing)</text>
<text x="225.82" y="-3.9023" transform="scale(1, -1)"
	style="font-family:Liberation Serif;font-variant:normal;font-weight:normal;font-style:normal;font-size:12px;fill:#808080">Aggregation Workload Duration @ Flush Period</text>
<text x="104.87" y="-16.541" transform="scale(1, -1)"
	style="font-family:Liberation Serif;font-variant:normal;font-weight:normal;font-style:normal;font-size:10px;fill:#808080">10µs @ 1ms</text>
<text x="312.3" y="-16.541" transform="scale(1, -1)"
	style="font-family:Liberation Serif;font-variant:normal;font-weight:normal;font-style:normal;font-size:10px;fill:#808080">100µs @ 10ms</text>
<text x="526.23" y="-16.541" transform="scale(1, -1)"
	style="font-family:Liberation Serif;font-variant:normal;font-weight:normal;font-style:normal;font-size:10px;fill:#808080">1ms @ 100ms</text>
<path d="M130.13,24.363L130.13,32.363" style="fill:none;stroke:#808080;stroke-width:0.5" />
<path d="M342.57,24.363L342.57,32.363" style="fill:none;stroke:#808080;stroke-width:0.5" />
<path d="M555,24.363L555,32.363" style="fill:none;stroke:#808080;stroke-width:0.5" />
<path d="M130.13,32.363L555,32.363" style="fill:none;stroke:#808080;stroke-width:0.5" />
<g transform="rotate(90)">
<text x="176.3" y="9.3867" transform="scale(1, -1)"
	style="font-family:Liberation Serif;font-variant:normal;font-weight:normal;font-style:normal;font-size:12px;fill:#808080">Throughput vs. Direct</text>
</g>
<text x="15.885" y="-37.924" transform="scale(1, -1)"
	style="font-family:Liberation Serif;font-variant:normal;font-weight:normal;font-style:normal;font-size:10px;fill:#808080">0</text>
<text x="15.885" y="-201.45" transform="scale(1, -1)"
	style="font-family:Liberation Serif;font-variant:normal;font-weight:normal;font-style:normal;font-size:10px;fill:#808080">4</text>
<text x="15.885" y="-364.97" transform="scale(1, -1)"
	style="font-family:Liberation Serif;font-variant:normal;font-weight:normal;font-style:normal;font-size:10px;fill:#808080">8</text>
<path d="M23.385,40.209L31.385,40.209" style="fill:none;stroke:#808080;stroke-width:0.5" />
<path d="M23.385,203.73L31.385,203.73" style="fill:none;stroke:#808080;stroke-width:0.5" />
<path d="M23.385,367.26L31.385,367.26" style="fill:none;stroke:#808080;stroke-width:0.5" />
<path d="M27.385,81.09L31.385,81.09" style="fill:none;stroke:#808080;stroke-width:0.5" />
<path d="M27.385,121.97L31.385,121.97" style="fill:none;stroke:#808080;stroke-width:0.5" />
<path d="M27.385,162.85L31.385,162.85" style="fill:none;stroke:#808080;stroke-width:0.5" />
<path d="M27.385,244.61L31.385,244.61" style="fill:none;stroke:#808080;stroke-width:0.5" />
<path d="M27.385,285.5L31.385,285.5" style="fill:none;stroke:#808080;stroke-width:0.5" />
<path d="M27.385,326.38L31.385,326.38" style="fill:none;stroke:#808080;stroke-width:0.5" />
<path d="M27.385,408.14L31.385,408.14" style="fill:none;stroke:#808080;stroke-width:0.5" />
<path d="M31.385,40.209L31.385,418.71" style="fill:none;stroke:#808080;stroke-width:0.5" />
<path d="M37.135,40.209L37.135,81.09L61.135,81.09L61.135,40.209Z" style="fill:#A6CEE3" />
<path d="M49.135,81.073L49.135,81.107" style="fill:none;stroke:#808080;stroke-width:0.56693" />
<path d="M43.135,81.073L55.135,81.073" style="fill:none;stroke:#808080;stroke-width:0.56693" />
<path d="M43.135,81.107L55.135,81.107" style="fill:none;stroke:#808080;stroke-width:0.56693" />
<text x="39.685" y="-108.82" transform="scale(1, -1)"
	style="font-family:Liberation Serif;font-variant:normal;font-weight:normal;font-style:normal;font-size:8.4px;fill:#808080">1.000</text>
<text x="44.201" y="-100.42" transform="scale(1, -1)"
	style="font-family:Liberation Serif;font-variant:normal;font-weight:normal;font-style:normal;font-size:8.4px;fill:#808080">+/-</text>
<text x="43.536" y="-92.022" transform="scale(1, -1)"
	style="font-family:Liberation Serif;font-variant:normal;font-weight:normal;font-style:normal;font-size:8.4px;fill:#808080">0%</text>
<path d="M249.57,40.209L249.57,81.09L273.57,81.09L273.57,40.209Z" style="fill:#A6CEE3" />
<path d="M261.57,81.09L261.57,81.09" style="fill:none;stroke:#808080;stroke-width:0.56693" />
<path d="M255.57,81.09L267.57,81.09" style="fill:none;stroke:#808080;stroke-width:0.56693" />
<path d="M255.57,81.09L267.57,81.09" style="fill:none;stroke:#808080;stroke-width:0.56693" />
<text x="252.12" y="-108.8" transform="scale(1, -1)"
	style="font-family:Liberation Serif;font-variant:normal;font-weight:normal;font-style:normal;font-size:8.4px;fill:#808080">1.000</text>
<text x="256.63" y="-100.4" transform="scale(1, -1)"
	style="font-family:Liberation Serif;font-variant:normal;font-weight:normal;font-style:normal;font-size:8.4px;fill:#808080">+/-</text>
<text x="255.97" y="-92.005" transform="scale(1, -1)"
	style="font-family:Liberation Serif;font-variant:normal;font-weight:normal;font-style:normal;font-size:8.4px;fill:#808080">0%</text>
<path d="M462,40.209L462,81.09L486,81.09L486,40.209Z" style="fill:#A6CEE3" />
<path d="M474,81.09L474,81.09" style="fill:none;stroke:#808080;stroke-width:0.56693" />
<path d="M468,81.09L480,81.09" style="fill:none;stroke:#808080;stroke-width:0.56693" />
<path d="M468,81.09L480,81.09" style="fill:none;stroke:#808080;stroke-width:0.56693" />
<text x="464.55" y="-108.8" transform="scale(1, -1)"
	style="font-family:Liberation Serif;font-variant:normal;font-weight:normal;font-style:normal;font-size:8.4px;fill:#808080">1.000</text>
<text x="469.07" y="-100.4" transform="scale(1, -1)"
	style="font-family:Liberation Serif;font-variant:normal;font-weight:normal;font-style:normal;font-size:8.4px;fill:#808080">+/-</text>
<text x="468.4" y="-92.005" transform="scale(1, -1)"
	style="font-family:Liberation Serif;font-variant:normal;font-weight:normal;font-style:normal;font-size:8.4px;fill:#808080">0%</text>
<path d="M64.135,40.209L64.135,77.446L88.135,77.446L88.135,40.209Z" style="fill:#1F78B4" />
<path d="M76.135,77.356L76.135,77.536" style="fill:none;stroke:#808080;stroke-width:0.56693" />
<path d="M70.135,77.356L82.135,77.356" style="fill:none;stroke:#808080;stroke-width:0.56693" />
<path d="M70.135,77.536L82.135,77.536" style="fill:none;stroke:#808080;stroke-width:0.56693" />
<text x="66.841" y="-105.25" transform="scale(1, -1)"
	style="font-family:Liberation Serif;font-variant:normal;font-weight:normal;font-style:normal;font-size:8.4px;fill:#808080">0.911</text>
<text x="71.201" y="-96.85" transform="scale(1, -1)"
	style="font-family:Liberation Serif;font-variant:normal;font-weight:normal;font-style:normal;font-size:8.4px;fill:#808080">+/-</text>
<text x="70.536" y="-88.45" transform="scale(1, -1)"
	style="font-family:Liberation Serif;font-variant:normal;font-weight:normal;font-style:normal;font-size:8.4px;fill:#808080">0%</text>
<path d="M276.57,40.209L276.57,80.467L300.57,80.467L300.57,40.209Z" style="fill:#1F78B4" />
<path d="M288.57,80.455L288.57,80.48" style="fill:none;stroke:#808080;stroke-width:0.56693" />
<path d="M282.57,80.455L294.57,80.455" style="fill:none;stroke:#808080;stroke-width:0.56693" />
<path d="M282.57,80.48L294.57,80.48" style="fill:none;stroke:#808080;stroke-width:0.56693" />
<text x="279.12" y="-108.19" transform="scale(1, -1)"
	style="font-family:Liberation Serif;font-variant:normal;font-weight:normal;font-style:normal;font-size:8.4px;fill:#808080">0.985</text>
<text x="283.63" y="-99.795" transform="scale(1, -1)"
	style="font-family:Liberation Serif;font-variant:normal;font-weight:normal;font-style:normal;font-size:8.4px;fill:#808080">+/-</text>
<text x="282.97" y="-91.395" transform="scale(1, -1)"
	style="font-family:Liberation Serif;font-variant:normal;font-weight:normal;font-style:normal;font-size:8.4px;fill:#808080">0%</text>
<path d="M489,40.209L489,80.984L513,80.984L513,40.209Z" style="fill:#1F78B4" />
<path d="M501,80.98L501,80.988" style="fill:none;stroke:#808080;stroke-width:0.56693" />
<path d="M495,80.98L507,80.98" style="fill:none;stroke:#808080;stroke-width:0.56693" />
<path d="M495,80.988L507,80.988" style="fill:none;stroke:#808080;stroke-width:0.56693" />
<text x="491.55" y="-108.7" transform="scale(1, -1)"
	style="font-family:Liberation Serif;font-variant:normal;font-weight:normal;font-style:normal;font-size:8.4px;fill:#808080">0.997</text>
<text x="496.07" y="-100.3" transform="scale(1, -1)"
	style="font-family:Liberation Serif;font-variant:normal;font-weight:normal;font-style:normal;font-size:8.4px;fill:#808080">+/-</text>
<text x="495.4" y="-91.902" transform="scale(1, -1)"
	style="font-family:Liberation Serif;font-variant:normal;font-weight:normal;font-style:normal;font-size:8.4px;fill:#808080">0%</text>
<path d="M91.135,40.209L91.135,67.661L115.13,67.661L115.13,40.209Z" style="fill:#B2DF8A" />
<path d="M103.13,67.254L103.13,68.069" style="fill:none;stroke:#808080;stroke-width:0.56693" />
<path d="M97.135,67.254L109.13,67.254" style="fill:none;stroke:#808080;stroke-width:0.56693" />
<path d="M97.135,68.069L109.13,68.069" style="fill:none;stroke:#808080;stroke-width:0.56693" />
<text x="93.685" y="-95.784" transform="scale(1, -1)"
	style="font-family:Liberation Serif;font-variant:normal;font-weight:normal;font-style:normal;font-size:8.4px;fill:#808080">0.672</text>
<text x="98.201" y="-87.384" transform="scale(1, -1)"
	style="font-family:Liberation Serif;font-variant:normal;font-weight:normal;font-style:normal;font-size:8.4px;fill:#808080">+/-</text>
<text x="97.536" y="-78.984" transform="scale(1, -1)"
	style="font-family:Liberation Serif;font-variant:normal;font-weight:normal;font-style:normal;font-size:8.4px;fill:#808080">1%</text>
<path d="M303.57,40.209L303.57,80.693L327.57,80.693L327.57,40.209Z" style="fill:#B2DF8A" />
<path d="M315.57,80.686L315.57,80.7" style="fill:none;stroke:#808080;stroke-width:0.56693" />
<path d="M309.57,80.686L321.57,80.686" style="fill:none;stroke:#808080;stroke-width:0.56693" />
<path d="M309.57,80.7L321.57,80.7" style="fill:none;stroke:#808080;stroke-width:0.56693" />
<text x="306.12" y="-108.41" transform="scale(1, -1)"
	style="font-family:Liberation Serif;font-variant:normal;font-weight:normal;font-style:normal;font-size:8.4px;fill:#808080">0.990</text>
<text x="310.63" y="-100.01" transform="scale(1, -1)"
	style="font-family:Liberation Serif;font-variant:normal;font-weight:normal;font-style:normal;font-size:8.4px;fill:#808080">+/-</text>
<text x="309.97" y="-91.615" transform="scale(1, -1)"
	style="font-family:Liberation Serif;font-variant:normal;font-weight:normal;font-style:normal;font-size:8.4px;fill:#808080">0%</text>
<path d="M516,40.209L516,81.303L540,81.303L540,40.209Z" style="fill:#B2DF8A" />
<path d="M528,81.303L528,81.303" style="fill:none;stroke:#808080;stroke-width:0.56693" />
<path d="M522,81.303L534,81.303" style="fill:none;stroke:#808080;stroke-width:0.56693" />
<path d="M522,81.303L534,81.303" style="fill:none;stroke:#808080;stroke-width:0.56693" />
<text x="518.55" y="-109.02" transform="scale(1, -1)"
	style="font-family:Liberation Serif;font-variant:normal;font-weight:normal;font-style:normal;font-size:8.4px;fill:#808080">1.005</text>
<text x="523.07" y="-100.62" transform="scale(1, -1)"
	style="font-family:Liberation Serif;font-variant:normal;font-weight:normal;font-style:normal;font-size:8.4px;fill:#808080">+/-</text>
<text x="522.4" y="-92.217" transform="scale(1, -1)"
	style="font-family:Liberation Serif;font-variant:normal;font-weight:normal;font-style:normal;font-size:8.4px;fill:#808080">0%</text>
<path d="M118.13,40.209L118.13,91.591L142.13,91.591L142.13,40.209Z" style="fill:#33A02C" />
<path d="M130.13,90.235L130.13,92.947" style="fill:none;stroke:#808080;stroke-width:0.56693" />
<path d="M124.13,90.235L136.13,90.235" style="fill:none;stroke:#808080;stroke-width:0.56693" />
<path d="M124.13,92.947L136.13,92.947" style="fill:none;stroke:#808080;stroke-width:0.56693" />
<text x="120.68" y="-120.66" transform="scale(1, -1)"
	style="font-family:Liberation Serif;font-variant:normal;font-weight:normal;font-style:normal;font-size:8.4px;fill:#808080">1.257</text>
<text x="125.2" y="-112.26" transform="scale(1, -1)"
	style="font-family:Liberation Serif;font-variant:normal;font-weight:normal;font-style:normal;font-size:8.4px;fill:#808080">+/-</text>
<text x="124.54" y="-103.86" transform="scale(1, -1)"
	style="font-family:Liberation Serif;font-variant:normal;font-weight:normal;font-style:normal;font-size:8.4px;fill:#808080">3%</text>
<path d="M330.57,40.209L330.57,120.87L354.57,120.87L354.57,40.209Z" style="fill:#33A02C" />
<path d="M342.57,120.77L342.57,120.96" style="fill:none;stroke:#808080;stroke-width:0.56693" />
<path d="M336.57,120.77L348.57,120.77" style="fill:none;stroke:#808080;stroke-width:0.56693" />
<path d="M336.57,120.96L348.57,120.96" style="fill:none;stroke:#808080;stroke-width:0.56693" />
<text x="333.12" y="-148.67" transform="scale(1, -1)"
	style="font-family:Liberation Serif;font-variant:normal;font-weight:normal;font-style:normal;font-size:8.4px;fill:#808080">1.973</text>
<text x="337.63" y="-140.27" transform="scale(1, -1)"
	style="font-family:Liberation Serif;font-variant:normal;font-weight:normal;font-style:normal;font-size:8.4px;fill:#808080">+/-</text>
<text x="336.97" y="-131.87" transform="scale(1, -1)"
	style="font-family:Liberation Serif;font-variant:normal;font-weight:normal;font-style:normal;font-size:8.4px;fill:#808080">0%</text>
<path d="M543,40.209L543,121.99L567,121.99L567,40.209Z" style="fill:#33A02C" />
<path d="M555,121.99L555,121.99" style="fill:none;stroke:#808080;stroke-width:0.56693" />
<path d="M549,121.99L561,121.99" style="fill:none;stroke:#808080;stroke-width:0.56693" />
<path d="M549,121.99L561,121.99" style="fill:none;stroke:#808080;stroke-width:0.56693" />
<text x="545.55" y="-149.7" transform="scale(1, -1)"
	style="font-family:Liberation Serif;font-variant:normal;font-weight:normal;font-style:normal;font-size:8.4px;fill:#808080">2.000</text>
<text x="550.07" y="-141.3" transform="scale(1, -1)"
	style="font-family:Liberation Serif;font-variant:normal;font-weight:normal;font-style:normal;font-size:8.4px;fill:#808080">+/-</text>
<text x="549.4" y="-132.9" transform="scale(1, -1)"
	style="font-family:Liberation Serif;font-variant:normal;font-weight:normal;font-style:normal;font-size:8.4px;fill:#808080">0%</text>
<path d="M145.13,40.209L145.13,108.47L169.13,108.47L169.13,40.209Z" style="fill:#FB9A99" />
<path d="M157.13,106.73L157.13,110.21" style="fill:none;stroke:#808080;stroke-width:0.56693" />
<path d="M151.13,106.73L163.13,106.73" style="fill:none;stroke:#808080;stroke-width:0.56693" />
<path d="M151.13,110.21L163.13,110.21" style="fill:none;stroke:#808080;stroke-width:0.56693" />
<text x="147.68" y="-137.93" transform="scale(1, -1)"
	style="font-family:Liberation Serif;font-variant:normal;font-weight:normal;font-style:normal;font-size:8.4px;fill:#808080">1.670</text>
<text x="152.2" y="-129.53" transform="scale(1, -1)"
	style="font-family:Liberation Serif;font-variant:normal;font-weight:normal;font-style:normal;font-size:8.4px;fill:#808080">+/-</text>
<text x="151.54" y="-121.13" transform="scale(1, -1)"
	style="font-family:Liberation Serif;font-variant:normal;font-weight:normal;font-style:normal;font-size:8.4px;fill:#808080">3%</text>
<path d="M357.57,40.209L357.57,160.39L381.57,160.39L381.57,40.209Z" style="fill:#FB9A99" />
<path d="M369.57,160.34L369.57,160.45" style="fill:none;stroke:#808080;stroke-width:0.56693" />
<path d="M363.57,160.34L375.57,160.34" style="fill:none;stroke:#808080;stroke-width:0.56693" />
<path d="M363.57,160.45L375.57,160.45" style="fill:none;stroke:#808080;stroke-width:0.56693" />
<text x="360.12" y="-188.16" transform="scale(1, -1)"
	style="font-family:Liberation Serif;font-variant:normal;font-weight:normal;font-style:normal;font-size:8.4px;fill:#808080">2.940</text>
<text x="364.63" y="-179.76" transform="scale(1, -1)"
	style="font-family:Liberation Serif;font-variant:normal;font-weight:normal;font-style:normal;font-size:8.4px;fill:#808080">+/-</text>
<text x="363.97" y="-171.36" transform="scale(1, -1)"
	style="font-family:Liberation Serif;font-variant:normal;font-weight:normal;font-style:normal;font-size:8.4px;fill:#808080">0%</text>
<path d="M570,40.209L570,162.24L594,162.24L594,40.209Z" style="fill:#FB9A99" />
<path d="M582,162.23L582,162.26" style="fill:none;stroke:#808080;stroke-width:0.56693" />
<path d="M576,162.23L588,162.23" style="fill:none;stroke:#808080;stroke-width:0.56693" />
<path d="M576,162.26L588,162.26" style="fill:none;stroke:#808080;stroke-width:0.56693" />
<text x="572.55" y="-189.97" transform="scale(1, -1)"
	style="font-family:Liberation Serif;font-variant:normal;font-weight:normal;font-style:normal;font-size:8.4px;fill:#808080">2.985</text>
<text x="577.07" y="-181.57" transform="scale(1, -1)"
	style="font-family:Liberation Serif;font-variant:normal;font-weight:normal;font-style:normal;font-size:8.4px;fill:#808080">+/-</text>
<text x="576.4" y="-173.17" transform="scale(1, -1)"
	style="font-family:Liberation Serif;font-variant:normal;font-weight:normal;font-style:normal;font-size:8.4px;fill:#808080">0%</text>
<path d="M172.13,40.209L172.13,110.29L196.13,110.29L196.13,40.209Z" style="fill:#E31A1C" />
<path d="M184.13,108.83L184.13,111.75" style="fill:none;stroke:#808080;stroke-width:0.56693" />
<path d="M178.13,108.83L190.13,108.83" style="fill:none;stroke:#808080;stroke-width:0.56693" />
<path d="M178.13,111.75L190.13,111.75" style="fill:none;stroke:#808080;stroke-width:0.56693" />
<text x="174.68" y="-139.46" transform="scale(1, -1)"
	style="font-family:Liberation Serif;font-variant:normal;font-weight:normal;font-style:normal;font-size:8.4px;fill:#808080">1.714</text>
<text x="179.2" y="-131.06" transform="scale(1, -1)"
	style="font-family:Liberation Serif;font-variant:normal;font-weight:normal;font-style:normal;font-size:8.4px;fill:#808080">+/-</text>
<text x="178.54" y="-122.66" transform="scale(1, -1)"
	style="font-family:Liberation Serif;font-variant:normal;font-weight:normal;font-style:normal;font-size:8.4px;fill:#808080">2%</text>
<path d="M384.57,40.209L384.57,199.21L408.57,199.21L408.57,40.209Z" style="fill:#E31A1C" />
<path d="M396.57,199.14L396.57,199.28" style="fill:none;stroke:#808080;stroke-width:0.56693" />
<path d="M390.57,199.14L402.57,199.14" style="fill:none;stroke:#808080;stroke-width:0.56693" />
<path d="M390.57,199.28L402.57,199.28" style="fill:none;stroke:#808080;stroke-width:0.56693" />
<text x="387.12" y="-227" transform="scale(1, -1)"
	style="font-family:Liberation Serif;font-variant:normal;font-weight:normal;font-style:normal;font-size:8.4px;fill:#808080">3.889</text>
<text x="391.63" y="-218.6" transform="scale(1, -1)"
	style="font-family:Liberation Serif;font-variant:normal;font-weight:normal;font-style:normal;font-size:8.4px;fill:#808080">+/-</text>
<text x="390.97" y="-210.2" transform="scale(1, -1)"
	style="font-family:Liberation Serif;font-variant:normal;font-weight:normal;font-style:normal;font-size:8.4px;fill:#808080">0%</text>
<path d="M597,40.209L597,202.05L621,202.05L621,40.209Z" style="fill:#E31A1C" />
<path d="M609,202.03L609,202.06" style="fill:none;stroke:#808080;stroke-width:0.56693" />
<path d="M603,202.03L615,202.03" style="fill:none;stroke:#808080;stroke-width:0.56693" />
<path d="M603,202.06L615,202.06" style="fill:none;stroke:#808080;stroke-width:0.56693" />
<text x="599.55" y="-229.78" transform="scale(1, -1)"
	style="font-family:Liberation Serif;font-variant:normal;font-weight:normal;font-style:normal;font-size:8.4px;fill:#808080">3.959</text>
<text x="604.07" y="-221.38" transform="scale(1, -1)"
	style="font-family:Liberation Serif;font-variant:normal;font-weight:normal;font-style:normal;font-size:8.4px;fill:#808080">+/-</text>
<text x="603.4" y="-212.98" transform="scale(1, -1)"
	style="font-family:Liberation Serif;font-variant:normal;font-weight:normal;font-style:normal;font-size:8.4px;fill:#808080">0%</text>
<path d="M199.13,40.209L199.13,112.09L223.13,112.09L223.13,40.209Z" style="fill:#FDBF6F" />
<path d="M211.13,110.82L211.13,113.36" style="fill:none;stroke:#808080;stroke-width:0.56693" />
<path d="M205.13,110.82L217.13,110.82" style="fill:none;stroke:#808080;stroke-width:0.56693" />
<path d="M205.13,113.36L217.13,113.36" style="fill:none;stroke:#808080;stroke-width:0.56693" />
<text x="201.68" y="-141.07" transform="scale(1, -1)"
	style="font-family:Liberation Serif;font-variant:normal;font-weight:normal;font-style:normal;font-size:8.4px;fill:#808080">1.758</text>
<text x="206.2" y="-132.67" transform="scale(1, -1)"
	style="font-family:Liberation Serif;font-variant:normal;font-weight:normal;font-style:normal;font-size:8.4px;fill:#808080">+/-</text>
<text x="205.54" y="-124.27" transform="scale(1, -1)"
	style="font-family:Liberation Serif;font-variant:normal;font-weight:normal;font-style:normal;font-size:8.4px;fill:#808080">2%</text>
<path d="M411.57,40.209L411.57,344.07L435.57,344.07L435.57,40.209Z" style="fill:#FDBF6F" />
<path d="M423.57,343.96L423.57,344.18" style="fill:none;stroke:#808080;stroke-width:0.56693" />
<path d="M417.57,343.96L429.57,343.96" style="fill:none;stroke:#808080;stroke-width:0.56693" />
<path d="M417.57,344.18L429.57,344.18" style="fill:none;stroke:#808080;stroke-width:0.56693" />
<text x="414.12" y="-371.89" transform="scale(1, -1)"
	style="font-family:Liberation Serif;font-variant:normal;font-weight:normal;font-style:normal;font-size:8.4px;fill:#808080">7.433</text>
<text x="418.63" y="-363.49" transform="scale(1, -1)"
	style="font-family:Liberation Serif;font-variant:normal;font-weight:normal;font-style:normal;font-size:8.4px;fill:#808080">+/-</text>
<text x="417.97" y="-355.09" transform="scale(1, -1)"
	style="font-family:Liberation Serif;font-variant:normal;font-weight:normal;font-style:normal;font-size:8.4px;fill:#808080">0%</text>
<path d="M624,40.209L624,355.59L648,355.59L648,40.209Z" style="fill:#FDBF6F" />
<path d="M636,355.55L636,355.63" style="fill:none;stroke:#808080;stroke-width:0.56693" />
<path d="M630,355.55L642,355.55" style="fill:none;stroke:#808080;stroke-width:0.56693" />
<path d="M630,355.63L642,355.63" style="fill:none;stroke:#808080;stroke-width:0.56693" />
<text x="626.55" y="-383.34" transform="scale(1, -1)"
	style="font-family:Liberation Serif;font-variant:normal;font-weight:normal;font-style:normal;font-size:8.4px;fill:#808080">7.715</text>
<text x="631.07" y="-374.94" transform="scale(1, -1)"
	style="font-family:Liberation Serif;font-variant:normal;font-weight:normal;font-style:normal;font-size:8.4px;fill:#808080">+/-</text>
<text x="630.4" y="-366.54" transform="scale(1, -1)"
	style="font-family:Liberation Serif;font-variant:normal;font-weight:normal;font-style:normal;font-size:8.4px;fill:#808080">0%</text>
<path d="M37.135,405.93L37.135,416.12L57.135,416.12L57.135,405.93Z" style="fill:#A6CEE3" />
<text x="60.135" y="-408.54" transform="scale(1, -1)"
	style="font-family:Liberation Serif;font-variant:normal;font-weight:normal;font-style:normal;font-size:12px;fill:#808080">Direct Call</text>
<path d="M37.135,392.91L37.135,403.1L57.135,403.1L57.135,392.91Z" style="fill:#1F78B4" />
<text x="60.135" y="-395.52" transform="scale(1, -1)"
	style="font-family:Liberation Serif;font-variant:normal;font-weight:normal;font-style:normal;font-size:12px;fill:#808080">Gather Only</text>
<path d="M37.135,379.9L37.135,390.08L57.135,390.08L57.135,379.9Z" style="fill:#B2DF8A" />
<text x="60.135" y="-382.5" transform="scale(1, -1)"
	style="font-family:Liberation Serif;font-variant:normal;font-weight:normal;font-style:normal;font-size:12px;fill:#808080">Combine (limit 1)</text>
<path d="M37.135,366.88L37.135,377.06L57.135,377.06L57.135,366.88Z" style="fill:#33A02C" />
<text x="60.135" y="-369.48" transform="scale(1, -1)"
	style="font-family:Liberation Serif;font-variant:normal;font-weight:normal;font-style:normal;font-size:12px;fill:#808080">Combine (limit 2)</text>
<path d="M37.135,353.86L37.135,364.04L57.135,364.04L57.135,353.86Z" style="fill:#FB9A99" />
<text x="60.135" y="-356.46" transform="scale(1, -1)"
	style="font-family:Liberation Serif;font-variant:normal;font-weight:normal;font-style:normal;font-size:12px;fill:#808080">Combine (limit 3)</text>
<path d="M37.135,340.84L37.135,351.02L57.135,351.02L57.135,340.84Z" style="fill:#E31A1C" />
<text x="60.135" y="-343.44" transform="scale(1, -1)"
	style="font-family:Liberation Serif;font-variant:normal;font-weight:normal;font-style:normal;font-size:12px;fill:#808080">Combine (limit 4)</text>
<path d="M37.135,327.82L37.135,338.01L57.135,338.01L57.135,327.82Z" style="fill:#FDBF6F" />
<text x="60.135" y="-330.43" transform="scale(1, -1)"
	style="font-family:Liberation Serif;font-variant:normal;font-weight:normal;font-style:normal;font-size:12px;fill:#808080">Combine (limit 8)</text>
</g>
</svg>
