<?xml version="1.0"?>
<!-- Generated by SVGo and Plotinum VG -->
<svg width="648pt" height="432pt" viewBox="0 0 648 432"
	xmlns="http://www.w3.org/2000/svg"
	xmlns:xlink="http://www.w3.org/1999/xlink">
<g transform="scale(1, -1) translate(0, -432)">
<path d="M0,0L648,0L648,432L0,432Z" style="fill:#-8000000000000000-8000000000000000-8000000000000000;fill-opacity:0" />
<text x="203.06" y="-422.61" transform="scale(1, -1)"
	style="font-family:Liberation Serif;font-variant:normal;font-weight:normal;font-style:normal;font-size:12px;fill:#808080">Bytes Allocated Per Task Aggregated (Processing)</text>
<text x="237.07" y="-3.9023" transform="scale(1, -1)"
	style="font-family:Liberation Serif;font-variant:normal;font-weight:normal;font-style:normal;font-size:12px;fill:#808080">Aggregation Workload Duration @ Flush Period</text>
<text x="127.37" y="-16.541" transform="scale(1, -1)"
	style="font-family:Liberation Serif;font-variant:normal;font-weight:normal;font-style:normal;font-size:10px;fill:#808080">10µs @ 1ms</text>
<text x="323.55" y="-16.541" transform="scale(1, -1)"
	style="font-family:Liberation Serif;font-variant:normal;font-weight:normal;font-style:normal;font-size:10px;fill:#808080">100µs @ 10ms</text>
<text x="526.23" y="-16.541" transform="scale(1, -1)"
	style="font-family:Liberation Serif;font-variant:normal;font-weight:normal;font-style:normal;font-size:10px;fill:#808080">1ms @ 100ms</text>
<path d="M152.63,24.363L152.63,32.363" style="fill:none;stroke:#808080;stroke-width:0.5" />
<path d="M353.82,24.363L353.82,32.363" style="fill:none;stroke:#808080;stroke-width:0.5" />
<path d="M555,24.363L555,32.363" style="fill:none;stroke:#808080;stroke-width:0.5" />
<path d="M152.63,32.363L555,32.363" style="fill:none;stroke:#808080;stroke-width:0.5" />
<g transform="rotate(90)">
<text x="175.17" y="9.3867" transform="scale(1, -1)"
	style="font-family:Liberation Serif;font-variant:normal;font-weight:normal;font-style:normal;font-size:12px;fill:#808080">Allocated Bytes / Task</text>
</g>
<text x="25.885" y="-37.924" transform="scale(1, -1)"
	style="font-family:Liberation Serif;font-variant:normal;font-weight:normal;font-style:normal;font-size:10px;fill:#808080">0.00</text>
<text x="15.885" y="-208.56" transform="scale(1, -1)"
	style="font-family:Liberation Serif;font-variant:normal;font-weight:normal;font-style:normal;font-size:10px;fill:#808080">250.00</text>
<text x="15.885" y="-379.19" transform="scale(1, -1)"
	style="font-family:Liberation Serif;font-variant:normal;font-weight:normal;font-style:normal;font-size:10px;fill:#808080">500.00</text>
<path d="M45.885,40.209L53.885,40.209" style="fill:none;stroke:#808080;stroke-width:0.5" />
<path d="M45.885,210.84L53.885,210.84" style="fill:none;stroke:#808080;stroke-width:0.5" />
<path d="M45.885,381.47L53.885,381.47" style="fill:none;stroke:#808080;stroke-width:0.5" />
<path d="M49.885,74.335L53.885,74.335" style="fill:none;stroke:#808080;stroke-width:0.5" />
<path d="M49.885,108.46L53.885,108.46" style="fill:none;stroke:#808080;stroke-width:0.5" />
<path d="M49.885,142.59L53.885,142.59" style="fill:none;stroke:#808080;stroke-width:0.5" />
<path d="M49.885,176.72L53.885,176.72" style="fill:none;stroke:#808080;stroke-width:0.5" />
<path d="M49.885,244.97L53.885,244.97" style="fill:none;stroke:#808080;stroke-width:0.5" />
<path d="M49.885,279.09L53.885,279.09" style="fill:none;stroke:#808080;stroke-width:0.5" />
<path d="M49.885,313.22L53.885,313.22" style="fill:none;stroke:#808080;stroke-width:0.5" />
<path d="M49.885,347.35L53.885,347.35" style="fill:none;stroke:#808080;stroke-width:0.5" />
<path d="M49.885,415.6L53.885,415.6" style="fill:none;stroke:#808080;stroke-width:0.5" />
<path d="M53.885,40.209L53.885,418.71" style="fill:none;stroke:#808080;stroke-width:0.5" />
<path d="M59.635,40.209L59.635,40.209L83.635,40.209L83.635,40.209Z" style="fill:#A6CEE3" />
<path d="M71.635,40.209L71.635,40.209" style="fill:none;stroke:#808080;stroke-width:0.56693" />
<path d="M65.635,40.209L77.635,40.209" style="fill:none;stroke:#808080;stroke-width:0.56693" />
<path d="M65.635,40.209L77.635,40.209" style="fill:none;stroke:#808080;stroke-width:0.56693" />
<text x="62.185" y="-67.924" transform="scale(1, -1)"
	style="font-family:Liberation Serif;font-variant:normal;font-weight:normal;font-style:normal;font-size:8.4px;fill:#808080">0.000</text>
<text x="66.701" y="-59.524" transform="scale(1, -1)"
	style="font-family:Liberation Serif;font-variant:normal;font-weight:normal;font-style:normal;font-size:8.4px;fill:#808080">+/-</text>
<text x="66.036" y="-51.124" transform="scale(1, -1)"
	style="font-family:Liberation Serif;font-variant:normal;font-weight:normal;font-style:normal;font-size:8.4px;fill:#808080">0%</text>
<path d="M260.82,40.209L260.82,40.209L284.82,40.209L284.82,40.209Z" style="fill:#A6CEE3" />
<path d="M272.82,40.209L272.82,40.209" style="fill:none;stroke:#808080;stroke-width:0.56693" />
<path d="M266.82,40.209L278.82,40.209" style="fill:none;stroke:#808080;stroke-width:0.56693" />
<path d="M266.82,40.209L278.82,40.209" style="fill:none;stroke:#808080;stroke-width:0.56693" />
<text x="263.37" y="-67.924" transform="scale(1, -1)"
	style="font-family:Liberation Serif;font-variant:normal;font-weight:normal;font-style:normal;font-size:8.4px;fill:#808080">0.000</text>
<text x="267.88" y="-59.524" transform="scale(1, -1)"
	style="font-family:Liberation Serif;font-variant:normal;font-weight:normal;font-style:normal;font-size:8.4px;fill:#808080">+/-</text>
<text x="267.22" y="-51.124" transform="scale(1, -1)"
	style="font-family:Liberation Serif;font-variant:normal;font-weight:normal;font-style:normal;font-size:8.4px;fill:#808080">0%</text>
<path d="M462,40.209L462,40.209L486,40.209L486,40.209Z" style="fill:#A6CEE3" />
<path d="M474,40.209L474,40.209" style="fill:none;stroke:#808080;stroke-width:0.56693" />
<path d="M468,40.209L480,40.209" style="fill:none;stroke:#808080;stroke-width:0.56693" />
<path d="M468,40.209L480,40.209" style="fill:none;stroke:#808080;stroke-width:0.56693" />
<text x="464.55" y="-67.924" transform="scale(1, -1)"
	style="font-family:Liberation Serif;font-variant:normal;font-weight:normal;font-style:normal;font-size:8.4px;fill:#808080">0.000</text>
<text x="469.07" y="-59.524" transform="scale(1, -1)"
	style="font-family:Liberation Serif;font-variant:normal;font-weight:normal;font-style:normal;font-size:8.4px;fill:#808080">+/-</text>
<text x="468.4" y="-51.124" transform="scale(1, -1)"
	style="font-family:Liberation Serif;font-variant:normal;font-weight:normal;font-style:normal;font-size:8.4px;fill:#808080">0%</text>
<path d="M86.635,40.209L86.635,188.21L110.63,188.21L110.63,40.209Z" style="fill:#1F78B4" />
<path d="M98.635,188.17L98.635,188.36" style="fill:none;stroke:#808080;stroke-width:0.56693" />
<path d="M92.635,188.17L104.63,188.17" style="fill:none;stroke:#808080;stroke-width:0.56693" />
<path d="M92.635,188.36L104.63,188.36" style="fill:none;stroke:#808080;stroke-width:0.56693" />
<text x="89.185" y="-216.08" transform="scale(1, -1)"
	style="font-family:Liberation Serif;font-variant:normal;font-weight:normal;font-style:normal;font-size:8.4px;fill:#808080">216.8</text>
<text x="93.701" y="-207.68" transform="scale(1, -1)"
	style="font-family:Liberation Serif;font-variant:normal;font-weight:normal;font-style:normal;font-size:8.4px;fill:#808080">+/-</text>
<text x="93.036" y="-199.28" transform="scale(1, -1)"
	style="font-family:Liberation Serif;font-variant:normal;font-weight:normal;font-style:normal;font-size:8.4px;fill:#808080">0%</text>
<path d="M287.82,40.209L287.82,188.37L311.82,188.37L311.82,40.209Z" style="fill:#1F78B4" />
<path d="M299.82,188.08L299.82,188.44" style="fill:none;stroke:#808080;stroke-width:0.56693" />
<path d="M293.82,188.08L305.82,188.08" style="fill:none;stroke:#808080;stroke-width:0.56693" />
<path d="M293.82,188.44L305.82,188.44" style="fill:none;stroke:#808080;stroke-width:0.56693" />
<text x="290.37" y="-216.15" transform="scale(1, -1)"
	style="font-family:Liberation Serif;font-variant:normal;font-weight:normal;font-style:normal;font-size:8.4px;fill:#808080">217.1</text>
<text x="294.88" y="-207.75" transform="scale(1, -1)"
	style="font-family:Liberation Serif;font-variant:normal;font-weight:normal;font-style:normal;font-size:8.4px;fill:#808080">+/-</text>
<text x="294.22" y="-199.35" transform="scale(1, -1)"
	style="font-family:Liberation Serif;font-variant:normal;font-weight:normal;font-style:normal;font-size:8.4px;fill:#808080">0%</text>
<path d="M489,40.209L489,192.52L513,192.52L513,40.209Z" style="fill:#1F78B4" />
<path d="M501,189.16L501,197.54" style="fill:none;stroke:#808080;stroke-width:0.56693" />
<path d="M495,189.16L507,189.16" style="fill:none;stroke:#808080;stroke-width:0.56693" />
<path d="M495,197.54L507,197.54" style="fill:none;stroke:#808080;stroke-width:0.56693" />
<text x="491.55" y="-225.25" transform="scale(1, -1)"
	style="font-family:Liberation Serif;font-variant:normal;font-weight:normal;font-style:normal;font-size:8.4px;fill:#808080">223.2</text>
<text x="493.03" y="-216.85" transform="scale(1, -1)"
	style="font-family:Liberation Serif;font-variant:normal;font-weight:normal;font-style:normal;font-size:8.4px;fill:#808080">+3%</text>
<text x="494" y="-208.45" transform="scale(1, -1)"
	style="font-family:Liberation Serif;font-variant:normal;font-weight:normal;font-style:normal;font-size:8.4px;fill:#808080">-2%</text>
<path d="M113.63,40.209L113.63,237.67L137.63,237.67L137.63,40.209Z" style="fill:#B2DF8A" />
<path d="M125.63,237.32L125.63,238.16" style="fill:none;stroke:#808080;stroke-width:0.56693" />
<path d="M119.63,237.32L131.63,237.32" style="fill:none;stroke:#808080;stroke-width:0.56693" />
<path d="M119.63,238.16L131.63,238.16" style="fill:none;stroke:#808080;stroke-width:0.56693" />
<text x="116.18" y="-265.88" transform="scale(1, -1)"
	style="font-family:Liberation Serif;font-variant:normal;font-weight:normal;font-style:normal;font-size:8.4px;fill:#808080">289.3</text>
<text x="120.7" y="-257.48" transform="scale(1, -1)"
	style="font-family:Liberation Serif;font-variant:normal;font-weight:normal;font-style:normal;font-size:8.4px;fill:#808080">+/-</text>
<text x="120.04" y="-249.08" transform="scale(1, -1)"
	style="font-family:Liberation Serif;font-variant:normal;font-weight:normal;font-style:normal;font-size:8.4px;fill:#808080">0%</text>
<path d="M314.82,40.209L314.82,276.27L338.82,276.27L338.82,40.209Z" style="fill:#B2DF8A" />
<path d="M326.82,276.14L326.82,276.58" style="fill:none;stroke:#808080;stroke-width:0.56693" />
<path d="M320.82,276.14L332.82,276.14" style="fill:none;stroke:#808080;stroke-width:0.56693" />
<path d="M320.82,276.58L332.82,276.58" style="fill:none;stroke:#808080;stroke-width:0.56693" />
<text x="317.37" y="-304.3" transform="scale(1, -1)"
	style="font-family:Liberation Serif;font-variant:normal;font-weight:normal;font-style:normal;font-size:8.4px;fill:#808080">345.9</text>
<text x="321.88" y="-295.9" transform="scale(1, -1)"
	style="font-family:Liberation Serif;font-variant:normal;font-weight:normal;font-style:normal;font-size:8.4px;fill:#808080">+/-</text>
<text x="321.22" y="-287.5" transform="scale(1, -1)"
	style="font-family:Liberation Serif;font-variant:normal;font-weight:normal;font-style:normal;font-size:8.4px;fill:#808080">0%</text>
<path d="M516,40.209L516,276.61L540,276.61L540,40.209Z" style="fill:#B2DF8A" />
<path d="M528,276.6L528,276.62" style="fill:none;stroke:#808080;stroke-width:0.56693" />
<path d="M522,276.6L534,276.6" style="fill:none;stroke:#808080;stroke-width:0.56693" />
<path d="M522,276.62L534,276.62" style="fill:none;stroke:#808080;stroke-width:0.56693" />
<text x="518.55" y="-304.33" transform="scale(1, -1)"
	style="font-family:Liberation Serif;font-variant:normal;font-weight:normal;font-style:normal;font-size:8.4px;fill:#808080">346.4</text>
<text x="523.07" y="-295.93" transform="scale(1, -1)"
	style="font-family:Liberation Serif;font-variant:normal;font-weight:normal;font-style:normal;font-size:8.4px;fill:#808080">+/-</text>
<text x="522.4" y="-287.53" transform="scale(1, -1)"
	style="font-family:Liberation Serif;font-variant:normal;font-weight:normal;font-style:normal;font-size:8.4px;fill:#808080">0%</text>
<path d="M140.63,40.209L140.63,232.2L164.63,232.2L164.63,40.209Z" style="fill:#33A02C" />
<path d="M152.63,231.48L152.63,232.8" style="fill:none;stroke:#808080;stroke-width:0.56693" />
<path d="M146.63,231.48L158.63,231.48" style="fill:none;stroke:#808080;stroke-width:0.56693" />
<path d="M146.63,232.8L158.63,232.8" style="fill:none;stroke:#808080;stroke-width:0.56693" />
<text x="143.18" y="-260.51" transform="scale(1, -1)"
	style="font-family:Liberation Serif;font-variant:normal;font-weight:normal;font-style:normal;font-size:8.4px;fill:#808080">281.3</text>
<text x="147.7" y="-252.11" transform="scale(1, -1)"
	style="font-family:Liberation Serif;font-variant:normal;font-weight:normal;font-style:normal;font-size:8.4px;fill:#808080">+/-</text>
<text x="147.04" y="-243.71" transform="scale(1, -1)"
	style="font-family:Liberation Serif;font-variant:normal;font-weight:normal;font-style:normal;font-size:8.4px;fill:#808080">0%</text>
<path d="M341.82,40.209L341.82,273.6L365.82,273.6L365.82,40.209Z" style="fill:#33A02C" />
<path d="M353.82,273.34L353.82,274.06" style="fill:none;stroke:#808080;stroke-width:0.56693" />
<path d="M347.82,273.34L359.82,273.34" style="fill:none;stroke:#808080;stroke-width:0.56693" />
<path d="M347.82,274.06L359.82,274.06" style="fill:none;stroke:#808080;stroke-width:0.56693" />
<text x="344.37" y="-301.77" transform="scale(1, -1)"
	style="font-family:Liberation Serif;font-variant:normal;font-weight:normal;font-style:normal;font-size:8.4px;fill:#808080">342.0</text>
<text x="348.88" y="-293.37" transform="scale(1, -1)"
	style="font-family:Liberation Serif;font-variant:normal;font-weight:normal;font-style:normal;font-size:8.4px;fill:#808080">+/-</text>
<text x="348.22" y="-284.97" transform="scale(1, -1)"
	style="font-family:Liberation Serif;font-variant:normal;font-weight:normal;font-style:normal;font-size:8.4px;fill:#808080">0%</text>
<path d="M543,40.209L543,276.7L567,276.7L567,40.209Z" style="fill:#33A02C" />
<path d="M555,276.63L555,276.77" style="fill:none;stroke:#808080;stroke-width:0.56693" />
<path d="M549,276.63L561,276.63" style="fill:none;stroke:#808080;stroke-width:0.56693" />
<path d="M549,276.77L561,276.77" style="fill:none;stroke:#808080;stroke-width:0.56693" />
<text x="545.55" y="-304.49" transform="scale(1, -1)"
	style="font-family:Liberation Serif;font-variant:normal;font-weight:normal;font-style:normal;font-size:8.4px;fill:#808080">346.5</text>
<text x="550.07" y="-296.09" transform="scale(1, -1)"
	style="font-family:Liberation Serif;font-variant:normal;font-weight:normal;font-style:normal;font-size:8.4px;fill:#808080">+/-</text>
<text x="549.4" y="-287.69" transform="scale(1, -1)"
	style="font-family:Liberation Serif;font-variant:normal;font-weight:normal;font-style:normal;font-size:8.4px;fill:#808080">0%</text>
<path d="M167.63,40.209L167.63,226.25L191.63,226.25L191.63,40.209Z" style="fill:#FB9A99" />
<path d="M179.63,225.16L179.63,227.39" style="fill:none;stroke:#808080;stroke-width:0.56693" />
<path d="M173.63,225.16L185.63,225.16" style="fill:none;stroke:#808080;stroke-width:0.56693" />
<path d="M173.63,227.39L185.63,227.39" style="fill:none;stroke:#808080;stroke-width:0.56693" />
<text x="170.18" y="-255.11" transform="scale(1, -1)"
	style="font-family:Liberation Serif;font-variant:normal;font-weight:normal;font-style:normal;font-size:8.4px;fill:#808080">272.6</text>
<text x="174.7" y="-246.71" transform="scale(1, -1)"
	style="font-family:Liberation Serif;font-variant:normal;font-weight:normal;font-style:normal;font-size:8.4px;fill:#808080">+/-</text>
<text x="174.04" y="-238.31" transform="scale(1, -1)"
	style="font-family:Liberation Serif;font-variant:normal;font-weight:normal;font-style:normal;font-size:8.4px;fill:#808080">1%</text>
<path d="M368.82,40.209L368.82,268.41L392.82,268.41L392.82,40.209Z" style="fill:#FB9A99" />
<path d="M380.82,267.98L380.82,268.68" style="fill:none;stroke:#808080;stroke-width:0.56693" />
<path d="M374.82,267.98L386.82,267.98" style="fill:none;stroke:#808080;stroke-width:0.56693" />
<path d="M374.82,268.68L386.82,268.68" style="fill:none;stroke:#808080;stroke-width:0.56693" />
<text x="371.37" y="-296.4" transform="scale(1, -1)"
	style="font-family:Liberation Serif;font-variant:normal;font-weight:normal;font-style:normal;font-size:8.4px;fill:#808080">334.4</text>
<text x="375.88" y="-288" transform="scale(1, -1)"
	style="font-family:Liberation Serif;font-variant:normal;font-weight:normal;font-style:normal;font-size:8.4px;fill:#808080">+/-</text>
<text x="375.22" y="-279.6" transform="scale(1, -1)"
	style="font-family:Liberation Serif;font-variant:normal;font-weight:normal;font-style:normal;font-size:8.4px;fill:#808080">0%</text>
<path d="M570,40.209L570,276.68L594,276.68L594,40.209Z" style="fill:#FB9A99" />
<path d="M582,276.63L582,276.73" style="fill:none;stroke:#808080;stroke-width:0.56693" />
<path d="M576,276.63L588,276.63" style="fill:none;stroke:#808080;stroke-width:0.56693" />
<path d="M576,276.73L588,276.73" style="fill:none;stroke:#808080;stroke-width:0.56693" />
<text x="572.55" y="-304.44" transform="scale(1, -1)"
	style="font-family:Liberation Serif;font-variant:normal;font-weight:normal;font-style:normal;font-size:8.4px;fill:#808080">346.5</text>
<text x="577.07" y="-296.04" transform="scale(1, -1)"
	style="font-family:Liberation Serif;font-variant:normal;font-weight:normal;font-style:normal;font-size:8.4px;fill:#808080">+/-</text>
<text x="576.4" y="-287.64" transform="scale(1, -1)"
	style="font-family:Liberation Serif;font-variant:normal;font-weight:normal;font-style:normal;font-size:8.4px;fill:#808080">0%</text>
<path d="M194.63,40.209L194.63,220.29L218.63,220.29L218.63,40.209Z" style="fill:#E31A1C" />
<path d="M206.63,219.99L206.63,221.1" style="fill:none;stroke:#808080;stroke-width:0.56693" />
<path d="M200.63,219.99L212.63,219.99" style="fill:none;stroke:#808080;stroke-width:0.56693" />
<path d="M200.63,221.1L212.63,221.1" style="fill:none;stroke:#808080;stroke-width:0.56693" />
<text x="197.18" y="-248.81" transform="scale(1, -1)"
	style="font-family:Liberation Serif;font-variant:normal;font-weight:normal;font-style:normal;font-size:8.4px;fill:#808080">263.8</text>
<text x="201.7" y="-240.41" transform="scale(1, -1)"
	style="font-family:Liberation Serif;font-variant:normal;font-weight:normal;font-style:normal;font-size:8.4px;fill:#808080">+/-</text>
<text x="201.04" y="-232.01" transform="scale(1, -1)"
	style="font-family:Liberation Serif;font-variant:normal;font-weight:normal;font-style:normal;font-size:8.4px;fill:#808080">0%</text>
<path d="M395.82,40.209L395.82,263.31L419.82,263.31L419.82,40.209Z" style="fill:#E31A1C" />
<path d="M407.82,263.04L407.82,263.81" style="fill:none;stroke:#808080;stroke-width:0.56693" />
<path d="M401.82,263.04L413.82,263.04" style="fill:none;stroke:#808080;stroke-width:0.56693" />
<path d="M401.82,263.81L413.82,263.81" style="fill:none;stroke:#808080;stroke-width:0.56693" />
<text x="398.37" y="-291.52" transform="scale(1, -1)"
	style="font-family:Liberation Serif;font-variant:normal;font-weight:normal;font-style:normal;font-size:8.4px;fill:#808080">326.9</text>
<text x="402.88" y="-283.12" transform="scale(1, -1)"
	style="font-family:Liberation Serif;font-variant:normal;font-weight:normal;font-style:normal;font-size:8.4px;fill:#808080">+/-</text>
<text x="402.22" y="-274.72" transform="scale(1, -1)"
	style="font-family:Liberation Serif;font-variant:normal;font-weight:normal;font-style:normal;font-size:8.4px;fill:#808080">0%</text>
<path d="M597,40.209L597,276.71L621,276.71L621,40.209Z" style="fill:#E31A1C" />
<path d="M609,276.05L609,276.73" style="fill:none;stroke:#808080;stroke-width:0.56693" />
<path d="M603,276.05L615,276.05" style="fill:none;stroke:#808080;stroke-width:0.56693" />
<path d="M603,276.73L615,276.73" style="fill:none;stroke:#808080;stroke-width:0.56693" />
<text x="599.55" y="-304.45" transform="scale(1, -1)"
	style="font-family:Liberation Serif;font-variant:normal;font-weight:normal;font-style:normal;font-size:8.4px;fill:#808080">346.5</text>
<text x="604.07" y="-296.05" transform="scale(1, -1)"
	style="font-family:Liberation Serif;font-variant:normal;font-weight:normal;font-style:normal;font-size:8.4px;fill:#808080">+/-</text>
<text x="603.4" y="-287.65" transform="scale(1, -1)"
	style="font-family:Liberation Serif;font-variant:normal;font-weight:normal;font-style:normal;font-size:8.4px;fill:#808080">0%</text>
<path d="M221.63,40.209L221.63,210.64L245.63,210.64L245.63,40.209Z" style="fill:#FDBF6F" />
<path d="M233.63,210.54L233.63,210.98" style="fill:none;stroke:#808080;stroke-width:0.56693" />
<path d="M227.63,210.54L239.63,210.54" style="fill:none;stroke:#808080;stroke-width:0.56693" />
<path d="M227.63,210.98L239.63,210.98" style="fill:none;stroke:#808080;stroke-width:0.56693" />
<text x="224.18" y="-238.7" transform="scale(1, -1)"
	style="font-family:Liberation Serif;font-variant:normal;font-weight:normal;font-style:normal;font-size:8.4px;fill:#808080">249.7</text>
<text x="228.7" y="-230.3" transform="scale(1, -1)"
	style="font-family:Liberation Serif;font-variant:normal;font-weight:normal;font-style:normal;font-size:8.4px;fill:#808080">+/-</text>
<text x="228.04" y="-221.9" transform="scale(1, -1)"
	style="font-family:Liberation Serif;font-variant:normal;font-weight:normal;font-style:normal;font-size:8.4px;fill:#808080">0%</text>
<path d="M422.82,40.209L422.82,250.87L446.82,250.87L446.82,40.209Z" style="fill:#FDBF6F" />
<path d="M434.82,249.21L434.82,252.43" style="fill:none;stroke:#808080;stroke-width:0.56693" />
<path d="M428.82,249.21L440.82,249.21" style="fill:none;stroke:#808080;stroke-width:0.56693" />
<path d="M428.82,252.43L440.82,252.43" style="fill:none;stroke:#808080;stroke-width:0.56693" />
<text x="425.37" y="-280.14" transform="scale(1, -1)"
	style="font-family:Liberation Serif;font-variant:normal;font-weight:normal;font-style:normal;font-size:8.4px;fill:#808080">308.6</text>
<text x="429.88" y="-271.74" transform="scale(1, -1)"
	style="font-family:Liberation Serif;font-variant:normal;font-weight:normal;font-style:normal;font-size:8.4px;fill:#808080">+/-</text>
<text x="429.22" y="-263.34" transform="scale(1, -1)"
	style="font-family:Liberation Serif;font-variant:normal;font-weight:normal;font-style:normal;font-size:8.4px;fill:#808080">1%</text>
<path d="M624,40.209L624,272.26L648,272.26L648,40.209Z" style="fill:#FDBF6F" />
<path d="M636,271.36L636,274.91" style="fill:none;stroke:#808080;stroke-width:0.56693" />
<path d="M630,271.36L642,271.36" style="fill:none;stroke:#808080;stroke-width:0.56693" />
<path d="M630,274.91L642,274.91" style="fill:none;stroke:#808080;stroke-width:0.56693" />
<text x="626.55" y="-302.62" transform="scale(1, -1)"
	style="font-family:Liberation Serif;font-variant:normal;font-weight:normal;font-style:normal;font-size:8.4px;fill:#808080">340.0</text>
<text x="628.03" y="-294.22" transform="scale(1, -1)"
	style="font-family:Liberation Serif;font-variant:normal;font-weight:normal;font-style:normal;font-size:8.4px;fill:#808080">+1%</text>
<text x="629" y="-285.82" transform="scale(1, -1)"
	style="font-family:Liberation Serif;font-variant:normal;font-weight:normal;font-style:normal;font-size:8.4px;fill:#808080">-0%</text>
<path d="M59.635,405.93L59.635,416.12L79.635,416.12L79.635,405.93Z" style="fill:#A6CEE3" />
<text x="82.635" y="-408.54" transform="scale(1, -1)"
	style="font-family:Liberation Serif;font-variant:normal;font-weight:normal;font-style:normal;font-size:12px;fill:#808080">Direct Call</text>
<path d="M59.635,392.91L59.635,403.1L79.635,403.1L79.635,392.91Z" style="fill:#1F78B4" />
<text x="82.635" y="-395.52" transform="scale(1, -1)"
	style="font-family:Liberation Serif;font-variant:normal;font-weight:normal;font-style:normal;font-size:12px;fill:#808080">Gather Only</text>
<path d="M59.635,379.9L59.635,390.08L79.635,390.08L79.635,379.9Z" style="fill:#B2DF8A" />
<text x="82.635" y="-382.5" transform="scale(1, -1)"
	style="font-family:Liberation Serif;font-variant:normal;font-weight:normal;font-style:normal;font-size:12px;fill:#808080">Combine (limit 1)</text>
<path d="M59.635,366.88L59.635,377.06L79.635,377.06L79.635,366.88Z" style="fill:#33A02C" />
<text x="82.635" y="-369.48" transform="scale(1, -1)"
	style="font-family:Liberation Serif;font-variant:normal;font-weight:normal;font-style:normal;font-size:12px;fill:#808080">Combine (limit 2)</text>
<path d="M59.635,353.86L59.635,364.04L79.635,364.04L79.635,353.86Z" style="fill:#FB9A99" />
<text x="82.635" y="-356.46" transform="scale(1, -1)"
	style="font-family:Liberation Serif;font-variant:normal;font-weight:normal;font-style:normal;font-size:12px;fill:#808080">Combine (limit 3)</text>
<path d="M59.635,340.84L59.635,351.02L79.635,351.02L79.635,340.84Z" style="fill:#E31A1C" />
<text x="82.635" y="-343.44" transform="scale(1, -1)"
	style="font-family:Liberation Serif;font-variant:normal;font-weight:normal;font-style:normal;font-size:12px;fill:#808080">Combine (limit 4)</text>
<path d="M59.635,327.82L59.635,338.01L79.635,338.01L79.635,327.82Z" style="fill:#FDBF6F" />
<text x="82.635" y="-330.43" transform="scale(1, -1)"
	style="font-family:Liberation Serif;font-variant:normal;font-weight:normal;font-style:normal;font-size:12px;fill:#808080">Combine (limit 8)</text>
</g>
</svg>
