<?xml version="1.0"?>
<!-- Generated by SVGo and Plotinum VG -->
<svg width="648pt" height="432pt" viewBox="0 0 648 432"
	xmlns="http://www.w3.org/2000/svg"
	xmlns:xlink="http://www.w3.org/1999/xlink">
<g transform="scale(1, -1) translate(0, -432)">
<path d="M0,0L648,0L648,432L0,432Z" style="fill:#-8000000000000000-8000000000000000-8000000000000000;fill-opacity:0" />
<text x="207.89" y="-422.61" transform="scale(1, -1)"
	style="font-family:Liberation Serif;font-variant:normal;font-weight:normal;font-style:normal;font-size:12px;fill:#808080">Aggregation Workload Throughput (Processing)</text>
<text x="233.32" y="-3.9023" transform="scale(1, -1)"
	style="font-family:Liberation Serif;font-variant:normal;font-weight:normal;font-style:normal;font-size:12px;fill:#808080">Aggregation Workload Duration @ Flush Period</text>
<text x="121.36" y="-16.541" transform="scale(1, -1)"
	style="font-family:Liberation Serif;font-variant:normal;font-weight:normal;font-style:normal;font-size:10px;fill:#808080">1ms @ 1ms</text>
<text x="323.79" y="-16.541" transform="scale(1, -1)"
	style="font-family:Liberation Serif;font-variant:normal;font-weight:normal;font-style:normal;font-size:10px;fill:#808080">1ms @ 10ms</text>
<text x="526.23" y="-16.541" transform="scale(1, -1)"
	style="font-family:Liberation Serif;font-variant:normal;font-weight:normal;font-style:normal;font-size:10px;fill:#808080">1ms @ 100ms</text>
<path d="M145.13,24.363L145.13,32.363" style="fill:none;stroke:#808080;stroke-width:0.5" />
<path d="M350.07,24.363L350.07,32.363" style="fill:none;stroke:#808080;stroke-width:0.5" />
<path d="M555,24.363L555,32.363" style="fill:none;stroke:#808080;stroke-width:0.5" />
<path d="M145.13,32.363L555,32.363" style="fill:none;stroke:#808080;stroke-width:0.5" />
<g transform="rotate(90)">
<text x="193.55" y="9.3867" transform="scale(1, -1)"
	style="font-family:Liberation Serif;font-variant:normal;font-weight:normal;font-style:normal;font-size:12px;fill:#808080">Tasks / Second</text>
</g>
<text x="30.885" y="-37.924" transform="scale(1, -1)"
	style="font-family:Liberation Serif;font-variant:normal;font-weight:normal;font-style:normal;font-size:10px;fill:#808080">0</text>
<text x="15.885" y="-201.35" transform="scale(1, -1)"
	style="font-family:Liberation Serif;font-variant:normal;font-weight:normal;font-style:normal;font-size:10px;fill:#808080">4000</text>
<text x="15.885" y="-364.78" transform="scale(1, -1)"
	style="font-family:Liberation Serif;font-variant:normal;font-weight:normal;font-style:normal;font-size:10px;fill:#808080">8000</text>
<path d="M38.385,40.209L46.385,40.209" style="fill:none;stroke:#808080;stroke-width:0.5" />
<path d="M38.385,203.64L46.385,203.64" style="fill:none;stroke:#808080;stroke-width:0.5" />
<path d="M38.385,367.07L46.385,367.07" style="fill:none;stroke:#808080;stroke-width:0.5" />
<path d="M42.385,81.066L46.385,81.066" style="fill:none;stroke:#808080;stroke-width:0.5" />
<path d="M42.385,121.92L46.385,121.92" style="fill:none;stroke:#808080;stroke-width:0.5" />
<path d="M42.385,162.78L46.385,162.78" style="fill:none;stroke:#808080;stroke-width:0.5" />
<path d="M42.385,244.5L46.385,244.5" style="fill:none;stroke:#808080;stroke-width:0.5" />
<path d="M42.385,285.35L46.385,285.35" style="fill:none;stroke:#808080;stroke-width:0.5" />
<path d="M42.385,326.21L46.385,326.21" style="fill:none;stroke:#808080;stroke-width:0.5" />
<path d="M42.385,407.92L46.385,407.92" style="fill:none;stroke:#808080;stroke-width:0.5" />
<path d="M46.385,40.209L46.385,418.71" style="fill:none;stroke:#808080;stroke-width:0.5" />
<path d="M52.135,40.209L52.135,81.058L76.135,81.058L76.135,40.209Z" style="fill:#A6CEE3" />
<path d="M64.135,81.058L64.135,81.058" style="fill:none;stroke:#808080;stroke-width:0.56693" />
<path d="M58.135,81.058L70.135,81.058" style="fill:none;stroke:#808080;stroke-width:0.56693" />
<path d="M58.135,81.058L70.135,81.058" style="fill:none;stroke:#808080;stroke-width:0.56693" />
<text x="54.685" y="-108.77" transform="scale(1, -1)"
	style="font-family:Liberation Serif;font-variant:normal;font-weight:normal;font-style:normal;font-size:8.4px;fill:#808080">999.8</text>
<text x="59.201" y="-100.37" transform="scale(1, -1)"
	style="font-family:Liberation Serif;font-variant:normal;font-weight:normal;font-style:normal;font-size:8.4px;fill:#808080">+/-</text>
<text x="58.536" y="-91.973" transform="scale(1, -1)"
	style="font-family:Liberation Serif;font-variant:normal;font-weight:normal;font-style:normal;font-size:8.4px;fill:#808080">0%</text>
<path d="M257.07,40.209L257.07,81.058L281.07,81.058L281.07,40.209Z" style="fill:#A6CEE3" />
<path d="M269.07,81.058L269.07,81.058" style="fill:none;stroke:#808080;stroke-width:0.56693" />
<path d="M263.07,81.058L275.07,81.058" style="fill:none;stroke:#808080;stroke-width:0.56693" />
<path d="M263.07,81.058L275.07,81.058" style="fill:none;stroke:#808080;stroke-width:0.56693" />
<text x="259.62" y="-108.77" transform="scale(1, -1)"
	style="font-family:Liberation Serif;font-variant:normal;font-weight:normal;font-style:normal;font-size:8.4px;fill:#808080">999.8</text>
<text x="264.13" y="-100.37" transform="scale(1, -1)"
	style="font-family:Liberation Serif;font-variant:normal;font-weight:normal;font-style:normal;font-size:8.4px;fill:#808080">+/-</text>
<text x="263.47" y="-91.973" transform="scale(1, -1)"
	style="font-family:Liberation Serif;font-variant:normal;font-weight:normal;font-style:normal;font-size:8.4px;fill:#808080">0%</text>
<path d="M462,40.209L462,81.058L486,81.058L486,40.209Z" style="fill:#A6CEE3" />
<path d="M474,81.058L474,81.058" style="fill:none;stroke:#808080;stroke-width:0.56693" />
<path d="M468,81.058L480,81.058" style="fill:none;stroke:#808080;stroke-width:0.56693" />
<path d="M468,81.058L480,81.058" style="fill:none;stroke:#808080;stroke-width:0.56693" />
<text x="464.55" y="-108.77" transform="scale(1, -1)"
	style="font-family:Liberation Serif;font-variant:normal;font-weight:normal;font-style:normal;font-size:8.4px;fill:#808080">999.8</text>
<text x="469.07" y="-100.37" transform="scale(1, -1)"
	style="font-family:Liberation Serif;font-variant:normal;font-weight:normal;font-style:normal;font-size:8.4px;fill:#808080">+/-</text>
<text x="468.4" y="-91.973" transform="scale(1, -1)"
	style="font-family:Liberation Serif;font-variant:normal;font-weight:normal;font-style:normal;font-size:8.4px;fill:#808080">0%</text>
<path d="M79.135,40.209L79.135,80.952L103.13,80.952L103.13,40.209Z" style="fill:#1F78B4" />
<path d="M91.135,80.948L91.135,80.956" style="fill:none;stroke:#808080;stroke-width:0.56693" />
<path d="M85.135,80.948L97.135,80.948" style="fill:none;stroke:#808080;stroke-width:0.56693" />
<path d="M85.135,80.956L97.135,80.956" style="fill:none;stroke:#808080;stroke-width:0.56693" />
<text x="81.685" y="-108.67" transform="scale(1, -1)"
	style="font-family:Liberation Serif;font-variant:normal;font-weight:normal;font-style:normal;font-size:8.4px;fill:#808080">997.2</text>
<text x="86.201" y="-100.27" transform="scale(1, -1)"
	style="font-family:Liberation Serif;font-variant:normal;font-weight:normal;font-style:normal;font-size:8.4px;fill:#808080">+/-</text>
<text x="85.536" y="-91.871" transform="scale(1, -1)"
	style="font-family:Liberation Serif;font-variant:normal;font-weight:normal;font-style:normal;font-size:8.4px;fill:#808080">0%</text>
<path d="M284.07,40.209L284.07,80.952L308.07,80.952L308.07,40.209Z" style="fill:#1F78B4" />
<path d="M296.07,80.948L296.07,80.956" style="fill:none;stroke:#808080;stroke-width:0.56693" />
<path d="M290.07,80.948L302.07,80.948" style="fill:none;stroke:#808080;stroke-width:0.56693" />
<path d="M290.07,80.956L302.07,80.956" style="fill:none;stroke:#808080;stroke-width:0.56693" />
<text x="286.62" y="-108.67" transform="scale(1, -1)"
	style="font-family:Liberation Serif;font-variant:normal;font-weight:normal;font-style:normal;font-size:8.4px;fill:#808080">997.2</text>
<text x="291.13" y="-100.27" transform="scale(1, -1)"
	style="font-family:Liberation Serif;font-variant:normal;font-weight:normal;font-style:normal;font-size:8.4px;fill:#808080">+/-</text>
<text x="290.47" y="-91.871" transform="scale(1, -1)"
	style="font-family:Liberation Serif;font-variant:normal;font-weight:normal;font-style:normal;font-size:8.4px;fill:#808080">0%</text>
<path d="M489,40.209L489,80.952L513,80.952L513,40.209Z" style="fill:#1F78B4" />
<path d="M501,80.948L501,80.956" style="fill:none;stroke:#808080;stroke-width:0.56693" />
<path d="M495,80.948L507,80.948" style="fill:none;stroke:#808080;stroke-width:0.56693" />
<path d="M495,80.956L507,80.956" style="fill:none;stroke:#808080;stroke-width:0.56693" />
<text x="491.55" y="-108.67" transform="scale(1, -1)"
	style="font-family:Liberation Serif;font-variant:normal;font-weight:normal;font-style:normal;font-size:8.4px;fill:#808080">997.2</text>
<text x="496.07" y="-100.27" transform="scale(1, -1)"
	style="font-family:Liberation Serif;font-variant:normal;font-weight:normal;font-style:normal;font-size:8.4px;fill:#808080">+/-</text>
<text x="495.4" y="-91.871" transform="scale(1, -1)"
	style="font-family:Liberation Serif;font-variant:normal;font-weight:normal;font-style:normal;font-size:8.4px;fill:#808080">0%</text>
<path d="M106.13,40.209L106.13,79.416L130.13,79.416L130.13,40.209Z" style="fill:#B2DF8A" />
<path d="M118.13,79.395L118.13,79.448" style="fill:none;stroke:#808080;stroke-width:0.56693" />
<path d="M112.13,79.395L124.13,79.395" style="fill:none;stroke:#808080;stroke-width:0.56693" />
<path d="M112.13,79.448L124.13,79.448" style="fill:none;stroke:#808080;stroke-width:0.56693" />
<text x="108.68" y="-107.16" transform="scale(1, -1)"
	style="font-family:Liberation Serif;font-variant:normal;font-weight:normal;font-style:normal;font-size:8.4px;fill:#808080">959.6</text>
<text x="113.2" y="-98.763" transform="scale(1, -1)"
	style="font-family:Liberation Serif;font-variant:normal;font-weight:normal;font-style:normal;font-size:8.4px;fill:#808080">+/-</text>
<text x="112.54" y="-90.363" transform="scale(1, -1)"
	style="font-family:Liberation Serif;font-variant:normal;font-weight:normal;font-style:normal;font-size:8.4px;fill:#808080">0%</text>
<path d="M311.07,40.209L311.07,80.972L335.07,80.972L335.07,40.209Z" style="fill:#B2DF8A" />
<path d="M323.07,80.968L323.07,80.985" style="fill:none;stroke:#808080;stroke-width:0.56693" />
<path d="M317.07,80.968L329.07,80.968" style="fill:none;stroke:#808080;stroke-width:0.56693" />
<path d="M317.07,80.985L329.07,80.985" style="fill:none;stroke:#808080;stroke-width:0.56693" />
<text x="313.62" y="-108.7" transform="scale(1, -1)"
	style="font-family:Liberation Serif;font-variant:normal;font-weight:normal;font-style:normal;font-size:8.4px;fill:#808080">997.7</text>
<text x="318.13" y="-100.3" transform="scale(1, -1)"
	style="font-family:Liberation Serif;font-variant:normal;font-weight:normal;font-style:normal;font-size:8.4px;fill:#808080">+/-</text>
<text x="317.47" y="-91.899" transform="scale(1, -1)"
	style="font-family:Liberation Serif;font-variant:normal;font-weight:normal;font-style:normal;font-size:8.4px;fill:#808080">0%</text>
<path d="M516,40.209L516,81.271L540,81.271L540,40.209Z" style="fill:#B2DF8A" />
<path d="M528,81.271L528,81.271" style="fill:none;stroke:#808080;stroke-width:0.56693" />
<path d="M522,81.271L534,81.271" style="fill:none;stroke:#808080;stroke-width:0.56693" />
<path d="M522,81.271L534,81.271" style="fill:none;stroke:#808080;stroke-width:0.56693" />
<text x="519.6" y="-108.99" transform="scale(1, -1)"
	style="font-family:Liberation Serif;font-variant:normal;font-weight:normal;font-style:normal;font-size:8.4px;fill:#808080">1005</text>
<text x="523.07" y="-100.59" transform="scale(1, -1)"
	style="font-family:Liberation Serif;font-variant:normal;font-weight:normal;font-style:normal;font-size:8.4px;fill:#808080">+/-</text>
<text x="522.4" y="-92.185" transform="scale(1, -1)"
	style="font-family:Liberation Serif;font-variant:normal;font-weight:normal;font-style:normal;font-size:8.4px;fill:#808080">0%</text>
<path d="M133.13,40.209L133.13,80.923L157.13,80.923L157.13,40.209Z" style="fill:#33A02C" />
<path d="M145.13,80.919L145.13,80.927" style="fill:none;stroke:#808080;stroke-width:0.56693" />
<path d="M139.13,80.919L151.13,80.919" style="fill:none;stroke:#808080;stroke-width:0.56693" />
<path d="M139.13,80.927L151.13,80.927" style="fill:none;stroke:#808080;stroke-width:0.56693" />
<text x="135.68" y="-108.64" transform="scale(1, -1)"
	style="font-family:Liberation Serif;font-variant:normal;font-weight:normal;font-style:normal;font-size:8.4px;fill:#808080">996.5</text>
<text x="140.2" y="-100.24" transform="scale(1, -1)"
	style="font-family:Liberation Serif;font-variant:normal;font-weight:normal;font-style:normal;font-size:8.4px;fill:#808080">+/-</text>
<text x="139.54" y="-91.842" transform="scale(1, -1)"
	style="font-family:Liberation Serif;font-variant:normal;font-weight:normal;font-style:normal;font-size:8.4px;fill:#808080">0%</text>
<path d="M338.07,40.209L338.07,121.49L362.07,121.49L362.07,40.209Z" style="fill:#33A02C" />
<path d="M350.07,121.39L350.07,121.64" style="fill:none;stroke:#808080;stroke-width:0.56693" />
<path d="M344.07,121.39L356.07,121.39" style="fill:none;stroke:#808080;stroke-width:0.56693" />
<path d="M344.07,121.64L356.07,121.64" style="fill:none;stroke:#808080;stroke-width:0.56693" />
<text x="341.67" y="-149.35" transform="scale(1, -1)"
	style="font-family:Liberation Serif;font-variant:normal;font-weight:normal;font-style:normal;font-size:8.4px;fill:#808080">1990</text>
<text x="345.13" y="-140.95" transform="scale(1, -1)"
	style="font-family:Liberation Serif;font-variant:normal;font-weight:normal;font-style:normal;font-size:8.4px;fill:#808080">+/-</text>
<text x="344.47" y="-132.55" transform="scale(1, -1)"
	style="font-family:Liberation Serif;font-variant:normal;font-weight:normal;font-style:normal;font-size:8.4px;fill:#808080">0%</text>
<path d="M543,40.209L543,121.92L567,121.92L567,40.209Z" style="fill:#33A02C" />
<path d="M555,121.88L555,121.92" style="fill:none;stroke:#808080;stroke-width:0.56693" />
<path d="M549,121.88L561,121.88" style="fill:none;stroke:#808080;stroke-width:0.56693" />
<path d="M549,121.92L561,121.92" style="fill:none;stroke:#808080;stroke-width:0.56693" />
<text x="546.6" y="-149.64" transform="scale(1, -1)"
	style="font-family:Liberation Serif;font-variant:normal;font-weight:normal;font-style:normal;font-size:8.4px;fill:#808080">2000</text>
<text x="550.07" y="-141.24" transform="scale(1, -1)"
	style="font-family:Liberation Serif;font-variant:normal;font-weight:normal;font-style:normal;font-size:8.4px;fill:#808080">+/-</text>
<text x="549.4" y="-132.84" transform="scale(1, -1)"
	style="font-family:Liberation Serif;font-variant:normal;font-weight:normal;font-style:normal;font-size:8.4px;fill:#808080">0%</text>
<path d="M160.13,40.209L160.13,80.944L184.13,80.944L184.13,40.209Z" style="fill:#FB9A99" />
<path d="M172.13,80.936L172.13,80.948" style="fill:none;stroke:#808080;stroke-width:0.56693" />
<path d="M166.13,80.936L178.13,80.936" style="fill:none;stroke:#808080;stroke-width:0.56693" />
<path d="M166.13,80.948L178.13,80.948" style="fill:none;stroke:#808080;stroke-width:0.56693" />
<text x="162.68" y="-108.66" transform="scale(1, -1)"
	style="font-family:Liberation Serif;font-variant:normal;font-weight:normal;font-style:normal;font-size:8.4px;fill:#808080">997.0</text>
<text x="167.2" y="-100.26" transform="scale(1, -1)"
	style="font-family:Liberation Serif;font-variant:normal;font-weight:normal;font-style:normal;font-size:8.4px;fill:#808080">+/-</text>
<text x="166.54" y="-91.862" transform="scale(1, -1)"
	style="font-family:Liberation Serif;font-variant:normal;font-weight:normal;font-style:normal;font-size:8.4px;fill:#808080">0%</text>
<path d="M365.07,40.209L365.07,161.68L389.07,161.68L389.07,40.209Z" style="fill:#FB9A99" />
<path d="M377.07,161.6L377.07,161.8" style="fill:none;stroke:#808080;stroke-width:0.56693" />
<path d="M371.07,161.6L383.07,161.6" style="fill:none;stroke:#808080;stroke-width:0.56693" />
<path d="M371.07,161.8L383.07,161.8" style="fill:none;stroke:#808080;stroke-width:0.56693" />
<text x="368.67" y="-189.51" transform="scale(1, -1)"
	style="font-family:Liberation Serif;font-variant:normal;font-weight:normal;font-style:normal;font-size:8.4px;fill:#808080">2973</text>
<text x="372.13" y="-181.11" transform="scale(1, -1)"
	style="font-family:Liberation Serif;font-variant:normal;font-weight:normal;font-style:normal;font-size:8.4px;fill:#808080">+/-</text>
<text x="371.47" y="-172.71" transform="scale(1, -1)"
	style="font-family:Liberation Serif;font-variant:normal;font-weight:normal;font-style:normal;font-size:8.4px;fill:#808080">0%</text>
<path d="M570,40.209L570,162.15L594,162.15L594,40.209Z" style="fill:#FB9A99" />
<path d="M582,162.13L582,162.25" style="fill:none;stroke:#808080;stroke-width:0.56693" />
<path d="M576,162.13L588,162.13" style="fill:none;stroke:#808080;stroke-width:0.56693" />
<path d="M576,162.25L588,162.25" style="fill:none;stroke:#808080;stroke-width:0.56693" />
<text x="573.6" y="-189.96" transform="scale(1, -1)"
	style="font-family:Liberation Serif;font-variant:normal;font-weight:normal;font-style:normal;font-size:8.4px;fill:#808080">2984</text>
<text x="577.07" y="-181.56" transform="scale(1, -1)"
	style="font-family:Liberation Serif;font-variant:normal;font-weight:normal;font-style:normal;font-size:8.4px;fill:#808080">+/-</text>
<text x="576.4" y="-173.16" transform="scale(1, -1)"
	style="font-family:Liberation Serif;font-variant:normal;font-weight:normal;font-style:normal;font-size:8.4px;fill:#808080">0%</text>
<path d="M187.13,40.209L187.13,80.95L211.13,80.95L211.13,40.209Z" style="fill:#E31A1C" />
<path d="M199.13,80.948L199.13,80.952" style="fill:none;stroke:#808080;stroke-width:0.56693" />
<path d="M193.13,80.948L205.13,80.948" style="fill:none;stroke:#808080;stroke-width:0.56693" />
<path d="M193.13,80.952L205.13,80.952" style="fill:none;stroke:#808080;stroke-width:0.56693" />
<text x="189.68" y="-108.67" transform="scale(1, -1)"
	style="font-family:Liberation Serif;font-variant:normal;font-weight:normal;font-style:normal;font-size:8.4px;fill:#808080">997.2</text>
<text x="194.2" y="-100.27" transform="scale(1, -1)"
	style="font-family:Liberation Serif;font-variant:normal;font-weight:normal;font-style:normal;font-size:8.4px;fill:#808080">+/-</text>
<text x="193.54" y="-91.867" transform="scale(1, -1)"
	style="font-family:Liberation Serif;font-variant:normal;font-weight:normal;font-style:normal;font-size:8.4px;fill:#808080">0%</text>
<path d="M392.07,40.209L392.07,201.41L416.07,201.41L416.07,40.209Z" style="fill:#E31A1C" />
<path d="M404.07,201.23L404.07,201.6" style="fill:none;stroke:#808080;stroke-width:0.56693" />
<path d="M398.07,201.23L410.07,201.23" style="fill:none;stroke:#808080;stroke-width:0.56693" />
<path d="M398.07,201.6L410.07,201.6" style="fill:none;stroke:#808080;stroke-width:0.56693" />
<text x="395.67" y="-229.31" transform="scale(1, -1)"
	style="font-family:Liberation Serif;font-variant:normal;font-weight:normal;font-style:normal;font-size:8.4px;fill:#808080">3946</text>
<text x="399.13" y="-220.91" transform="scale(1, -1)"
	style="font-family:Liberation Serif;font-variant:normal;font-weight:normal;font-style:normal;font-size:8.4px;fill:#808080">+/-</text>
<text x="398.47" y="-212.51" transform="scale(1, -1)"
	style="font-family:Liberation Serif;font-variant:normal;font-weight:normal;font-style:normal;font-size:8.4px;fill:#808080">0%</text>
<path d="M597,40.209L597,201.92L621,201.92L621,40.209Z" style="fill:#E31A1C" />
<path d="M609,201.84L609,201.96" style="fill:none;stroke:#808080;stroke-width:0.56693" />
<path d="M603,201.84L615,201.84" style="fill:none;stroke:#808080;stroke-width:0.56693" />
<path d="M603,201.96L615,201.96" style="fill:none;stroke:#808080;stroke-width:0.56693" />
<text x="600.6" y="-229.68" transform="scale(1, -1)"
	style="font-family:Liberation Serif;font-variant:normal;font-weight:normal;font-style:normal;font-size:8.4px;fill:#808080">3958</text>
<text x="604.07" y="-221.28" transform="scale(1, -1)"
	style="font-family:Liberation Serif;font-variant:normal;font-weight:normal;font-style:normal;font-size:8.4px;fill:#808080">+/-</text>
<text x="603.4" y="-212.88" transform="scale(1, -1)"
	style="font-family:Liberation Serif;font-variant:normal;font-weight:normal;font-style:normal;font-size:8.4px;fill:#808080">0%</text>
<path d="M214.13,40.209L214.13,80.954L238.13,80.954L238.13,40.209Z" style="fill:#FDBF6F" />
<path d="M226.13,80.948L226.13,80.956" style="fill:none;stroke:#808080;stroke-width:0.56693" />
<path d="M220.13,80.948L232.13,80.948" style="fill:none;stroke:#808080;stroke-width:0.56693" />
<path d="M220.13,80.956L232.13,80.956" style="fill:none;stroke:#808080;stroke-width:0.56693" />
<text x="216.68" y="-108.67" transform="scale(1, -1)"
	style="font-family:Liberation Serif;font-variant:normal;font-weight:normal;font-style:normal;font-size:8.4px;fill:#808080">997.2</text>
<text x="221.2" y="-100.27" transform="scale(1, -1)"
	style="font-family:Liberation Serif;font-variant:normal;font-weight:normal;font-style:normal;font-size:8.4px;fill:#808080">+/-</text>
<text x="220.54" y="-91.871" transform="scale(1, -1)"
	style="font-family:Liberation Serif;font-variant:normal;font-weight:normal;font-style:normal;font-size:8.4px;fill:#808080">0%</text>
<path d="M419.07,40.209L419.07,348.64L443.07,348.64L443.07,40.209Z" style="fill:#FDBF6F" />
<path d="M431.07,346.92L431.07,349.21" style="fill:none;stroke:#808080;stroke-width:0.56693" />
<path d="M425.07,346.92L437.07,346.92" style="fill:none;stroke:#808080;stroke-width:0.56693" />
<path d="M425.07,349.21L437.07,349.21" style="fill:none;stroke:#808080;stroke-width:0.56693" />
<text x="422.67" y="-376.93" transform="scale(1, -1)"
	style="font-family:Liberation Serif;font-variant:normal;font-weight:normal;font-style:normal;font-size:8.4px;fill:#808080">7549</text>
<text x="423.1" y="-368.53" transform="scale(1, -1)"
	style="font-family:Liberation Serif;font-variant:normal;font-weight:normal;font-style:normal;font-size:8.4px;fill:#808080">+0%</text>
<text x="424.07" y="-360.13" transform="scale(1, -1)"
	style="font-family:Liberation Serif;font-variant:normal;font-weight:normal;font-style:normal;font-size:8.4px;fill:#808080">-1%</text>
<path d="M624,40.209L624,355.34L648,355.34L648,40.209Z" style="fill:#FDBF6F" />
<path d="M636,355.01L636,355.63" style="fill:none;stroke:#808080;stroke-width:0.56693" />
<path d="M630,355.01L642,355.01" style="fill:none;stroke:#808080;stroke-width:0.56693" />
<path d="M630,355.63L642,355.63" style="fill:none;stroke:#808080;stroke-width:0.56693" />
<text x="627.6" y="-383.34" transform="scale(1, -1)"
	style="font-family:Liberation Serif;font-variant:normal;font-weight:normal;font-style:normal;font-size:8.4px;fill:#808080">7713</text>
<text x="631.07" y="-374.94" transform="scale(1, -1)"
	style="font-family:Liberation Serif;font-variant:normal;font-weight:normal;font-style:normal;font-size:8.4px;fill:#808080">+/-</text>
<text x="630.4" y="-366.54" transform="scale(1, -1)"
	style="font-family:Liberation Serif;font-variant:normal;font-weight:normal;font-style:normal;font-size:8.4px;fill:#808080">0%</text>
<path d="M52.135,405.93L52.135,416.12L72.135,416.12L72.135,405.93Z" style="fill:#A6CEE3" />
<text x="75.135" y="-408.54" transform="scale(1, -1)"
	style="font-family:Liberation Serif;font-variant:normal;font-weight:normal;font-style:normal;font-size:12px;fill:#808080">Direct Call</text>
<path d="M52.135,392.91L52.135,403.1L72.135,403.1L72.135,392.91Z" style="fill:#1F78B4" />
<text x="75.135" y="-395.52" transform="scale(1, -1)"
	style="font-family:Liberation Serif;font-variant:normal;font-weight:normal;font-style:normal;font-size:12px;fill:#808080">Gather Only</text>
<path d="M52.135,379.9L52.135,390.08L72.135,390.08L72.135,379.9Z" style="fill:#B2DF8A" />
<text x="75.135" y="-382.5" transform="scale(1, -1)"
	style="font-family:Liberation Serif;font-variant:normal;font-weight:normal;font-style:normal;font-size:12px;fill:#808080">Combine (limit 1)</text>
<path d="M52.135,366.88L52.135,377.06L72.135,377.06L72.135,366.88Z" style="fill:#33A02C" />
<text x="75.135" y="-369.48" transform="scale(1, -1)"
	style="font-family:Liberation Serif;font-variant:normal;font-weight:normal;font-style:normal;font-size:12px;fill:#808080">Combine (limit 2)</text>
<path d="M52.135,353.86L52.135,364.04L72.135,364.04L72.135,353.86Z" style="fill:#FB9A99" />
<text x="75.135" y="-356.46" transform="scale(1, -1)"
	style="font-family:Liberation Serif;font-variant:normal;font-weight:normal;font-style:normal;font-size:12px;fill:#808080">Combine (limit 3)</text>
<path d="M52.135,340.84L52.135,351.02L72.135,351.02L72.135,340.84Z" style="fill:#E31A1C" />
<text x="75.135" y="-343.44" transform="scale(1, -1)"
	style="font-family:Liberation Serif;font-variant:normal;font-weight:normal;font-style:normal;font-size:12px;fill:#808080">Combine (limit 4)</text>
<path d="M52.135,327.82L52.135,338.01L72.135,338.01L72.135,327.82Z" style="fill:#FDBF6F" />
<text x="75.135" y="-330.43" transform="scale(1, -1)"
	style="font-family:Liberation Serif;font-variant:normal;font-weight:normal;font-style:normal;font-size:12px;fill:#808080">Combine (limit 8)</text>
</g>
</svg>
