<?xml version="1.0"?>
<!-- Generated by SVGo and Plotinum VG -->
<svg width="1152pt" height="432pt" viewBox="0 0 1152 432"
	xmlns="http://www.w3.org/2000/svg"
	xmlns:xlink="http://www.w3.org/1999/xlink">
<g transform="scale(1, -1) translate(0, -432)">
<path d="M1025,312.19L1025,322.37L1045,322.37L1045,312.19Z" style="fill:#A6CEE3" />
<text x="1048" y="-314.79" transform="scale(1, -1)"
	style="font-family:Liberation Serif;font-variant:normal;font-weight:normal;font-style:normal;font-size:12px;fill:#808080">Gather Only</text>
<path d="M1025,296L1025,306.19L1045,306.19L1045,296Z" style="fill:#1F78B4" />
<text x="1048" y="-298.61" transform="scale(1, -1)"
	style="font-family:Liberation Serif;font-variant:normal;font-weight:normal;font-style:normal;font-size:12px;fill:#808080">Combine (limit 1)</text>
<path d="M1025,279.82L1025,290L1045,290L1045,279.82Z" style="fill:#B2DF8A" />
<text x="1048" y="-282.42" transform="scale(1, -1)"
	style="font-family:Liberation Serif;font-variant:normal;font-weight:normal;font-style:normal;font-size:12px;fill:#808080">Combine (limit 2)</text>
<path d="M1025,263.63L1025,273.82L1045,273.82L1045,263.63Z" style="fill:#33A02C" />
<text x="1048" y="-266.24" transform="scale(1, -1)"
	style="font-family:Liberation Serif;font-variant:normal;font-weight:normal;font-style:normal;font-size:12px;fill:#808080">Combine (limit 3)</text>
<path d="M1025,247.45L1025,257.63L1045,257.63L1045,247.45Z" style="fill:#FB9A99" />
<text x="1048" y="-250.06" transform="scale(1, -1)"
	style="font-family:Liberation Serif;font-variant:normal;font-weight:normal;font-style:normal;font-size:12px;fill:#808080">Combine (limit 4)</text>
<path d="M1025,231.27L1025,241.45L1045,241.45L1045,231.27Z" style="fill:#E31A1C" />
<text x="1048" y="-233.87" transform="scale(1, -1)"
	style="font-family:Liberation Serif;font-variant:normal;font-weight:normal;font-style:normal;font-size:12px;fill:#808080">Combine (limit 8)</text>
<path d="M1025,215.08L1025,225.27L1045,225.27L1045,215.08Z" style="fill:#FDBF6F" />
<text x="1048" y="-217.69" transform="scale(1, -1)"
	style="font-family:Liberation Serif;font-variant:normal;font-weight:normal;font-style:normal;font-size:12px;fill:#808080">Combine (limit 12)</text>
<path d="M1025,198.9L1025,209.08L1045,209.08L1045,198.9Z" style="fill:#FF7F00" />
<text x="1048" y="-201.5" transform="scale(1, -1)"
	style="font-family:Liberation Serif;font-variant:normal;font-weight:normal;font-style:normal;font-size:12px;fill:#808080">Combine (limit 16)</text>
<path d="M1025,182.72L1025,192.9L1045,192.9L1045,182.72Z" style="fill:#CAB2D6" />
<text x="1048" y="-185.32" transform="scale(1, -1)"
	style="font-family:Liberation Serif;font-variant:normal;font-weight:normal;font-style:normal;font-size:12px;fill:#808080">Combine (limit 24)</text>
<path d="M1025,166.53L1025,176.72L1045,176.72L1045,166.53Z" style="fill:#6A3D9A" />
<text x="1048" y="-169.14" transform="scale(1, -1)"
	style="font-family:Liberation Serif;font-variant:normal;font-weight:normal;font-style:normal;font-size:12px;fill:#808080">Combine (unlimited)</text>
<path d="M1028,163.53L1028,327.96L1152,327.96L1152,163.53L1028,163.53" style="fill:none;stroke:#808080" />
<path d="M0,0L1009,0L1009,432L0,432Z" style="fill:#-8000000000000000-8000000000000000-8000000000000000;fill-opacity:0" />
<text x="394.06" y="-422.61" transform="scale(1, -1)"
	style="font-family:Liberation Serif;font-variant:normal;font-weight:normal;font-style:normal;font-size:12px;fill:#808080">Allocations Per Task Aggregated (Processing)</text>
<text x="415.07" y="-3.9023" transform="scale(1, -1)"
	style="font-family:Liberation Serif;font-variant:normal;font-weight:normal;font-style:normal;font-size:12px;fill:#808080">Aggregation Workload Duration @ Flush Period</text>
<text x="162.87" y="-16.541" transform="scale(1, -1)"
	style="font-family:Liberation Serif;font-variant:normal;font-weight:normal;font-style:normal;font-size:10px;fill:#808080">10µs @ 1ms</text>
<text x="501.56" y="-16.541" transform="scale(1, -1)"
	style="font-family:Liberation Serif;font-variant:normal;font-weight:normal;font-style:normal;font-size:10px;fill:#808080">100µs @ 10ms</text>
<text x="846.74" y="-16.541" transform="scale(1, -1)"
	style="font-family:Liberation Serif;font-variant:normal;font-weight:normal;font-style:normal;font-size:10px;fill:#808080">1ms @ 100ms</text>
<path d="M188.13,24.363L188.13,32.363" style="fill:none;stroke:#808080;stroke-width:0.5" />
<path d="M531.82,24.363L531.82,32.363" style="fill:none;stroke:#808080;stroke-width:0.5" />
<path d="M875.51,24.363L875.51,32.363" style="fill:none;stroke:#808080;stroke-width:0.5" />
<path d="M188.13,32.363L875.51,32.363" style="fill:none;stroke:#808080;stroke-width:0.5" />
<g transform="rotate(90)">
<text x="186" y="9.3867" transform="scale(1, -1)"
	style="font-family:Liberation Serif;font-variant:normal;font-weight:normal;font-style:normal;font-size:12px;fill:#808080">Allocations / Task</text>
</g>
<text x="20.885" y="-37.924" transform="scale(1, -1)"
	style="font-family:Liberation Serif;font-variant:normal;font-weight:normal;font-style:normal;font-size:10px;fill:#808080">0.00</text>
<text x="15.885" y="-200.05" transform="scale(1, -1)"
	style="font-family:Liberation Serif;font-variant:normal;font-weight:normal;font-style:normal;font-size:10px;fill:#808080">25.00</text>
<text x="15.885" y="-362.17" transform="scale(1, -1)"
	style="font-family:Liberation Serif;font-variant:normal;font-weight:normal;font-style:normal;font-size:10px;fill:#808080">50.00</text>
<path d="M40.885,40.209L48.885,40.209" style="fill:none;stroke:#808080;stroke-width:0.5" />
<path d="M40.885,202.33L48.885,202.33" style="fill:none;stroke:#808080;stroke-width:0.5" />
<path d="M40.885,364.45L48.885,364.45" style="fill:none;stroke:#808080;stroke-width:0.5" />
<path d="M44.885,72.633L48.885,72.633" style="fill:none;stroke:#808080;stroke-width:0.5" />
<path d="M44.885,105.06L48.885,105.06" style="fill:none;stroke:#808080;stroke-width:0.5" />
<path d="M44.885,137.48L48.885,137.48" style="fill:none;stroke:#808080;stroke-width:0.5" />
<path d="M44.885,169.91L48.885,169.91" style="fill:none;stroke:#808080;stroke-width:0.5" />
<path d="M44.885,234.76L48.885,234.76" style="fill:none;stroke:#808080;stroke-width:0.5" />
<path d="M44.885,267.18L48.885,267.18" style="fill:none;stroke:#808080;stroke-width:0.5" />
<path d="M44.885,299.6L48.885,299.6" style="fill:none;stroke:#808080;stroke-width:0.5" />
<path d="M44.885,332.03L48.885,332.03" style="fill:none;stroke:#808080;stroke-width:0.5" />
<path d="M44.885,396.88L48.885,396.88" style="fill:none;stroke:#808080;stroke-width:0.5" />
<path d="M48.885,40.209L48.885,418.71" style="fill:none;stroke:#808080;stroke-width:0.5" />
<path d="M54.635,40.209L54.635,232.22L78.635,232.22L78.635,40.209Z" style="fill:#A6CEE3" />
<path d="M66.635,231.92L66.635,232.8" style="fill:none;stroke:#808080;stroke-width:0.56693" />
<path d="M60.635,231.92L72.635,231.92" style="fill:none;stroke:#808080;stroke-width:0.56693" />
<path d="M60.635,232.8L72.635,232.8" style="fill:none;stroke:#808080;stroke-width:0.56693" />
<text x="57.185" y="-260.52" transform="scale(1, -1)"
	style="font-family:Liberation Serif;font-variant:normal;font-weight:normal;font-style:normal;font-size:8.4px;fill:#808080">29.61</text>
<text x="61.701" y="-252.12" transform="scale(1, -1)"
	style="font-family:Liberation Serif;font-variant:normal;font-weight:normal;font-style:normal;font-size:8.4px;fill:#808080">+/-</text>
<text x="61.036" y="-243.72" transform="scale(1, -1)"
	style="font-family:Liberation Serif;font-variant:normal;font-weight:normal;font-style:normal;font-size:8.4px;fill:#808080">0%</text>
<path d="M398.32,40.209L398.32,231.51L422.32,231.51L422.32,40.209Z" style="fill:#A6CEE3" />
<path d="M410.32,231.39L410.32,231.63" style="fill:none;stroke:#808080;stroke-width:0.56693" />
<path d="M404.32,231.39L416.32,231.39" style="fill:none;stroke:#808080;stroke-width:0.56693" />
<path d="M404.32,231.63L416.32,231.63" style="fill:none;stroke:#808080;stroke-width:0.56693" />
<text x="400.87" y="-259.35" transform="scale(1, -1)"
	style="font-family:Liberation Serif;font-variant:normal;font-weight:normal;font-style:normal;font-size:8.4px;fill:#808080">29.50</text>
<text x="405.39" y="-250.95" transform="scale(1, -1)"
	style="font-family:Liberation Serif;font-variant:normal;font-weight:normal;font-style:normal;font-size:8.4px;fill:#808080">+/-</text>
<text x="404.73" y="-242.55" transform="scale(1, -1)"
	style="font-family:Liberation Serif;font-variant:normal;font-weight:normal;font-style:normal;font-size:8.4px;fill:#808080">0%</text>
<path d="M742.01,40.209L742.01,229.9L766.01,229.9L766.01,40.209Z" style="fill:#A6CEE3" />
<path d="M754.01,147.05L754.01,231.75" style="fill:none;stroke:#808080;stroke-width:0.56693" />
<path d="M748.01,147.05L760.01,147.05" style="fill:none;stroke:#808080;stroke-width:0.56693" />
<path d="M748.01,231.75L760.01,231.75" style="fill:none;stroke:#808080;stroke-width:0.56693" />
<text x="744.56" y="-259.47" transform="scale(1, -1)"
	style="font-family:Liberation Serif;font-variant:normal;font-weight:normal;font-style:normal;font-size:8.4px;fill:#808080">29.25</text>
<text x="746.05" y="-251.07" transform="scale(1, -1)"
	style="font-family:Liberation Serif;font-variant:normal;font-weight:normal;font-style:normal;font-size:8.4px;fill:#808080">+1%</text>
<text x="744.92" y="-242.67" transform="scale(1, -1)"
	style="font-family:Liberation Serif;font-variant:normal;font-weight:normal;font-style:normal;font-size:8.4px;fill:#808080">-44%</text>
<path d="M81.635,40.209L81.635,177.69L105.63,177.69L105.63,40.209Z" style="fill:#1F78B4" />
<path d="M93.635,177.54L93.635,178.31" style="fill:none;stroke:#808080;stroke-width:0.56693" />
<path d="M87.635,177.54L99.635,177.54" style="fill:none;stroke:#808080;stroke-width:0.56693" />
<path d="M87.635,178.31L99.635,178.31" style="fill:none;stroke:#808080;stroke-width:0.56693" />
<text x="84.185" y="-206.03" transform="scale(1, -1)"
	style="font-family:Liberation Serif;font-variant:normal;font-weight:normal;font-style:normal;font-size:8.4px;fill:#808080">21.20</text>
<text x="88.701" y="-197.63" transform="scale(1, -1)"
	style="font-family:Liberation Serif;font-variant:normal;font-weight:normal;font-style:normal;font-size:8.4px;fill:#808080">+/-</text>
<text x="88.036" y="-189.23" transform="scale(1, -1)"
	style="font-family:Liberation Serif;font-variant:normal;font-weight:normal;font-style:normal;font-size:8.4px;fill:#808080">0%</text>
<path d="M425.32,40.209L425.32,254.29L449.32,254.29L449.32,40.209Z" style="fill:#1F78B4" />
<path d="M437.32,236.63L437.32,255.23" style="fill:none;stroke:#808080;stroke-width:0.56693" />
<path d="M431.32,236.63L443.32,236.63" style="fill:none;stroke:#808080;stroke-width:0.56693" />
<path d="M431.32,255.23L443.32,255.23" style="fill:none;stroke:#808080;stroke-width:0.56693" />
<text x="427.87" y="-282.95" transform="scale(1, -1)"
	style="font-family:Liberation Serif;font-variant:normal;font-weight:normal;font-style:normal;font-size:8.4px;fill:#808080">33.01</text>
<text x="429.36" y="-274.55" transform="scale(1, -1)"
	style="font-family:Liberation Serif;font-variant:normal;font-weight:normal;font-style:normal;font-size:8.4px;fill:#808080">+0%</text>
<text x="430.33" y="-266.15" transform="scale(1, -1)"
	style="font-family:Liberation Serif;font-variant:normal;font-weight:normal;font-style:normal;font-size:8.4px;fill:#808080">-8%</text>
<path d="M769.01,40.209L769.01,260.53L793.01,260.53L793.01,40.209Z" style="fill:#1F78B4" />
<path d="M781.01,260.37L781.01,262.64" style="fill:none;stroke:#808080;stroke-width:0.56693" />
<path d="M775.01,260.37L787.01,260.37" style="fill:none;stroke:#808080;stroke-width:0.56693" />
<path d="M775.01,262.64L787.01,262.64" style="fill:none;stroke:#808080;stroke-width:0.56693" />
<text x="771.56" y="-290.36" transform="scale(1, -1)"
	style="font-family:Liberation Serif;font-variant:normal;font-weight:normal;font-style:normal;font-size:8.4px;fill:#808080">33.97</text>
<text x="773.05" y="-281.96" transform="scale(1, -1)"
	style="font-family:Liberation Serif;font-variant:normal;font-weight:normal;font-style:normal;font-size:8.4px;fill:#808080">+1%</text>
<text x="774.02" y="-273.56" transform="scale(1, -1)"
	style="font-family:Liberation Serif;font-variant:normal;font-weight:normal;font-style:normal;font-size:8.4px;fill:#808080">-0%</text>
<path d="M108.63,40.209L108.63,164.48L132.63,164.48L132.63,40.209Z" style="fill:#B2DF8A" />
<path d="M120.63,164.21L120.63,164.71" style="fill:none;stroke:#808080;stroke-width:0.56693" />
<path d="M114.63,164.21L126.63,164.21" style="fill:none;stroke:#808080;stroke-width:0.56693" />
<path d="M114.63,164.71L126.63,164.71" style="fill:none;stroke:#808080;stroke-width:0.56693" />
<text x="111.18" y="-192.42" transform="scale(1, -1)"
	style="font-family:Liberation Serif;font-variant:normal;font-weight:normal;font-style:normal;font-size:8.4px;fill:#808080">19.16</text>
<text x="115.7" y="-184.02" transform="scale(1, -1)"
	style="font-family:Liberation Serif;font-variant:normal;font-weight:normal;font-style:normal;font-size:8.4px;fill:#808080">+/-</text>
<text x="115.04" y="-175.62" transform="scale(1, -1)"
	style="font-family:Liberation Serif;font-variant:normal;font-weight:normal;font-style:normal;font-size:8.4px;fill:#808080">0%</text>
<path d="M452.32,40.209L452.32,197.45L476.32,197.45L476.32,40.209Z" style="fill:#B2DF8A" />
<path d="M464.32,196.4L464.32,200.05" style="fill:none;stroke:#808080;stroke-width:0.56693" />
<path d="M458.32,196.4L470.32,196.4" style="fill:none;stroke:#808080;stroke-width:0.56693" />
<path d="M458.32,200.05L470.32,200.05" style="fill:none;stroke:#808080;stroke-width:0.56693" />
<text x="454.87" y="-227.77" transform="scale(1, -1)"
	style="font-family:Liberation Serif;font-variant:normal;font-weight:normal;font-style:normal;font-size:8.4px;fill:#808080">24.25</text>
<text x="456.36" y="-219.37" transform="scale(1, -1)"
	style="font-family:Liberation Serif;font-variant:normal;font-weight:normal;font-style:normal;font-size:8.4px;fill:#808080">+2%</text>
<text x="457.33" y="-210.97" transform="scale(1, -1)"
	style="font-family:Liberation Serif;font-variant:normal;font-weight:normal;font-style:normal;font-size:8.4px;fill:#808080">-1%</text>
<path d="M796.01,40.209L796.01,206.98L820.01,206.98L820.01,40.209Z" style="fill:#B2DF8A" />
<path d="M808.01,203.59L808.01,209.52" style="fill:none;stroke:#808080;stroke-width:0.56693" />
<path d="M802.01,203.59L814.01,203.59" style="fill:none;stroke:#808080;stroke-width:0.56693" />
<path d="M802.01,209.52L814.01,209.52" style="fill:none;stroke:#808080;stroke-width:0.56693" />
<text x="798.56" y="-237.24" transform="scale(1, -1)"
	style="font-family:Liberation Serif;font-variant:normal;font-weight:normal;font-style:normal;font-size:8.4px;fill:#808080">25.72</text>
<text x="803.08" y="-228.84" transform="scale(1, -1)"
	style="font-family:Liberation Serif;font-variant:normal;font-weight:normal;font-style:normal;font-size:8.4px;fill:#808080">+/-</text>
<text x="802.42" y="-220.44" transform="scale(1, -1)"
	style="font-family:Liberation Serif;font-variant:normal;font-weight:normal;font-style:normal;font-size:8.4px;fill:#808080">2%</text>
<path d="M135.63,40.209L135.63,161.99L159.63,161.99L159.63,40.209Z" style="fill:#33A02C" />
<path d="M147.63,161.72L147.63,162.9" style="fill:none;stroke:#808080;stroke-width:0.56693" />
<path d="M141.63,161.72L153.63,161.72" style="fill:none;stroke:#808080;stroke-width:0.56693" />
<path d="M141.63,162.9L153.63,162.9" style="fill:none;stroke:#808080;stroke-width:0.56693" />
<text x="138.18" y="-190.62" transform="scale(1, -1)"
	style="font-family:Liberation Serif;font-variant:normal;font-weight:normal;font-style:normal;font-size:8.4px;fill:#808080">18.78</text>
<text x="139.67" y="-182.22" transform="scale(1, -1)"
	style="font-family:Liberation Serif;font-variant:normal;font-weight:normal;font-style:normal;font-size:8.4px;fill:#808080">+1%</text>
<text x="140.64" y="-173.82" transform="scale(1, -1)"
	style="font-family:Liberation Serif;font-variant:normal;font-weight:normal;font-style:normal;font-size:8.4px;fill:#808080">-0%</text>
<path d="M479.32,40.209L479.32,183.72L503.32,183.72L503.32,40.209Z" style="fill:#33A02C" />
<path d="M491.32,182.53L491.32,184.64" style="fill:none;stroke:#808080;stroke-width:0.56693" />
<path d="M485.32,182.53L497.32,182.53" style="fill:none;stroke:#808080;stroke-width:0.56693" />
<path d="M485.32,184.64L497.32,184.64" style="fill:none;stroke:#808080;stroke-width:0.56693" />
<text x="481.87" y="-212.36" transform="scale(1, -1)"
	style="font-family:Liberation Serif;font-variant:normal;font-weight:normal;font-style:normal;font-size:8.4px;fill:#808080">22.13</text>
<text x="486.39" y="-203.96" transform="scale(1, -1)"
	style="font-family:Liberation Serif;font-variant:normal;font-weight:normal;font-style:normal;font-size:8.4px;fill:#808080">+/-</text>
<text x="485.73" y="-195.56" transform="scale(1, -1)"
	style="font-family:Liberation Serif;font-variant:normal;font-weight:normal;font-style:normal;font-size:8.4px;fill:#808080">1%</text>
<path d="M823.01,40.209L823.01,213.55L847.01,213.55L847.01,40.209Z" style="fill:#33A02C" />
<path d="M835.01,208.76L835.01,214.57" style="fill:none;stroke:#808080;stroke-width:0.56693" />
<path d="M829.01,208.76L841.01,208.76" style="fill:none;stroke:#808080;stroke-width:0.56693" />
<path d="M829.01,214.57L841.01,214.57" style="fill:none;stroke:#808080;stroke-width:0.56693" />
<text x="825.56" y="-242.29" transform="scale(1, -1)"
	style="font-family:Liberation Serif;font-variant:normal;font-weight:normal;font-style:normal;font-size:8.4px;fill:#808080">26.73</text>
<text x="827.05" y="-233.89" transform="scale(1, -1)"
	style="font-family:Liberation Serif;font-variant:normal;font-weight:normal;font-style:normal;font-size:8.4px;fill:#808080">+1%</text>
<text x="828.02" y="-225.49" transform="scale(1, -1)"
	style="font-family:Liberation Serif;font-variant:normal;font-weight:normal;font-style:normal;font-size:8.4px;fill:#808080">-3%</text>
<path d="M162.63,40.209L162.63,163.05L186.63,163.05L186.63,40.209Z" style="fill:#FB9A99" />
<path d="M174.63,162.78L174.63,163.37" style="fill:none;stroke:#808080;stroke-width:0.56693" />
<path d="M168.63,162.78L180.63,162.78" style="fill:none;stroke:#808080;stroke-width:0.56693" />
<path d="M168.63,163.37L180.63,163.37" style="fill:none;stroke:#808080;stroke-width:0.56693" />
<text x="165.18" y="-191.08" transform="scale(1, -1)"
	style="font-family:Liberation Serif;font-variant:normal;font-weight:normal;font-style:normal;font-size:8.4px;fill:#808080">18.94</text>
<text x="169.7" y="-182.68" transform="scale(1, -1)"
	style="font-family:Liberation Serif;font-variant:normal;font-weight:normal;font-style:normal;font-size:8.4px;fill:#808080">+/-</text>
<text x="169.04" y="-174.28" transform="scale(1, -1)"
	style="font-family:Liberation Serif;font-variant:normal;font-weight:normal;font-style:normal;font-size:8.4px;fill:#808080">0%</text>
<path d="M506.32,40.209L506.32,175.89L530.32,175.89L530.32,40.209Z" style="fill:#FB9A99" />
<path d="M518.32,175.33L518.32,176.51" style="fill:none;stroke:#808080;stroke-width:0.56693" />
<path d="M512.32,175.33L524.32,175.33" style="fill:none;stroke:#808080;stroke-width:0.56693" />
<path d="M512.32,176.51L524.32,176.51" style="fill:none;stroke:#808080;stroke-width:0.56693" />
<text x="508.87" y="-204.22" transform="scale(1, -1)"
	style="font-family:Liberation Serif;font-variant:normal;font-weight:normal;font-style:normal;font-size:8.4px;fill:#808080">20.92</text>
<text x="513.39" y="-195.82" transform="scale(1, -1)"
	style="font-family:Liberation Serif;font-variant:normal;font-weight:normal;font-style:normal;font-size:8.4px;fill:#808080">+/-</text>
<text x="512.73" y="-187.42" transform="scale(1, -1)"
	style="font-family:Liberation Serif;font-variant:normal;font-weight:normal;font-style:normal;font-size:8.4px;fill:#808080">0%</text>
<path d="M850.01,40.209L850.01,206.37L874.01,206.37L874.01,40.209Z" style="fill:#FB9A99" />
<path d="M862.01,203.81L862.01,207.82" style="fill:none;stroke:#808080;stroke-width:0.56693" />
<path d="M856.01,203.81L868.01,203.81" style="fill:none;stroke:#808080;stroke-width:0.56693" />
<path d="M856.01,207.82L868.01,207.82" style="fill:none;stroke:#808080;stroke-width:0.56693" />
<text x="852.56" y="-235.53" transform="scale(1, -1)"
	style="font-family:Liberation Serif;font-variant:normal;font-weight:normal;font-style:normal;font-size:8.4px;fill:#808080">25.62</text>
<text x="854.05" y="-227.13" transform="scale(1, -1)"
	style="font-family:Liberation Serif;font-variant:normal;font-weight:normal;font-style:normal;font-size:8.4px;fill:#808080">+1%</text>
<text x="855.02" y="-218.73" transform="scale(1, -1)"
	style="font-family:Liberation Serif;font-variant:normal;font-weight:normal;font-style:normal;font-size:8.4px;fill:#808080">-2%</text>
<path d="M189.63,40.209L189.63,184.12L213.63,184.12L213.63,40.209Z" style="fill:#E31A1C" />
<path d="M201.63,181.04L201.63,188.47" style="fill:none;stroke:#808080;stroke-width:0.56693" />
<path d="M195.63,181.04L207.63,181.04" style="fill:none;stroke:#808080;stroke-width:0.56693" />
<path d="M195.63,188.47L207.63,188.47" style="fill:none;stroke:#808080;stroke-width:0.56693" />
<text x="192.18" y="-216.19" transform="scale(1, -1)"
	style="font-family:Liberation Serif;font-variant:normal;font-weight:normal;font-style:normal;font-size:8.4px;fill:#808080">22.19</text>
<text x="193.67" y="-207.79" transform="scale(1, -1)"
	style="font-family:Liberation Serif;font-variant:normal;font-weight:normal;font-style:normal;font-size:8.4px;fill:#808080">+3%</text>
<text x="194.64" y="-199.39" transform="scale(1, -1)"
	style="font-family:Liberation Serif;font-variant:normal;font-weight:normal;font-style:normal;font-size:8.4px;fill:#808080">-2%</text>
<path d="M533.32,40.209L533.32,167.25L557.32,167.25L557.32,40.209Z" style="fill:#E31A1C" />
<path d="M545.32,166.68L545.32,167.33" style="fill:none;stroke:#808080;stroke-width:0.56693" />
<path d="M539.32,166.68L551.32,166.68" style="fill:none;stroke:#808080;stroke-width:0.56693" />
<path d="M539.32,167.33L551.32,167.33" style="fill:none;stroke:#808080;stroke-width:0.56693" />
<text x="535.87" y="-195.05" transform="scale(1, -1)"
	style="font-family:Liberation Serif;font-variant:normal;font-weight:normal;font-style:normal;font-size:8.4px;fill:#808080">19.59</text>
<text x="540.39" y="-186.65" transform="scale(1, -1)"
	style="font-family:Liberation Serif;font-variant:normal;font-weight:normal;font-style:normal;font-size:8.4px;fill:#808080">+/-</text>
<text x="539.73" y="-178.25" transform="scale(1, -1)"
	style="font-family:Liberation Serif;font-variant:normal;font-weight:normal;font-style:normal;font-size:8.4px;fill:#808080">0%</text>
<path d="M877.01,40.209L877.01,187.7L901.01,187.7L901.01,40.209Z" style="fill:#E31A1C" />
<path d="M889.01,184.94L889.01,194.75" style="fill:none;stroke:#808080;stroke-width:0.56693" />
<path d="M883.01,184.94L895.01,184.94" style="fill:none;stroke:#808080;stroke-width:0.56693" />
<path d="M883.01,194.75L895.01,194.75" style="fill:none;stroke:#808080;stroke-width:0.56693" />
<text x="879.56" y="-222.47" transform="scale(1, -1)"
	style="font-family:Liberation Serif;font-variant:normal;font-weight:normal;font-style:normal;font-size:8.4px;fill:#808080">22.74</text>
<text x="881.05" y="-214.07" transform="scale(1, -1)"
	style="font-family:Liberation Serif;font-variant:normal;font-weight:normal;font-style:normal;font-size:8.4px;fill:#808080">+5%</text>
<text x="882.02" y="-205.67" transform="scale(1, -1)"
	style="font-family:Liberation Serif;font-variant:normal;font-weight:normal;font-style:normal;font-size:8.4px;fill:#808080">-2%</text>
<path d="M216.63,40.209L216.63,191.58L240.63,191.58L240.63,40.209Z" style="fill:#FDBF6F" />
<path d="M228.63,190.47L228.63,192.41" style="fill:none;stroke:#808080;stroke-width:0.56693" />
<path d="M222.63,190.47L234.63,190.47" style="fill:none;stroke:#808080;stroke-width:0.56693" />
<path d="M222.63,192.41L234.63,192.41" style="fill:none;stroke:#808080;stroke-width:0.56693" />
<text x="219.18" y="-220.12" transform="scale(1, -1)"
	style="font-family:Liberation Serif;font-variant:normal;font-weight:normal;font-style:normal;font-size:8.4px;fill:#808080">23.34</text>
<text x="223.7" y="-211.72" transform="scale(1, -1)"
	style="font-family:Liberation Serif;font-variant:normal;font-weight:normal;font-style:normal;font-size:8.4px;fill:#808080">+/-</text>
<text x="223.04" y="-203.32" transform="scale(1, -1)"
	style="font-family:Liberation Serif;font-variant:normal;font-weight:normal;font-style:normal;font-size:8.4px;fill:#808080">1%</text>
<path d="M560.32,40.209L560.32,158.77L584.32,158.77L584.32,40.209Z" style="fill:#FDBF6F" />
<path d="M572.32,157.92L572.32,160.11" style="fill:none;stroke:#808080;stroke-width:0.56693" />
<path d="M566.32,157.92L578.32,157.92" style="fill:none;stroke:#808080;stroke-width:0.56693" />
<path d="M566.32,160.11L578.32,160.11" style="fill:none;stroke:#808080;stroke-width:0.56693" />
<text x="562.87" y="-187.82" transform="scale(1, -1)"
	style="font-family:Liberation Serif;font-variant:normal;font-weight:normal;font-style:normal;font-size:8.4px;fill:#808080">18.28</text>
<text x="567.39" y="-179.42" transform="scale(1, -1)"
	style="font-family:Liberation Serif;font-variant:normal;font-weight:normal;font-style:normal;font-size:8.4px;fill:#808080">+/-</text>
<text x="566.73" y="-171.02" transform="scale(1, -1)"
	style="font-family:Liberation Serif;font-variant:normal;font-weight:normal;font-style:normal;font-size:8.4px;fill:#808080">1%</text>
<path d="M904.01,40.209L904.01,229.68L928.01,229.68L928.01,40.209Z" style="fill:#FDBF6F" />
<path d="M916.01,201.05L916.01,246.91" style="fill:none;stroke:#808080;stroke-width:0.56693" />
<path d="M910.01,201.05L922.01,201.05" style="fill:none;stroke:#808080;stroke-width:0.56693" />
<path d="M910.01,246.91L922.01,246.91" style="fill:none;stroke:#808080;stroke-width:0.56693" />
<text x="906.56" y="-274.63" transform="scale(1, -1)"
	style="font-family:Liberation Serif;font-variant:normal;font-weight:normal;font-style:normal;font-size:8.4px;fill:#808080">29.22</text>
<text x="908.05" y="-266.23" transform="scale(1, -1)"
	style="font-family:Liberation Serif;font-variant:normal;font-weight:normal;font-style:normal;font-size:8.4px;fill:#808080">+9%</text>
<text x="906.92" y="-257.83" transform="scale(1, -1)"
	style="font-family:Liberation Serif;font-variant:normal;font-weight:normal;font-style:normal;font-size:8.4px;fill:#808080">-15%</text>
<path d="M243.63,40.209L243.63,193.39L267.63,193.39L267.63,40.209Z" style="fill:#FF7F00" />
<path d="M255.63,192.56L255.63,193.69" style="fill:none;stroke:#808080;stroke-width:0.56693" />
<path d="M249.63,192.56L261.63,192.56" style="fill:none;stroke:#808080;stroke-width:0.56693" />
<path d="M249.63,193.69L261.63,193.69" style="fill:none;stroke:#808080;stroke-width:0.56693" />
<text x="246.18" y="-221.41" transform="scale(1, -1)"
	style="font-family:Liberation Serif;font-variant:normal;font-weight:normal;font-style:normal;font-size:8.4px;fill:#808080">23.62</text>
<text x="247.67" y="-213.01" transform="scale(1, -1)"
	style="font-family:Liberation Serif;font-variant:normal;font-weight:normal;font-style:normal;font-size:8.4px;fill:#808080">+0%</text>
<text x="248.64" y="-204.61" transform="scale(1, -1)"
	style="font-family:Liberation Serif;font-variant:normal;font-weight:normal;font-style:normal;font-size:8.4px;fill:#808080">-1%</text>
<path d="M587.32,40.209L587.32,163.63L611.32,163.63L611.32,40.209Z" style="fill:#FF7F00" />
<path d="M599.32,163.27L599.32,164.79" style="fill:none;stroke:#808080;stroke-width:0.56693" />
<path d="M593.32,163.27L605.32,163.27" style="fill:none;stroke:#808080;stroke-width:0.56693" />
<path d="M593.32,164.79L605.32,164.79" style="fill:none;stroke:#808080;stroke-width:0.56693" />
<text x="589.87" y="-192.5" transform="scale(1, -1)"
	style="font-family:Liberation Serif;font-variant:normal;font-weight:normal;font-style:normal;font-size:8.4px;fill:#808080">19.03</text>
<text x="591.36" y="-184.1" transform="scale(1, -1)"
	style="font-family:Liberation Serif;font-variant:normal;font-weight:normal;font-style:normal;font-size:8.4px;fill:#808080">+1%</text>
<text x="592.33" y="-175.7" transform="scale(1, -1)"
	style="font-family:Liberation Serif;font-variant:normal;font-weight:normal;font-style:normal;font-size:8.4px;fill:#808080">-0%</text>
<path d="M931.01,40.209L931.01,247.73L955.01,247.73L955.01,40.209Z" style="fill:#FF7F00" />
<path d="M943.01,148.2L943.01,271.31" style="fill:none;stroke:#808080;stroke-width:0.56693" />
<path d="M937.01,148.2L949.01,148.2" style="fill:none;stroke:#808080;stroke-width:0.56693" />
<path d="M937.01,271.31L949.01,271.31" style="fill:none;stroke:#808080;stroke-width:0.56693" />
<text x="933.56" y="-299.03" transform="scale(1, -1)"
	style="font-family:Liberation Serif;font-variant:normal;font-weight:normal;font-style:normal;font-size:8.4px;fill:#808080">32.00</text>
<text x="933.1" y="-290.63" transform="scale(1, -1)"
	style="font-family:Liberation Serif;font-variant:normal;font-weight:normal;font-style:normal;font-size:8.4px;fill:#808080">+11%</text>
<text x="933.92" y="-282.23" transform="scale(1, -1)"
	style="font-family:Liberation Serif;font-variant:normal;font-weight:normal;font-style:normal;font-size:8.4px;fill:#808080">-48%</text>
<path d="M270.63,40.209L270.63,222.64L294.63,222.64L294.63,40.209Z" style="fill:#CAB2D6" />
<path d="M282.63,217.31L282.63,228.04" style="fill:none;stroke:#808080;stroke-width:0.56693" />
<path d="M276.63,217.31L288.63,217.31" style="fill:none;stroke:#808080;stroke-width:0.56693" />
<path d="M276.63,228.04L288.63,228.04" style="fill:none;stroke:#808080;stroke-width:0.56693" />
<text x="273.18" y="-255.76" transform="scale(1, -1)"
	style="font-family:Liberation Serif;font-variant:normal;font-weight:normal;font-style:normal;font-size:8.4px;fill:#808080">28.13</text>
<text x="277.7" y="-247.36" transform="scale(1, -1)"
	style="font-family:Liberation Serif;font-variant:normal;font-weight:normal;font-style:normal;font-size:8.4px;fill:#808080">+/-</text>
<text x="277.04" y="-238.96" transform="scale(1, -1)"
	style="font-family:Liberation Serif;font-variant:normal;font-weight:normal;font-style:normal;font-size:8.4px;fill:#808080">3%</text>
<path d="M614.32,40.209L614.32,185.33L638.32,185.33L638.32,40.209Z" style="fill:#CAB2D6" />
<path d="M626.32,178.55L626.32,187.68" style="fill:none;stroke:#808080;stroke-width:0.56693" />
<path d="M620.32,178.55L632.32,178.55" style="fill:none;stroke:#808080;stroke-width:0.56693" />
<path d="M620.32,187.68L632.32,187.68" style="fill:none;stroke:#808080;stroke-width:0.56693" />
<text x="616.87" y="-215.39" transform="scale(1, -1)"
	style="font-family:Liberation Serif;font-variant:normal;font-weight:normal;font-style:normal;font-size:8.4px;fill:#808080">22.38</text>
<text x="618.36" y="-206.99" transform="scale(1, -1)"
	style="font-family:Liberation Serif;font-variant:normal;font-weight:normal;font-style:normal;font-size:8.4px;fill:#808080">+2%</text>
<text x="619.33" y="-198.59" transform="scale(1, -1)"
	style="font-family:Liberation Serif;font-variant:normal;font-weight:normal;font-style:normal;font-size:8.4px;fill:#808080">-5%</text>
<path d="M958.01,40.209L958.01,245.54L982.01,245.54L982.01,40.209Z" style="fill:#CAB2D6" />
<path d="M970.01,190.72L970.01,276.77" style="fill:none;stroke:#808080;stroke-width:0.56693" />
<path d="M964.01,190.72L976.01,190.72" style="fill:none;stroke:#808080;stroke-width:0.56693" />
<path d="M964.01,276.77L976.01,276.77" style="fill:none;stroke:#808080;stroke-width:0.56693" />
<text x="960.56" y="-304.49" transform="scale(1, -1)"
	style="font-family:Liberation Serif;font-variant:normal;font-weight:normal;font-style:normal;font-size:8.4px;fill:#808080">31.66</text>
<text x="959.95" y="-296.09" transform="scale(1, -1)"
	style="font-family:Liberation Serif;font-variant:normal;font-weight:normal;font-style:normal;font-size:8.4px;fill:#808080">+15%</text>
<text x="960.92" y="-287.69" transform="scale(1, -1)"
	style="font-family:Liberation Serif;font-variant:normal;font-weight:normal;font-style:normal;font-size:8.4px;fill:#808080">-27%</text>
<path d="M297.63,40.209L297.63,163.27L321.63,163.27L321.63,40.209Z" style="fill:#6A3D9A" />
<path d="M309.63,162.84L309.63,165.32" style="fill:none;stroke:#808080;stroke-width:0.56693" />
<path d="M303.63,162.84L315.63,162.84" style="fill:none;stroke:#808080;stroke-width:0.56693" />
<path d="M303.63,165.32L315.63,165.32" style="fill:none;stroke:#808080;stroke-width:0.56693" />
<text x="300.18" y="-193.04" transform="scale(1, -1)"
	style="font-family:Liberation Serif;font-variant:normal;font-weight:normal;font-style:normal;font-size:8.4px;fill:#808080">18.98</text>
<text x="301.67" y="-184.64" transform="scale(1, -1)"
	style="font-family:Liberation Serif;font-variant:normal;font-weight:normal;font-style:normal;font-size:8.4px;fill:#808080">+2%</text>
<text x="302.64" y="-176.24" transform="scale(1, -1)"
	style="font-family:Liberation Serif;font-variant:normal;font-weight:normal;font-style:normal;font-size:8.4px;fill:#808080">-0%</text>
<path d="M641.32,40.209L641.32,161.1L665.32,161.1L665.32,40.209Z" style="fill:#6A3D9A" />
<path d="M653.32,159.25L653.32,166.8" style="fill:none;stroke:#808080;stroke-width:0.56693" />
<path d="M647.32,159.25L659.32,159.25" style="fill:none;stroke:#808080;stroke-width:0.56693" />
<path d="M647.32,166.8L659.32,166.8" style="fill:none;stroke:#808080;stroke-width:0.56693" />
<text x="643.87" y="-194.51" transform="scale(1, -1)"
	style="font-family:Liberation Serif;font-variant:normal;font-weight:normal;font-style:normal;font-size:8.4px;fill:#808080">18.64</text>
<text x="645.36" y="-186.11" transform="scale(1, -1)"
	style="font-family:Liberation Serif;font-variant:normal;font-weight:normal;font-style:normal;font-size:8.4px;fill:#808080">+5%</text>
<text x="646.33" y="-177.71" transform="scale(1, -1)"
	style="font-family:Liberation Serif;font-variant:normal;font-weight:normal;font-style:normal;font-size:8.4px;fill:#808080">-2%</text>
<path d="M985.01,40.209L985.01,248.06L1009,248.06L1009,40.209Z" style="fill:#6A3D9A" />
<path d="M997.01,197.08L997.01,266.97" style="fill:none;stroke:#808080;stroke-width:0.56693" />
<path d="M991.01,197.08L1003,197.08" style="fill:none;stroke:#808080;stroke-width:0.56693" />
<path d="M991.01,266.97L1003,266.97" style="fill:none;stroke:#808080;stroke-width:0.56693" />
<text x="987.56" y="-294.69" transform="scale(1, -1)"
	style="font-family:Liberation Serif;font-variant:normal;font-weight:normal;font-style:normal;font-size:8.4px;fill:#808080">32.05</text>
<text x="989.05" y="-286.29" transform="scale(1, -1)"
	style="font-family:Liberation Serif;font-variant:normal;font-weight:normal;font-style:normal;font-size:8.4px;fill:#808080">+9%</text>
<text x="987.92" y="-277.89" transform="scale(1, -1)"
	style="font-family:Liberation Serif;font-variant:normal;font-weight:normal;font-style:normal;font-size:8.4px;fill:#808080">-25%</text>
</g>
</svg>
