<?xml version="1.0"?>
<!-- Generated by SVGo and Plotinum VG -->
<svg width="720pt" height="432pt" viewBox="0 0 720 432"
	xmlns="http://www.w3.org/2000/svg"
	xmlns:xlink="http://www.w3.org/1999/xlink">
<g transform="scale(1, -1) translate(0, -432)">
<path d="M657.84,318.58A2.5,2.5 0 1 1 652.84,318.58A2.5,2.5 0 1 1 657.84,318.58Z" style="fill:none;stroke:#A6CEE3;stroke-width:0.5" />
<text x="668.34" y="-316.1" transform="scale(1, -1)"
	style="font-family:Liberation Serif;font-variant:normal;font-weight:normal;font-style:normal;font-size:12px;fill:#808080">Limit 1</text>
<path d="M653.2,300.27L657.47,300.27L657.47,304.54L653.2,304.54Z" style="fill:none;stroke:#1F78B4;stroke-width:0.5" />
<text x="668.34" y="-299.91" transform="scale(1, -1)"
	style="font-family:Liberation Serif;font-variant:normal;font-weight:normal;font-style:normal;font-size:12px;fill:#808080">Limit 2</text>
<path d="M655.34,289.34L652.63,284.66L658.04,284.66Z" style="fill:none;stroke:#B2DF8A;stroke-width:0.5" />
<text x="668.34" y="-283.73" transform="scale(1, -1)"
	style="font-family:Liberation Serif;font-variant:normal;font-weight:normal;font-style:normal;font-size:12px;fill:#808080">Limit 3</text>
<path d="M653.57,268.27L657.11,271.8" style="fill:none;stroke:#33A02C;stroke-width:0.5" />
<path d="M653.57,271.8L657.11,268.27" style="fill:none;stroke:#33A02C;stroke-width:0.5" />
<text x="668.34" y="-267.55" transform="scale(1, -1)"
	style="font-family:Liberation Serif;font-variant:normal;font-weight:normal;font-style:normal;font-size:12px;fill:#808080">Limit 4</text>
<path d="M655.34,256.35L655.34,251.35" style="fill:none;stroke:#FB9A99;stroke-width:0.5" />
<path d="M652.84,253.85L657.84,253.85" style="fill:none;stroke:#FB9A99;stroke-width:0.5" />
<text x="668.34" y="-251.36" transform="scale(1, -1)"
	style="font-family:Liberation Serif;font-variant:normal;font-weight:normal;font-style:normal;font-size:12px;fill:#808080">Limit 8</text>
<path d="M657.84,237.67A2.5,2.5 0 1 1 652.84,237.67A2.5,2.5 0 1 1 657.84,237.67Z" style="fill:#E31A1C" />
<text x="668.34" y="-235.18" transform="scale(1, -1)"
	style="font-family:Liberation Serif;font-variant:normal;font-weight:normal;font-style:normal;font-size:12px;fill:#808080">Limit 12</text>
<path d="M653.2,219.35L657.47,219.35L657.47,223.62L653.2,223.62Z" style="fill:#FDBF6F" />
<text x="668.34" y="-219" transform="scale(1, -1)"
	style="font-family:Liberation Serif;font-variant:normal;font-weight:normal;font-style:normal;font-size:12px;fill:#808080">Limit 16</text>
<path d="M655.34,208.42L652.63,203.74L658.04,203.74Z" style="fill:#FF7F00" />
<text x="668.34" y="-202.81" transform="scale(1, -1)"
	style="font-family:Liberation Serif;font-variant:normal;font-weight:normal;font-style:normal;font-size:12px;fill:#808080">Limit 24</text>
<path d="M657.84,189.12A2.5,2.5 0 1 1 652.84,189.12A2.5,2.5 0 1 1 657.84,189.12Z" style="fill:none;stroke:#CAB2D6;stroke-width:0.5" />
<text x="668.34" y="-186.63" transform="scale(1, -1)"
	style="font-family:Liberation Serif;font-variant:normal;font-weight:normal;font-style:normal;font-size:12px;fill:#808080">Unlimited</text>
<path d="M648.34,181.02L648.34,329.27L720,329.27L720,181.02L648.34,181.02" style="fill:none;stroke:#808080" />
<path d="M0,0L629.34,0L629.34,432L0,432Z" style="fill:#-8000000000000000-8000000000000000-8000000000000000;fill-opacity:0" />
<text x="246.35" y="-420.81" transform="scale(1, -1)"
	style="font-family:Liberation Serif;font-variant:normal;font-weight:normal;font-style:normal;font-size:12px;fill:#808080">Throughput vs. P99 Latency</text>
<text x="203.52" y="-408.81" transform="scale(1, -1)"
	style="font-family:Liberation Serif;font-variant:normal;font-weight:normal;font-style:normal;font-size:12px;fill:#808080">(1ms waiting workload flushing every 100ms)</text>
<text x="251.68" y="-3.9023" transform="scale(1, -1)"
	style="font-family:Liberation Serif;font-variant:normal;font-weight:normal;font-style:normal;font-size:12px;fill:#808080">P99 Workflow Latency (milliseconds)</text>
<text x="349.24" y="-16.541" transform="scale(1, -1)"
	style="font-family:Liberation Serif;font-variant:normal;font-weight:normal;font-style:normal;font-size:10px;fill:#808080">40</text>
<text x="522.8" y="-16.541" transform="scale(1, -1)"
	style="font-family:Liberation Serif;font-variant:normal;font-weight:normal;font-style:normal;font-size:10px;fill:#808080">120</text>
<text x="604.66" y="-16.541" transform="scale(1, -1)"
	style="font-family:Liberation Serif;font-variant:normal;font-weight:normal;font-style:normal;font-size:10px;fill:#808080">200</text>
<path d="M354.24,24.363L354.24,32.363" style="fill:none;stroke:#808080;stroke-width:0.5" />
<path d="M530.3,24.363L530.3,32.363" style="fill:none;stroke:#808080;stroke-width:0.5" />
<path d="M612.16,24.363L612.16,32.363" style="fill:none;stroke:#808080;stroke-width:0.5" />
<path d="M465.32,28.363L465.32,32.363" style="fill:none;stroke:#808080;stroke-width:0.5" />
<path d="M576.4,28.363L576.4,32.363" style="fill:none;stroke:#808080;stroke-width:0.5" />
<path d="M59.635,32.363L626.84,32.363" style="fill:none;stroke:#808080;stroke-width:0.5" />
<g transform="rotate(90)">
<text x="123.84" y="9.3867" transform="scale(1, -1)"
	style="font-family:Liberation Serif;font-variant:normal;font-weight:normal;font-style:normal;font-size:12px;fill:#808080">Workflow Throughput (tasks per second)</text>
</g>
<text x="20.885" y="-98.546" transform="scale(1, -1)"
	style="font-family:Liberation Serif;font-variant:normal;font-weight:normal;font-style:normal;font-size:10px;fill:#808080">4000</text>
<text x="15.885" y="-244.68" transform="scale(1, -1)"
	style="font-family:Liberation Serif;font-variant:normal;font-weight:normal;font-style:normal;font-size:10px;fill:#808080">12000</text>
<text x="15.885" y="-390.81" transform="scale(1, -1)"
	style="font-family:Liberation Serif;font-variant:normal;font-weight:normal;font-style:normal;font-size:10px;fill:#808080">20000</text>
<path d="M43.385,100.83L51.385,100.83" style="fill:none;stroke:#808080;stroke-width:0.5" />
<path d="M43.385,246.96L51.385,246.96" style="fill:none;stroke:#808080;stroke-width:0.5" />
<path d="M43.385,393.1L51.385,393.1" style="fill:none;stroke:#808080;stroke-width:0.5" />
<path d="M47.385,173.9L51.385,173.9" style="fill:none;stroke:#808080;stroke-width:0.5" />
<path d="M47.385,320.03L51.385,320.03" style="fill:none;stroke:#808080;stroke-width:0.5" />
<path d="M51.385,42.709L51.385,402.41" style="fill:none;stroke:#808080;stroke-width:0.5" />
<path d="M62.135,42.709A2.5,2.5 0 1 1 57.135,42.709A2.5,2.5 0 1 1 62.135,42.709Z" style="fill:none;stroke:#A6CEE3;stroke-width:0.5" />
<path d="M72.676,42.95A2.5,2.5 0 1 1 67.676,42.95A2.5,2.5 0 1 1 72.676,42.95Z" style="fill:none;stroke:#A6CEE3;stroke-width:0.5" />
<path d="M117.47,43.076A2.5,2.5 0 1 1 112.47,43.076A2.5,2.5 0 1 1 117.47,43.076Z" style="fill:none;stroke:#A6CEE3;stroke-width:0.5" />
<path d="M185.18,43.286A2.5,2.5 0 1 1 180.18,43.286A2.5,2.5 0 1 1 185.18,43.286Z" style="fill:none;stroke:#A6CEE3;stroke-width:0.5" />
<path d="M439.12,43.41A2.5,2.5 0 1 1 434.12,43.41A2.5,2.5 0 1 1 439.12,43.41Z" style="fill:none;stroke:#A6CEE3;stroke-width:0.5" />
<path d="M629.34,43.56A2.5,2.5 0 1 1 624.34,43.56A2.5,2.5 0 1 1 629.34,43.56Z" style="fill:none;stroke:#A6CEE3;stroke-width:0.5" />
<path d="M471.96,55.059L476.22,55.059L476.22,59.326L471.96,59.326Z" style="fill:none;stroke:#1F78B4;stroke-width:0.5" />
<path d="M478.17,55.132L482.44,55.132L482.44,59.399L478.17,59.399Z" style="fill:none;stroke:#1F78B4;stroke-width:0.5" />
<path d="M479.56,55.26L483.83,55.26L483.83,59.527L479.56,59.527Z" style="fill:none;stroke:#1F78B4;stroke-width:0.5" />
<path d="M517.15,55.314L521.42,55.314L521.42,59.582L517.15,59.582Z" style="fill:none;stroke:#1F78B4;stroke-width:0.5" />
<path d="M518.3,55.314L522.57,55.314L522.57,59.582L518.3,59.582Z" style="fill:none;stroke:#1F78B4;stroke-width:0.5" />
<path d="M543.6,55.369L547.86,55.369L547.86,59.637L543.6,59.637Z" style="fill:none;stroke:#1F78B4;stroke-width:0.5" />
<path d="M400.74,74.693L398.04,70.006L403.45,70.006Z" style="fill:none;stroke:#B2DF8A;stroke-width:0.5" />
<path d="M444.43,74.894L441.72,70.207L447.13,70.207Z" style="fill:none;stroke:#B2DF8A;stroke-width:0.5" />
<path d="M460.05,74.931L457.34,70.243L462.75,70.243Z" style="fill:none;stroke:#B2DF8A;stroke-width:0.5" />
<path d="M480.89,75.004L478.19,70.316L483.6,70.316Z" style="fill:none;stroke:#B2DF8A;stroke-width:0.5" />
<path d="M497.09,75.387L494.38,70.7L499.79,70.7Z" style="fill:none;stroke:#B2DF8A;stroke-width:0.5" />
<path d="M510.81,75.68L508.1,70.992L513.52,70.992Z" style="fill:none;stroke:#B2DF8A;stroke-width:0.5" />
<path d="M410.35,83.72L413.88,87.255" style="fill:none;stroke:#33A02C;stroke-width:0.5" />
<path d="M410.35,87.255L413.88,83.72" style="fill:none;stroke:#33A02C;stroke-width:0.5" />
<path d="M411.54,84.213L415.08,87.748" style="fill:none;stroke:#33A02C;stroke-width:0.5" />
<path d="M411.54,87.748L415.08,84.213" style="fill:none;stroke:#33A02C;stroke-width:0.5" />
<path d="M429.15,84.56L432.68,88.095" style="fill:none;stroke:#33A02C;stroke-width:0.5" />
<path d="M429.15,88.095L432.68,84.56" style="fill:none;stroke:#33A02C;stroke-width:0.5" />
<path d="M459.15,84.688L462.68,88.223" style="fill:none;stroke:#33A02C;stroke-width:0.5" />
<path d="M459.15,88.223L462.68,84.688" style="fill:none;stroke:#33A02C;stroke-width:0.5" />
<path d="M464.66,84.761L468.2,88.296" style="fill:none;stroke:#33A02C;stroke-width:0.5" />
<path d="M464.66,88.296L468.2,84.761" style="fill:none;stroke:#33A02C;stroke-width:0.5" />
<path d="M484.25,85.327L487.79,88.863" style="fill:none;stroke:#33A02C;stroke-width:0.5" />
<path d="M484.25,88.863L487.79,85.327" style="fill:none;stroke:#33A02C;stroke-width:0.5" />
<path d="M350.17,143.43L350.17,138.43" style="fill:none;stroke:#FB9A99;stroke-width:0.5" />
<path d="M347.67,140.93L352.67,140.93" style="fill:none;stroke:#FB9A99;stroke-width:0.5" />
<path d="M378.87,144.16L378.87,139.16" style="fill:none;stroke:#FB9A99;stroke-width:0.5" />
<path d="M376.37,141.66L381.37,141.66" style="fill:none;stroke:#FB9A99;stroke-width:0.5" />
<path d="M380.7,144.65L380.7,139.65" style="fill:none;stroke:#FB9A99;stroke-width:0.5" />
<path d="M378.2,142.15L383.2,142.15" style="fill:none;stroke:#FB9A99;stroke-width:0.5" />
<path d="M399.24,146.42L399.24,141.42" style="fill:none;stroke:#FB9A99;stroke-width:0.5" />
<path d="M396.74,143.92L401.74,143.92" style="fill:none;stroke:#FB9A99;stroke-width:0.5" />
<path d="M417.17,146.84L417.17,141.84" style="fill:none;stroke:#FB9A99;stroke-width:0.5" />
<path d="M414.67,144.34L419.67,144.34" style="fill:none;stroke:#FB9A99;stroke-width:0.5" />
<path d="M419.02,148.32L419.02,143.32" style="fill:none;stroke:#FB9A99;stroke-width:0.5" />
<path d="M416.52,145.82L421.52,145.82" style="fill:none;stroke:#FB9A99;stroke-width:0.5" />
<path d="M288.79,190.25A2.5,2.5 0 1 1 283.79,190.25A2.5,2.5 0 1 1 288.79,190.25Z" style="fill:#E31A1C" />
<path d="M319.69,193.53A2.5,2.5 0 1 1 314.69,193.53A2.5,2.5 0 1 1 319.69,193.53Z" style="fill:#E31A1C" />
<path d="M324,194.54A2.5,2.5 0 1 1 319,194.54A2.5,2.5 0 1 1 324,194.54Z" style="fill:#E31A1C" />
<path d="M353.84,196.91A2.5,2.5 0 1 1 348.84,196.91A2.5,2.5 0 1 1 353.84,196.91Z" style="fill:#E31A1C" />
<path d="M356.48,198.32A2.5,2.5 0 1 1 351.48,198.32A2.5,2.5 0 1 1 356.48,198.32Z" style="fill:#E31A1C" />
<path d="M357.63,200.6A2.5,2.5 0 1 1 352.63,200.6A2.5,2.5 0 1 1 357.63,200.6Z" style="fill:#E31A1C" />
<path d="M318.35,222.73L322.62,222.73L322.62,227L318.35,227Z" style="fill:#FDBF6F" />
<path d="M322.57,235.08L326.84,235.08L326.84,239.34L322.57,239.34Z" style="fill:#FDBF6F" />
<path d="M338.54,239.46L342.81,239.46L342.81,243.73L338.54,243.73Z" style="fill:#FDBF6F" />
<path d="M339.28,241.43L343.54,241.43L343.54,245.7L339.28,245.7Z" style="fill:#FDBF6F" />
<path d="M340.42,250.6L344.69,250.6L344.69,254.87L340.42,254.87Z" style="fill:#FDBF6F" />
<path d="M366.81,252.39L371.08,252.39L371.08,256.66L366.81,256.66Z" style="fill:#FDBF6F" />
<path d="M283.16,329.09L280.45,324.4L285.87,324.4Z" style="fill:#FF7F00" />
<path d="M300.8,330.9L298.09,326.21L303.51,326.21Z" style="fill:#FF7F00" />
<path d="M308.99,338.46L306.28,333.77L311.7,333.77Z" style="fill:#FF7F00" />
<path d="M310.84,339.01L308.13,334.32L313.55,334.32Z" style="fill:#FF7F00" />
<path d="M321.85,341.26L319.15,336.57L324.56,336.57Z" style="fill:#FF7F00" />
<path d="M322.86,341.81L320.15,337.12L325.56,337.12Z" style="fill:#FF7F00" />
<path d="M303.01,289.94A2.5,2.5 0 1 1 298.01,289.94A2.5,2.5 0 1 1 303.01,289.94Z" style="fill:none;stroke:#CAB2D6;stroke-width:0.5" />
<path d="M312.57,363.49A2.5,2.5 0 1 1 307.57,363.49A2.5,2.5 0 1 1 312.57,363.49Z" style="fill:none;stroke:#CAB2D6;stroke-width:0.5" />
<path d="M321.47,380.35A2.5,2.5 0 1 1 316.47,380.35A2.5,2.5 0 1 1 321.47,380.35Z" style="fill:none;stroke:#CAB2D6;stroke-width:0.5" />
<path d="M358.3,384.97A2.5,2.5 0 1 1 353.3,384.97A2.5,2.5 0 1 1 358.3,384.97Z" style="fill:none;stroke:#CAB2D6;stroke-width:0.5" />
<path d="M382.74,393.42A2.5,2.5 0 1 1 377.74,393.42A2.5,2.5 0 1 1 382.74,393.42Z" style="fill:none;stroke:#CAB2D6;stroke-width:0.5" />
<path d="M452.26,402.41A2.5,2.5 0 1 1 447.26,402.41A2.5,2.5 0 1 1 452.26,402.41Z" style="fill:none;stroke:#CAB2D6;stroke-width:0.5" />
</g>
</svg>
