<?xml version="1.0"?>
<!-- Generated by SVGo and Plotinum VG -->
<svg width="648pt" height="432pt" viewBox="0 0 648 432"
	xmlns="http://www.w3.org/2000/svg"
	xmlns:xlink="http://www.w3.org/1999/xlink">
<g transform="scale(1, -1) translate(0, -432)">
<path d="M0,0L648,0L648,432L0,432Z" style="fill:#-8000000000000000-8000000000000000-8000000000000000;fill-opacity:0" />
<text x="222.6" y="-422.61" transform="scale(1, -1)"
	style="font-family:Liberation Serif;font-variant:normal;font-weight:normal;font-style:normal;font-size:12px;fill:#808080">Aggregation Workload Speedup (Waiting)</text>
<text x="228.32" y="-3.9023" transform="scale(1, -1)"
	style="font-family:Liberation Serif;font-variant:normal;font-weight:normal;font-style:normal;font-size:12px;fill:#808080">Aggregation Workload Duration @ Flush Period</text>
<text x="109.87" y="-16.541" transform="scale(1, -1)"
	style="font-family:Liberation Serif;font-variant:normal;font-weight:normal;font-style:normal;font-size:10px;fill:#808080">10µs @ 1ms</text>
<text x="314.8" y="-16.541" transform="scale(1, -1)"
	style="font-family:Liberation Serif;font-variant:normal;font-weight:normal;font-style:normal;font-size:10px;fill:#808080">100µs @ 10ms</text>
<text x="526.23" y="-16.541" transform="scale(1, -1)"
	style="font-family:Liberation Serif;font-variant:normal;font-weight:normal;font-style:normal;font-size:10px;fill:#808080">1ms @ 100ms</text>
<path d="M135.13,24.363L135.13,32.363" style="fill:none;stroke:#808080;stroke-width:0.5" />
<path d="M345.07,24.363L345.07,32.363" style="fill:none;stroke:#808080;stroke-width:0.5" />
<path d="M555,24.363L555,32.363" style="fill:none;stroke:#808080;stroke-width:0.5" />
<path d="M135.13,32.363L555,32.363" style="fill:none;stroke:#808080;stroke-width:0.5" />
<g transform="rotate(90)">
<text x="176.3" y="9.3867" transform="scale(1, -1)"
	style="font-family:Liberation Serif;font-variant:normal;font-weight:normal;font-style:normal;font-size:12px;fill:#808080">Throughput vs. Direct</text>
</g>
<text x="20.885" y="-37.924" transform="scale(1, -1)"
	style="font-family:Liberation Serif;font-variant:normal;font-weight:normal;font-style:normal;font-size:10px;fill:#808080">0</text>
<text x="20.885" y="-204.73" transform="scale(1, -1)"
	style="font-family:Liberation Serif;font-variant:normal;font-weight:normal;font-style:normal;font-size:10px;fill:#808080">8</text>
<text x="15.885" y="-371.53" transform="scale(1, -1)"
	style="font-family:Liberation Serif;font-variant:normal;font-weight:normal;font-style:normal;font-size:10px;fill:#808080">16</text>
<path d="M28.385,40.209L36.385,40.209" style="fill:none;stroke:#808080;stroke-width:0.5" />
<path d="M28.385,207.01L36.385,207.01" style="fill:none;stroke:#808080;stroke-width:0.5" />
<path d="M28.385,373.81L36.385,373.81" style="fill:none;stroke:#808080;stroke-width:0.5" />
<path d="M32.385,123.61L36.385,123.61" style="fill:none;stroke:#808080;stroke-width:0.5" />
<path d="M32.385,290.41L36.385,290.41" style="fill:none;stroke:#808080;stroke-width:0.5" />
<path d="M36.385,40.209L36.385,418.71" style="fill:none;stroke:#808080;stroke-width:0.5" />
<path d="M42.135,40.209L42.135,61.059L66.135,61.059L66.135,40.209Z" style="fill:#A6CEE3" />
<path d="M54.135,59.194L54.135,62.924" style="fill:none;stroke:#808080;stroke-width:0.56693" />
<path d="M48.135,59.194L60.135,59.194" style="fill:none;stroke:#808080;stroke-width:0.56693" />
<path d="M48.135,62.924L60.135,62.924" style="fill:none;stroke:#808080;stroke-width:0.56693" />
<text x="44.685" y="-90.639" transform="scale(1, -1)"
	style="font-family:Liberation Serif;font-variant:normal;font-weight:normal;font-style:normal;font-size:8.4px;fill:#808080">1.000</text>
<text x="49.201" y="-82.239" transform="scale(1, -1)"
	style="font-family:Liberation Serif;font-variant:normal;font-weight:normal;font-style:normal;font-size:8.4px;fill:#808080">+/-</text>
<text x="48.536" y="-73.839" transform="scale(1, -1)"
	style="font-family:Liberation Serif;font-variant:normal;font-weight:normal;font-style:normal;font-size:8.4px;fill:#808080">9%</text>
<path d="M252.07,40.209L252.07,61.059L276.07,61.059L276.07,40.209Z" style="fill:#A6CEE3" />
<path d="M264.07,59.068L264.07,63.051" style="fill:none;stroke:#808080;stroke-width:0.56693" />
<path d="M258.07,59.068L270.07,59.068" style="fill:none;stroke:#808080;stroke-width:0.56693" />
<path d="M258.07,63.051L270.07,63.051" style="fill:none;stroke:#808080;stroke-width:0.56693" />
<text x="254.62" y="-90.765" transform="scale(1, -1)"
	style="font-family:Liberation Serif;font-variant:normal;font-weight:normal;font-style:normal;font-size:8.4px;fill:#808080">1.000</text>
<text x="259.13" y="-82.365" transform="scale(1, -1)"
	style="font-family:Liberation Serif;font-variant:normal;font-weight:normal;font-style:normal;font-size:8.4px;fill:#808080">+/-</text>
<text x="256.37" y="-73.965" transform="scale(1, -1)"
	style="font-family:Liberation Serif;font-variant:normal;font-weight:normal;font-style:normal;font-size:8.4px;fill:#808080">10%</text>
<path d="M462,40.209L462,61.059L486,61.059L486,40.209Z" style="fill:#A6CEE3" />
<path d="M474,60.833L474,61.285" style="fill:none;stroke:#808080;stroke-width:0.56693" />
<path d="M468,60.833L480,60.833" style="fill:none;stroke:#808080;stroke-width:0.56693" />
<path d="M468,61.285L480,61.285" style="fill:none;stroke:#808080;stroke-width:0.56693" />
<text x="464.55" y="-89" transform="scale(1, -1)"
	style="font-family:Liberation Serif;font-variant:normal;font-weight:normal;font-style:normal;font-size:8.4px;fill:#808080">1.000</text>
<text x="469.07" y="-80.6" transform="scale(1, -1)"
	style="font-family:Liberation Serif;font-variant:normal;font-weight:normal;font-style:normal;font-size:8.4px;fill:#808080">+/-</text>
<text x="468.4" y="-72.2" transform="scale(1, -1)"
	style="font-family:Liberation Serif;font-variant:normal;font-weight:normal;font-style:normal;font-size:8.4px;fill:#808080">1%</text>
<path d="M69.135,40.209L69.135,60.029L93.135,60.029L93.135,40.209Z" style="fill:#1F78B4" />
<path d="M81.135,58.595L81.135,61.462" style="fill:none;stroke:#808080;stroke-width:0.56693" />
<path d="M75.135,58.595L87.135,58.595" style="fill:none;stroke:#808080;stroke-width:0.56693" />
<path d="M75.135,61.462L87.135,61.462" style="fill:none;stroke:#808080;stroke-width:0.56693" />
<text x="71.685" y="-89.177" transform="scale(1, -1)"
	style="font-family:Liberation Serif;font-variant:normal;font-weight:normal;font-style:normal;font-size:8.4px;fill:#808080">0.951</text>
<text x="76.201" y="-80.777" transform="scale(1, -1)"
	style="font-family:Liberation Serif;font-variant:normal;font-weight:normal;font-style:normal;font-size:8.4px;fill:#808080">+/-</text>
<text x="75.536" y="-72.377" transform="scale(1, -1)"
	style="font-family:Liberation Serif;font-variant:normal;font-weight:normal;font-style:normal;font-size:8.4px;fill:#808080">7%</text>
<path d="M279.07,40.209L279.07,59.633L303.07,59.633L303.07,40.209Z" style="fill:#1F78B4" />
<path d="M291.07,58.049L291.07,61.217" style="fill:none;stroke:#808080;stroke-width:0.56693" />
<path d="M285.07,58.049L297.07,58.049" style="fill:none;stroke:#808080;stroke-width:0.56693" />
<path d="M285.07,61.217L297.07,61.217" style="fill:none;stroke:#808080;stroke-width:0.56693" />
<text x="281.62" y="-88.932" transform="scale(1, -1)"
	style="font-family:Liberation Serif;font-variant:normal;font-weight:normal;font-style:normal;font-size:8.4px;fill:#808080">0.932</text>
<text x="286.13" y="-80.532" transform="scale(1, -1)"
	style="font-family:Liberation Serif;font-variant:normal;font-weight:normal;font-style:normal;font-size:8.4px;fill:#808080">+/-</text>
<text x="285.47" y="-72.132" transform="scale(1, -1)"
	style="font-family:Liberation Serif;font-variant:normal;font-weight:normal;font-style:normal;font-size:8.4px;fill:#808080">8%</text>
<path d="M489,40.209L489,60.767L513,60.767L513,40.209Z" style="fill:#1F78B4" />
<path d="M501,60.513L501,61.021" style="fill:none;stroke:#808080;stroke-width:0.56693" />
<path d="M495,60.513L507,60.513" style="fill:none;stroke:#808080;stroke-width:0.56693" />
<path d="M495,61.021L507,61.021" style="fill:none;stroke:#808080;stroke-width:0.56693" />
<text x="491.55" y="-88.736" transform="scale(1, -1)"
	style="font-family:Liberation Serif;font-variant:normal;font-weight:normal;font-style:normal;font-size:8.4px;fill:#808080">0.986</text>
<text x="496.07" y="-80.336" transform="scale(1, -1)"
	style="font-family:Liberation Serif;font-variant:normal;font-weight:normal;font-style:normal;font-size:8.4px;fill:#808080">+/-</text>
<text x="495.4" y="-71.936" transform="scale(1, -1)"
	style="font-family:Liberation Serif;font-variant:normal;font-weight:normal;font-style:normal;font-size:8.4px;fill:#808080">1%</text>
<path d="M96.135,40.209L96.135,173.45L120.13,173.45L120.13,40.209Z" style="fill:#B2DF8A" />
<path d="M108.13,172.07L108.13,174.84" style="fill:none;stroke:#808080;stroke-width:0.56693" />
<path d="M102.13,172.07L114.13,172.07" style="fill:none;stroke:#808080;stroke-width:0.56693" />
<path d="M102.13,174.84L114.13,174.84" style="fill:none;stroke:#808080;stroke-width:0.56693" />
<text x="98.685" y="-202.55" transform="scale(1, -1)"
	style="font-family:Liberation Serif;font-variant:normal;font-weight:normal;font-style:normal;font-size:8.4px;fill:#808080">6.390</text>
<text x="103.2" y="-194.15" transform="scale(1, -1)"
	style="font-family:Liberation Serif;font-variant:normal;font-weight:normal;font-style:normal;font-size:8.4px;fill:#808080">+/-</text>
<text x="102.54" y="-185.75" transform="scale(1, -1)"
	style="font-family:Liberation Serif;font-variant:normal;font-weight:normal;font-style:normal;font-size:8.4px;fill:#808080">1%</text>
<path d="M306.07,40.209L306.07,61.676L330.07,61.676L330.07,40.209Z" style="fill:#B2DF8A" />
<path d="M318.07,60.049L318.07,63.303" style="fill:none;stroke:#808080;stroke-width:0.56693" />
<path d="M312.07,60.049L324.07,60.049" style="fill:none;stroke:#808080;stroke-width:0.56693" />
<path d="M312.07,63.303L324.07,63.303" style="fill:none;stroke:#808080;stroke-width:0.56693" />
<text x="308.62" y="-91.017" transform="scale(1, -1)"
	style="font-family:Liberation Serif;font-variant:normal;font-weight:normal;font-style:normal;font-size:8.4px;fill:#808080">1.030</text>
<text x="313.13" y="-82.617" transform="scale(1, -1)"
	style="font-family:Liberation Serif;font-variant:normal;font-weight:normal;font-style:normal;font-size:8.4px;fill:#808080">+/-</text>
<text x="312.47" y="-74.217" transform="scale(1, -1)"
	style="font-family:Liberation Serif;font-variant:normal;font-weight:normal;font-style:normal;font-size:8.4px;fill:#808080">8%</text>
<path d="M516,40.209L516,60.652L540,60.652L540,40.209Z" style="fill:#B2DF8A" />
<path d="M528,60.4L528,60.905" style="fill:none;stroke:#808080;stroke-width:0.56693" />
<path d="M522,60.4L534,60.4" style="fill:none;stroke:#808080;stroke-width:0.56693" />
<path d="M522,60.905L534,60.905" style="fill:none;stroke:#808080;stroke-width:0.56693" />
<text x="518.55" y="-88.62" transform="scale(1, -1)"
	style="font-family:Liberation Serif;font-variant:normal;font-weight:normal;font-style:normal;font-size:8.4px;fill:#808080">0.980</text>
<text x="523.07" y="-80.22" transform="scale(1, -1)"
	style="font-family:Liberation Serif;font-variant:normal;font-weight:normal;font-style:normal;font-size:8.4px;fill:#808080">+/-</text>
<text x="522.4" y="-71.82" transform="scale(1, -1)"
	style="font-family:Liberation Serif;font-variant:normal;font-weight:normal;font-style:normal;font-size:8.4px;fill:#808080">1%</text>
<path d="M123.13,40.209L123.13,256.51L147.13,256.51L147.13,40.209Z" style="fill:#33A02C" />
<path d="M135.13,255.1L135.13,257.91" style="fill:none;stroke:#808080;stroke-width:0.56693" />
<path d="M129.13,255.1L141.13,255.1" style="fill:none;stroke:#808080;stroke-width:0.56693" />
<path d="M129.13,257.91L141.13,257.91" style="fill:none;stroke:#808080;stroke-width:0.56693" />
<text x="125.68" y="-285.63" transform="scale(1, -1)"
	style="font-family:Liberation Serif;font-variant:normal;font-weight:normal;font-style:normal;font-size:8.4px;fill:#808080">10.37</text>
<text x="130.2" y="-277.23" transform="scale(1, -1)"
	style="font-family:Liberation Serif;font-variant:normal;font-weight:normal;font-style:normal;font-size:8.4px;fill:#808080">+/-</text>
<text x="129.54" y="-268.83" transform="scale(1, -1)"
	style="font-family:Liberation Serif;font-variant:normal;font-weight:normal;font-style:normal;font-size:8.4px;fill:#808080">1%</text>
<path d="M333.07,40.209L333.07,101.77L357.07,101.77L357.07,40.209Z" style="fill:#33A02C" />
<path d="M345.07,100.33L345.07,103.2" style="fill:none;stroke:#808080;stroke-width:0.56693" />
<path d="M339.07,100.33L351.07,100.33" style="fill:none;stroke:#808080;stroke-width:0.56693" />
<path d="M339.07,103.2L351.07,103.2" style="fill:none;stroke:#808080;stroke-width:0.56693" />
<text x="335.62" y="-130.91" transform="scale(1, -1)"
	style="font-family:Liberation Serif;font-variant:normal;font-weight:normal;font-style:normal;font-size:8.4px;fill:#808080">2.952</text>
<text x="340.13" y="-122.51" transform="scale(1, -1)"
	style="font-family:Liberation Serif;font-variant:normal;font-weight:normal;font-style:normal;font-size:8.4px;fill:#808080">+/-</text>
<text x="339.47" y="-114.11" transform="scale(1, -1)"
	style="font-family:Liberation Serif;font-variant:normal;font-weight:normal;font-style:normal;font-size:8.4px;fill:#808080">2%</text>
<path d="M543,40.209L543,80.261L567,80.261L567,40.209Z" style="fill:#33A02C" />
<path d="M555,79.982L555,80.54" style="fill:none;stroke:#808080;stroke-width:0.56693" />
<path d="M549,79.982L561,79.982" style="fill:none;stroke:#808080;stroke-width:0.56693" />
<path d="M549,80.54L561,80.54" style="fill:none;stroke:#808080;stroke-width:0.56693" />
<text x="545.55" y="-108.25" transform="scale(1, -1)"
	style="font-family:Liberation Serif;font-variant:normal;font-weight:normal;font-style:normal;font-size:8.4px;fill:#808080">1.921</text>
<text x="550.07" y="-99.855" transform="scale(1, -1)"
	style="font-family:Liberation Serif;font-variant:normal;font-weight:normal;font-style:normal;font-size:8.4px;fill:#808080">+/-</text>
<text x="549.4" y="-91.455" transform="scale(1, -1)"
	style="font-family:Liberation Serif;font-variant:normal;font-weight:normal;font-style:normal;font-size:8.4px;fill:#808080">1%</text>
<path d="M150.13,40.209L150.13,318.38L174.13,318.38L174.13,40.209Z" style="fill:#FB9A99" />
<path d="M162.13,316.99L162.13,319.78" style="fill:none;stroke:#808080;stroke-width:0.56693" />
<path d="M156.13,316.99L168.13,316.99" style="fill:none;stroke:#808080;stroke-width:0.56693" />
<path d="M156.13,319.78L168.13,319.78" style="fill:none;stroke:#808080;stroke-width:0.56693" />
<text x="152.68" y="-347.5" transform="scale(1, -1)"
	style="font-family:Liberation Serif;font-variant:normal;font-weight:normal;font-style:normal;font-size:8.4px;fill:#808080">13.34</text>
<text x="157.2" y="-339.1" transform="scale(1, -1)"
	style="font-family:Liberation Serif;font-variant:normal;font-weight:normal;font-style:normal;font-size:8.4px;fill:#808080">+/-</text>
<text x="156.54" y="-330.7" transform="scale(1, -1)"
	style="font-family:Liberation Serif;font-variant:normal;font-weight:normal;font-style:normal;font-size:8.4px;fill:#808080">1%</text>
<path d="M360.07,40.209L360.07,147.25L384.07,147.25L384.07,40.209Z" style="fill:#FB9A99" />
<path d="M372.07,145.78L372.07,148.71" style="fill:none;stroke:#808080;stroke-width:0.56693" />
<path d="M366.07,145.78L378.07,145.78" style="fill:none;stroke:#808080;stroke-width:0.56693" />
<path d="M366.07,148.71L378.07,148.71" style="fill:none;stroke:#808080;stroke-width:0.56693" />
<text x="362.62" y="-176.43" transform="scale(1, -1)"
	style="font-family:Liberation Serif;font-variant:normal;font-weight:normal;font-style:normal;font-size:8.4px;fill:#808080">5.134</text>
<text x="367.13" y="-168.03" transform="scale(1, -1)"
	style="font-family:Liberation Serif;font-variant:normal;font-weight:normal;font-style:normal;font-size:8.4px;fill:#808080">+/-</text>
<text x="366.47" y="-159.63" transform="scale(1, -1)"
	style="font-family:Liberation Serif;font-variant:normal;font-weight:normal;font-style:normal;font-size:8.4px;fill:#808080">1%</text>
<path d="M570,40.209L570,98.612L594,98.612L594,40.209Z" style="fill:#FB9A99" />
<path d="M582,98.4L582,98.824" style="fill:none;stroke:#808080;stroke-width:0.56693" />
<path d="M576,98.4L588,98.4" style="fill:none;stroke:#808080;stroke-width:0.56693" />
<path d="M576,98.824L588,98.824" style="fill:none;stroke:#808080;stroke-width:0.56693" />
<text x="572.55" y="-126.54" transform="scale(1, -1)"
	style="font-family:Liberation Serif;font-variant:normal;font-weight:normal;font-style:normal;font-size:8.4px;fill:#808080">2.801</text>
<text x="577.07" y="-118.14" transform="scale(1, -1)"
	style="font-family:Liberation Serif;font-variant:normal;font-weight:normal;font-style:normal;font-size:8.4px;fill:#808080">+/-</text>
<text x="576.4" y="-109.74" transform="scale(1, -1)"
	style="font-family:Liberation Serif;font-variant:normal;font-weight:normal;font-style:normal;font-size:8.4px;fill:#808080">0%</text>
<path d="M177.13,40.209L177.13,345.43L201.13,345.43L201.13,40.209Z" style="fill:#E31A1C" />
<path d="M189.13,344.08L189.13,346.78" style="fill:none;stroke:#808080;stroke-width:0.56693" />
<path d="M183.13,344.08L195.13,344.08" style="fill:none;stroke:#808080;stroke-width:0.56693" />
<path d="M183.13,346.78L195.13,346.78" style="fill:none;stroke:#808080;stroke-width:0.56693" />
<text x="179.68" y="-374.5" transform="scale(1, -1)"
	style="font-family:Liberation Serif;font-variant:normal;font-weight:normal;font-style:normal;font-size:8.4px;fill:#808080">14.64</text>
<text x="184.2" y="-366.1" transform="scale(1, -1)"
	style="font-family:Liberation Serif;font-variant:normal;font-weight:normal;font-style:normal;font-size:8.4px;fill:#808080">+/-</text>
<text x="183.54" y="-357.7" transform="scale(1, -1)"
	style="font-family:Liberation Serif;font-variant:normal;font-weight:normal;font-style:normal;font-size:8.4px;fill:#808080">0%</text>
<path d="M387.07,40.209L387.07,187.56L411.07,187.56L411.07,40.209Z" style="fill:#E31A1C" />
<path d="M399.07,186.13L399.07,188.99" style="fill:none;stroke:#808080;stroke-width:0.56693" />
<path d="M393.07,186.13L405.07,186.13" style="fill:none;stroke:#808080;stroke-width:0.56693" />
<path d="M393.07,188.99L405.07,188.99" style="fill:none;stroke:#808080;stroke-width:0.56693" />
<text x="389.62" y="-216.71" transform="scale(1, -1)"
	style="font-family:Liberation Serif;font-variant:normal;font-weight:normal;font-style:normal;font-size:8.4px;fill:#808080">7.067</text>
<text x="394.13" y="-208.31" transform="scale(1, -1)"
	style="font-family:Liberation Serif;font-variant:normal;font-weight:normal;font-style:normal;font-size:8.4px;fill:#808080">+/-</text>
<text x="393.47" y="-199.91" transform="scale(1, -1)"
	style="font-family:Liberation Serif;font-variant:normal;font-weight:normal;font-style:normal;font-size:8.4px;fill:#808080">1%</text>
<path d="M597,40.209L597,116.06L621,116.06L621,40.209Z" style="fill:#E31A1C" />
<path d="M609,115.78L609,116.34" style="fill:none;stroke:#808080;stroke-width:0.56693" />
<path d="M603,115.78L615,115.78" style="fill:none;stroke:#808080;stroke-width:0.56693" />
<path d="M603,116.34L615,116.34" style="fill:none;stroke:#808080;stroke-width:0.56693" />
<text x="599.55" y="-144.06" transform="scale(1, -1)"
	style="font-family:Liberation Serif;font-variant:normal;font-weight:normal;font-style:normal;font-size:8.4px;fill:#808080">3.638</text>
<text x="604.07" y="-135.66" transform="scale(1, -1)"
	style="font-family:Liberation Serif;font-variant:normal;font-weight:normal;font-style:normal;font-size:8.4px;fill:#808080">+/-</text>
<text x="603.4" y="-127.26" transform="scale(1, -1)"
	style="font-family:Liberation Serif;font-variant:normal;font-weight:normal;font-style:normal;font-size:8.4px;fill:#808080">0%</text>
<path d="M204.13,40.209L204.13,220.04L228.13,220.04L228.13,40.209Z" style="fill:#FDBF6F" />
<path d="M216.13,218.64L216.13,221.44" style="fill:none;stroke:#808080;stroke-width:0.56693" />
<path d="M210.13,218.64L222.13,218.64" style="fill:none;stroke:#808080;stroke-width:0.56693" />
<path d="M210.13,221.44L222.13,221.44" style="fill:none;stroke:#808080;stroke-width:0.56693" />
<text x="206.68" y="-249.16" transform="scale(1, -1)"
	style="font-family:Liberation Serif;font-variant:normal;font-weight:normal;font-style:normal;font-size:8.4px;fill:#808080">8.625</text>
<text x="211.2" y="-240.76" transform="scale(1, -1)"
	style="font-family:Liberation Serif;font-variant:normal;font-weight:normal;font-style:normal;font-size:8.4px;fill:#808080">+/-</text>
<text x="210.54" y="-232.36" transform="scale(1, -1)"
	style="font-family:Liberation Serif;font-variant:normal;font-weight:normal;font-style:normal;font-size:8.4px;fill:#808080">1%</text>
<path d="M414.07,40.209L414.07,354.16L438.07,354.16L438.07,40.209Z" style="fill:#FDBF6F" />
<path d="M426.07,352.69L426.07,355.63" style="fill:none;stroke:#808080;stroke-width:0.56693" />
<path d="M420.07,352.69L432.07,352.69" style="fill:none;stroke:#808080;stroke-width:0.56693" />
<path d="M420.07,355.63L432.07,355.63" style="fill:none;stroke:#808080;stroke-width:0.56693" />
<text x="416.62" y="-383.34" transform="scale(1, -1)"
	style="font-family:Liberation Serif;font-variant:normal;font-weight:normal;font-style:normal;font-size:8.4px;fill:#808080">15.06</text>
<text x="421.13" y="-374.94" transform="scale(1, -1)"
	style="font-family:Liberation Serif;font-variant:normal;font-weight:normal;font-style:normal;font-size:8.4px;fill:#808080">+/-</text>
<text x="420.47" y="-366.54" transform="scale(1, -1)"
	style="font-family:Liberation Serif;font-variant:normal;font-weight:normal;font-style:normal;font-size:8.4px;fill:#808080">0%</text>
<path d="M624,40.209L624,175.92L648,175.92L648,40.209Z" style="fill:#FDBF6F" />
<path d="M636,175.64L636,176.2" style="fill:none;stroke:#808080;stroke-width:0.56693" />
<path d="M630,175.64L642,175.64" style="fill:none;stroke:#808080;stroke-width:0.56693" />
<path d="M630,176.2L642,176.2" style="fill:none;stroke:#808080;stroke-width:0.56693" />
<text x="626.55" y="-203.91" transform="scale(1, -1)"
	style="font-family:Liberation Serif;font-variant:normal;font-weight:normal;font-style:normal;font-size:8.4px;fill:#808080">6.509</text>
<text x="631.07" y="-195.51" transform="scale(1, -1)"
	style="font-family:Liberation Serif;font-variant:normal;font-weight:normal;font-style:normal;font-size:8.4px;fill:#808080">+/-</text>
<text x="630.4" y="-187.11" transform="scale(1, -1)"
	style="font-family:Liberation Serif;font-variant:normal;font-weight:normal;font-style:normal;font-size:8.4px;fill:#808080">0%</text>
<path d="M42.135,405.93L42.135,416.12L62.135,416.12L62.135,405.93Z" style="fill:#A6CEE3" />
<text x="65.135" y="-408.54" transform="scale(1, -1)"
	style="font-family:Liberation Serif;font-variant:normal;font-weight:normal;font-style:normal;font-size:12px;fill:#808080">Direct Call</text>
<path d="M42.135,392.91L42.135,403.1L62.135,403.1L62.135,392.91Z" style="fill:#1F78B4" />
<text x="65.135" y="-395.52" transform="scale(1, -1)"
	style="font-family:Liberation Serif;font-variant:normal;font-weight:normal;font-style:normal;font-size:12px;fill:#808080">Gather Only</text>
<path d="M42.135,379.9L42.135,390.08L62.135,390.08L62.135,379.9Z" style="fill:#B2DF8A" />
<text x="65.135" y="-382.5" transform="scale(1, -1)"
	style="font-family:Liberation Serif;font-variant:normal;font-weight:normal;font-style:normal;font-size:12px;fill:#808080">Combine (limit 1)</text>
<path d="M42.135,366.88L42.135,377.06L62.135,377.06L62.135,366.88Z" style="fill:#33A02C" />
<text x="65.135" y="-369.48" transform="scale(1, -1)"
	style="font-family:Liberation Serif;font-variant:normal;font-weight:normal;font-style:normal;font-size:12px;fill:#808080">Combine (limit 2)</text>
<path d="M42.135,353.86L42.135,364.04L62.135,364.04L62.135,353.86Z" style="fill:#FB9A99" />
<text x="65.135" y="-356.46" transform="scale(1, -1)"
	style="font-family:Liberation Serif;font-variant:normal;font-weight:normal;font-style:normal;font-size:12px;fill:#808080">Combine (limit 3)</text>
<path d="M42.135,340.84L42.135,351.02L62.135,351.02L62.135,340.84Z" style="fill:#E31A1C" />
<text x="65.135" y="-343.44" transform="scale(1, -1)"
	style="font-family:Liberation Serif;font-variant:normal;font-weight:normal;font-style:normal;font-size:12px;fill:#808080">Combine (limit 4)</text>
<path d="M42.135,327.82L42.135,338.01L62.135,338.01L62.135,327.82Z" style="fill:#FDBF6F" />
<text x="65.135" y="-330.43" transform="scale(1, -1)"
	style="font-family:Liberation Serif;font-variant:normal;font-weight:normal;font-style:normal;font-size:12px;fill:#808080">Combine (limit 8)</text>
</g>
</svg>
