<?xml version="1.0"?>
<!-- Generated by SVGo and Plotinum VG -->
<svg width="648pt" height="432pt" viewBox="0 0 648 432"
	xmlns="http://www.w3.org/2000/svg"
	xmlns:xlink="http://www.w3.org/1999/xlink">
<g transform="scale(1, -1) translate(0, -432)">
<path d="M0,0L648,0L648,432L0,432Z" style="fill:#-8000000000000000-8000000000000000-8000000000000000;fill-opacity:0" />
<text x="215.04" y="-422.61" transform="scale(1, -1)"
	style="font-family:Liberation Serif;font-variant:normal;font-weight:normal;font-style:normal;font-size:12px;fill:#808080">Aggregation Workload Throughput (Waiting)</text>
<text x="233.32" y="-3.9023" transform="scale(1, -1)"
	style="font-family:Liberation Serif;font-variant:normal;font-weight:normal;font-style:normal;font-size:12px;fill:#808080">Aggregation Workload Duration @ Flush Period</text>
<text x="121.36" y="-16.541" transform="scale(1, -1)"
	style="font-family:Liberation Serif;font-variant:normal;font-weight:normal;font-style:normal;font-size:10px;fill:#808080">1ms @ 1ms</text>
<text x="323.79" y="-16.541" transform="scale(1, -1)"
	style="font-family:Liberation Serif;font-variant:normal;font-weight:normal;font-style:normal;font-size:10px;fill:#808080">1ms @ 10ms</text>
<text x="526.23" y="-16.541" transform="scale(1, -1)"
	style="font-family:Liberation Serif;font-variant:normal;font-weight:normal;font-style:normal;font-size:10px;fill:#808080">1ms @ 100ms</text>
<path d="M145.13,24.363L145.13,32.363" style="fill:none;stroke:#808080;stroke-width:0.5" />
<path d="M350.07,24.363L350.07,32.363" style="fill:none;stroke:#808080;stroke-width:0.5" />
<path d="M555,24.363L555,32.363" style="fill:none;stroke:#808080;stroke-width:0.5" />
<path d="M145.13,32.363L555,32.363" style="fill:none;stroke:#808080;stroke-width:0.5" />
<g transform="rotate(90)">
<text x="193.55" y="9.3867" transform="scale(1, -1)"
	style="font-family:Liberation Serif;font-variant:normal;font-weight:normal;font-style:normal;font-size:12px;fill:#808080">Tasks / Second</text>
</g>
<text x="30.885" y="-37.924" transform="scale(1, -1)"
	style="font-family:Liberation Serif;font-variant:normal;font-weight:normal;font-style:normal;font-size:10px;fill:#808080">0</text>
<text x="15.885" y="-198.31" transform="scale(1, -1)"
	style="font-family:Liberation Serif;font-variant:normal;font-weight:normal;font-style:normal;font-size:10px;fill:#808080">3000</text>
<text x="15.885" y="-358.69" transform="scale(1, -1)"
	style="font-family:Liberation Serif;font-variant:normal;font-weight:normal;font-style:normal;font-size:10px;fill:#808080">6000</text>
<path d="M38.385,40.209L46.385,40.209" style="fill:none;stroke:#808080;stroke-width:0.5" />
<path d="M38.385,200.59L46.385,200.59" style="fill:none;stroke:#808080;stroke-width:0.5" />
<path d="M38.385,360.97L46.385,360.97" style="fill:none;stroke:#808080;stroke-width:0.5" />
<path d="M42.385,93.67L46.385,93.67" style="fill:none;stroke:#808080;stroke-width:0.5" />
<path d="M42.385,147.13L46.385,147.13" style="fill:none;stroke:#808080;stroke-width:0.5" />
<path d="M42.385,254.05L46.385,254.05" style="fill:none;stroke:#808080;stroke-width:0.5" />
<path d="M42.385,307.51L46.385,307.51" style="fill:none;stroke:#808080;stroke-width:0.5" />
<path d="M42.385,414.43L46.385,414.43" style="fill:none;stroke:#808080;stroke-width:0.5" />
<path d="M46.385,40.209L46.385,418.71" style="fill:none;stroke:#808080;stroke-width:0.5" />
<path d="M52.135,40.209L52.135,88.286L76.135,88.286L76.135,40.209Z" style="fill:#A6CEE3" />
<path d="M64.135,88.062L64.135,88.89" style="fill:none;stroke:#808080;stroke-width:0.56693" />
<path d="M58.135,88.062L70.135,88.062" style="fill:none;stroke:#808080;stroke-width:0.56693" />
<path d="M58.135,88.89L70.135,88.89" style="fill:none;stroke:#808080;stroke-width:0.56693" />
<text x="54.685" y="-116.6" transform="scale(1, -1)"
	style="font-family:Liberation Serif;font-variant:normal;font-weight:normal;font-style:normal;font-size:8.4px;fill:#808080">899.3</text>
<text x="56.167" y="-108.2" transform="scale(1, -1)"
	style="font-family:Liberation Serif;font-variant:normal;font-weight:normal;font-style:normal;font-size:8.4px;fill:#808080">+1%</text>
<text x="57.138" y="-99.805" transform="scale(1, -1)"
	style="font-family:Liberation Serif;font-variant:normal;font-weight:normal;font-style:normal;font-size:8.4px;fill:#808080">-0%</text>
<path d="M257.07,40.209L257.07,88.286L281.07,88.286L281.07,40.209Z" style="fill:#A6CEE3" />
<path d="M269.07,88.062L269.07,88.89" style="fill:none;stroke:#808080;stroke-width:0.56693" />
<path d="M263.07,88.062L275.07,88.062" style="fill:none;stroke:#808080;stroke-width:0.56693" />
<path d="M263.07,88.89L275.07,88.89" style="fill:none;stroke:#808080;stroke-width:0.56693" />
<text x="259.62" y="-116.6" transform="scale(1, -1)"
	style="font-family:Liberation Serif;font-variant:normal;font-weight:normal;font-style:normal;font-size:8.4px;fill:#808080">899.3</text>
<text x="261.1" y="-108.2" transform="scale(1, -1)"
	style="font-family:Liberation Serif;font-variant:normal;font-weight:normal;font-style:normal;font-size:8.4px;fill:#808080">+1%</text>
<text x="262.07" y="-99.805" transform="scale(1, -1)"
	style="font-family:Liberation Serif;font-variant:normal;font-weight:normal;font-style:normal;font-size:8.4px;fill:#808080">-0%</text>
<path d="M462,40.209L462,88.286L486,88.286L486,40.209Z" style="fill:#A6CEE3" />
<path d="M474,88.062L474,88.89" style="fill:none;stroke:#808080;stroke-width:0.56693" />
<path d="M468,88.062L480,88.062" style="fill:none;stroke:#808080;stroke-width:0.56693" />
<path d="M468,88.89L480,88.89" style="fill:none;stroke:#808080;stroke-width:0.56693" />
<text x="464.55" y="-116.6" transform="scale(1, -1)"
	style="font-family:Liberation Serif;font-variant:normal;font-weight:normal;font-style:normal;font-size:8.4px;fill:#808080">899.3</text>
<text x="466.03" y="-108.2" transform="scale(1, -1)"
	style="font-family:Liberation Serif;font-variant:normal;font-weight:normal;font-style:normal;font-size:8.4px;fill:#808080">+1%</text>
<text x="467" y="-99.805" transform="scale(1, -1)"
	style="font-family:Liberation Serif;font-variant:normal;font-weight:normal;font-style:normal;font-size:8.4px;fill:#808080">-0%</text>
<path d="M79.135,40.209L79.135,87.613L103.13,87.613L103.13,40.209Z" style="fill:#1F78B4" />
<path d="M91.135,87.244L91.135,88.158" style="fill:none;stroke:#808080;stroke-width:0.56693" />
<path d="M85.135,87.244L97.135,87.244" style="fill:none;stroke:#808080;stroke-width:0.56693" />
<path d="M85.135,88.158L97.135,88.158" style="fill:none;stroke:#808080;stroke-width:0.56693" />
<text x="81.685" y="-115.87" transform="scale(1, -1)"
	style="font-family:Liberation Serif;font-variant:normal;font-weight:normal;font-style:normal;font-size:8.4px;fill:#808080">886.7</text>
<text x="86.201" y="-107.47" transform="scale(1, -1)"
	style="font-family:Liberation Serif;font-variant:normal;font-weight:normal;font-style:normal;font-size:8.4px;fill:#808080">+/-</text>
<text x="85.536" y="-99.073" transform="scale(1, -1)"
	style="font-family:Liberation Serif;font-variant:normal;font-weight:normal;font-style:normal;font-size:8.4px;fill:#808080">1%</text>
<path d="M284.07,40.209L284.07,87.613L308.07,87.613L308.07,40.209Z" style="fill:#1F78B4" />
<path d="M296.07,87.244L296.07,88.158" style="fill:none;stroke:#808080;stroke-width:0.56693" />
<path d="M290.07,87.244L302.07,87.244" style="fill:none;stroke:#808080;stroke-width:0.56693" />
<path d="M290.07,88.158L302.07,88.158" style="fill:none;stroke:#808080;stroke-width:0.56693" />
<text x="286.62" y="-115.87" transform="scale(1, -1)"
	style="font-family:Liberation Serif;font-variant:normal;font-weight:normal;font-style:normal;font-size:8.4px;fill:#808080">886.7</text>
<text x="291.13" y="-107.47" transform="scale(1, -1)"
	style="font-family:Liberation Serif;font-variant:normal;font-weight:normal;font-style:normal;font-size:8.4px;fill:#808080">+/-</text>
<text x="290.47" y="-99.073" transform="scale(1, -1)"
	style="font-family:Liberation Serif;font-variant:normal;font-weight:normal;font-style:normal;font-size:8.4px;fill:#808080">1%</text>
<path d="M489,40.209L489,87.613L513,87.613L513,40.209Z" style="fill:#1F78B4" />
<path d="M501,87.244L501,88.158" style="fill:none;stroke:#808080;stroke-width:0.56693" />
<path d="M495,87.244L507,87.244" style="fill:none;stroke:#808080;stroke-width:0.56693" />
<path d="M495,88.158L507,88.158" style="fill:none;stroke:#808080;stroke-width:0.56693" />
<text x="491.55" y="-115.87" transform="scale(1, -1)"
	style="font-family:Liberation Serif;font-variant:normal;font-weight:normal;font-style:normal;font-size:8.4px;fill:#808080">886.7</text>
<text x="496.07" y="-107.47" transform="scale(1, -1)"
	style="font-family:Liberation Serif;font-variant:normal;font-weight:normal;font-style:normal;font-size:8.4px;fill:#808080">+/-</text>
<text x="495.4" y="-99.073" transform="scale(1, -1)"
	style="font-family:Liberation Serif;font-variant:normal;font-weight:normal;font-style:normal;font-size:8.4px;fill:#808080">1%</text>
<path d="M106.13,40.209L106.13,85.736L130.13,85.736L130.13,40.209Z" style="fill:#B2DF8A" />
<path d="M118.13,85.533L118.13,85.982" style="fill:none;stroke:#808080;stroke-width:0.56693" />
<path d="M112.13,85.533L124.13,85.533" style="fill:none;stroke:#808080;stroke-width:0.56693" />
<path d="M112.13,85.982L124.13,85.982" style="fill:none;stroke:#808080;stroke-width:0.56693" />
<text x="108.68" y="-113.7" transform="scale(1, -1)"
	style="font-family:Liberation Serif;font-variant:normal;font-weight:normal;font-style:normal;font-size:8.4px;fill:#808080">851.6</text>
<text x="110.17" y="-105.3" transform="scale(1, -1)"
	style="font-family:Liberation Serif;font-variant:normal;font-weight:normal;font-style:normal;font-size:8.4px;fill:#808080">+1%</text>
<text x="111.14" y="-96.897" transform="scale(1, -1)"
	style="font-family:Liberation Serif;font-variant:normal;font-weight:normal;font-style:normal;font-size:8.4px;fill:#808080">-0%</text>
<path d="M311.07,40.209L311.07,86.685L335.07,86.685L335.07,40.209Z" style="fill:#B2DF8A" />
<path d="M323.07,86.335L323.07,86.955" style="fill:none;stroke:#808080;stroke-width:0.56693" />
<path d="M317.07,86.335L329.07,86.335" style="fill:none;stroke:#808080;stroke-width:0.56693" />
<path d="M317.07,86.955L329.07,86.955" style="fill:none;stroke:#808080;stroke-width:0.56693" />
<text x="313.62" y="-114.67" transform="scale(1, -1)"
	style="font-family:Liberation Serif;font-variant:normal;font-weight:normal;font-style:normal;font-size:8.4px;fill:#808080">869.3</text>
<text x="318.13" y="-106.27" transform="scale(1, -1)"
	style="font-family:Liberation Serif;font-variant:normal;font-weight:normal;font-style:normal;font-size:8.4px;fill:#808080">+/-</text>
<text x="317.47" y="-97.87" transform="scale(1, -1)"
	style="font-family:Liberation Serif;font-variant:normal;font-weight:normal;font-style:normal;font-size:8.4px;fill:#808080">1%</text>
<path d="M516,40.209L516,87.348L540,87.348L540,40.209Z" style="fill:#B2DF8A" />
<path d="M528,87.025L528,87.955" style="fill:none;stroke:#808080;stroke-width:0.56693" />
<path d="M522,87.025L534,87.025" style="fill:none;stroke:#808080;stroke-width:0.56693" />
<path d="M522,87.955L534,87.955" style="fill:none;stroke:#808080;stroke-width:0.56693" />
<text x="518.55" y="-115.67" transform="scale(1, -1)"
	style="font-family:Liberation Serif;font-variant:normal;font-weight:normal;font-style:normal;font-size:8.4px;fill:#808080">881.8</text>
<text x="523.07" y="-107.27" transform="scale(1, -1)"
	style="font-family:Liberation Serif;font-variant:normal;font-weight:normal;font-style:normal;font-size:8.4px;fill:#808080">+/-</text>
<text x="522.4" y="-98.869" transform="scale(1, -1)"
	style="font-family:Liberation Serif;font-variant:normal;font-weight:normal;font-style:normal;font-size:8.4px;fill:#808080">1%</text>
<path d="M133.13,40.209L133.13,85.643L157.13,85.643L157.13,40.209Z" style="fill:#33A02C" />
<path d="M145.13,85.362L145.13,85.774" style="fill:none;stroke:#808080;stroke-width:0.56693" />
<path d="M139.13,85.362L151.13,85.362" style="fill:none;stroke:#808080;stroke-width:0.56693" />
<path d="M139.13,85.774L151.13,85.774" style="fill:none;stroke:#808080;stroke-width:0.56693" />
<text x="135.68" y="-113.49" transform="scale(1, -1)"
	style="font-family:Liberation Serif;font-variant:normal;font-weight:normal;font-style:normal;font-size:8.4px;fill:#808080">849.9</text>
<text x="137.17" y="-105.09" transform="scale(1, -1)"
	style="font-family:Liberation Serif;font-variant:normal;font-weight:normal;font-style:normal;font-size:8.4px;fill:#808080">+0%</text>
<text x="138.14" y="-96.688" transform="scale(1, -1)"
	style="font-family:Liberation Serif;font-variant:normal;font-weight:normal;font-style:normal;font-size:8.4px;fill:#808080">-1%</text>
<path d="M338.07,40.209L338.07,129.89L362.07,129.89L362.07,40.209Z" style="fill:#33A02C" />
<path d="M350.07,128.79L350.07,131.04" style="fill:none;stroke:#808080;stroke-width:0.56693" />
<path d="M344.07,128.79L356.07,128.79" style="fill:none;stroke:#808080;stroke-width:0.56693" />
<path d="M344.07,131.04L356.07,131.04" style="fill:none;stroke:#808080;stroke-width:0.56693" />
<text x="341.67" y="-158.75" transform="scale(1, -1)"
	style="font-family:Liberation Serif;font-variant:normal;font-weight:normal;font-style:normal;font-size:8.4px;fill:#808080">1678</text>
<text x="345.13" y="-150.35" transform="scale(1, -1)"
	style="font-family:Liberation Serif;font-variant:normal;font-weight:normal;font-style:normal;font-size:8.4px;fill:#808080">+/-</text>
<text x="344.47" y="-141.95" transform="scale(1, -1)"
	style="font-family:Liberation Serif;font-variant:normal;font-weight:normal;font-style:normal;font-size:8.4px;fill:#808080">1%</text>
<path d="M543,40.209L543,132.56L567,132.56L567,40.209Z" style="fill:#33A02C" />
<path d="M555,131.47L555,133.5" style="fill:none;stroke:#808080;stroke-width:0.56693" />
<path d="M549,131.47L561,131.47" style="fill:none;stroke:#808080;stroke-width:0.56693" />
<path d="M549,133.5L561,133.5" style="fill:none;stroke:#808080;stroke-width:0.56693" />
<text x="546.6" y="-161.21" transform="scale(1, -1)"
	style="font-family:Liberation Serif;font-variant:normal;font-weight:normal;font-style:normal;font-size:8.4px;fill:#808080">1728</text>
<text x="550.07" y="-152.81" transform="scale(1, -1)"
	style="font-family:Liberation Serif;font-variant:normal;font-weight:normal;font-style:normal;font-size:8.4px;fill:#808080">+/-</text>
<text x="549.4" y="-144.41" transform="scale(1, -1)"
	style="font-family:Liberation Serif;font-variant:normal;font-weight:normal;font-style:normal;font-size:8.4px;fill:#808080">1%</text>
<path d="M160.13,40.209L160.13,85.621L184.13,85.621L184.13,40.209Z" style="fill:#FB9A99" />
<path d="M172.13,85.346L172.13,85.875" style="fill:none;stroke:#808080;stroke-width:0.56693" />
<path d="M166.13,85.346L178.13,85.346" style="fill:none;stroke:#808080;stroke-width:0.56693" />
<path d="M166.13,85.875L178.13,85.875" style="fill:none;stroke:#808080;stroke-width:0.56693" />
<text x="162.68" y="-113.59" transform="scale(1, -1)"
	style="font-family:Liberation Serif;font-variant:normal;font-weight:normal;font-style:normal;font-size:8.4px;fill:#808080">849.5</text>
<text x="167.2" y="-105.19" transform="scale(1, -1)"
	style="font-family:Liberation Serif;font-variant:normal;font-weight:normal;font-style:normal;font-size:8.4px;fill:#808080">+/-</text>
<text x="166.54" y="-96.79" transform="scale(1, -1)"
	style="font-family:Liberation Serif;font-variant:normal;font-weight:normal;font-style:normal;font-size:8.4px;fill:#808080">1%</text>
<path d="M365.07,40.209L365.07,169.93L389.07,169.93L389.07,40.209Z" style="fill:#FB9A99" />
<path d="M377.07,167.12L377.07,171.13" style="fill:none;stroke:#808080;stroke-width:0.56693" />
<path d="M371.07,167.12L383.07,167.12" style="fill:none;stroke:#808080;stroke-width:0.56693" />
<path d="M371.07,171.13L383.07,171.13" style="fill:none;stroke:#808080;stroke-width:0.56693" />
<text x="368.67" y="-198.85" transform="scale(1, -1)"
	style="font-family:Liberation Serif;font-variant:normal;font-weight:normal;font-style:normal;font-size:8.4px;fill:#808080">2426</text>
<text x="369.1" y="-190.45" transform="scale(1, -1)"
	style="font-family:Liberation Serif;font-variant:normal;font-weight:normal;font-style:normal;font-size:8.4px;fill:#808080">+1%</text>
<text x="370.07" y="-182.05" transform="scale(1, -1)"
	style="font-family:Liberation Serif;font-variant:normal;font-weight:normal;font-style:normal;font-size:8.4px;fill:#808080">-2%</text>
<path d="M570,40.209L570,174.88L594,174.88L594,40.209Z" style="fill:#FB9A99" />
<path d="M582,173.7L582,175.57" style="fill:none;stroke:#808080;stroke-width:0.56693" />
<path d="M576,173.7L588,173.7" style="fill:none;stroke:#808080;stroke-width:0.56693" />
<path d="M576,175.57L588,175.57" style="fill:none;stroke:#808080;stroke-width:0.56693" />
<text x="573.6" y="-203.29" transform="scale(1, -1)"
	style="font-family:Liberation Serif;font-variant:normal;font-weight:normal;font-style:normal;font-size:8.4px;fill:#808080">2519</text>
<text x="577.07" y="-194.89" transform="scale(1, -1)"
	style="font-family:Liberation Serif;font-variant:normal;font-weight:normal;font-style:normal;font-size:8.4px;fill:#808080">+/-</text>
<text x="576.4" y="-186.49" transform="scale(1, -1)"
	style="font-family:Liberation Serif;font-variant:normal;font-weight:normal;font-style:normal;font-size:8.4px;fill:#808080">1%</text>
<path d="M187.13,40.209L187.13,85.472L211.13,85.472L211.13,40.209Z" style="fill:#E31A1C" />
<path d="M199.13,85.202L199.13,85.747" style="fill:none;stroke:#808080;stroke-width:0.56693" />
<path d="M193.13,85.202L205.13,85.202" style="fill:none;stroke:#808080;stroke-width:0.56693" />
<path d="M193.13,85.747L205.13,85.747" style="fill:none;stroke:#808080;stroke-width:0.56693" />
<text x="189.68" y="-113.46" transform="scale(1, -1)"
	style="font-family:Liberation Serif;font-variant:normal;font-weight:normal;font-style:normal;font-size:8.4px;fill:#808080">846.7</text>
<text x="194.2" y="-105.06" transform="scale(1, -1)"
	style="font-family:Liberation Serif;font-variant:normal;font-weight:normal;font-style:normal;font-size:8.4px;fill:#808080">+/-</text>
<text x="193.54" y="-96.661" transform="scale(1, -1)"
	style="font-family:Liberation Serif;font-variant:normal;font-weight:normal;font-style:normal;font-size:8.4px;fill:#808080">1%</text>
<path d="M392.07,40.209L392.07,204.89L416.07,204.89L416.07,40.209Z" style="fill:#E31A1C" />
<path d="M404.07,203.37L404.07,206.53" style="fill:none;stroke:#808080;stroke-width:0.56693" />
<path d="M398.07,203.37L410.07,203.37" style="fill:none;stroke:#808080;stroke-width:0.56693" />
<path d="M398.07,206.53L410.07,206.53" style="fill:none;stroke:#808080;stroke-width:0.56693" />
<text x="395.67" y="-234.24" transform="scale(1, -1)"
	style="font-family:Liberation Serif;font-variant:normal;font-weight:normal;font-style:normal;font-size:8.4px;fill:#808080">3080</text>
<text x="399.13" y="-225.84" transform="scale(1, -1)"
	style="font-family:Liberation Serif;font-variant:normal;font-weight:normal;font-style:normal;font-size:8.4px;fill:#808080">+/-</text>
<text x="398.47" y="-217.44" transform="scale(1, -1)"
	style="font-family:Liberation Serif;font-variant:normal;font-weight:normal;font-style:normal;font-size:8.4px;fill:#808080">1%</text>
<path d="M597,40.209L597,215.11L621,215.11L621,40.209Z" style="fill:#E31A1C" />
<path d="M609,213.48L609,217.43" style="fill:none;stroke:#808080;stroke-width:0.56693" />
<path d="M603,213.48L615,213.48" style="fill:none;stroke:#808080;stroke-width:0.56693" />
<path d="M603,217.43L615,217.43" style="fill:none;stroke:#808080;stroke-width:0.56693" />
<text x="600.6" y="-245.15" transform="scale(1, -1)"
	style="font-family:Liberation Serif;font-variant:normal;font-weight:normal;font-style:normal;font-size:8.4px;fill:#808080">3272</text>
<text x="604.07" y="-236.75" transform="scale(1, -1)"
	style="font-family:Liberation Serif;font-variant:normal;font-weight:normal;font-style:normal;font-size:8.4px;fill:#808080">+/-</text>
<text x="603.4" y="-228.35" transform="scale(1, -1)"
	style="font-family:Liberation Serif;font-variant:normal;font-weight:normal;font-style:normal;font-size:8.4px;fill:#808080">1%</text>
<path d="M214.13,40.209L214.13,85.573L238.13,85.573L238.13,40.209Z" style="fill:#FDBF6F" />
<path d="M226.13,85.373L226.13,85.971" style="fill:none;stroke:#808080;stroke-width:0.56693" />
<path d="M220.13,85.373L232.13,85.373" style="fill:none;stroke:#808080;stroke-width:0.56693" />
<path d="M220.13,85.971L232.13,85.971" style="fill:none;stroke:#808080;stroke-width:0.56693" />
<text x="216.68" y="-113.69" transform="scale(1, -1)"
	style="font-family:Liberation Serif;font-variant:normal;font-weight:normal;font-style:normal;font-size:8.4px;fill:#808080">848.5</text>
<text x="218.17" y="-105.29" transform="scale(1, -1)"
	style="font-family:Liberation Serif;font-variant:normal;font-weight:normal;font-style:normal;font-size:8.4px;fill:#808080">+1%</text>
<text x="219.14" y="-96.886" transform="scale(1, -1)"
	style="font-family:Liberation Serif;font-variant:normal;font-weight:normal;font-style:normal;font-size:8.4px;fill:#808080">-0%</text>
<path d="M419.07,40.209L419.07,222.11L443.07,222.11L443.07,40.209Z" style="fill:#FDBF6F" />
<path d="M431.07,220.16L431.07,228.02" style="fill:none;stroke:#808080;stroke-width:0.56693" />
<path d="M425.07,220.16L437.07,220.16" style="fill:none;stroke:#808080;stroke-width:0.56693" />
<path d="M425.07,228.02L437.07,228.02" style="fill:none;stroke:#808080;stroke-width:0.56693" />
<text x="422.67" y="-255.73" transform="scale(1, -1)"
	style="font-family:Liberation Serif;font-variant:normal;font-weight:normal;font-style:normal;font-size:8.4px;fill:#808080">3402</text>
<text x="423.1" y="-247.33" transform="scale(1, -1)"
	style="font-family:Liberation Serif;font-variant:normal;font-weight:normal;font-style:normal;font-size:8.4px;fill:#808080">+3%</text>
<text x="424.07" y="-238.93" transform="scale(1, -1)"
	style="font-family:Liberation Serif;font-variant:normal;font-weight:normal;font-style:normal;font-size:8.4px;fill:#808080">-1%</text>
<path d="M624,40.209L624,353.14L648,353.14L648,40.209Z" style="fill:#FDBF6F" />
<path d="M636,348.46L636,355.63" style="fill:none;stroke:#808080;stroke-width:0.56693" />
<path d="M630,348.46L642,348.46" style="fill:none;stroke:#808080;stroke-width:0.56693" />
<path d="M630,355.63L642,355.63" style="fill:none;stroke:#808080;stroke-width:0.56693" />
<text x="627.6" y="-383.34" transform="scale(1, -1)"
	style="font-family:Liberation Serif;font-variant:normal;font-weight:normal;font-style:normal;font-size:8.4px;fill:#808080">5854</text>
<text x="631.07" y="-374.94" transform="scale(1, -1)"
	style="font-family:Liberation Serif;font-variant:normal;font-weight:normal;font-style:normal;font-size:8.4px;fill:#808080">+/-</text>
<text x="630.4" y="-366.54" transform="scale(1, -1)"
	style="font-family:Liberation Serif;font-variant:normal;font-weight:normal;font-style:normal;font-size:8.4px;fill:#808080">1%</text>
<path d="M52.135,405.93L52.135,416.12L72.135,416.12L72.135,405.93Z" style="fill:#A6CEE3" />
<text x="75.135" y="-408.54" transform="scale(1, -1)"
	style="font-family:Liberation Serif;font-variant:normal;font-weight:normal;font-style:normal;font-size:12px;fill:#808080">Direct Call</text>
<path d="M52.135,392.91L52.135,403.1L72.135,403.1L72.135,392.91Z" style="fill:#1F78B4" />
<text x="75.135" y="-395.52" transform="scale(1, -1)"
	style="font-family:Liberation Serif;font-variant:normal;font-weight:normal;font-style:normal;font-size:12px;fill:#808080">Gather Only</text>
<path d="M52.135,379.9L52.135,390.08L72.135,390.08L72.135,379.9Z" style="fill:#B2DF8A" />
<text x="75.135" y="-382.5" transform="scale(1, -1)"
	style="font-family:Liberation Serif;font-variant:normal;font-weight:normal;font-style:normal;font-size:12px;fill:#808080">Combine (limit 1)</text>
<path d="M52.135,366.88L52.135,377.06L72.135,377.06L72.135,366.88Z" style="fill:#33A02C" />
<text x="75.135" y="-369.48" transform="scale(1, -1)"
	style="font-family:Liberation Serif;font-variant:normal;font-weight:normal;font-style:normal;font-size:12px;fill:#808080">Combine (limit 2)</text>
<path d="M52.135,353.86L52.135,364.04L72.135,364.04L72.135,353.86Z" style="fill:#FB9A99" />
<text x="75.135" y="-356.46" transform="scale(1, -1)"
	style="font-family:Liberation Serif;font-variant:normal;font-weight:normal;font-style:normal;font-size:12px;fill:#808080">Combine (limit 3)</text>
<path d="M52.135,340.84L52.135,351.02L72.135,351.02L72.135,340.84Z" style="fill:#E31A1C" />
<text x="75.135" y="-343.44" transform="scale(1, -1)"
	style="font-family:Liberation Serif;font-variant:normal;font-weight:normal;font-style:normal;font-size:12px;fill:#808080">Combine (limit 4)</text>
<path d="M52.135,327.82L52.135,338.01L72.135,338.01L72.135,327.82Z" style="fill:#FDBF6F" />
<text x="75.135" y="-330.43" transform="scale(1, -1)"
	style="font-family:Liberation Serif;font-variant:normal;font-weight:normal;font-style:normal;font-size:12px;fill:#808080">Combine (limit 8)</text>
</g>
</svg>
