<?xml version="1.0"?>
<!-- Generated by SVGo and Plotinum VG -->
<svg width="1152pt" height="432pt" viewBox="0 0 1152 432"
	xmlns="http://www.w3.org/2000/svg"
	xmlns:xlink="http://www.w3.org/1999/xlink">
<g transform="scale(1, -1) translate(0, -432)">
<path d="M1025,312.19L1025,322.37L1045,322.37L1045,312.19Z" style="fill:#A6CEE3" />
<text x="1048" y="-314.79" transform="scale(1, -1)"
	style="font-family:Liberation Serif;font-variant:normal;font-weight:normal;font-style:normal;font-size:12px;fill:#808080">Gather Only</text>
<path d="M1025,296L1025,306.19L1045,306.19L1045,296Z" style="fill:#1F78B4" />
<text x="1048" y="-298.61" transform="scale(1, -1)"
	style="font-family:Liberation Serif;font-variant:normal;font-weight:normal;font-style:normal;font-size:12px;fill:#808080">Combine (limit 1)</text>
<path d="M1025,279.82L1025,290L1045,290L1045,279.82Z" style="fill:#B2DF8A" />
<text x="1048" y="-282.42" transform="scale(1, -1)"
	style="font-family:Liberation Serif;font-variant:normal;font-weight:normal;font-style:normal;font-size:12px;fill:#808080">Combine (limit 2)</text>
<path d="M1025,263.63L1025,273.82L1045,273.82L1045,263.63Z" style="fill:#33A02C" />
<text x="1048" y="-266.24" transform="scale(1, -1)"
	style="font-family:Liberation Serif;font-variant:normal;font-weight:normal;font-style:normal;font-size:12px;fill:#808080">Combine (limit 3)</text>
<path d="M1025,247.45L1025,257.63L1045,257.63L1045,247.45Z" style="fill:#FB9A99" />
<text x="1048" y="-250.06" transform="scale(1, -1)"
	style="font-family:Liberation Serif;font-variant:normal;font-weight:normal;font-style:normal;font-size:12px;fill:#808080">Combine (limit 4)</text>
<path d="M1025,231.27L1025,241.45L1045,241.45L1045,231.27Z" style="fill:#E31A1C" />
<text x="1048" y="-233.87" transform="scale(1, -1)"
	style="font-family:Liberation Serif;font-variant:normal;font-weight:normal;font-style:normal;font-size:12px;fill:#808080">Combine (limit 8)</text>
<path d="M1025,215.08L1025,225.27L1045,225.27L1045,215.08Z" style="fill:#FDBF6F" />
<text x="1048" y="-217.69" transform="scale(1, -1)"
	style="font-family:Liberation Serif;font-variant:normal;font-weight:normal;font-style:normal;font-size:12px;fill:#808080">Combine (limit 12)</text>
<path d="M1025,198.9L1025,209.08L1045,209.08L1045,198.9Z" style="fill:#FF7F00" />
<text x="1048" y="-201.5" transform="scale(1, -1)"
	style="font-family:Liberation Serif;font-variant:normal;font-weight:normal;font-style:normal;font-size:12px;fill:#808080">Combine (limit 16)</text>
<path d="M1025,182.72L1025,192.9L1045,192.9L1045,182.72Z" style="fill:#CAB2D6" />
<text x="1048" y="-185.32" transform="scale(1, -1)"
	style="font-family:Liberation Serif;font-variant:normal;font-weight:normal;font-style:normal;font-size:12px;fill:#808080">Combine (limit 24)</text>
<path d="M1025,166.53L1025,176.72L1045,176.72L1045,166.53Z" style="fill:#6A3D9A" />
<text x="1048" y="-169.14" transform="scale(1, -1)"
	style="font-family:Liberation Serif;font-variant:normal;font-weight:normal;font-style:normal;font-size:12px;fill:#808080">Combine (unlimited)</text>
<path d="M1028,163.53L1028,327.96L1152,327.96L1152,163.53L1028,163.53" style="fill:none;stroke:#808080" />
<path d="M0,0L1009,0L1009,432L0,432Z" style="fill:#-8000000000000000-8000000000000000-8000000000000000;fill-opacity:0" />
<text x="403.11" y="-422.61" transform="scale(1, -1)"
	style="font-family:Liberation Serif;font-variant:normal;font-weight:normal;font-style:normal;font-size:12px;fill:#808080">Aggregation Workload Speedup (Waiting)</text>
<text x="411.32" y="-3.9023" transform="scale(1, -1)"
	style="font-family:Liberation Serif;font-variant:normal;font-weight:normal;font-style:normal;font-size:12px;fill:#808080">Aggregation Workload Duration @ Flush Period</text>
<text x="155.37" y="-16.541" transform="scale(1, -1)"
	style="font-family:Liberation Serif;font-variant:normal;font-weight:normal;font-style:normal;font-size:10px;fill:#808080">10µs @ 1ms</text>
<text x="497.81" y="-16.541" transform="scale(1, -1)"
	style="font-family:Liberation Serif;font-variant:normal;font-weight:normal;font-style:normal;font-size:10px;fill:#808080">100µs @ 10ms</text>
<text x="846.74" y="-16.541" transform="scale(1, -1)"
	style="font-family:Liberation Serif;font-variant:normal;font-weight:normal;font-style:normal;font-size:10px;fill:#808080">1ms @ 100ms</text>
<path d="M180.63,24.363L180.63,32.363" style="fill:none;stroke:#808080;stroke-width:0.5" />
<path d="M528.07,24.363L528.07,32.363" style="fill:none;stroke:#808080;stroke-width:0.5" />
<path d="M875.51,24.363L875.51,32.363" style="fill:none;stroke:#808080;stroke-width:0.5" />
<path d="M180.63,32.363L875.51,32.363" style="fill:none;stroke:#808080;stroke-width:0.5" />
<g transform="rotate(90)">
<text x="176.3" y="9.3867" transform="scale(1, -1)"
	style="font-family:Liberation Serif;font-variant:normal;font-weight:normal;font-style:normal;font-size:12px;fill:#808080">Throughput vs. Direct</text>
</g>
<text x="25.885" y="-37.924" transform="scale(1, -1)"
	style="font-family:Liberation Serif;font-variant:normal;font-weight:normal;font-style:normal;font-size:10px;fill:#808080">0</text>
<text x="15.885" y="-158.53" transform="scale(1, -1)"
	style="font-family:Liberation Serif;font-variant:normal;font-weight:normal;font-style:normal;font-size:10px;fill:#808080">100</text>
<text x="15.885" y="-279.13" transform="scale(1, -1)"
	style="font-family:Liberation Serif;font-variant:normal;font-weight:normal;font-style:normal;font-size:10px;fill:#808080">200</text>
<text x="15.885" y="-399.73" transform="scale(1, -1)"
	style="font-family:Liberation Serif;font-variant:normal;font-weight:normal;font-style:normal;font-size:10px;fill:#808080">300</text>
<path d="M33.385,40.209L41.385,40.209" style="fill:none;stroke:#808080;stroke-width:0.5" />
<path d="M33.385,160.81L41.385,160.81" style="fill:none;stroke:#808080;stroke-width:0.5" />
<path d="M33.385,281.41L41.385,281.41" style="fill:none;stroke:#808080;stroke-width:0.5" />
<path d="M33.385,402.02L41.385,402.02" style="fill:none;stroke:#808080;stroke-width:0.5" />
<path d="M37.385,64.329L41.385,64.329" style="fill:none;stroke:#808080;stroke-width:0.5" />
<path d="M37.385,88.45L41.385,88.45" style="fill:none;stroke:#808080;stroke-width:0.5" />
<path d="M37.385,112.57L41.385,112.57" style="fill:none;stroke:#808080;stroke-width:0.5" />
<path d="M37.385,136.69L41.385,136.69" style="fill:none;stroke:#808080;stroke-width:0.5" />
<path d="M37.385,184.93L41.385,184.93" style="fill:none;stroke:#808080;stroke-width:0.5" />
<path d="M37.385,209.05L41.385,209.05" style="fill:none;stroke:#808080;stroke-width:0.5" />
<path d="M37.385,233.17L41.385,233.17" style="fill:none;stroke:#808080;stroke-width:0.5" />
<path d="M37.385,257.29L41.385,257.29" style="fill:none;stroke:#808080;stroke-width:0.5" />
<path d="M37.385,305.53L41.385,305.53" style="fill:none;stroke:#808080;stroke-width:0.5" />
<path d="M37.385,329.65L41.385,329.65" style="fill:none;stroke:#808080;stroke-width:0.5" />
<path d="M37.385,353.77L41.385,353.77" style="fill:none;stroke:#808080;stroke-width:0.5" />
<path d="M37.385,377.9L41.385,377.9" style="fill:none;stroke:#808080;stroke-width:0.5" />
<path d="M41.385,40.209L41.385,418.71" style="fill:none;stroke:#808080;stroke-width:0.5" />
<path d="M47.135,40.209L47.135,41.579L71.135,41.579L71.135,40.209Z" style="fill:#A6CEE3" />
<path d="M59.135,40.271L59.135,43.315" style="fill:none;stroke:#808080;stroke-width:0.56693" />
<path d="M53.135,40.271L65.135,40.271" style="fill:none;stroke:#808080;stroke-width:0.56693" />
<path d="M53.135,43.315L65.135,43.315" style="fill:none;stroke:#808080;stroke-width:0.56693" />
<text x="49.685" y="-71.03" transform="scale(1, -1)"
	style="font-family:Liberation Serif;font-variant:normal;font-weight:normal;font-style:normal;font-size:8.4px;fill:#808080">1.136</text>
<text x="49.416" y="-62.63" transform="scale(1, -1)"
	style="font-family:Liberation Serif;font-variant:normal;font-weight:normal;font-style:normal;font-size:8.4px;fill:#808080">+1.3x</text>
<text x="50.038" y="-54.23" transform="scale(1, -1)"
	style="font-family:Liberation Serif;font-variant:normal;font-weight:normal;font-style:normal;font-size:8.4px;fill:#808080">-95%</text>
<path d="M394.57,40.209L394.57,55.73L418.57,55.73L418.57,40.209Z" style="fill:#A6CEE3" />
<path d="M406.57,40.34L406.57,71.773" style="fill:none;stroke:#808080;stroke-width:0.56693" />
<path d="M400.57,40.34L412.57,40.34" style="fill:none;stroke:#808080;stroke-width:0.56693" />
<path d="M400.57,71.773L412.57,71.773" style="fill:none;stroke:#808080;stroke-width:0.56693" />
<text x="397.12" y="-99.488" transform="scale(1, -1)"
	style="font-family:Liberation Serif;font-variant:normal;font-weight:normal;font-style:normal;font-size:8.4px;fill:#808080">12.87</text>
<text x="400.01" y="-91.088" transform="scale(1, -1)"
	style="font-family:Liberation Serif;font-variant:normal;font-weight:normal;font-style:normal;font-size:8.4px;fill:#808080">+1x</text>
<text x="397.48" y="-82.688" transform="scale(1, -1)"
	style="font-family:Liberation Serif;font-variant:normal;font-weight:normal;font-style:normal;font-size:8.4px;fill:#808080">-99%</text>
<path d="M742.01,40.209L742.01,185.99L766.01,185.99L766.01,40.209Z" style="fill:#A6CEE3" />
<path d="M754.01,41.219L754.01,355.63" style="fill:none;stroke:#808080;stroke-width:0.56693" />
<path d="M748.01,41.219L760.01,41.219" style="fill:none;stroke:#808080;stroke-width:0.56693" />
<path d="M748.01,355.63L760.01,355.63" style="fill:none;stroke:#808080;stroke-width:0.56693" />
<text x="744.56" y="-383.34" transform="scale(1, -1)"
	style="font-family:Liberation Serif;font-variant:normal;font-weight:normal;font-style:normal;font-size:8.4px;fill:#808080">120.9</text>
<text x="744.3" y="-374.94" transform="scale(1, -1)"
	style="font-family:Liberation Serif;font-variant:normal;font-weight:normal;font-style:normal;font-size:8.4px;fill:#808080">+1.2x</text>
<text x="744.92" y="-366.54" transform="scale(1, -1)"
	style="font-family:Liberation Serif;font-variant:normal;font-weight:normal;font-style:normal;font-size:8.4px;fill:#808080">-99%</text>
<path d="M74.135,40.209L74.135,40.631L98.135,40.631L98.135,40.209Z" style="fill:#1F78B4" />
<path d="M86.135,40.256L86.135,41.337" style="fill:none;stroke:#808080;stroke-width:0.56693" />
<path d="M80.135,40.256L92.135,40.256" style="fill:none;stroke:#808080;stroke-width:0.56693" />
<path d="M80.135,41.337L92.135,41.337" style="fill:none;stroke:#808080;stroke-width:0.56693" />
<text x="76.685" y="-69.052" transform="scale(1, -1)"
	style="font-family:Liberation Serif;font-variant:normal;font-weight:normal;font-style:normal;font-size:8.4px;fill:#808080">0.350</text>
<text x="76.416" y="-60.652" transform="scale(1, -1)"
	style="font-family:Liberation Serif;font-variant:normal;font-weight:normal;font-style:normal;font-size:8.4px;fill:#808080">+1.7x</text>
<text x="77.037" y="-52.252" transform="scale(1, -1)"
	style="font-family:Liberation Serif;font-variant:normal;font-weight:normal;font-style:normal;font-size:8.4px;fill:#808080">-89%</text>
<path d="M421.57,40.209L421.57,45.414L445.57,45.414L445.57,40.209Z" style="fill:#1F78B4" />
<path d="M433.57,40.325L433.57,51.834" style="fill:none;stroke:#808080;stroke-width:0.56693" />
<path d="M427.57,40.325L439.57,40.325" style="fill:none;stroke:#808080;stroke-width:0.56693" />
<path d="M427.57,51.834L439.57,51.834" style="fill:none;stroke:#808080;stroke-width:0.56693" />
<text x="424.12" y="-79.548" transform="scale(1, -1)"
	style="font-family:Liberation Serif;font-variant:normal;font-weight:normal;font-style:normal;font-size:8.4px;fill:#808080">4.316</text>
<text x="423.86" y="-71.148" transform="scale(1, -1)"
	style="font-family:Liberation Serif;font-variant:normal;font-weight:normal;font-style:normal;font-size:8.4px;fill:#808080">+1.2x</text>
<text x="424.48" y="-62.748" transform="scale(1, -1)"
	style="font-family:Liberation Serif;font-variant:normal;font-weight:normal;font-style:normal;font-size:8.4px;fill:#808080">-98%</text>
<path d="M769.01,40.209L769.01,68.193L793.01,68.193L793.01,40.209Z" style="fill:#1F78B4" />
<path d="M781.01,41.188L781.01,147.8" style="fill:none;stroke:#808080;stroke-width:0.56693" />
<path d="M775.01,41.188L787.01,41.188" style="fill:none;stroke:#808080;stroke-width:0.56693" />
<path d="M775.01,147.8L787.01,147.8" style="fill:none;stroke:#808080;stroke-width:0.56693" />
<text x="771.56" y="-175.51" transform="scale(1, -1)"
	style="font-family:Liberation Serif;font-variant:normal;font-weight:normal;font-style:normal;font-size:8.4px;fill:#808080">23.20</text>
<text x="771.3" y="-167.11" transform="scale(1, -1)"
	style="font-family:Liberation Serif;font-variant:normal;font-weight:normal;font-style:normal;font-size:8.4px;fill:#808080">+2.8x</text>
<text x="771.92" y="-158.71" transform="scale(1, -1)"
	style="font-family:Liberation Serif;font-variant:normal;font-weight:normal;font-style:normal;font-size:8.4px;fill:#808080">-97%</text>
<path d="M101.13,40.209L101.13,40.887L125.13,40.887L125.13,40.209Z" style="fill:#B2DF8A" />
<path d="M113.13,40.29L113.13,41.539" style="fill:none;stroke:#808080;stroke-width:0.56693" />
<path d="M107.13,40.29L119.13,40.29" style="fill:none;stroke:#808080;stroke-width:0.56693" />
<path d="M107.13,41.539L119.13,41.539" style="fill:none;stroke:#808080;stroke-width:0.56693" />
<text x="103.68" y="-69.254" transform="scale(1, -1)"
	style="font-family:Liberation Serif;font-variant:normal;font-weight:normal;font-style:normal;font-size:8.4px;fill:#808080">0.562</text>
<text x="103.07" y="-60.854" transform="scale(1, -1)"
	style="font-family:Liberation Serif;font-variant:normal;font-weight:normal;font-style:normal;font-size:8.4px;fill:#808080">+96%</text>
<text x="104.04" y="-52.454" transform="scale(1, -1)"
	style="font-family:Liberation Serif;font-variant:normal;font-weight:normal;font-style:normal;font-size:8.4px;fill:#808080">-88%</text>
<path d="M448.57,40.209L448.57,46.438L472.57,46.438L472.57,40.209Z" style="fill:#B2DF8A" />
<path d="M460.57,40.373L460.57,53.585" style="fill:none;stroke:#808080;stroke-width:0.56693" />
<path d="M454.57,40.373L466.57,40.373" style="fill:none;stroke:#808080;stroke-width:0.56693" />
<path d="M454.57,53.585L466.57,53.585" style="fill:none;stroke:#808080;stroke-width:0.56693" />
<text x="451.12" y="-81.299" transform="scale(1, -1)"
	style="font-family:Liberation Serif;font-variant:normal;font-weight:normal;font-style:normal;font-size:8.4px;fill:#808080">5.165</text>
<text x="450.86" y="-72.899" transform="scale(1, -1)"
	style="font-family:Liberation Serif;font-variant:normal;font-weight:normal;font-style:normal;font-size:8.4px;fill:#808080">+1.1x</text>
<text x="451.48" y="-64.499" transform="scale(1, -1)"
	style="font-family:Liberation Serif;font-variant:normal;font-weight:normal;font-style:normal;font-size:8.4px;fill:#808080">-97%</text>
<path d="M796.01,40.209L796.01,115.94L820.01,115.94L820.01,40.209Z" style="fill:#B2DF8A" />
<path d="M808.01,41.691L808.01,193.51" style="fill:none;stroke:#808080;stroke-width:0.56693" />
<path d="M802.01,41.691L814.01,41.691" style="fill:none;stroke:#808080;stroke-width:0.56693" />
<path d="M802.01,193.51L814.01,193.51" style="fill:none;stroke:#808080;stroke-width:0.56693" />
<text x="798.56" y="-221.22" transform="scale(1, -1)"
	style="font-family:Liberation Serif;font-variant:normal;font-weight:normal;font-style:normal;font-size:8.4px;fill:#808080">62.80</text>
<text x="801.45" y="-212.82" transform="scale(1, -1)"
	style="font-family:Liberation Serif;font-variant:normal;font-weight:normal;font-style:normal;font-size:8.4px;fill:#808080">+1x</text>
<text x="798.92" y="-204.42" transform="scale(1, -1)"
	style="font-family:Liberation Serif;font-variant:normal;font-weight:normal;font-style:normal;font-size:8.4px;fill:#808080">-98%</text>
<path d="M128.13,40.209L128.13,40.968L152.13,40.968L152.13,40.209Z" style="fill:#33A02C" />
<path d="M140.13,40.35L140.13,41.67" style="fill:none;stroke:#808080;stroke-width:0.56693" />
<path d="M134.13,40.35L146.13,40.35" style="fill:none;stroke:#808080;stroke-width:0.56693" />
<path d="M134.13,41.67L146.13,41.67" style="fill:none;stroke:#808080;stroke-width:0.56693" />
<text x="130.68" y="-69.384" transform="scale(1, -1)"
	style="font-family:Liberation Serif;font-variant:normal;font-weight:normal;font-style:normal;font-size:8.4px;fill:#808080">0.629</text>
<text x="130.07" y="-60.984" transform="scale(1, -1)"
	style="font-family:Liberation Serif;font-variant:normal;font-weight:normal;font-style:normal;font-size:8.4px;fill:#808080">+92%</text>
<text x="131.04" y="-52.584" transform="scale(1, -1)"
	style="font-family:Liberation Serif;font-variant:normal;font-weight:normal;font-style:normal;font-size:8.4px;fill:#808080">-81%</text>
<path d="M475.57,40.209L475.57,47.659L499.57,47.659L499.57,40.209Z" style="fill:#33A02C" />
<path d="M487.57,40.444L487.57,55.068" style="fill:none;stroke:#808080;stroke-width:0.56693" />
<path d="M481.57,40.444L493.57,40.444" style="fill:none;stroke:#808080;stroke-width:0.56693" />
<path d="M481.57,55.068L493.57,55.068" style="fill:none;stroke:#808080;stroke-width:0.56693" />
<text x="478.12" y="-82.782" transform="scale(1, -1)"
	style="font-family:Liberation Serif;font-variant:normal;font-weight:normal;font-style:normal;font-size:8.4px;fill:#808080">6.177</text>
<text x="477.51" y="-74.382" transform="scale(1, -1)"
	style="font-family:Liberation Serif;font-variant:normal;font-weight:normal;font-style:normal;font-size:8.4px;fill:#808080">+99%</text>
<text x="478.48" y="-65.982" transform="scale(1, -1)"
	style="font-family:Liberation Serif;font-variant:normal;font-weight:normal;font-style:normal;font-size:8.4px;fill:#808080">-97%</text>
<path d="M823.01,40.209L823.01,118.14L847.01,118.14L847.01,40.209Z" style="fill:#33A02C" />
<path d="M835.01,42.193L835.01,204.86" style="fill:none;stroke:#808080;stroke-width:0.56693" />
<path d="M829.01,42.193L841.01,42.193" style="fill:none;stroke:#808080;stroke-width:0.56693" />
<path d="M829.01,204.86L841.01,204.86" style="fill:none;stroke:#808080;stroke-width:0.56693" />
<text x="825.56" y="-232.57" transform="scale(1, -1)"
	style="font-family:Liberation Serif;font-variant:normal;font-weight:normal;font-style:normal;font-size:8.4px;fill:#808080">64.62</text>
<text x="825.3" y="-224.17" transform="scale(1, -1)"
	style="font-family:Liberation Serif;font-variant:normal;font-weight:normal;font-style:normal;font-size:8.4px;fill:#808080">+1.1x</text>
<text x="825.92" y="-215.77" transform="scale(1, -1)"
	style="font-family:Liberation Serif;font-variant:normal;font-weight:normal;font-style:normal;font-size:8.4px;fill:#808080">-97%</text>
<path d="M155.13,40.209L155.13,40.993L179.13,40.993L179.13,40.209Z" style="fill:#FB9A99" />
<path d="M167.13,40.401L167.13,41.62" style="fill:none;stroke:#808080;stroke-width:0.56693" />
<path d="M161.13,40.401L173.13,40.401" style="fill:none;stroke:#808080;stroke-width:0.56693" />
<path d="M161.13,41.62L173.13,41.62" style="fill:none;stroke:#808080;stroke-width:0.56693" />
<text x="157.68" y="-69.335" transform="scale(1, -1)"
	style="font-family:Liberation Serif;font-variant:normal;font-weight:normal;font-style:normal;font-size:8.4px;fill:#808080">0.650</text>
<text x="157.07" y="-60.935" transform="scale(1, -1)"
	style="font-family:Liberation Serif;font-variant:normal;font-weight:normal;font-style:normal;font-size:8.4px;fill:#808080">+80%</text>
<text x="158.04" y="-52.535" transform="scale(1, -1)"
	style="font-family:Liberation Serif;font-variant:normal;font-weight:normal;font-style:normal;font-size:8.4px;fill:#808080">-76%</text>
<path d="M502.57,40.209L502.57,46.83L526.57,46.83L526.57,40.209Z" style="fill:#FB9A99" />
<path d="M514.57,40.524L514.57,54.507" style="fill:none;stroke:#808080;stroke-width:0.56693" />
<path d="M508.57,40.524L520.57,40.524" style="fill:none;stroke:#808080;stroke-width:0.56693" />
<path d="M508.57,54.507L520.57,54.507" style="fill:none;stroke:#808080;stroke-width:0.56693" />
<text x="505.12" y="-82.222" transform="scale(1, -1)"
	style="font-family:Liberation Serif;font-variant:normal;font-weight:normal;font-style:normal;font-size:8.4px;fill:#808080">5.490</text>
<text x="504.86" y="-73.822" transform="scale(1, -1)"
	style="font-family:Liberation Serif;font-variant:normal;font-weight:normal;font-style:normal;font-size:8.4px;fill:#808080">+1.2x</text>
<text x="505.48" y="-65.422" transform="scale(1, -1)"
	style="font-family:Liberation Serif;font-variant:normal;font-weight:normal;font-style:normal;font-size:8.4px;fill:#808080">-95%</text>
<path d="M850.01,40.209L850.01,107.09L874.01,107.09L874.01,40.209Z" style="fill:#FB9A99" />
<path d="M862.01,42.719L862.01,202.8" style="fill:none;stroke:#808080;stroke-width:0.56693" />
<path d="M856.01,42.719L868.01,42.719" style="fill:none;stroke:#808080;stroke-width:0.56693" />
<path d="M856.01,202.8L868.01,202.8" style="fill:none;stroke:#808080;stroke-width:0.56693" />
<text x="852.56" y="-230.51" transform="scale(1, -1)"
	style="font-family:Liberation Serif;font-variant:normal;font-weight:normal;font-style:normal;font-size:8.4px;fill:#808080">55.46</text>
<text x="852.3" y="-222.11" transform="scale(1, -1)"
	style="font-family:Liberation Serif;font-variant:normal;font-weight:normal;font-style:normal;font-size:8.4px;fill:#808080">+1.4x</text>
<text x="852.92" y="-213.71" transform="scale(1, -1)"
	style="font-family:Liberation Serif;font-variant:normal;font-weight:normal;font-style:normal;font-size:8.4px;fill:#808080">-96%</text>
<path d="M182.13,40.209L182.13,41.027L206.13,41.027L206.13,40.209Z" style="fill:#E31A1C" />
<path d="M194.13,40.614L194.13,41.648" style="fill:none;stroke:#808080;stroke-width:0.56693" />
<path d="M188.13,40.614L200.13,40.614" style="fill:none;stroke:#808080;stroke-width:0.56693" />
<path d="M188.13,41.648L200.13,41.648" style="fill:none;stroke:#808080;stroke-width:0.56693" />
<text x="184.68" y="-69.362" transform="scale(1, -1)"
	style="font-family:Liberation Serif;font-variant:normal;font-weight:normal;font-style:normal;font-size:8.4px;fill:#808080">0.678</text>
<text x="184.07" y="-60.962" transform="scale(1, -1)"
	style="font-family:Liberation Serif;font-variant:normal;font-weight:normal;font-style:normal;font-size:8.4px;fill:#808080">+76%</text>
<text x="185.04" y="-52.562" transform="scale(1, -1)"
	style="font-family:Liberation Serif;font-variant:normal;font-weight:normal;font-style:normal;font-size:8.4px;fill:#808080">-51%</text>
<path d="M529.57,40.209L529.57,45.887L553.57,45.887L553.57,40.209Z" style="fill:#E31A1C" />
<path d="M541.57,40.804L541.57,55.661" style="fill:none;stroke:#808080;stroke-width:0.56693" />
<path d="M535.57,40.804L547.57,40.804" style="fill:none;stroke:#808080;stroke-width:0.56693" />
<path d="M535.57,55.661L547.57,55.661" style="fill:none;stroke:#808080;stroke-width:0.56693" />
<text x="532.12" y="-83.376" transform="scale(1, -1)"
	style="font-family:Liberation Serif;font-variant:normal;font-weight:normal;font-style:normal;font-size:8.4px;fill:#808080">4.708</text>
<text x="531.86" y="-74.976" transform="scale(1, -1)"
	style="font-family:Liberation Serif;font-variant:normal;font-weight:normal;font-style:normal;font-size:8.4px;fill:#808080">+1.7x</text>
<text x="532.48" y="-66.576" transform="scale(1, -1)"
	style="font-family:Liberation Serif;font-variant:normal;font-weight:normal;font-style:normal;font-size:8.4px;fill:#808080">-90%</text>
<path d="M877.01,40.209L877.01,124.87L901.01,124.87L901.01,40.209Z" style="fill:#E31A1C" />
<path d="M889.01,44.761L889.01,214.46" style="fill:none;stroke:#808080;stroke-width:0.56693" />
<path d="M883.01,44.761L895.01,44.761" style="fill:none;stroke:#808080;stroke-width:0.56693" />
<path d="M883.01,214.46L895.01,214.46" style="fill:none;stroke:#808080;stroke-width:0.56693" />
<text x="879.56" y="-242.17" transform="scale(1, -1)"
	style="font-family:Liberation Serif;font-variant:normal;font-weight:normal;font-style:normal;font-size:8.4px;fill:#808080">70.20</text>
<text x="879.3" y="-233.77" transform="scale(1, -1)"
	style="font-family:Liberation Serif;font-variant:normal;font-weight:normal;font-style:normal;font-size:8.4px;fill:#808080">+1.1x</text>
<text x="879.92" y="-225.37" transform="scale(1, -1)"
	style="font-family:Liberation Serif;font-variant:normal;font-weight:normal;font-style:normal;font-size:8.4px;fill:#808080">-95%</text>
<path d="M209.13,40.209L209.13,41.064L233.13,41.064L233.13,40.209Z" style="fill:#FDBF6F" />
<path d="M221.13,40.498L221.13,41.66" style="fill:none;stroke:#808080;stroke-width:0.56693" />
<path d="M215.13,40.498L227.13,40.498" style="fill:none;stroke:#808080;stroke-width:0.56693" />
<path d="M215.13,41.66L227.13,41.66" style="fill:none;stroke:#808080;stroke-width:0.56693" />
<text x="211.68" y="-69.374" transform="scale(1, -1)"
	style="font-family:Liberation Serif;font-variant:normal;font-weight:normal;font-style:normal;font-size:8.4px;fill:#808080">0.709</text>
<text x="211.07" y="-60.974" transform="scale(1, -1)"
	style="font-family:Liberation Serif;font-variant:normal;font-weight:normal;font-style:normal;font-size:8.4px;fill:#808080">+70%</text>
<text x="212.04" y="-52.574" transform="scale(1, -1)"
	style="font-family:Liberation Serif;font-variant:normal;font-weight:normal;font-style:normal;font-size:8.4px;fill:#808080">-66%</text>
<path d="M556.57,40.209L556.57,48.093L580.57,48.093L580.57,40.209Z" style="fill:#FDBF6F" />
<path d="M568.57,41.112L568.57,55.475" style="fill:none;stroke:#808080;stroke-width:0.56693" />
<path d="M562.57,41.112L574.57,41.112" style="fill:none;stroke:#808080;stroke-width:0.56693" />
<path d="M562.57,55.475L574.57,55.475" style="fill:none;stroke:#808080;stroke-width:0.56693" />
<text x="559.12" y="-83.189" transform="scale(1, -1)"
	style="font-family:Liberation Serif;font-variant:normal;font-weight:normal;font-style:normal;font-size:8.4px;fill:#808080">6.537</text>
<text x="558.51" y="-74.789" transform="scale(1, -1)"
	style="font-family:Liberation Serif;font-variant:normal;font-weight:normal;font-style:normal;font-size:8.4px;fill:#808080">+94%</text>
<text x="559.48" y="-66.389" transform="scale(1, -1)"
	style="font-family:Liberation Serif;font-variant:normal;font-weight:normal;font-style:normal;font-size:8.4px;fill:#808080">-89%</text>
<path d="M904.01,40.209L904.01,130.2L928.01,130.2L928.01,40.209Z" style="fill:#FDBF6F" />
<path d="M916.01,46.869L916.01,215" style="fill:none;stroke:#808080;stroke-width:0.56693" />
<path d="M910.01,46.869L922.01,46.869" style="fill:none;stroke:#808080;stroke-width:0.56693" />
<path d="M910.01,215L922.01,215" style="fill:none;stroke:#808080;stroke-width:0.56693" />
<text x="906.56" y="-242.71" transform="scale(1, -1)"
	style="font-family:Liberation Serif;font-variant:normal;font-weight:normal;font-style:normal;font-size:8.4px;fill:#808080">74.62</text>
<text x="905.95" y="-234.31" transform="scale(1, -1)"
	style="font-family:Liberation Serif;font-variant:normal;font-weight:normal;font-style:normal;font-size:8.4px;fill:#808080">+94%</text>
<text x="906.92" y="-225.91" transform="scale(1, -1)"
	style="font-family:Liberation Serif;font-variant:normal;font-weight:normal;font-style:normal;font-size:8.4px;fill:#808080">-93%</text>
<path d="M236.13,40.209L236.13,40.991L260.13,40.991L260.13,40.209Z" style="fill:#FF7F00" />
<path d="M248.13,40.443L248.13,41.654" style="fill:none;stroke:#808080;stroke-width:0.56693" />
<path d="M242.13,40.443L254.13,40.443" style="fill:none;stroke:#808080;stroke-width:0.56693" />
<path d="M242.13,41.654L254.13,41.654" style="fill:none;stroke:#808080;stroke-width:0.56693" />
<text x="238.68" y="-69.368" transform="scale(1, -1)"
	style="font-family:Liberation Serif;font-variant:normal;font-weight:normal;font-style:normal;font-size:8.4px;fill:#808080">0.648</text>
<text x="238.07" y="-60.968" transform="scale(1, -1)"
	style="font-family:Liberation Serif;font-variant:normal;font-weight:normal;font-style:normal;font-size:8.4px;fill:#808080">+85%</text>
<text x="239.04" y="-52.568" transform="scale(1, -1)"
	style="font-family:Liberation Serif;font-variant:normal;font-weight:normal;font-style:normal;font-size:8.4px;fill:#808080">-70%</text>
<path d="M583.57,40.209L583.57,47.853L607.57,47.853L607.57,40.209Z" style="fill:#FF7F00" />
<path d="M595.57,41.053L595.57,55.659" style="fill:none;stroke:#808080;stroke-width:0.56693" />
<path d="M589.57,41.053L601.57,41.053" style="fill:none;stroke:#808080;stroke-width:0.56693" />
<path d="M589.57,55.659L601.57,55.659" style="fill:none;stroke:#808080;stroke-width:0.56693" />
<text x="586.12" y="-83.374" transform="scale(1, -1)"
	style="font-family:Liberation Serif;font-variant:normal;font-weight:normal;font-style:normal;font-size:8.4px;fill:#808080">6.338</text>
<text x="589.01" y="-74.974" transform="scale(1, -1)"
	style="font-family:Liberation Serif;font-variant:normal;font-weight:normal;font-style:normal;font-size:8.4px;fill:#808080">+1x</text>
<text x="586.48" y="-66.574" transform="scale(1, -1)"
	style="font-family:Liberation Serif;font-variant:normal;font-weight:normal;font-style:normal;font-size:8.4px;fill:#808080">-89%</text>
<path d="M931.01,40.209L931.01,133.17L955.01,133.17L955.01,40.209Z" style="fill:#FF7F00" />
<path d="M943.01,48.681L943.01,218.42" style="fill:none;stroke:#808080;stroke-width:0.56693" />
<path d="M937.01,48.681L949.01,48.681" style="fill:none;stroke:#808080;stroke-width:0.56693" />
<path d="M937.01,218.42L949.01,218.42" style="fill:none;stroke:#808080;stroke-width:0.56693" />
<text x="933.56" y="-246.14" transform="scale(1, -1)"
	style="font-family:Liberation Serif;font-variant:normal;font-weight:normal;font-style:normal;font-size:8.4px;fill:#808080">77.08</text>
<text x="932.95" y="-237.74" transform="scale(1, -1)"
	style="font-family:Liberation Serif;font-variant:normal;font-weight:normal;font-style:normal;font-size:8.4px;fill:#808080">+92%</text>
<text x="933.92" y="-229.34" transform="scale(1, -1)"
	style="font-family:Liberation Serif;font-variant:normal;font-weight:normal;font-style:normal;font-size:8.4px;fill:#808080">-91%</text>
<path d="M263.13,40.209L263.13,40.924L287.13,40.924L287.13,40.209Z" style="fill:#CAB2D6" />
<path d="M275.13,40.401L275.13,41.554" style="fill:none;stroke:#808080;stroke-width:0.56693" />
<path d="M269.13,40.401L281.13,40.401" style="fill:none;stroke:#808080;stroke-width:0.56693" />
<path d="M269.13,41.554L281.13,41.554" style="fill:none;stroke:#808080;stroke-width:0.56693" />
<text x="265.68" y="-69.269" transform="scale(1, -1)"
	style="font-family:Liberation Serif;font-variant:normal;font-weight:normal;font-style:normal;font-size:8.4px;fill:#808080">0.592</text>
<text x="265.07" y="-60.869" transform="scale(1, -1)"
	style="font-family:Liberation Serif;font-variant:normal;font-weight:normal;font-style:normal;font-size:8.4px;fill:#808080">+88%</text>
<text x="266.04" y="-52.469" transform="scale(1, -1)"
	style="font-family:Liberation Serif;font-variant:normal;font-weight:normal;font-style:normal;font-size:8.4px;fill:#808080">-73%</text>
<path d="M610.57,40.209L610.57,48.286L634.57,48.286L634.57,40.209Z" style="fill:#CAB2D6" />
<path d="M622.57,41.25L622.57,55.406" style="fill:none;stroke:#808080;stroke-width:0.56693" />
<path d="M616.57,41.25L628.57,41.25" style="fill:none;stroke:#808080;stroke-width:0.56693" />
<path d="M616.57,55.406L628.57,55.406" style="fill:none;stroke:#808080;stroke-width:0.56693" />
<text x="613.12" y="-83.12" transform="scale(1, -1)"
	style="font-family:Liberation Serif;font-variant:normal;font-weight:normal;font-style:normal;font-size:8.4px;fill:#808080">6.697</text>
<text x="612.51" y="-74.72" transform="scale(1, -1)"
	style="font-family:Liberation Serif;font-variant:normal;font-weight:normal;font-style:normal;font-size:8.4px;fill:#808080">+88%</text>
<text x="613.48" y="-66.32" transform="scale(1, -1)"
	style="font-family:Liberation Serif;font-variant:normal;font-weight:normal;font-style:normal;font-size:8.4px;fill:#808080">-87%</text>
<path d="M958.01,40.209L958.01,123.86L982.01,123.86L982.01,40.209Z" style="fill:#CAB2D6" />
<path d="M970.01,52.292L970.01,214.59" style="fill:none;stroke:#808080;stroke-width:0.56693" />
<path d="M964.01,52.292L976.01,52.292" style="fill:none;stroke:#808080;stroke-width:0.56693" />
<path d="M964.01,214.59L976.01,214.59" style="fill:none;stroke:#808080;stroke-width:0.56693" />
<text x="960.56" y="-242.3" transform="scale(1, -1)"
	style="font-family:Liberation Serif;font-variant:normal;font-weight:normal;font-style:normal;font-size:8.4px;fill:#808080">69.36</text>
<text x="960.3" y="-233.9" transform="scale(1, -1)"
	style="font-family:Liberation Serif;font-variant:normal;font-weight:normal;font-style:normal;font-size:8.4px;fill:#808080">+1.1x</text>
<text x="960.92" y="-225.5" transform="scale(1, -1)"
	style="font-family:Liberation Serif;font-variant:normal;font-weight:normal;font-style:normal;font-size:8.4px;fill:#808080">-86%</text>
<path d="M290.13,40.209L290.13,40.739L314.13,40.739L314.13,40.209Z" style="fill:#6A3D9A" />
<path d="M302.13,40.347L302.13,41.343" style="fill:none;stroke:#808080;stroke-width:0.56693" />
<path d="M296.13,40.347L308.13,40.347" style="fill:none;stroke:#808080;stroke-width:0.56693" />
<path d="M296.13,41.343L308.13,41.343" style="fill:none;stroke:#808080;stroke-width:0.56693" />
<text x="292.68" y="-69.058" transform="scale(1, -1)"
	style="font-family:Liberation Serif;font-variant:normal;font-weight:normal;font-style:normal;font-size:8.4px;fill:#808080">0.440</text>
<text x="292.42" y="-60.658" transform="scale(1, -1)"
	style="font-family:Liberation Serif;font-variant:normal;font-weight:normal;font-style:normal;font-size:8.4px;fill:#808080">+1.1x</text>
<text x="293.04" y="-52.258" transform="scale(1, -1)"
	style="font-family:Liberation Serif;font-variant:normal;font-weight:normal;font-style:normal;font-size:8.4px;fill:#808080">-74%</text>
<path d="M637.57,40.209L637.57,45.704L661.57,45.704L661.57,40.209Z" style="fill:#6A3D9A" />
<path d="M649.57,40.866L649.57,51.631" style="fill:none;stroke:#808080;stroke-width:0.56693" />
<path d="M643.57,40.866L655.57,40.866" style="fill:none;stroke:#808080;stroke-width:0.56693" />
<path d="M643.57,51.631L655.57,51.631" style="fill:none;stroke:#808080;stroke-width:0.56693" />
<text x="640.12" y="-79.345" transform="scale(1, -1)"
	style="font-family:Liberation Serif;font-variant:normal;font-weight:normal;font-style:normal;font-size:8.4px;fill:#808080">4.556</text>
<text x="639.86" y="-70.945" transform="scale(1, -1)"
	style="font-family:Liberation Serif;font-variant:normal;font-weight:normal;font-style:normal;font-size:8.4px;fill:#808080">+1.1x</text>
<text x="640.48" y="-62.545" transform="scale(1, -1)"
	style="font-family:Liberation Serif;font-variant:normal;font-weight:normal;font-style:normal;font-size:8.4px;fill:#808080">-88%</text>
<path d="M985.01,40.209L985.01,96.247L1009,96.247L1009,40.209Z" style="fill:#6A3D9A" />
<path d="M997.01,53.423L997.01,155.73" style="fill:none;stroke:#808080;stroke-width:0.56693" />
<path d="M991.01,53.423L1003,53.423" style="fill:none;stroke:#808080;stroke-width:0.56693" />
<path d="M991.01,155.73L1003,155.73" style="fill:none;stroke:#808080;stroke-width:0.56693" />
<text x="987.56" y="-183.45" transform="scale(1, -1)"
	style="font-family:Liberation Serif;font-variant:normal;font-weight:normal;font-style:normal;font-size:8.4px;fill:#808080">46.47</text>
<text x="987.3" y="-175.05" transform="scale(1, -1)"
	style="font-family:Liberation Serif;font-variant:normal;font-weight:normal;font-style:normal;font-size:8.4px;fill:#808080">+1.1x</text>
<text x="987.92" y="-166.65" transform="scale(1, -1)"
	style="font-family:Liberation Serif;font-variant:normal;font-weight:normal;font-style:normal;font-size:8.4px;fill:#808080">-76%</text>
</g>
</svg>
