<?xml version="1.0"?>
<!-- Generated by SVGo and Plotinum VG -->
<svg width="648pt" height="432pt" viewBox="0 0 648 432"
	xmlns="http://www.w3.org/2000/svg"
	xmlns:xlink="http://www.w3.org/1999/xlink">
<g transform="scale(1, -1) translate(0, -432)">
<path d="M0,0L648,0L648,432L0,432Z" style="fill:#-8000000000000000-8000000000000000-8000000000000000;fill-opacity:0" />
<text x="210.21" y="-422.61" transform="scale(1, -1)"
	style="font-family:Liberation Serif;font-variant:normal;font-weight:normal;font-style:normal;font-size:12px;fill:#808080">Bytes Allocated Per Task Aggregated (Waiting)</text>
<text x="237.07" y="-3.9023" transform="scale(1, -1)"
	style="font-family:Liberation Serif;font-variant:normal;font-weight:normal;font-style:normal;font-size:12px;fill:#808080">Aggregation Workload Duration @ Flush Period</text>
<text x="127.37" y="-16.541" transform="scale(1, -1)"
	style="font-family:Liberation Serif;font-variant:normal;font-weight:normal;font-style:normal;font-size:10px;fill:#808080">10µs @ 1ms</text>
<text x="323.55" y="-16.541" transform="scale(1, -1)"
	style="font-family:Liberation Serif;font-variant:normal;font-weight:normal;font-style:normal;font-size:10px;fill:#808080">100µs @ 10ms</text>
<text x="526.23" y="-16.541" transform="scale(1, -1)"
	style="font-family:Liberation Serif;font-variant:normal;font-weight:normal;font-style:normal;font-size:10px;fill:#808080">1ms @ 100ms</text>
<path d="M152.63,24.363L152.63,32.363" style="fill:none;stroke:#808080;stroke-width:0.5" />
<path d="M353.82,24.363L353.82,32.363" style="fill:none;stroke:#808080;stroke-width:0.5" />
<path d="M555,24.363L555,32.363" style="fill:none;stroke:#808080;stroke-width:0.5" />
<path d="M152.63,32.363L555,32.363" style="fill:none;stroke:#808080;stroke-width:0.5" />
<g transform="rotate(90)">
<text x="175.17" y="9.3867" transform="scale(1, -1)"
	style="font-family:Liberation Serif;font-variant:normal;font-weight:normal;font-style:normal;font-size:12px;fill:#808080">Allocated Bytes / Task</text>
</g>
<text x="25.885" y="-37.924" transform="scale(1, -1)"
	style="font-family:Liberation Serif;font-variant:normal;font-weight:normal;font-style:normal;font-size:10px;fill:#808080">0.00</text>
<text x="15.885" y="-201.25" transform="scale(1, -1)"
	style="font-family:Liberation Serif;font-variant:normal;font-weight:normal;font-style:normal;font-size:10px;fill:#808080">250.00</text>
<text x="15.885" y="-364.59" transform="scale(1, -1)"
	style="font-family:Liberation Serif;font-variant:normal;font-weight:normal;font-style:normal;font-size:10px;fill:#808080">500.00</text>
<path d="M45.885,40.209L53.885,40.209" style="fill:none;stroke:#808080;stroke-width:0.5" />
<path d="M45.885,203.54L53.885,203.54" style="fill:none;stroke:#808080;stroke-width:0.5" />
<path d="M45.885,366.87L53.885,366.87" style="fill:none;stroke:#808080;stroke-width:0.5" />
<path d="M49.885,72.875L53.885,72.875" style="fill:none;stroke:#808080;stroke-width:0.5" />
<path d="M49.885,105.54L53.885,105.54" style="fill:none;stroke:#808080;stroke-width:0.5" />
<path d="M49.885,138.21L53.885,138.21" style="fill:none;stroke:#808080;stroke-width:0.5" />
<path d="M49.885,170.87L53.885,170.87" style="fill:none;stroke:#808080;stroke-width:0.5" />
<path d="M49.885,236.21L53.885,236.21" style="fill:none;stroke:#808080;stroke-width:0.5" />
<path d="M49.885,268.87L53.885,268.87" style="fill:none;stroke:#808080;stroke-width:0.5" />
<path d="M49.885,301.54L53.885,301.54" style="fill:none;stroke:#808080;stroke-width:0.5" />
<path d="M49.885,334.2L53.885,334.2" style="fill:none;stroke:#808080;stroke-width:0.5" />
<path d="M49.885,399.54L53.885,399.54" style="fill:none;stroke:#808080;stroke-width:0.5" />
<path d="M53.885,40.209L53.885,418.71" style="fill:none;stroke:#808080;stroke-width:0.5" />
<path d="M59.635,40.209L59.635,40.209L83.635,40.209L83.635,40.209Z" style="fill:#A6CEE3" />
<path d="M71.635,40.209L71.635,40.209" style="fill:none;stroke:#808080;stroke-width:0.56693" />
<path d="M65.635,40.209L77.635,40.209" style="fill:none;stroke:#808080;stroke-width:0.56693" />
<path d="M65.635,40.209L77.635,40.209" style="fill:none;stroke:#808080;stroke-width:0.56693" />
<text x="62.185" y="-67.924" transform="scale(1, -1)"
	style="font-family:Liberation Serif;font-variant:normal;font-weight:normal;font-style:normal;font-size:8.4px;fill:#808080">0.000</text>
<text x="66.701" y="-59.524" transform="scale(1, -1)"
	style="font-family:Liberation Serif;font-variant:normal;font-weight:normal;font-style:normal;font-size:8.4px;fill:#808080">+/-</text>
<text x="66.036" y="-51.124" transform="scale(1, -1)"
	style="font-family:Liberation Serif;font-variant:normal;font-weight:normal;font-style:normal;font-size:8.4px;fill:#808080">0%</text>
<path d="M260.82,40.209L260.82,40.209L284.82,40.209L284.82,40.209Z" style="fill:#A6CEE3" />
<path d="M272.82,40.209L272.82,40.209" style="fill:none;stroke:#808080;stroke-width:0.56693" />
<path d="M266.82,40.209L278.82,40.209" style="fill:none;stroke:#808080;stroke-width:0.56693" />
<path d="M266.82,40.209L278.82,40.209" style="fill:none;stroke:#808080;stroke-width:0.56693" />
<text x="263.37" y="-67.924" transform="scale(1, -1)"
	style="font-family:Liberation Serif;font-variant:normal;font-weight:normal;font-style:normal;font-size:8.4px;fill:#808080">0.000</text>
<text x="267.88" y="-59.524" transform="scale(1, -1)"
	style="font-family:Liberation Serif;font-variant:normal;font-weight:normal;font-style:normal;font-size:8.4px;fill:#808080">+/-</text>
<text x="267.22" y="-51.124" transform="scale(1, -1)"
	style="font-family:Liberation Serif;font-variant:normal;font-weight:normal;font-style:normal;font-size:8.4px;fill:#808080">0%</text>
<path d="M462,40.209L462,40.209L486,40.209L486,40.209Z" style="fill:#A6CEE3" />
<path d="M474,40.209L474,40.209" style="fill:none;stroke:#808080;stroke-width:0.56693" />
<path d="M468,40.209L480,40.209" style="fill:none;stroke:#808080;stroke-width:0.56693" />
<path d="M468,40.209L480,40.209" style="fill:none;stroke:#808080;stroke-width:0.56693" />
<text x="464.55" y="-67.924" transform="scale(1, -1)"
	style="font-family:Liberation Serif;font-variant:normal;font-weight:normal;font-style:normal;font-size:8.4px;fill:#808080">0.000</text>
<text x="469.07" y="-59.524" transform="scale(1, -1)"
	style="font-family:Liberation Serif;font-variant:normal;font-weight:normal;font-style:normal;font-size:8.4px;fill:#808080">+/-</text>
<text x="468.4" y="-51.124" transform="scale(1, -1)"
	style="font-family:Liberation Serif;font-variant:normal;font-weight:normal;font-style:normal;font-size:8.4px;fill:#808080">0%</text>
<path d="M86.635,40.209L86.635,182.93L110.63,182.93L110.63,40.209Z" style="fill:#1F78B4" />
<path d="M98.635,181.98L98.635,183.73" style="fill:none;stroke:#808080;stroke-width:0.56693" />
<path d="M92.635,181.98L104.63,181.98" style="fill:none;stroke:#808080;stroke-width:0.56693" />
<path d="M92.635,183.73L104.63,183.73" style="fill:none;stroke:#808080;stroke-width:0.56693" />
<text x="89.185" y="-211.45" transform="scale(1, -1)"
	style="font-family:Liberation Serif;font-variant:normal;font-weight:normal;font-style:normal;font-size:8.4px;fill:#808080">218.5</text>
<text x="93.701" y="-203.05" transform="scale(1, -1)"
	style="font-family:Liberation Serif;font-variant:normal;font-weight:normal;font-style:normal;font-size:8.4px;fill:#808080">+/-</text>
<text x="93.036" y="-194.65" transform="scale(1, -1)"
	style="font-family:Liberation Serif;font-variant:normal;font-weight:normal;font-style:normal;font-size:8.4px;fill:#808080">1%</text>
<path d="M287.82,40.209L287.82,184.06L311.82,184.06L311.82,40.209Z" style="fill:#1F78B4" />
<path d="M299.82,181.69L299.82,185.25" style="fill:none;stroke:#808080;stroke-width:0.56693" />
<path d="M293.82,181.69L305.82,181.69" style="fill:none;stroke:#808080;stroke-width:0.56693" />
<path d="M293.82,185.25L305.82,185.25" style="fill:none;stroke:#808080;stroke-width:0.56693" />
<text x="290.37" y="-212.96" transform="scale(1, -1)"
	style="font-family:Liberation Serif;font-variant:normal;font-weight:normal;font-style:normal;font-size:8.4px;fill:#808080">220.2</text>
<text x="291.85" y="-204.56" transform="scale(1, -1)"
	style="font-family:Liberation Serif;font-variant:normal;font-weight:normal;font-style:normal;font-size:8.4px;fill:#808080">+1%</text>
<text x="292.82" y="-196.16" transform="scale(1, -1)"
	style="font-family:Liberation Serif;font-variant:normal;font-weight:normal;font-style:normal;font-size:8.4px;fill:#808080">-2%</text>
<path d="M489,40.209L489,185.65L513,185.65L513,40.209Z" style="fill:#1F78B4" />
<path d="M501,183.67L501,188.55" style="fill:none;stroke:#808080;stroke-width:0.56693" />
<path d="M495,183.67L507,183.67" style="fill:none;stroke:#808080;stroke-width:0.56693" />
<path d="M495,188.55L507,188.55" style="fill:none;stroke:#808080;stroke-width:0.56693" />
<text x="491.55" y="-216.27" transform="scale(1, -1)"
	style="font-family:Liberation Serif;font-variant:normal;font-weight:normal;font-style:normal;font-size:8.4px;fill:#808080">222.6</text>
<text x="493.03" y="-207.87" transform="scale(1, -1)"
	style="font-family:Liberation Serif;font-variant:normal;font-weight:normal;font-style:normal;font-size:8.4px;fill:#808080">+2%</text>
<text x="494" y="-199.47" transform="scale(1, -1)"
	style="font-family:Liberation Serif;font-variant:normal;font-weight:normal;font-style:normal;font-size:8.4px;fill:#808080">-1%</text>
<path d="M113.63,40.209L113.63,262.52L137.63,262.52L137.63,40.209Z" style="fill:#B2DF8A" />
<path d="M125.63,262.16L125.63,262.83" style="fill:none;stroke:#808080;stroke-width:0.56693" />
<path d="M119.63,262.16L131.63,262.16" style="fill:none;stroke:#808080;stroke-width:0.56693" />
<path d="M119.63,262.83L131.63,262.83" style="fill:none;stroke:#808080;stroke-width:0.56693" />
<text x="116.18" y="-290.54" transform="scale(1, -1)"
	style="font-family:Liberation Serif;font-variant:normal;font-weight:normal;font-style:normal;font-size:8.4px;fill:#808080">340.3</text>
<text x="120.7" y="-282.14" transform="scale(1, -1)"
	style="font-family:Liberation Serif;font-variant:normal;font-weight:normal;font-style:normal;font-size:8.4px;fill:#808080">+/-</text>
<text x="120.04" y="-273.74" transform="scale(1, -1)"
	style="font-family:Liberation Serif;font-variant:normal;font-weight:normal;font-style:normal;font-size:8.4px;fill:#808080">0%</text>
<path d="M314.82,40.209L314.82,275.26L338.82,275.26L338.82,40.209Z" style="fill:#B2DF8A" />
<path d="M326.82,274.4L326.82,276.77" style="fill:none;stroke:#808080;stroke-width:0.56693" />
<path d="M320.82,274.4L332.82,274.4" style="fill:none;stroke:#808080;stroke-width:0.56693" />
<path d="M320.82,276.77L332.82,276.77" style="fill:none;stroke:#808080;stroke-width:0.56693" />
<text x="317.37" y="-304.49" transform="scale(1, -1)"
	style="font-family:Liberation Serif;font-variant:normal;font-weight:normal;font-style:normal;font-size:8.4px;fill:#808080">359.8</text>
<text x="318.85" y="-296.09" transform="scale(1, -1)"
	style="font-family:Liberation Serif;font-variant:normal;font-weight:normal;font-style:normal;font-size:8.4px;fill:#808080">+1%</text>
<text x="319.82" y="-287.69" transform="scale(1, -1)"
	style="font-family:Liberation Serif;font-variant:normal;font-weight:normal;font-style:normal;font-size:8.4px;fill:#808080">-0%</text>
<path d="M516,40.209L516,267.41L540,267.41L540,40.209Z" style="fill:#B2DF8A" />
<path d="M528,267.06L528,267.72" style="fill:none;stroke:#808080;stroke-width:0.56693" />
<path d="M522,267.06L534,267.06" style="fill:none;stroke:#808080;stroke-width:0.56693" />
<path d="M522,267.72L534,267.72" style="fill:none;stroke:#808080;stroke-width:0.56693" />
<text x="518.55" y="-295.44" transform="scale(1, -1)"
	style="font-family:Liberation Serif;font-variant:normal;font-weight:normal;font-style:normal;font-size:8.4px;fill:#808080">347.8</text>
<text x="523.07" y="-287.04" transform="scale(1, -1)"
	style="font-family:Liberation Serif;font-variant:normal;font-weight:normal;font-style:normal;font-size:8.4px;fill:#808080">+/-</text>
<text x="522.4" y="-278.64" transform="scale(1, -1)"
	style="font-family:Liberation Serif;font-variant:normal;font-weight:normal;font-style:normal;font-size:8.4px;fill:#808080">0%</text>
<path d="M140.63,40.209L140.63,233.7L164.63,233.7L164.63,40.209Z" style="fill:#33A02C" />
<path d="M152.63,233.34L152.63,234.45" style="fill:none;stroke:#808080;stroke-width:0.56693" />
<path d="M146.63,233.34L158.63,233.34" style="fill:none;stroke:#808080;stroke-width:0.56693" />
<path d="M146.63,234.45L158.63,234.45" style="fill:none;stroke:#808080;stroke-width:0.56693" />
<text x="143.18" y="-262.16" transform="scale(1, -1)"
	style="font-family:Liberation Serif;font-variant:normal;font-weight:normal;font-style:normal;font-size:8.4px;fill:#808080">296.2</text>
<text x="147.7" y="-253.76" transform="scale(1, -1)"
	style="font-family:Liberation Serif;font-variant:normal;font-weight:normal;font-style:normal;font-size:8.4px;fill:#808080">+/-</text>
<text x="147.04" y="-245.36" transform="scale(1, -1)"
	style="font-family:Liberation Serif;font-variant:normal;font-weight:normal;font-style:normal;font-size:8.4px;fill:#808080">0%</text>
<path d="M341.82,40.209L341.82,259.8L365.82,259.8L365.82,40.209Z" style="fill:#33A02C" />
<path d="M353.82,259.36L353.82,260.65" style="fill:none;stroke:#808080;stroke-width:0.56693" />
<path d="M347.82,259.36L359.82,259.36" style="fill:none;stroke:#808080;stroke-width:0.56693" />
<path d="M347.82,260.65L359.82,260.65" style="fill:none;stroke:#808080;stroke-width:0.56693" />
<text x="344.37" y="-288.36" transform="scale(1, -1)"
	style="font-family:Liberation Serif;font-variant:normal;font-weight:normal;font-style:normal;font-size:8.4px;fill:#808080">336.1</text>
<text x="348.88" y="-279.96" transform="scale(1, -1)"
	style="font-family:Liberation Serif;font-variant:normal;font-weight:normal;font-style:normal;font-size:8.4px;fill:#808080">+/-</text>
<text x="348.22" y="-271.56" transform="scale(1, -1)"
	style="font-family:Liberation Serif;font-variant:normal;font-weight:normal;font-style:normal;font-size:8.4px;fill:#808080">0%</text>
<path d="M543,40.209L543,266.42L567,266.42L567,40.209Z" style="fill:#33A02C" />
<path d="M555,265.53L555,266.76" style="fill:none;stroke:#808080;stroke-width:0.56693" />
<path d="M549,265.53L561,265.53" style="fill:none;stroke:#808080;stroke-width:0.56693" />
<path d="M549,266.76L561,266.76" style="fill:none;stroke:#808080;stroke-width:0.56693" />
<text x="545.55" y="-294.47" transform="scale(1, -1)"
	style="font-family:Liberation Serif;font-variant:normal;font-weight:normal;font-style:normal;font-size:8.4px;fill:#808080">346.2</text>
<text x="550.07" y="-286.07" transform="scale(1, -1)"
	style="font-family:Liberation Serif;font-variant:normal;font-weight:normal;font-style:normal;font-size:8.4px;fill:#808080">+/-</text>
<text x="549.4" y="-277.67" transform="scale(1, -1)"
	style="font-family:Liberation Serif;font-variant:normal;font-weight:normal;font-style:normal;font-size:8.4px;fill:#808080">0%</text>
<path d="M167.63,40.209L167.63,221.96L191.63,221.96L191.63,40.209Z" style="fill:#FB9A99" />
<path d="M179.63,221.17L179.63,222.34" style="fill:none;stroke:#808080;stroke-width:0.56693" />
<path d="M173.63,221.17L185.63,221.17" style="fill:none;stroke:#808080;stroke-width:0.56693" />
<path d="M173.63,222.34L185.63,222.34" style="fill:none;stroke:#808080;stroke-width:0.56693" />
<text x="170.18" y="-250.05" transform="scale(1, -1)"
	style="font-family:Liberation Serif;font-variant:normal;font-weight:normal;font-style:normal;font-size:8.4px;fill:#808080">278.2</text>
<text x="174.7" y="-241.65" transform="scale(1, -1)"
	style="font-family:Liberation Serif;font-variant:normal;font-weight:normal;font-style:normal;font-size:8.4px;fill:#808080">+/-</text>
<text x="174.04" y="-233.25" transform="scale(1, -1)"
	style="font-family:Liberation Serif;font-variant:normal;font-weight:normal;font-style:normal;font-size:8.4px;fill:#808080">0%</text>
<path d="M368.82,40.209L368.82,247.89L392.82,247.89L392.82,40.209Z" style="fill:#FB9A99" />
<path d="M380.82,247.02L380.82,248.27" style="fill:none;stroke:#808080;stroke-width:0.56693" />
<path d="M374.82,247.02L386.82,247.02" style="fill:none;stroke:#808080;stroke-width:0.56693" />
<path d="M374.82,248.27L386.82,248.27" style="fill:none;stroke:#808080;stroke-width:0.56693" />
<text x="371.37" y="-275.98" transform="scale(1, -1)"
	style="font-family:Liberation Serif;font-variant:normal;font-weight:normal;font-style:normal;font-size:8.4px;fill:#808080">317.9</text>
<text x="375.88" y="-267.58" transform="scale(1, -1)"
	style="font-family:Liberation Serif;font-variant:normal;font-weight:normal;font-style:normal;font-size:8.4px;fill:#808080">+/-</text>
<text x="375.22" y="-259.18" transform="scale(1, -1)"
	style="font-family:Liberation Serif;font-variant:normal;font-weight:normal;font-style:normal;font-size:8.4px;fill:#808080">0%</text>
<path d="M570,40.209L570,263.95L594,263.95L594,40.209Z" style="fill:#FB9A99" />
<path d="M582,263.16L582,264.79" style="fill:none;stroke:#808080;stroke-width:0.56693" />
<path d="M576,263.16L588,263.16" style="fill:none;stroke:#808080;stroke-width:0.56693" />
<path d="M576,264.79L588,264.79" style="fill:none;stroke:#808080;stroke-width:0.56693" />
<text x="572.55" y="-292.5" transform="scale(1, -1)"
	style="font-family:Liberation Serif;font-variant:normal;font-weight:normal;font-style:normal;font-size:8.4px;fill:#808080">342.5</text>
<text x="577.07" y="-284.1" transform="scale(1, -1)"
	style="font-family:Liberation Serif;font-variant:normal;font-weight:normal;font-style:normal;font-size:8.4px;fill:#808080">+/-</text>
<text x="576.4" y="-275.7" transform="scale(1, -1)"
	style="font-family:Liberation Serif;font-variant:normal;font-weight:normal;font-style:normal;font-size:8.4px;fill:#808080">0%</text>
<path d="M194.63,40.209L194.63,215.78L218.63,215.78L218.63,40.209Z" style="fill:#E31A1C" />
<path d="M206.63,215.66L206.63,216.03" style="fill:none;stroke:#808080;stroke-width:0.56693" />
<path d="M200.63,215.66L212.63,215.66" style="fill:none;stroke:#808080;stroke-width:0.56693" />
<path d="M200.63,216.03L212.63,216.03" style="fill:none;stroke:#808080;stroke-width:0.56693" />
<text x="197.18" y="-243.74" transform="scale(1, -1)"
	style="font-family:Liberation Serif;font-variant:normal;font-weight:normal;font-style:normal;font-size:8.4px;fill:#808080">268.7</text>
<text x="201.7" y="-235.34" transform="scale(1, -1)"
	style="font-family:Liberation Serif;font-variant:normal;font-weight:normal;font-style:normal;font-size:8.4px;fill:#808080">+/-</text>
<text x="201.04" y="-226.94" transform="scale(1, -1)"
	style="font-family:Liberation Serif;font-variant:normal;font-weight:normal;font-style:normal;font-size:8.4px;fill:#808080">0%</text>
<path d="M395.82,40.209L395.82,241.45L419.82,241.45L419.82,40.209Z" style="fill:#E31A1C" />
<path d="M407.82,240.75L407.82,242.29" style="fill:none;stroke:#808080;stroke-width:0.56693" />
<path d="M401.82,240.75L413.82,240.75" style="fill:none;stroke:#808080;stroke-width:0.56693" />
<path d="M401.82,242.29L413.82,242.29" style="fill:none;stroke:#808080;stroke-width:0.56693" />
<text x="398.37" y="-270.01" transform="scale(1, -1)"
	style="font-family:Liberation Serif;font-variant:normal;font-weight:normal;font-style:normal;font-size:8.4px;fill:#808080">308.0</text>
<text x="402.88" y="-261.61" transform="scale(1, -1)"
	style="font-family:Liberation Serif;font-variant:normal;font-weight:normal;font-style:normal;font-size:8.4px;fill:#808080">+/-</text>
<text x="402.22" y="-253.21" transform="scale(1, -1)"
	style="font-family:Liberation Serif;font-variant:normal;font-weight:normal;font-style:normal;font-size:8.4px;fill:#808080">0%</text>
<path d="M597,40.209L597,260.06L621,260.06L621,40.209Z" style="fill:#E31A1C" />
<path d="M609,259.32L609,260.96" style="fill:none;stroke:#808080;stroke-width:0.56693" />
<path d="M603,259.32L615,259.32" style="fill:none;stroke:#808080;stroke-width:0.56693" />
<path d="M603,260.96L615,260.96" style="fill:none;stroke:#808080;stroke-width:0.56693" />
<text x="599.55" y="-288.67" transform="scale(1, -1)"
	style="font-family:Liberation Serif;font-variant:normal;font-weight:normal;font-style:normal;font-size:8.4px;fill:#808080">336.5</text>
<text x="604.07" y="-280.27" transform="scale(1, -1)"
	style="font-family:Liberation Serif;font-variant:normal;font-weight:normal;font-style:normal;font-size:8.4px;fill:#808080">+/-</text>
<text x="603.4" y="-271.87" transform="scale(1, -1)"
	style="font-family:Liberation Serif;font-variant:normal;font-weight:normal;font-style:normal;font-size:8.4px;fill:#808080">0%</text>
<path d="M221.63,40.209L221.63,213.54L245.63,213.54L245.63,40.209Z" style="fill:#FDBF6F" />
<path d="M233.63,212.99L233.63,213.83" style="fill:none;stroke:#808080;stroke-width:0.56693" />
<path d="M227.63,212.99L239.63,212.99" style="fill:none;stroke:#808080;stroke-width:0.56693" />
<path d="M227.63,213.83L239.63,213.83" style="fill:none;stroke:#808080;stroke-width:0.56693" />
<text x="224.18" y="-241.54" transform="scale(1, -1)"
	style="font-family:Liberation Serif;font-variant:normal;font-weight:normal;font-style:normal;font-size:8.4px;fill:#808080">265.3</text>
<text x="228.7" y="-233.14" transform="scale(1, -1)"
	style="font-family:Liberation Serif;font-variant:normal;font-weight:normal;font-style:normal;font-size:8.4px;fill:#808080">+/-</text>
<text x="228.04" y="-224.74" transform="scale(1, -1)"
	style="font-family:Liberation Serif;font-variant:normal;font-weight:normal;font-style:normal;font-size:8.4px;fill:#808080">0%</text>
<path d="M422.82,40.209L422.82,216.16L446.82,216.16L446.82,40.209Z" style="fill:#FDBF6F" />
<path d="M434.82,215.66L434.82,216.65" style="fill:none;stroke:#808080;stroke-width:0.56693" />
<path d="M428.82,215.66L440.82,215.66" style="fill:none;stroke:#808080;stroke-width:0.56693" />
<path d="M428.82,216.65L440.82,216.65" style="fill:none;stroke:#808080;stroke-width:0.56693" />
<text x="425.37" y="-244.36" transform="scale(1, -1)"
	style="font-family:Liberation Serif;font-variant:normal;font-weight:normal;font-style:normal;font-size:8.4px;fill:#808080">269.3</text>
<text x="429.88" y="-235.96" transform="scale(1, -1)"
	style="font-family:Liberation Serif;font-variant:normal;font-weight:normal;font-style:normal;font-size:8.4px;fill:#808080">+/-</text>
<text x="429.22" y="-227.56" transform="scale(1, -1)"
	style="font-family:Liberation Serif;font-variant:normal;font-weight:normal;font-style:normal;font-size:8.4px;fill:#808080">0%</text>
<path d="M624,40.209L624,247.8L648,247.8L648,40.209Z" style="fill:#FDBF6F" />
<path d="M636,246.84L636,248.22" style="fill:none;stroke:#808080;stroke-width:0.56693" />
<path d="M630,246.84L642,246.84" style="fill:none;stroke:#808080;stroke-width:0.56693" />
<path d="M630,248.22L642,248.22" style="fill:none;stroke:#808080;stroke-width:0.56693" />
<text x="626.55" y="-275.93" transform="scale(1, -1)"
	style="font-family:Liberation Serif;font-variant:normal;font-weight:normal;font-style:normal;font-size:8.4px;fill:#808080">317.7</text>
<text x="631.07" y="-267.53" transform="scale(1, -1)"
	style="font-family:Liberation Serif;font-variant:normal;font-weight:normal;font-style:normal;font-size:8.4px;fill:#808080">+/-</text>
<text x="630.4" y="-259.13" transform="scale(1, -1)"
	style="font-family:Liberation Serif;font-variant:normal;font-weight:normal;font-style:normal;font-size:8.4px;fill:#808080">0%</text>
<path d="M59.635,405.93L59.635,416.12L79.635,416.12L79.635,405.93Z" style="fill:#A6CEE3" />
<text x="82.635" y="-408.54" transform="scale(1, -1)"
	style="font-family:Liberation Serif;font-variant:normal;font-weight:normal;font-style:normal;font-size:12px;fill:#808080">Direct Call</text>
<path d="M59.635,392.91L59.635,403.1L79.635,403.1L79.635,392.91Z" style="fill:#1F78B4" />
<text x="82.635" y="-395.52" transform="scale(1, -1)"
	style="font-family:Liberation Serif;font-variant:normal;font-weight:normal;font-style:normal;font-size:12px;fill:#808080">Gather Only</text>
<path d="M59.635,379.9L59.635,390.08L79.635,390.08L79.635,379.9Z" style="fill:#B2DF8A" />
<text x="82.635" y="-382.5" transform="scale(1, -1)"
	style="font-family:Liberation Serif;font-variant:normal;font-weight:normal;font-style:normal;font-size:12px;fill:#808080">Combine (limit 1)</text>
<path d="M59.635,366.88L59.635,377.06L79.635,377.06L79.635,366.88Z" style="fill:#33A02C" />
<text x="82.635" y="-369.48" transform="scale(1, -1)"
	style="font-family:Liberation Serif;font-variant:normal;font-weight:normal;font-style:normal;font-size:12px;fill:#808080">Combine (limit 2)</text>
<path d="M59.635,353.86L59.635,364.04L79.635,364.04L79.635,353.86Z" style="fill:#FB9A99" />
<text x="82.635" y="-356.46" transform="scale(1, -1)"
	style="font-family:Liberation Serif;font-variant:normal;font-weight:normal;font-style:normal;font-size:12px;fill:#808080">Combine (limit 3)</text>
<path d="M59.635,340.84L59.635,351.02L79.635,351.02L79.635,340.84Z" style="fill:#E31A1C" />
<text x="82.635" y="-343.44" transform="scale(1, -1)"
	style="font-family:Liberation Serif;font-variant:normal;font-weight:normal;font-style:normal;font-size:12px;fill:#808080">Combine (limit 4)</text>
<path d="M59.635,327.82L59.635,338.01L79.635,338.01L79.635,327.82Z" style="fill:#FDBF6F" />
<text x="82.635" y="-330.43" transform="scale(1, -1)"
	style="font-family:Liberation Serif;font-variant:normal;font-weight:normal;font-style:normal;font-size:12px;fill:#808080">Combine (limit 8)</text>
</g>
</svg>
