<?xml version="1.0"?>
<!-- Generated by SVGo and Plotinum VG -->
<svg width="648pt" height="432pt" viewBox="0 0 648 432"
	xmlns="http://www.w3.org/2000/svg"
	xmlns:xlink="http://www.w3.org/1999/xlink">
<g transform="scale(1, -1) translate(0, -432)">
<path d="M0,0L648,0L648,432L0,432Z" style="fill:#-8000000000000000-8000000000000000-8000000000000000;fill-opacity:0" />
<text x="220.71" y="-422.61" transform="scale(1, -1)"
	style="font-family:Liberation Serif;font-variant:normal;font-weight:normal;font-style:normal;font-size:12px;fill:#808080">Allocations Per Task Aggregated (Waiting)</text>
<text x="225.82" y="-3.9023" transform="scale(1, -1)"
	style="font-family:Liberation Serif;font-variant:normal;font-weight:normal;font-style:normal;font-size:12px;fill:#808080">Aggregation Workload Duration @ Flush Period</text>
<text x="104.87" y="-16.541" transform="scale(1, -1)"
	style="font-family:Liberation Serif;font-variant:normal;font-weight:normal;font-style:normal;font-size:10px;fill:#808080">10µs @ 1ms</text>
<text x="312.3" y="-16.541" transform="scale(1, -1)"
	style="font-family:Liberation Serif;font-variant:normal;font-weight:normal;font-style:normal;font-size:10px;fill:#808080">100µs @ 10ms</text>
<text x="526.23" y="-16.541" transform="scale(1, -1)"
	style="font-family:Liberation Serif;font-variant:normal;font-weight:normal;font-style:normal;font-size:10px;fill:#808080">1ms @ 100ms</text>
<path d="M130.13,24.363L130.13,32.363" style="fill:none;stroke:#808080;stroke-width:0.5" />
<path d="M342.57,24.363L342.57,32.363" style="fill:none;stroke:#808080;stroke-width:0.5" />
<path d="M555,24.363L555,32.363" style="fill:none;stroke:#808080;stroke-width:0.5" />
<path d="M130.13,32.363L555,32.363" style="fill:none;stroke:#808080;stroke-width:0.5" />
<g transform="rotate(90)">
<text x="186" y="9.3867" transform="scale(1, -1)"
	style="font-family:Liberation Serif;font-variant:normal;font-weight:normal;font-style:normal;font-size:12px;fill:#808080">Allocations / Task</text>
</g>
<text x="15.885" y="-37.924" transform="scale(1, -1)"
	style="font-family:Liberation Serif;font-variant:normal;font-weight:normal;font-style:normal;font-size:10px;fill:#808080">0</text>
<text x="15.885" y="-152.19" transform="scale(1, -1)"
	style="font-family:Liberation Serif;font-variant:normal;font-weight:normal;font-style:normal;font-size:10px;fill:#808080">3</text>
<text x="15.885" y="-266.46" transform="scale(1, -1)"
	style="font-family:Liberation Serif;font-variant:normal;font-weight:normal;font-style:normal;font-size:10px;fill:#808080">6</text>
<text x="15.885" y="-380.74" transform="scale(1, -1)"
	style="font-family:Liberation Serif;font-variant:normal;font-weight:normal;font-style:normal;font-size:10px;fill:#808080">9</text>
<path d="M23.385,40.209L31.385,40.209" style="fill:none;stroke:#808080;stroke-width:0.5" />
<path d="M23.385,154.48L31.385,154.48" style="fill:none;stroke:#808080;stroke-width:0.5" />
<path d="M23.385,268.75L31.385,268.75" style="fill:none;stroke:#808080;stroke-width:0.5" />
<path d="M23.385,383.02L31.385,383.02" style="fill:none;stroke:#808080;stroke-width:0.5" />
<path d="M27.385,78.299L31.385,78.299" style="fill:none;stroke:#808080;stroke-width:0.5" />
<path d="M27.385,116.39L31.385,116.39" style="fill:none;stroke:#808080;stroke-width:0.5" />
<path d="M27.385,192.57L31.385,192.57" style="fill:none;stroke:#808080;stroke-width:0.5" />
<path d="M27.385,230.66L31.385,230.66" style="fill:none;stroke:#808080;stroke-width:0.5" />
<path d="M27.385,306.84L31.385,306.84" style="fill:none;stroke:#808080;stroke-width:0.5" />
<path d="M27.385,344.93L31.385,344.93" style="fill:none;stroke:#808080;stroke-width:0.5" />
<path d="M31.385,40.209L31.385,418.71" style="fill:none;stroke:#808080;stroke-width:0.5" />
<path d="M37.135,40.209L37.135,40.209L61.135,40.209L61.135,40.209Z" style="fill:#A6CEE3" />
<path d="M49.135,40.209L49.135,40.209" style="fill:none;stroke:#808080;stroke-width:0.56693" />
<path d="M43.135,40.209L55.135,40.209" style="fill:none;stroke:#808080;stroke-width:0.56693" />
<path d="M43.135,40.209L55.135,40.209" style="fill:none;stroke:#808080;stroke-width:0.56693" />
<text x="39.685" y="-67.924" transform="scale(1, -1)"
	style="font-family:Liberation Serif;font-variant:normal;font-weight:normal;font-style:normal;font-size:8.4px;fill:#808080">0.000</text>
<text x="44.201" y="-59.524" transform="scale(1, -1)"
	style="font-family:Liberation Serif;font-variant:normal;font-weight:normal;font-style:normal;font-size:8.4px;fill:#808080">+/-</text>
<text x="43.536" y="-51.124" transform="scale(1, -1)"
	style="font-family:Liberation Serif;font-variant:normal;font-weight:normal;font-style:normal;font-size:8.4px;fill:#808080">0%</text>
<path d="M249.57,40.209L249.57,40.209L273.57,40.209L273.57,40.209Z" style="fill:#A6CEE3" />
<path d="M261.57,40.209L261.57,40.209" style="fill:none;stroke:#808080;stroke-width:0.56693" />
<path d="M255.57,40.209L267.57,40.209" style="fill:none;stroke:#808080;stroke-width:0.56693" />
<path d="M255.57,40.209L267.57,40.209" style="fill:none;stroke:#808080;stroke-width:0.56693" />
<text x="252.12" y="-67.924" transform="scale(1, -1)"
	style="font-family:Liberation Serif;font-variant:normal;font-weight:normal;font-style:normal;font-size:8.4px;fill:#808080">0.000</text>
<text x="256.63" y="-59.524" transform="scale(1, -1)"
	style="font-family:Liberation Serif;font-variant:normal;font-weight:normal;font-style:normal;font-size:8.4px;fill:#808080">+/-</text>
<text x="255.97" y="-51.124" transform="scale(1, -1)"
	style="font-family:Liberation Serif;font-variant:normal;font-weight:normal;font-style:normal;font-size:8.4px;fill:#808080">0%</text>
<path d="M462,40.209L462,40.209L486,40.209L486,40.209Z" style="fill:#A6CEE3" />
<path d="M474,40.209L474,40.209" style="fill:none;stroke:#808080;stroke-width:0.56693" />
<path d="M468,40.209L480,40.209" style="fill:none;stroke:#808080;stroke-width:0.56693" />
<path d="M468,40.209L480,40.209" style="fill:none;stroke:#808080;stroke-width:0.56693" />
<text x="464.55" y="-67.924" transform="scale(1, -1)"
	style="font-family:Liberation Serif;font-variant:normal;font-weight:normal;font-style:normal;font-size:8.4px;fill:#808080">0.000</text>
<text x="469.07" y="-59.524" transform="scale(1, -1)"
	style="font-family:Liberation Serif;font-variant:normal;font-weight:normal;font-style:normal;font-size:8.4px;fill:#808080">+/-</text>
<text x="468.4" y="-51.124" transform="scale(1, -1)"
	style="font-family:Liberation Serif;font-variant:normal;font-weight:normal;font-style:normal;font-size:8.4px;fill:#808080">0%</text>
<path d="M64.135,40.209L64.135,230.56L88.135,230.56L88.135,40.209Z" style="fill:#1F78B4" />
<path d="M76.135,229.71L76.135,230.95" style="fill:none;stroke:#808080;stroke-width:0.56693" />
<path d="M70.135,229.71L82.135,229.71" style="fill:none;stroke:#808080;stroke-width:0.56693" />
<path d="M70.135,230.95L82.135,230.95" style="fill:none;stroke:#808080;stroke-width:0.56693" />
<text x="66.685" y="-258.66" transform="scale(1, -1)"
	style="font-family:Liberation Serif;font-variant:normal;font-weight:normal;font-style:normal;font-size:8.4px;fill:#808080">4.998</text>
<text x="71.201" y="-250.26" transform="scale(1, -1)"
	style="font-family:Liberation Serif;font-variant:normal;font-weight:normal;font-style:normal;font-size:8.4px;fill:#808080">+/-</text>
<text x="70.536" y="-241.86" transform="scale(1, -1)"
	style="font-family:Liberation Serif;font-variant:normal;font-weight:normal;font-style:normal;font-size:8.4px;fill:#808080">0%</text>
<path d="M276.57,40.209L276.57,225.73L300.57,225.73L300.57,40.209Z" style="fill:#1F78B4" />
<path d="M288.57,215.2L288.57,229.52" style="fill:none;stroke:#808080;stroke-width:0.56693" />
<path d="M282.57,215.2L294.57,215.2" style="fill:none;stroke:#808080;stroke-width:0.56693" />
<path d="M282.57,229.52L294.57,229.52" style="fill:none;stroke:#808080;stroke-width:0.56693" />
<text x="279.12" y="-257.24" transform="scale(1, -1)"
	style="font-family:Liberation Serif;font-variant:normal;font-weight:normal;font-style:normal;font-size:8.4px;fill:#808080">4.871</text>
<text x="280.6" y="-248.84" transform="scale(1, -1)"
	style="font-family:Liberation Serif;font-variant:normal;font-weight:normal;font-style:normal;font-size:8.4px;fill:#808080">+2%</text>
<text x="281.57" y="-240.44" transform="scale(1, -1)"
	style="font-family:Liberation Serif;font-variant:normal;font-weight:normal;font-style:normal;font-size:8.4px;fill:#808080">-6%</text>
<path d="M489,40.209L489,228.45L513,228.45L513,40.209Z" style="fill:#1F78B4" />
<path d="M501,224.13L501,229.82" style="fill:none;stroke:#808080;stroke-width:0.56693" />
<path d="M495,224.13L507,224.13" style="fill:none;stroke:#808080;stroke-width:0.56693" />
<path d="M495,229.82L507,229.82" style="fill:none;stroke:#808080;stroke-width:0.56693" />
<text x="491.55" y="-257.53" transform="scale(1, -1)"
	style="font-family:Liberation Serif;font-variant:normal;font-weight:normal;font-style:normal;font-size:8.4px;fill:#808080">4.942</text>
<text x="493.03" y="-249.13" transform="scale(1, -1)"
	style="font-family:Liberation Serif;font-variant:normal;font-weight:normal;font-style:normal;font-size:8.4px;fill:#808080">+1%</text>
<text x="494" y="-240.73" transform="scale(1, -1)"
	style="font-family:Liberation Serif;font-variant:normal;font-weight:normal;font-style:normal;font-size:8.4px;fill:#808080">-2%</text>
<path d="M91.135,40.209L91.135,268.36L115.13,268.36L115.13,40.209Z" style="fill:#B2DF8A" />
<path d="M103.13,267.91L103.13,268.57" style="fill:none;stroke:#808080;stroke-width:0.56693" />
<path d="M97.135,267.91L109.13,267.91" style="fill:none;stroke:#808080;stroke-width:0.56693" />
<path d="M97.135,268.57L109.13,268.57" style="fill:none;stroke:#808080;stroke-width:0.56693" />
<text x="93.685" y="-296.28" transform="scale(1, -1)"
	style="font-family:Liberation Serif;font-variant:normal;font-weight:normal;font-style:normal;font-size:8.4px;fill:#808080">5.990</text>
<text x="98.201" y="-287.88" transform="scale(1, -1)"
	style="font-family:Liberation Serif;font-variant:normal;font-weight:normal;font-style:normal;font-size:8.4px;fill:#808080">+/-</text>
<text x="97.536" y="-279.48" transform="scale(1, -1)"
	style="font-family:Liberation Serif;font-variant:normal;font-weight:normal;font-style:normal;font-size:8.4px;fill:#808080">0%</text>
<path d="M303.57,40.209L303.57,275.82L327.57,275.82L327.57,40.209Z" style="fill:#B2DF8A" />
<path d="M315.57,274.75L315.57,276.77" style="fill:none;stroke:#808080;stroke-width:0.56693" />
<path d="M309.57,274.75L321.57,274.75" style="fill:none;stroke:#808080;stroke-width:0.56693" />
<path d="M309.57,276.77L321.57,276.77" style="fill:none;stroke:#808080;stroke-width:0.56693" />
<text x="306.12" y="-304.49" transform="scale(1, -1)"
	style="font-family:Liberation Serif;font-variant:normal;font-weight:normal;font-style:normal;font-size:8.4px;fill:#808080">6.186</text>
<text x="310.63" y="-296.09" transform="scale(1, -1)"
	style="font-family:Liberation Serif;font-variant:normal;font-weight:normal;font-style:normal;font-size:8.4px;fill:#808080">+/-</text>
<text x="309.97" y="-287.69" transform="scale(1, -1)"
	style="font-family:Liberation Serif;font-variant:normal;font-weight:normal;font-style:normal;font-size:8.4px;fill:#808080">0%</text>
<path d="M516,40.209L516,270.29L540,270.29L540,40.209Z" style="fill:#B2DF8A" />
<path d="M528,269.98L528,270.46" style="fill:none;stroke:#808080;stroke-width:0.56693" />
<path d="M522,269.98L534,269.98" style="fill:none;stroke:#808080;stroke-width:0.56693" />
<path d="M522,270.46L534,270.46" style="fill:none;stroke:#808080;stroke-width:0.56693" />
<text x="518.55" y="-298.18" transform="scale(1, -1)"
	style="font-family:Liberation Serif;font-variant:normal;font-weight:normal;font-style:normal;font-size:8.4px;fill:#808080">6.040</text>
<text x="523.07" y="-289.78" transform="scale(1, -1)"
	style="font-family:Liberation Serif;font-variant:normal;font-weight:normal;font-style:normal;font-size:8.4px;fill:#808080">+/-</text>
<text x="522.4" y="-281.38" transform="scale(1, -1)"
	style="font-family:Liberation Serif;font-variant:normal;font-weight:normal;font-style:normal;font-size:8.4px;fill:#808080">0%</text>
<path d="M118.13,40.209L118.13,253.22L142.13,253.22L142.13,40.209Z" style="fill:#33A02C" />
<path d="M130.13,253.04L130.13,253.79" style="fill:none;stroke:#808080;stroke-width:0.56693" />
<path d="M124.13,253.04L136.13,253.04" style="fill:none;stroke:#808080;stroke-width:0.56693" />
<path d="M124.13,253.79L136.13,253.79" style="fill:none;stroke:#808080;stroke-width:0.56693" />
<text x="120.68" y="-281.5" transform="scale(1, -1)"
	style="font-family:Liberation Serif;font-variant:normal;font-weight:normal;font-style:normal;font-size:8.4px;fill:#808080">5.592</text>
<text x="125.2" y="-273.1" transform="scale(1, -1)"
	style="font-family:Liberation Serif;font-variant:normal;font-weight:normal;font-style:normal;font-size:8.4px;fill:#808080">+/-</text>
<text x="124.54" y="-264.7" transform="scale(1, -1)"
	style="font-family:Liberation Serif;font-variant:normal;font-weight:normal;font-style:normal;font-size:8.4px;fill:#808080">0%</text>
<path d="M330.57,40.209L330.57,267.63L354.57,267.63L354.57,40.209Z" style="fill:#33A02C" />
<path d="M342.57,267.27L342.57,268" style="fill:none;stroke:#808080;stroke-width:0.56693" />
<path d="M336.57,267.27L348.57,267.27" style="fill:none;stroke:#808080;stroke-width:0.56693" />
<path d="M336.57,268L348.57,268" style="fill:none;stroke:#808080;stroke-width:0.56693" />
<text x="333.12" y="-295.71" transform="scale(1, -1)"
	style="font-family:Liberation Serif;font-variant:normal;font-weight:normal;font-style:normal;font-size:8.4px;fill:#808080">5.970</text>
<text x="337.63" y="-287.31" transform="scale(1, -1)"
	style="font-family:Liberation Serif;font-variant:normal;font-weight:normal;font-style:normal;font-size:8.4px;fill:#808080">+/-</text>
<text x="336.97" y="-278.91" transform="scale(1, -1)"
	style="font-family:Liberation Serif;font-variant:normal;font-weight:normal;font-style:normal;font-size:8.4px;fill:#808080">0%</text>
<path d="M543,40.209L543,269.77L567,269.77L567,40.209Z" style="fill:#33A02C" />
<path d="M555,269.44L555,270" style="fill:none;stroke:#808080;stroke-width:0.56693" />
<path d="M549,269.44L561,269.44" style="fill:none;stroke:#808080;stroke-width:0.56693" />
<path d="M549,270L561,270" style="fill:none;stroke:#808080;stroke-width:0.56693" />
<text x="545.55" y="-297.72" transform="scale(1, -1)"
	style="font-family:Liberation Serif;font-variant:normal;font-weight:normal;font-style:normal;font-size:8.4px;fill:#808080">6.027</text>
<text x="550.07" y="-289.32" transform="scale(1, -1)"
	style="font-family:Liberation Serif;font-variant:normal;font-weight:normal;font-style:normal;font-size:8.4px;fill:#808080">+/-</text>
<text x="549.4" y="-280.92" transform="scale(1, -1)"
	style="font-family:Liberation Serif;font-variant:normal;font-weight:normal;font-style:normal;font-size:8.4px;fill:#808080">0%</text>
<path d="M145.13,40.209L145.13,247L169.13,247L169.13,40.209Z" style="fill:#FB9A99" />
<path d="M157.13,246.72L157.13,247.25" style="fill:none;stroke:#808080;stroke-width:0.56693" />
<path d="M151.13,246.72L163.13,246.72" style="fill:none;stroke:#808080;stroke-width:0.56693" />
<path d="M151.13,247.25L163.13,247.25" style="fill:none;stroke:#808080;stroke-width:0.56693" />
<text x="147.68" y="-274.96" transform="scale(1, -1)"
	style="font-family:Liberation Serif;font-variant:normal;font-weight:normal;font-style:normal;font-size:8.4px;fill:#808080">5.429</text>
<text x="152.2" y="-266.56" transform="scale(1, -1)"
	style="font-family:Liberation Serif;font-variant:normal;font-weight:normal;font-style:normal;font-size:8.4px;fill:#808080">+/-</text>
<text x="151.54" y="-258.16" transform="scale(1, -1)"
	style="font-family:Liberation Serif;font-variant:normal;font-weight:normal;font-style:normal;font-size:8.4px;fill:#808080">0%</text>
<path d="M357.57,40.209L357.57,260.86L381.57,260.86L381.57,40.209Z" style="fill:#FB9A99" />
<path d="M369.57,260.6L369.57,261.14" style="fill:none;stroke:#808080;stroke-width:0.56693" />
<path d="M363.57,260.6L375.57,260.6" style="fill:none;stroke:#808080;stroke-width:0.56693" />
<path d="M363.57,261.14L375.57,261.14" style="fill:none;stroke:#808080;stroke-width:0.56693" />
<text x="360.12" y="-288.85" transform="scale(1, -1)"
	style="font-family:Liberation Serif;font-variant:normal;font-weight:normal;font-style:normal;font-size:8.4px;fill:#808080">5.793</text>
<text x="364.63" y="-280.45" transform="scale(1, -1)"
	style="font-family:Liberation Serif;font-variant:normal;font-weight:normal;font-style:normal;font-size:8.4px;fill:#808080">+/-</text>
<text x="363.97" y="-272.05" transform="scale(1, -1)"
	style="font-family:Liberation Serif;font-variant:normal;font-weight:normal;font-style:normal;font-size:8.4px;fill:#808080">0%</text>
<path d="M570,40.209L570,268.63L594,268.63L594,40.209Z" style="fill:#FB9A99" />
<path d="M582,268.22L582,269.06" style="fill:none;stroke:#808080;stroke-width:0.56693" />
<path d="M576,268.22L588,268.22" style="fill:none;stroke:#808080;stroke-width:0.56693" />
<path d="M576,269.06L588,269.06" style="fill:none;stroke:#808080;stroke-width:0.56693" />
<text x="572.55" y="-296.77" transform="scale(1, -1)"
	style="font-family:Liberation Serif;font-variant:normal;font-weight:normal;font-style:normal;font-size:8.4px;fill:#808080">5.997</text>
<text x="577.07" y="-288.37" transform="scale(1, -1)"
	style="font-family:Liberation Serif;font-variant:normal;font-weight:normal;font-style:normal;font-size:8.4px;fill:#808080">+/-</text>
<text x="576.4" y="-279.97" transform="scale(1, -1)"
	style="font-family:Liberation Serif;font-variant:normal;font-weight:normal;font-style:normal;font-size:8.4px;fill:#808080">0%</text>
<path d="M172.13,40.209L172.13,243.98L196.13,243.98L196.13,40.209Z" style="fill:#E31A1C" />
<path d="M184.13,243.83L184.13,244.15" style="fill:none;stroke:#808080;stroke-width:0.56693" />
<path d="M178.13,243.83L190.13,243.83" style="fill:none;stroke:#808080;stroke-width:0.56693" />
<path d="M178.13,244.15L190.13,244.15" style="fill:none;stroke:#808080;stroke-width:0.56693" />
<text x="174.68" y="-271.87" transform="scale(1, -1)"
	style="font-family:Liberation Serif;font-variant:normal;font-weight:normal;font-style:normal;font-size:8.4px;fill:#808080">5.350</text>
<text x="179.2" y="-263.47" transform="scale(1, -1)"
	style="font-family:Liberation Serif;font-variant:normal;font-weight:normal;font-style:normal;font-size:8.4px;fill:#808080">+/-</text>
<text x="178.54" y="-255.07" transform="scale(1, -1)"
	style="font-family:Liberation Serif;font-variant:normal;font-weight:normal;font-style:normal;font-size:8.4px;fill:#808080">0%</text>
<path d="M384.57,40.209L384.57,257.45L408.57,257.45L408.57,40.209Z" style="fill:#E31A1C" />
<path d="M396.57,256.88L396.57,257.75" style="fill:none;stroke:#808080;stroke-width:0.56693" />
<path d="M390.57,256.88L402.57,256.88" style="fill:none;stroke:#808080;stroke-width:0.56693" />
<path d="M390.57,257.75L402.57,257.75" style="fill:none;stroke:#808080;stroke-width:0.56693" />
<text x="387.12" y="-285.47" transform="scale(1, -1)"
	style="font-family:Liberation Serif;font-variant:normal;font-weight:normal;font-style:normal;font-size:8.4px;fill:#808080">5.703</text>
<text x="391.63" y="-277.07" transform="scale(1, -1)"
	style="font-family:Liberation Serif;font-variant:normal;font-weight:normal;font-style:normal;font-size:8.4px;fill:#808080">+/-</text>
<text x="390.97" y="-268.67" transform="scale(1, -1)"
	style="font-family:Liberation Serif;font-variant:normal;font-weight:normal;font-style:normal;font-size:8.4px;fill:#808080">0%</text>
<path d="M597,40.209L597,266.56L621,266.56L621,40.209Z" style="fill:#E31A1C" />
<path d="M609,266.14L609,267.19" style="fill:none;stroke:#808080;stroke-width:0.56693" />
<path d="M603,266.14L615,266.14" style="fill:none;stroke:#808080;stroke-width:0.56693" />
<path d="M603,267.19L615,267.19" style="fill:none;stroke:#808080;stroke-width:0.56693" />
<text x="599.55" y="-294.9" transform="scale(1, -1)"
	style="font-family:Liberation Serif;font-variant:normal;font-weight:normal;font-style:normal;font-size:8.4px;fill:#808080">5.943</text>
<text x="604.07" y="-286.5" transform="scale(1, -1)"
	style="font-family:Liberation Serif;font-variant:normal;font-weight:normal;font-style:normal;font-size:8.4px;fill:#808080">+/-</text>
<text x="603.4" y="-278.1" transform="scale(1, -1)"
	style="font-family:Liberation Serif;font-variant:normal;font-weight:normal;font-style:normal;font-size:8.4px;fill:#808080">0%</text>
<path d="M199.13,40.209L199.13,242.35L223.13,242.35L223.13,40.209Z" style="fill:#FDBF6F" />
<path d="M211.13,241.9L211.13,243.44" style="fill:none;stroke:#808080;stroke-width:0.56693" />
<path d="M205.13,241.9L217.13,241.9" style="fill:none;stroke:#808080;stroke-width:0.56693" />
<path d="M205.13,243.44L217.13,243.44" style="fill:none;stroke:#808080;stroke-width:0.56693" />
<text x="201.68" y="-271.16" transform="scale(1, -1)"
	style="font-family:Liberation Serif;font-variant:normal;font-weight:normal;font-style:normal;font-size:8.4px;fill:#808080">5.307</text>
<text x="203.17" y="-262.76" transform="scale(1, -1)"
	style="font-family:Liberation Serif;font-variant:normal;font-weight:normal;font-style:normal;font-size:8.4px;fill:#808080">+1%</text>
<text x="204.14" y="-254.36" transform="scale(1, -1)"
	style="font-family:Liberation Serif;font-variant:normal;font-weight:normal;font-style:normal;font-size:8.4px;fill:#808080">-0%</text>
<path d="M411.57,40.209L411.57,243.69L435.57,243.69L435.57,40.209Z" style="fill:#FDBF6F" />
<path d="M423.57,243.3L423.57,244.18" style="fill:none;stroke:#808080;stroke-width:0.56693" />
<path d="M417.57,243.3L429.57,243.3" style="fill:none;stroke:#808080;stroke-width:0.56693" />
<path d="M417.57,244.18L429.57,244.18" style="fill:none;stroke:#808080;stroke-width:0.56693" />
<text x="414.12" y="-271.89" transform="scale(1, -1)"
	style="font-family:Liberation Serif;font-variant:normal;font-weight:normal;font-style:normal;font-size:8.4px;fill:#808080">5.342</text>
<text x="418.63" y="-263.49" transform="scale(1, -1)"
	style="font-family:Liberation Serif;font-variant:normal;font-weight:normal;font-style:normal;font-size:8.4px;fill:#808080">+/-</text>
<text x="417.97" y="-255.09" transform="scale(1, -1)"
	style="font-family:Liberation Serif;font-variant:normal;font-weight:normal;font-style:normal;font-size:8.4px;fill:#808080">0%</text>
<path d="M624,40.209L624,260.03L648,260.03L648,40.209Z" style="fill:#FDBF6F" />
<path d="M636,259.63L636,260.38" style="fill:none;stroke:#808080;stroke-width:0.56693" />
<path d="M630,259.63L642,259.63" style="fill:none;stroke:#808080;stroke-width:0.56693" />
<path d="M630,260.38L642,260.38" style="fill:none;stroke:#808080;stroke-width:0.56693" />
<text x="626.55" y="-288.09" transform="scale(1, -1)"
	style="font-family:Liberation Serif;font-variant:normal;font-weight:normal;font-style:normal;font-size:8.4px;fill:#808080">5.771</text>
<text x="631.07" y="-279.69" transform="scale(1, -1)"
	style="font-family:Liberation Serif;font-variant:normal;font-weight:normal;font-style:normal;font-size:8.4px;fill:#808080">+/-</text>
<text x="630.4" y="-271.29" transform="scale(1, -1)"
	style="font-family:Liberation Serif;font-variant:normal;font-weight:normal;font-style:normal;font-size:8.4px;fill:#808080">0%</text>
<path d="M37.135,405.93L37.135,416.12L57.135,416.12L57.135,405.93Z" style="fill:#A6CEE3" />
<text x="60.135" y="-408.54" transform="scale(1, -1)"
	style="font-family:Liberation Serif;font-variant:normal;font-weight:normal;font-style:normal;font-size:12px;fill:#808080">Direct Call</text>
<path d="M37.135,392.91L37.135,403.1L57.135,403.1L57.135,392.91Z" style="fill:#1F78B4" />
<text x="60.135" y="-395.52" transform="scale(1, -1)"
	style="font-family:Liberation Serif;font-variant:normal;font-weight:normal;font-style:normal;font-size:12px;fill:#808080">Gather Only</text>
<path d="M37.135,379.9L37.135,390.08L57.135,390.08L57.135,379.9Z" style="fill:#B2DF8A" />
<text x="60.135" y="-382.5" transform="scale(1, -1)"
	style="font-family:Liberation Serif;font-variant:normal;font-weight:normal;font-style:normal;font-size:12px;fill:#808080">Combine (limit 1)</text>
<path d="M37.135,366.88L37.135,377.06L57.135,377.06L57.135,366.88Z" style="fill:#33A02C" />
<text x="60.135" y="-369.48" transform="scale(1, -1)"
	style="font-family:Liberation Serif;font-variant:normal;font-weight:normal;font-style:normal;font-size:12px;fill:#808080">Combine (limit 2)</text>
<path d="M37.135,353.86L37.135,364.04L57.135,364.04L57.135,353.86Z" style="fill:#FB9A99" />
<text x="60.135" y="-356.46" transform="scale(1, -1)"
	style="font-family:Liberation Serif;font-variant:normal;font-weight:normal;font-style:normal;font-size:12px;fill:#808080">Combine (limit 3)</text>
<path d="M37.135,340.84L37.135,351.02L57.135,351.02L57.135,340.84Z" style="fill:#E31A1C" />
<text x="60.135" y="-343.44" transform="scale(1, -1)"
	style="font-family:Liberation Serif;font-variant:normal;font-weight:normal;font-style:normal;font-size:12px;fill:#808080">Combine (limit 4)</text>
<path d="M37.135,327.82L37.135,338.01L57.135,338.01L57.135,327.82Z" style="fill:#FDBF6F" />
<text x="60.135" y="-330.43" transform="scale(1, -1)"
	style="font-family:Liberation Serif;font-variant:normal;font-weight:normal;font-style:normal;font-size:12px;fill:#808080">Combine (limit 8)</text>
</g>
</svg>
